<svg width="1908" height="1663" viewBox="0 0 1908 1663" fill="none" xmlns="http://www.w3.org/2000/svg">
<g filter="url(#filter0_f_351_4276)">
<circle cx="731.543" cy="731.5" r="266.5" fill="url(#paint0_radial_351_4276)"/>
</g>
<rect x="24.043" y="185" width="1440" height="1009" fill="url(#paint1_radial_351_4276)"/>
<path d="M437.035 210.82L422.552 220.553C419.794 222.406 418.226 224.294 417.849 226.216C417.472 228.138 418.211 230.478 420.065 233.237L504.417 358.751C506.271 361.509 508.159 363.077 510.081 363.454C512.003 363.831 514.343 363.092 517.101 361.238C524.458 356.295 529.583 350.514 532.477 343.897C535.526 337.51 536.653 330.746 535.859 323.605C534.672 314.391 532.449 305.373 529.19 296.551C525.855 288.113 523.647 283.09 522.566 281.481L529.462 276.846L567.834 339.156L437.148 426.985L394.293 367.687L401.19 363.053C402.271 364.662 406.203 368.527 412.986 374.647C419.693 381.151 427.089 386.693 435.172 391.272C441.483 394.705 448.172 396.217 455.238 395.806C462.458 395.626 469.746 393.064 477.102 388.12C479.861 386.266 481.429 384.378 481.806 382.456C482.183 380.535 481.444 378.194 479.59 375.436L395.238 249.922C393.384 247.163 391.496 245.596 389.574 245.219C387.652 244.842 385.312 245.58 382.553 247.434L368.071 257.167L362.509 248.892L431.473 202.544L437.035 210.82Z" fill="black"/>
<path d="M1426.17 874.354C1417.21 880.698 1407.16 885.168 1396.03 887.765C1385.06 890.249 1374.53 890.136 1364.44 887.427C1354.41 884.445 1346.21 878.473 1339.87 869.512C1332.73 859.431 1329.63 848.775 1330.57 837.542C1331.51 826.31 1334.6 816.432 1339.86 807.907L1339.52 807.427C1315.26 809.467 1296.44 801.047 1283.08 782.165C1275.6 771.604 1271.92 760.637 1272.04 749.264C1272.31 737.779 1275.39 727.194 1281.26 717.509C1287.19 707.551 1294.63 699.401 1303.59 693.057C1314.15 685.58 1324.37 681.35 1334.24 680.366C1344.27 679.268 1352.98 680.547 1360.38 684.202C1367.93 687.744 1373.69 692.315 1377.65 697.915C1383.32 705.916 1385.91 715.009 1385.43 725.195C1385.12 735.268 1382.77 744.5 1378.38 752.891L1379.06 753.851L1385.32 753.023C1398.04 750.98 1409.96 752.033 1421.06 756.182C1432.17 760.331 1440.61 766.486 1446.39 774.647C1453.75 785.048 1458.17 796.211 1459.65 808.138C1461.12 820.064 1459.11 831.816 1453.62 843.393C1448.12 854.971 1438.97 865.291 1426.17 874.354ZM1369.79 755.009C1374.38 747.917 1376.36 740.028 1375.73 731.342C1375 722.496 1372.08 714.473 1366.98 707.272C1362.33 700.711 1356.63 696.22 1349.87 693.798C1343.12 691.377 1336.25 690.835 1329.27 692.173C1322.33 693.238 1316.15 695.696 1310.71 699.548C1302.07 705.665 1295.46 713.466 1290.88 722.951C1286.47 732.323 1287.43 741.489 1293.77 750.45C1298.31 756.85 1303.2 760.711 1308.46 762.033C1313.72 763.354 1320.11 763.392 1327.64 762.148L1369.79 755.009ZM1427.22 862.085C1434.26 857.101 1439.59 851.402 1443.22 844.99C1446.73 838.419 1448.4 831.953 1448.22 825.593C1448.2 819.12 1446.44 813.404 1442.93 808.443C1438.4 802.043 1432.66 798.178 1425.71 796.85C1418.77 795.521 1410.96 795.523 1402.29 796.854L1348.52 805.379C1344.61 813.431 1342.73 821.127 1342.88 828.466C1342.92 835.646 1346.45 844.196 1353.47 854.117C1360.72 864.358 1369.06 870.706 1378.49 873.162C1387.96 875.344 1396.93 875.12 1405.39 872.489C1414.02 869.744 1421.29 866.277 1427.22 862.085Z" fill="black"/>
<path fill-rule="evenodd" clip-rule="evenodd" d="M24.043 627.224L28.31 626.245L24.4057 609.238C24.2411 608.521 24.1202 607.843 24.043 607.203L24.043 627.224ZM24.5757 569.13C24.3957 569.172 24.2181 569.21 24.043 569.246L23.9998 604.498C24.115 603.48 24.3984 602.61 24.8499 601.889C25.8898 600.23 28.0294 599.028 31.2688 598.285L104.154 581.552L122.747 662.536L49.8609 679.269C46.6215 680.012 44.172 679.864 42.5124 678.824C40.8528 677.784 39.6512 675.645 38.9075 672.405L35.0032 655.399L25.2851 657.63L43.8772 738.614L53.5952 736.383L49.6909 719.376C48.9472 716.137 49.0953 713.687 50.1352 712.028C51.175 710.368 53.3147 709.167 56.554 708.423L203.945 674.585C207.184 673.842 209.634 673.99 211.294 675.03C212.953 676.069 214.155 678.209 214.898 681.448L218.803 698.455L228.521 696.224L209.929 615.24L200.211 617.471L204.115 634.478C204.859 637.717 204.711 640.166 203.671 641.826C202.631 643.486 200.491 644.687 197.252 645.431L132.465 660.305L113.873 579.321L178.66 564.447C181.899 563.703 184.349 563.851 186.008 564.891C187.668 565.931 188.87 568.071 189.613 571.31L193.518 588.317L203.236 586.086L184.644 505.102L174.925 507.333L178.83 524.339C179.573 527.579 179.425 530.028 178.386 531.688C177.346 533.347 175.206 534.549 171.967 535.293L24.5757 569.13Z" fill="black"/>
<path d="M1044.19 1294.69L1076.24 1294.47C1084.25 1294.41 1088.23 1290.38 1088.17 1282.37L1086.34 1018C1086.32 1013.84 1085.26 1010.88 1083.17 1009.12C1081.37 1007.05 1078.4 1006.03 1074.24 1006.06L1042.2 1006.28L1042.1 992.041L1187.19 991.038C1204.7 990.917 1221.04 994.068 1236.22 1000.49C1251.69 1006.91 1264.07 1015.88 1273.35 1027.38C1282.62 1038.6 1287.31 1051.47 1287.41 1066.01C1287.55 1086.19 1280.84 1102.85 1267.28 1116C1253.72 1129.15 1237.91 1137.71 1219.84 1141.7L1219.85 1143.48C1232.02 1144.28 1244.06 1148.06 1255.98 1154.8C1268.19 1161.24 1278.19 1170.22 1285.99 1181.74C1294.08 1193.26 1298.17 1206.29 1298.27 1220.83C1298.4 1238.92 1293.76 1254.54 1284.35 1267.66C1274.95 1280.78 1262.26 1290.81 1246.29 1297.74C1230.6 1304.38 1213.27 1307.76 1194.28 1307.89L1044.29 1308.93L1044.19 1294.69ZM1186.41 1135.25C1210.44 1135.09 1226.72 1128.89 1235.24 1116.67C1244.06 1104.14 1248.39 1087.35 1248.25 1066.28C1248.12 1048.48 1242.38 1033.83 1231.03 1022.34C1219.67 1010.84 1205.69 1005.15 1189.07 1005.27L1139.22 1005.61C1135.07 1005.64 1131.96 1006.7 1129.9 1008.79C1128.13 1010.58 1127.26 1013.56 1127.29 1017.71L1128.11 1135.66L1186.41 1135.25ZM1189.29 1293.68C1207.39 1293.56 1222.18 1288.11 1233.68 1277.35C1245.47 1266.29 1251.28 1247.56 1251.1 1221.15C1250.91 1194.74 1244.85 1176.24 1232.91 1165.64C1221.26 1154.74 1206.39 1149.36 1188.29 1149.48L1128.2 1149.9L1129.12 1282.08C1129.17 1290.09 1133.21 1294.07 1141.22 1294.02L1189.29 1293.68Z" fill="black"/>
<path d="M1151.04 998.669H1165.2C1171.59 998.669 1176.17 997.559 1178.95 995.337C1181.72 992.838 1184.08 988.95 1186.03 983.674C1193.25 962.57 1198.8 939.245 1202.69 913.697C1206.58 888.15 1208.52 862.325 1208.52 836.223C1208.52 831.78 1207.41 827.892 1205.19 824.56C1203.24 821.228 1200.19 819.562 1196.02 819.562H1181.86V809.565H1335.98V819.562H1315.99C1313.49 819.562 1311.68 820.117 1310.57 821.228C1309.74 822.061 1309.32 823.727 1309.32 826.226V983.674C1309.32 988.673 1310.29 992.421 1312.24 994.921C1314.46 997.42 1317.93 998.669 1322.65 998.669H1345.14L1347.64 1071.98H1335.98C1335.7 1070.03 1334.59 1065.45 1332.65 1058.23C1330.7 1051.29 1328.2 1044.77 1325.15 1038.66C1320.71 1029.49 1315.57 1021.86 1309.74 1015.75C1303.91 1009.92 1296.13 1007 1286.41 1007H1209.77C1200.05 1007 1192.28 1009.92 1186.44 1015.75C1180.61 1021.86 1175.48 1029.49 1171.03 1038.66C1167.98 1045.04 1165.48 1051.71 1163.54 1058.65C1161.59 1065.59 1160.48 1070.03 1160.2 1071.98H1148.54L1151.04 998.669ZM1254.34 997.003C1258.78 997.003 1261 994.504 1261 989.506V826.226C1261 823.727 1260.45 822.061 1259.34 821.228C1258.5 820.117 1256.84 819.562 1254.34 819.562H1245.59C1236.15 819.562 1229.62 823.033 1226.02 829.975C1222.68 836.917 1220.74 846.22 1220.18 857.882C1219.63 874.821 1217.68 893.704 1214.35 914.53C1211.3 935.357 1207.97 952.573 1204.36 966.18C1201.58 976.177 1200.19 983.674 1200.19 988.673C1200.19 991.172 1201.16 993.255 1203.11 994.921C1205.05 996.309 1207.13 997.003 1209.35 997.003H1254.34Z" fill="black"/>
<g filter="url(#filter1_f_351_4276)">
<ellipse cx="1298.71" cy="985.32" rx="124.152" ry="324.489" transform="rotate(34.0844 1298.71 985.32)" fill="black"/>
</g>
<path d="M810.774 1323.69L822.751 1316.2C828.152 1312.82 831.44 1309.46 832.613 1306.11C833.875 1302.39 833.933 1297.78 832.787 1292.29C827.175 1268.68 819.978 1246.72 811.196 1226.41C802.649 1205.95 791.401 1184.56 777.451 1162.25C771.578 1152.86 766.058 1149.78 760.892 1153.01L746.096 1162.26L740.81 1153.8L867.625 1074.51L872.912 1082.97L858.116 1092.22C855.298 1093.98 853.669 1095.81 853.229 1097.72C852.789 1099.63 853.45 1101.99 855.212 1104.81L933.182 1229.51C936.207 1233.83 939.202 1236.53 942.168 1237.61C944.986 1238.47 948.392 1237.64 952.384 1235.15L971.406 1223.25L1012.28 1283.93L1005.24 1288.34C1004.21 1286.69 1000.34 1282.58 993.611 1276.01C987.268 1269.52 980.133 1263.85 972.206 1259.01C957.701 1250.44 943.52 1250.49 929.665 1259.15L862.03 1301.44C853.576 1306.73 848.028 1312.48 845.387 1318.71C842.746 1324.93 841.808 1332.05 842.572 1340.07C843.455 1349.31 845.306 1358.28 848.126 1366.97C851.328 1375.75 853.443 1380.96 854.47 1382.6L847.425 1387.01L810.774 1323.69ZM907.118 1261.49C909.936 1259.73 911.565 1257.89 912.005 1255.98C912.445 1254.08 911.784 1251.71 910.022 1248.89L829.849 1120.67C828.087 1117.85 826.252 1116.22 824.344 1115.78C822.435 1115.34 820.072 1116 817.254 1117.77L799.993 1128.56C785.667 1137.52 785.259 1152.8 798.768 1174.4C805.669 1185.44 812.792 1199.44 820.134 1216.41C827.477 1233.38 832.617 1246.82 835.555 1256.75C840.872 1274.65 844.852 1285.72 847.495 1289.95C848.817 1292.06 850.549 1293.27 852.693 1293.56C854.924 1293.47 857.096 1292.77 859.21 1291.44L907.118 1261.49Z" fill="black"/>
<path d="M154.404 1136.62H173.947C177.669 1136.62 180.306 1135.85 181.857 1134.3C183.408 1132.75 184.184 1130.11 184.184 1126.39V957.014C184.184 953.292 183.408 950.655 181.857 949.104C180.306 947.553 177.669 946.778 173.947 946.778C164.02 946.778 155.645 948.949 148.82 953.292C141.996 957.325 136.722 962.908 133 970.043C128.347 979.349 124.779 989.121 122.298 999.358C120.126 1009.28 119.041 1015.33 119.041 1017.5H109.734L112.992 935.61H289.344L292.135 1017.5H282.829C282.829 1015.33 281.588 1009.28 279.107 999.358C276.935 989.121 273.523 979.349 268.87 970.043C265.148 962.908 259.874 957.325 253.049 953.292C246.225 948.949 237.849 946.778 227.923 946.778C224.2 946.778 221.564 947.553 220.013 949.104C218.462 950.655 217.686 953.292 217.686 957.014V1126.39C217.686 1130.11 218.462 1132.75 220.013 1134.3C221.564 1135.85 224.2 1136.62 227.923 1136.62H247.466V1147.79H154.404V1136.62Z" fill="black"/>
<path d="M120.75 783.296V909.595C120.75 917.073 121.858 922.751 124.073 926.628C126.289 930.229 130.444 932.029 136.537 932.029H144.846V942H85.0207V932.029H93.3297C99.4231 932.029 103.578 930.229 105.793 926.628C108.009 922.751 109.117 917.073 109.117 909.595V771.664C109.117 768.34 108.425 765.986 107.04 764.601C105.655 763.216 103.301 762.524 99.977 762.524H85.0207V752.553H142.353L188.884 890.484L233.338 752.553H292.748V762.524H277.791C274.468 762.524 272.114 763.216 270.729 764.601C269.344 765.986 268.651 768.34 268.651 771.664V922.889C268.651 926.213 269.344 928.567 270.729 929.952C272.114 931.337 274.468 932.029 277.791 932.029H292.748V942H214.642V932.029H229.599C232.922 932.029 235.277 931.337 236.661 929.952C238.046 928.567 238.739 926.213 238.739 922.889V779.973L184.73 945.324H177.251L120.75 783.296Z" fill="black"/>
<path d="M648.559 199.296V325.595C648.559 333.073 649.667 338.751 651.883 342.628C654.099 346.229 658.253 348.029 664.347 348.029H672.656V358H612.83V348.029H621.139C627.233 348.029 631.387 346.229 633.603 342.628C635.819 338.751 636.927 333.073 636.927 325.595V187.664C636.927 184.34 636.234 181.986 634.849 180.601C633.464 179.216 631.11 178.524 627.787 178.524H612.83V168.553H670.163L716.694 306.484L761.147 168.553H820.557V178.524H805.601C802.277 178.524 799.923 179.216 798.538 180.601C797.153 181.986 796.461 184.34 796.461 187.664V338.889C796.461 342.213 797.153 344.567 798.538 345.952C799.923 347.337 802.277 348.029 805.601 348.029H820.557V358H742.452V348.029H757.408C760.732 348.029 763.086 347.337 764.471 345.952C765.856 344.567 766.548 342.213 766.548 338.889V195.973L712.539 361.324H705.061L648.559 199.296Z" fill="black"/>
<path d="M643.699 1219.37H649.053C654.745 1219.37 658.893 1215.85 661.498 1208.81L692.609 1120.97H696.227L727.628 1213C728.593 1215.41 729.75 1217.1 731.101 1218.07C732.451 1218.94 734.188 1219.37 736.31 1219.37H744.414V1224H699.555V1219.37H709.106C710.553 1219.37 711.759 1219.03 712.723 1218.36C713.688 1217.58 714.17 1216.72 714.17 1215.75C714.17 1214.5 713.977 1213.44 713.592 1212.57L706.79 1193.32H672.93L669.457 1203.02C668.106 1206.88 667.431 1209.67 667.431 1211.41C667.431 1213.53 667.961 1215.41 669.023 1217.05C670.084 1218.6 671.917 1219.37 674.521 1219.37H683.348V1224H643.699V1219.37ZM674.521 1188.69H705.199L690.149 1144.56L674.521 1188.69Z" fill="black"/>
<path d="M56.0977 882.802L52.1141 881.383C51.1182 881.029 50.7976 880.353 51.1522 879.358L62.8554 846.493C63.0393 845.976 63.2998 845.653 63.6368 845.524C63.95 845.345 64.3649 845.347 64.8813 845.531L68.8649 846.949L69.4954 845.179L39.6182 834.54L33.7923 848.799L35.1755 849.292C35.2912 849.084 35.5923 848.588 36.0788 847.805C36.5416 846.973 37.1741 846.013 37.9764 844.928C38.7919 843.805 39.6851 842.814 40.6562 841.954C41.8799 840.852 43.2633 840.119 44.8064 839.754C46.3494 839.389 48.0431 839.535 49.8874 840.192L56.8034 842.654C57.3198 842.838 57.6611 843.105 57.8273 843.455C57.9698 843.755 57.9491 844.164 57.7653 844.68L52.5441 859.342L42.6404 855.815C40.3166 854.988 38.05 854.7 35.8405 854.952C33.6072 855.155 31.6483 855.87 29.9638 857.099C28.2793 858.328 27.0627 859.994 26.314 862.096C25.5653 864.199 25.4553 866.258 25.9839 868.275C26.5125 870.292 27.5717 872.103 29.1614 873.709C30.7273 875.264 32.6721 876.455 34.9959 877.283L55.4672 884.572L56.0977 882.802ZM36.5669 875.847C34.0587 874.954 32.4534 873.509 31.751 871.514C31.0248 869.468 31.1674 867.025 32.1788 864.185C33.1902 861.344 34.6172 859.38 36.4599 858.29C38.2788 857.151 40.4423 857.028 42.9505 857.921L51.9136 861.113L46.062 877.545C45.7074 878.541 45.0321 878.861 44.0362 878.507L36.5669 875.847Z" fill="black"/>
<path d="M428.488 1109.27L424.259 1109.25C423.202 1109.25 422.676 1108.72 422.68 1107.66L422.818 1072.78C422.82 1072.23 422.958 1071.84 423.233 1071.6C423.469 1071.33 423.861 1071.19 424.41 1071.2L428.638 1071.21L428.646 1069.33L396.931 1069.21L396.165 1084.59L397.634 1084.6C397.674 1084.36 397.793 1083.8 397.993 1082.9C398.153 1081.96 398.432 1080.84 398.828 1079.55C399.225 1078.22 399.739 1076.99 400.37 1075.86C401.159 1074.41 402.22 1073.26 403.555 1072.41C404.89 1071.55 406.536 1071.12 408.494 1071.13L415.835 1071.16C416.383 1071.16 416.794 1071.3 417.067 1071.58C417.301 1071.81 417.417 1072.21 417.414 1072.75L417.353 1088.32L406.84 1088.28C404.373 1088.27 402.14 1088.75 400.139 1089.72C398.099 1090.65 396.489 1091.97 395.307 1093.69C394.126 1095.41 393.531 1097.39 393.522 1099.62C393.513 1101.85 394.092 1103.83 395.26 1105.56C396.428 1107.28 398.028 1108.64 400.06 1109.63C402.053 1110.57 404.283 1111.05 406.75 1111.06L428.48 1111.15L428.488 1109.27ZM407.756 1109.19C405.093 1109.18 403.1 1108.35 401.775 1106.7C400.411 1105.01 399.735 1102.66 399.747 1099.64C399.759 1096.63 400.454 1094.3 401.83 1092.66C403.168 1090.98 405.169 1090.15 407.831 1090.16L417.345 1090.2L417.276 1107.64C417.272 1108.7 416.742 1109.22 415.684 1109.22L407.756 1109.19Z" fill="black"/>
<path d="M174.765 813.896L180.771 815.878C182.272 816.373 183.271 815.87 183.766 814.368L200.115 764.816C200.372 764.038 200.36 763.417 200.081 762.955C199.876 762.456 199.384 762.078 198.605 761.821L192.599 759.839L193.48 757.17L240.029 772.527L233.482 793.493L231.396 792.804C231.763 791.692 232.137 789.719 232.517 786.884C232.953 784.068 232.824 781.374 232.131 778.802C230.97 774.472 228.276 771.61 224.049 770.215L210.785 765.839C210.006 765.582 209.358 765.584 208.84 765.845C208.397 766.069 208.046 766.57 207.789 767.348L200.386 789.789L206.809 791.908C209.646 792.844 212.153 792.067 214.33 789.579C216.563 787.109 218.221 784.234 219.304 780.952L221.473 781.668L211.62 811.533L209.451 810.817C210.533 807.536 210.912 804.238 210.587 800.924C210.318 797.629 208.765 795.513 205.929 794.577L199.505 792.458L191.441 816.9C190.946 818.402 191.449 819.4 192.95 819.896L206.298 824.299C207.91 824.832 209.67 825.011 211.577 824.839C213.484 824.666 215.269 824.022 216.933 822.906C218.559 821.715 220.119 820.072 221.612 817.974C223.106 815.877 224.304 813.929 225.205 812.13C226.126 810.275 226.705 809.079 226.944 808.541L229.03 809.229L220.433 831.923L173.884 816.565L174.765 813.896Z" fill="black"/>
<path d="M244.212 927.207H254.347C256.278 927.207 257.645 926.805 258.449 926C259.254 925.196 259.656 923.829 259.656 921.898V834.064C259.656 832.133 259.254 830.766 258.449 829.962C257.645 829.157 256.278 828.755 254.347 828.755H244.212V822.964H300.677C310.812 822.964 319.016 825.377 325.29 830.203C331.725 835.029 334.943 841.464 334.943 849.507C334.943 856.746 332.529 862.457 327.703 866.64C323.038 870.661 317.73 873.316 311.777 874.603V875.085C314.995 875.407 318.856 876.614 323.36 878.705C327.864 880.635 331.806 883.611 335.184 887.633C338.562 891.655 340.251 896.642 340.251 902.594C340.251 911.763 336.471 919.163 328.91 924.794C321.51 930.263 312.743 932.998 302.608 932.998H244.212V927.207ZM297.299 872.672C303.895 872.672 308.721 870.581 311.777 866.398C314.995 862.216 316.603 856.907 316.603 850.472C316.603 844.198 314.834 839.051 311.295 835.029C307.756 830.846 303.251 828.755 297.782 828.755H282.338C280.408 828.755 279.041 829.157 278.236 829.962C277.432 830.766 277.03 832.133 277.03 834.064V872.672H297.299ZM299.712 927.207C306.147 927.207 310.973 924.794 314.19 919.968C317.408 914.981 319.016 909.189 319.016 902.594C319.016 895.516 317.408 889.724 314.19 885.22C310.973 880.716 305.986 878.464 299.23 878.464H277.03V921.898C277.03 923.829 277.432 925.196 278.236 926C279.041 926.805 280.408 927.207 282.338 927.207H299.712Z" fill="black"/>
<path d="M1263.88 431.431L1255.34 442.038C1253.72 444.058 1252.99 445.828 1253.15 447.347C1253.32 448.866 1254.41 450.439 1256.43 452.064L1348.36 526.03C1350.38 527.656 1352.15 528.386 1353.67 528.222C1355.18 528.058 1356.76 526.965 1358.38 524.945L1366.92 514.338L1372.98 519.215L1325.43 578.31C1316.89 588.917 1307.46 595.472 1297.13 597.974C1286.66 600.644 1277.21 598.593 1268.79 591.819C1261.22 585.723 1257.27 578.388 1256.96 569.815C1256.68 561.546 1258.37 553.755 1262.04 546.442L1261.53 546.035C1258.49 549.132 1253.97 552.156 1247.99 555.109C1242.18 558.198 1235.74 559.817 1228.69 559.966C1221.63 560.115 1214.99 557.683 1208.76 552.67C1199.17 544.949 1194.61 534.761 1195.08 522.106C1195.59 509.755 1200.11 498.277 1208.64 487.67L1257.82 426.554L1263.88 431.431ZM1276.25 532.915C1270.7 539.818 1268.82 546.63 1270.62 553.351C1272.29 560.24 1276.49 566.394 1283.23 571.813C1289.79 577.096 1296.67 579.579 1303.86 579.262C1311.22 579.08 1317.2 576.127 1321.81 570.403L1334.81 554.24C1336.44 552.22 1337.17 550.45 1337 548.931C1336.84 547.411 1335.75 545.839 1333.73 544.213L1293.32 511.701L1276.25 532.915ZM1217.14 489.516C1211.72 496.251 1210.19 503.334 1212.53 510.765C1215.04 518.332 1219.74 524.892 1226.65 530.447C1234.05 536.407 1241.47 539.6 1248.89 540.026C1256.32 540.452 1262.87 537.129 1268.56 530.058L1287.26 506.824L1241.8 470.247C1239.78 468.622 1238.01 467.891 1236.49 468.056C1234.97 468.22 1233.4 469.313 1231.77 471.333L1217.14 489.516Z" fill="black"/>
<path d="M1012.99 1075.11C1024.44 1075.11 1034.38 1077.92 1042.81 1083.54C1051.02 1089.16 1055.13 1099.1 1055.13 1113.36C1055.13 1124.38 1052.32 1133.02 1046.7 1139.29C1041.08 1145.56 1034.6 1149.99 1027.25 1152.58C1019.69 1155.39 1010.61 1157.77 1000.02 1159.71L970.202 1165.22V1192.78C970.202 1212.87 980.251 1222.92 1000.35 1222.92C1007.7 1222.92 1014.39 1220.98 1020.44 1217.09C1026.5 1213.41 1029.52 1209.2 1029.52 1204.44C1029.52 1202.28 1029.2 1200.66 1028.55 1199.58C1028.12 1198.93 1027.47 1198.29 1026.6 1197.64C1025.52 1196.99 1024.55 1196.56 1023.69 1196.34C1019.8 1195.26 1016.88 1193.75 1014.93 1191.8C1012.77 1189.86 1011.69 1187.16 1011.69 1183.7C1011.69 1179.16 1013.1 1175.92 1015.91 1173.97C1018.5 1172.03 1021.85 1171.06 1025.96 1171.06C1030.71 1171.06 1035.03 1172.89 1038.92 1176.57C1042.81 1180.24 1044.76 1185.54 1044.76 1192.45C1044.76 1200.45 1042.59 1207.36 1038.27 1213.2C1033.73 1219.03 1028.01 1223.35 1021.09 1226.16C1013.96 1229.19 1006.72 1230.7 999.375 1230.7C985.113 1230.7 972.795 1226.92 962.423 1219.36C952.05 1212.01 946.864 1200.45 946.864 1184.67V1104.93C946.864 1094.13 943.514 1088.72 936.815 1088.72C931.413 1088.72 927.523 1091.86 925.146 1098.12C922.769 1104.39 921.58 1112.06 921.58 1121.14H915.746C915.746 1108.17 917.691 1097.26 921.58 1088.4C925.254 1079.54 931.953 1075.11 941.677 1075.11C950.97 1075.11 957.993 1077.81 962.747 1083.21C967.285 1088.83 969.77 1096.5 970.202 1106.23L971.823 1106.88C975.064 1099.31 980.359 1092.07 987.706 1085.16C994.837 1078.46 1003.27 1075.11 1012.99 1075.11ZM1007.8 1086.78C998.079 1086.78 990.515 1090.56 985.113 1098.12C979.494 1105.9 974.524 1115.74 970.202 1127.62V1158.42L998.403 1152.26C1008.78 1150.1 1016.34 1145.77 1021.09 1139.29C1025.63 1133.02 1027.9 1124.06 1027.9 1112.39C1027.9 1102.45 1025.85 1095.64 1021.74 1091.97C1017.64 1088.51 1012.99 1086.78 1007.8 1086.78Z" fill="black"/>
<path d="M316.751 1104.63C307.46 1104.63 298.93 1101.93 291.159 1096.52C283.389 1090.95 277.223 1083.52 272.662 1074.22C268.27 1064.93 266.074 1054.8 266.074 1043.82C266.074 1032.84 268.27 1022.7 272.662 1013.41C277.223 1004.12 283.389 996.774 291.159 991.369C298.93 985.795 307.46 983.007 316.751 983.007C326.041 983.007 334.572 985.795 342.342 991.369C350.113 996.774 356.194 1004.12 360.586 1013.41C365.147 1022.7 367.427 1032.84 367.427 1043.82C367.427 1054.8 365.147 1064.93 360.586 1074.22C356.194 1083.52 350.113 1090.95 342.342 1096.52C334.572 1101.93 326.041 1104.63 316.751 1104.63ZM316.751 1098.55C326.886 1098.55 334.15 1093.82 338.542 1084.36C342.933 1074.73 345.129 1061.22 345.129 1043.82C345.129 1026.42 342.933 1012.99 338.542 1003.53C334.15 993.903 326.886 989.088 316.751 989.088C306.615 989.088 299.352 993.903 294.96 1003.53C290.568 1012.99 288.372 1026.42 288.372 1043.82C288.372 1061.22 290.568 1074.73 294.96 1084.36C299.352 1093.82 306.615 1098.55 316.751 1098.55Z" fill="black"/>
<path d="M546.304 389.001C541.938 384.139 538.606 378.506 536.306 372.102C534.084 365.785 533.428 359.552 534.338 353.404C535.412 347.265 538.38 342.012 543.242 337.646C548.712 332.735 554.799 330.17 561.504 329.953C568.209 329.735 574.262 330.887 579.662 333.409L579.923 333.175C577.051 318.973 580.738 307.273 590.984 298.074C596.714 292.928 602.945 290 609.677 289.288C616.486 288.663 622.955 289.754 629.084 292.563C635.377 295.381 640.707 299.221 645.073 304.083C650.218 309.813 653.42 315.563 654.68 321.333C656.017 327.189 655.859 332.427 654.206 337.048C652.631 341.756 650.323 345.474 647.285 348.203C642.943 352.101 637.745 354.259 631.691 354.677C625.714 355.181 620.095 354.424 614.832 352.406L614.311 352.874L615.231 356.518C617.312 363.901 617.508 371.018 615.817 377.868C614.126 384.718 611.067 390.131 606.639 394.107C600.995 399.174 594.699 402.554 587.749 404.245C580.8 405.937 573.714 405.556 566.492 403.102C559.27 400.647 552.541 395.947 546.304 389.001ZM612.991 347.473C617.498 349.699 622.298 350.329 627.391 349.363C632.57 348.32 637.113 346.044 641.02 342.536C644.58 339.34 646.844 335.661 647.812 331.498C648.779 327.336 648.628 323.238 647.358 319.203C646.252 315.178 644.374 311.689 641.724 308.737C637.514 304.048 632.448 300.677 626.527 298.623C620.683 296.656 615.33 297.855 610.468 302.221C606.995 305.339 605.048 308.498 604.628 311.698C604.208 314.898 604.624 318.68 605.877 323.045L612.991 347.473ZM553.629 388.775C557.059 392.596 560.794 395.358 564.834 397.063C568.961 398.69 572.898 399.232 576.645 398.69C580.471 398.235 583.729 396.799 586.421 394.382C589.894 391.264 591.785 387.606 592.093 383.408C592.402 379.211 591.865 374.596 590.483 369.564L581.751 338.355C576.723 336.597 572.044 336.015 567.715 336.608C563.473 337.124 558.661 339.798 553.278 344.631C547.721 349.621 544.54 354.986 543.735 360.727C543.095 366.477 543.844 371.764 545.98 376.589C548.195 381.501 550.744 385.563 553.629 388.775Z" fill="black"/>
<path d="M37.6096 754.913L44.0836 754.877C45.3167 754.871 46.1888 754.609 46.6998 754.092C47.2108 753.576 47.4629 752.701 47.4561 751.468L47.1484 695.36C47.1416 694.126 46.8799 693.254 46.3633 692.743C45.8467 692.232 44.9718 691.98 43.7387 691.987L37.2646 692.023L37.2444 688.323L68.0729 688.154L68.0932 691.854L61.6192 691.889C60.3861 691.896 59.514 692.157 59.003 692.674C58.492 693.191 58.2399 694.066 58.2467 695.299L58.5544 751.407C58.5612 752.64 58.8229 753.512 59.3395 754.023C59.8562 754.534 60.731 754.786 61.9642 754.779L81.3862 754.673C82.6193 754.666 83.4914 754.404 84.0024 753.888C84.5134 753.371 84.7655 752.496 84.7587 751.263L84.451 695.155C84.4442 693.922 84.1825 693.05 83.6659 692.539C83.1493 692.028 82.2744 691.776 81.0412 691.782L74.5672 691.818L74.5469 688.119L105.376 687.949L105.396 691.649L98.9218 691.684C97.6887 691.691 96.8166 691.953 96.3056 692.47C95.7946 692.986 95.5425 693.861 95.5493 695.094L95.857 751.202C95.8638 752.435 96.1255 753.307 96.6421 753.818C97.1588 754.329 98.0336 754.582 99.2668 754.575L118.689 754.468C119.922 754.461 120.794 754.2 121.305 753.683C121.816 753.166 122.068 752.292 122.061 751.058L121.754 694.95C121.747 693.717 121.485 692.845 120.968 692.334C120.452 691.823 119.577 691.571 118.344 691.578L111.87 691.613L111.85 687.914L142.678 687.745L142.698 691.444L136.224 691.48C134.991 691.487 134.119 691.748 133.608 692.265C133.097 692.782 132.845 693.656 132.852 694.89L133.16 750.998C133.166 752.231 133.428 753.103 133.945 753.614C134.461 754.125 135.336 754.377 136.569 754.37L143.043 754.335L143.064 758.034L37.6299 758.612L37.6096 754.913Z" fill="black"/>
<path d="M393.574 1041.68H412.267C415.827 1041.68 418.35 1042.42 419.833 1043.91C421.317 1045.39 422.059 1047.91 422.059 1051.47V1213.48C422.059 1217.04 421.317 1219.56 419.833 1221.05C418.35 1222.53 415.827 1223.27 412.267 1223.27C402.772 1223.27 394.76 1221.2 388.233 1217.04C381.705 1213.19 376.661 1207.84 373.1 1201.02C368.649 1192.12 365.237 1182.77 362.863 1172.98C360.786 1163.48 359.748 1157.7 359.748 1155.62H350.846L353.962 1233.96H522.646L525.317 1155.62H516.415C516.415 1157.7 515.228 1163.48 512.854 1172.98C510.777 1182.77 507.513 1192.12 503.063 1201.02C499.502 1207.84 494.458 1213.19 487.93 1217.04C481.402 1221.2 473.391 1223.27 463.896 1223.27C460.335 1223.27 457.813 1222.53 456.33 1221.05C454.846 1219.56 454.104 1217.04 454.104 1213.48V1051.47C454.104 1047.91 454.846 1045.39 456.33 1043.91C457.813 1042.42 460.335 1041.68 463.896 1041.68H482.589V1031H393.574V1041.68Z" fill="black"/>
<path d="M490.811 1201.81H497.928C501.138 1201.81 503.44 1201.26 504.836 1200.14C506.371 1198.88 507.627 1196.93 508.604 1194.28C512.511 1182.69 515.302 1171.39 516.977 1160.37C518.791 1149.34 519.698 1137.2 519.698 1123.94C519.698 1118.36 518.163 1115.57 515.093 1115.57H506.301V1110.55H581.66V1115.57H572.868C571.193 1115.57 570.007 1115.92 569.309 1116.62C568.611 1117.31 568.263 1118.5 568.263 1120.18V1194.28C568.402 1196.93 568.96 1198.88 569.937 1200.14C570.914 1201.26 572.589 1201.81 574.961 1201.81H586.265L587.521 1238.66H583.334C583.334 1237.68 582.776 1234.89 581.66 1230.28C580.683 1225.82 579.148 1221.49 577.054 1217.3C573.147 1209.77 567.076 1206 558.843 1206H518.652C513.628 1206 509.72 1206.98 506.929 1208.93C504.138 1210.88 501.836 1213.68 500.021 1217.3C497.928 1221.49 496.323 1225.82 495.207 1230.28C494.23 1234.89 493.741 1237.68 493.741 1238.66H489.555L490.811 1201.81ZM548.586 1200.98C550.26 1200.98 551.446 1200.63 552.144 1199.93C552.842 1199.23 553.191 1198.05 553.191 1196.37V1120.18C553.191 1118.5 552.842 1117.31 552.144 1116.62C551.446 1115.92 550.26 1115.57 548.586 1115.57H538.329C529.816 1115.57 525.559 1121.99 525.559 1134.83C525.559 1141.39 524.862 1149.27 523.466 1158.48C522.071 1167.69 520.675 1174.81 519.28 1179.83C516.768 1188.9 515.512 1194.7 515.512 1197.21C515.512 1198.46 515.93 1199.44 516.768 1200.14C517.745 1200.7 518.861 1200.98 520.117 1200.98H548.586Z" fill="black"/>
<path d="M586.768 1204.97H594.722C595.978 1204.97 596.815 1204.76 597.234 1204.35C597.792 1203.79 598.071 1202.88 598.071 1201.62V1120.82C598.071 1117.47 596.048 1115.8 592.001 1115.8C588.093 1115.8 584.884 1117.2 582.372 1119.99C579.86 1122.64 577.697 1126.06 575.883 1130.24C573.929 1134.57 572.464 1138.97 571.487 1143.43C570.51 1147.9 570.021 1150.55 570.021 1151.39H564.579L565.835 1110.78H633.239V1115.8H626.121C624.726 1115.8 623.749 1116.15 623.191 1116.85C622.633 1117.54 622.354 1118.8 622.354 1120.61V1155.99H642.449C651.101 1155.99 658.288 1158.57 664.01 1163.74C669.732 1168.9 672.593 1175.25 672.593 1182.79C672.593 1187.81 671.267 1192.41 668.615 1196.6C666.103 1200.65 662.545 1203.93 657.939 1206.44C653.334 1208.81 648.171 1210 642.449 1210H586.768V1204.97ZM633.657 1204.97C637.983 1204.97 641.263 1202.88 643.496 1198.69C645.868 1194.51 647.054 1189.2 647.054 1182.79C647.054 1176.37 645.938 1171.13 643.705 1167.09C641.472 1163.04 638.123 1161.02 633.657 1161.02H622.354V1201.62C622.354 1202.88 622.563 1203.79 622.982 1204.35C623.54 1204.76 624.447 1204.97 625.703 1204.97H633.657Z" fill="black"/>
<path d="M1236.92 767.942H1248.09C1249.86 767.942 1251.03 767.648 1251.62 767.06C1252.41 766.275 1252.8 765.001 1252.8 763.237V714.712C1239.27 718.83 1227.11 720.888 1216.33 720.888C1206.53 720.888 1198.49 718.339 1192.22 713.242C1185.94 707.948 1182.81 700.302 1182.81 690.303V647.367C1182.81 645.602 1182.41 644.426 1181.63 643.838C1181.04 643.053 1179.86 642.661 1178.1 642.661H1166.92V635.603H1231.04V642.661H1221.62C1219.86 642.661 1218.59 643.053 1217.8 643.838C1217.21 644.426 1216.92 645.602 1216.92 647.367V698.832C1216.92 703.733 1217.8 707.262 1219.57 709.419C1221.33 711.575 1224.17 712.654 1228.09 712.654C1231.43 712.654 1235.54 712.164 1240.45 711.183C1245.35 710.007 1249.46 708.831 1252.8 707.654V647.367C1252.8 645.602 1252.41 644.426 1251.62 643.838C1251.03 643.053 1249.86 642.661 1248.09 642.661H1238.68V635.603H1302.79V642.661H1291.62C1289.85 642.661 1288.58 643.053 1287.79 643.838C1287.21 644.426 1286.91 645.602 1286.91 647.367V763.237C1286.91 765.001 1287.21 766.275 1287.79 767.06C1288.58 767.648 1289.85 767.942 1291.62 767.942H1302.79V775H1236.92V767.942Z" fill="black"/>
<path d="M1002.27 1076.75L1004.67 1077.39C1007.22 1078.07 1009.5 1077 1011.51 1074.15L1035.97 1038.56L1037.59 1038.99L1040.61 1083.97C1040.76 1085.16 1041.07 1086.06 1041.56 1086.65C1042.06 1087.2 1042.79 1087.6 1043.74 1087.86L1047.37 1088.83L1046.81 1090.9L1026.73 1085.52L1027.28 1083.45L1031.56 1084.59C1032.2 1084.77 1032.79 1084.76 1033.3 1084.58C1033.82 1084.35 1034.14 1084.01 1034.26 1083.58C1034.41 1083.02 1034.45 1082.52 1034.38 1082.09L1033.64 1072.65L1018.48 1068.59L1015.77 1072.52C1014.7 1074.08 1014.06 1075.26 1013.85 1076.03C1013.6 1076.98 1013.61 1077.89 1013.89 1078.75C1014.18 1079.57 1014.91 1080.13 1016.07 1080.45L1020.02 1081.51L1019.47 1083.58L1001.72 1078.82L1002.27 1076.75ZM1019.75 1066.71L1033.49 1070.39L1032.04 1048.82L1019.75 1066.71Z" fill="black"/>
<path d="M1321.07 684.286C1314.25 681.044 1309.22 676.078 1305.97 669.388C1302.82 662.747 1301.68 654.871 1302.53 645.76C1303.44 636.545 1306.41 626.638 1311.45 616.041C1315.54 607.437 1320.66 599.515 1326.8 592.273C1332.94 585.031 1339.41 579.68 1346.2 576.219C1358.55 569.997 1369.86 569.329 1380.15 574.217C1387.59 577.758 1392.43 583.143 1394.65 590.374C1395.33 593.011 1395.43 595.633 1394.97 598.24C1394.6 600.898 1394 603.118 1393.15 604.902C1391.41 608.574 1388.67 610.941 1384.95 612.003C1382.42 612.729 1379.9 612.493 1377.38 611.296C1374.96 610.149 1373.52 608.307 1373.06 605.77C1372.88 604.787 1372.84 603.93 1372.93 603.201C1373.12 602.521 1373.47 601.657 1373.97 600.608C1374.72 599.034 1376.15 597.784 1378.26 596.859C1379.7 596.258 1381.12 595.84 1382.52 595.605C1383.76 595.424 1384.69 595.094 1385.31 594.614C1386.08 594.079 1386.68 593.339 1387.13 592.395C1388.03 590.506 1387.7 588.356 1386.15 585.945C1384.75 583.479 1381.84 581.198 1377.44 579.103C1373.66 577.308 1369.52 576.689 1365.01 577.247C1360.6 577.854 1356.02 580.18 1351.27 584.224C1347.64 587.258 1343.96 591.489 1340.22 596.916C1336.48 602.343 1333.67 607.05 1331.77 611.037L1328.41 618.119L1329.28 619.115C1333.07 616.025 1337.5 614.144 1342.58 613.471C1347.81 612.743 1352.27 613.252 1355.94 614.998C1362.97 618.339 1368.07 622.888 1371.25 628.645C1373.95 633.528 1375.2 639.011 1375.01 645.094C1374.87 651.073 1373.45 656.895 1370.76 662.561C1368.07 668.227 1364.09 673.347 1358.83 677.921C1353.62 682.39 1347.65 685.341 1340.92 686.774C1334.3 688.257 1327.68 687.428 1321.07 684.286ZM1323.47 679.249C1329.87 682.292 1335.93 681.443 1341.66 676.704C1347.49 672.015 1352.25 665.788 1355.94 658.024C1359.93 649.63 1361.99 642.054 1362.11 635.297C1362.24 628.539 1359.36 623.763 1353.48 620.971C1349.81 619.225 1345.93 618.861 1341.85 619.878C1337.76 620.894 1333.76 623.235 1329.83 626.899C1326.06 630.507 1322.8 635.197 1320.05 640.968C1315.92 649.677 1313.86 657.512 1313.9 664.475C1313.98 671.332 1317.17 676.257 1323.47 679.249Z" fill="black"/>
<defs>
<filter id="filter0_f_351_4276" x="345.043" y="345" width="773" height="773" filterUnits="userSpaceOnUse" color-interpolation-filters="sRGB">
<feFlood flood-opacity="0" result="BackgroundImageFix"/>
<feBlend mode="normal" in="SourceGraphic" in2="BackgroundImageFix" result="shape"/>
<feGaussianBlur stdDeviation="60" result="effect1_foregroundBlur_351_4276"/>
</filter>
<filter id="filter1_f_351_4276" x="689.772" y="307.646" width="1217.88" height="1355.35" filterUnits="userSpaceOnUse" color-interpolation-filters="sRGB">
<feFlood flood-opacity="0" result="BackgroundImageFix"/>
<feBlend mode="normal" in="SourceGraphic" in2="BackgroundImageFix" result="shape"/>
<feGaussianBlur stdDeviation="200" result="effect1_foregroundBlur_351_4276"/>
</filter>
<radialGradient id="paint0_radial_351_4276" cx="0" cy="0" r="1" gradientUnits="userSpaceOnUse" gradientTransform="translate(731.543 731.5) rotate(37.576) scale(437.019 813.921)">
<stop stop-color="white"/>
<stop offset="1" stop-color="#5F5F5F"/>
</radialGradient>
<radialGradient id="paint1_radial_351_4276" cx="0" cy="0" r="1" gradientTransform="matrix(-8.39859e-06 538 -768.302 19.9582 744.043 747)" gradientUnits="userSpaceOnUse">
<stop stop-color="white"/>
<stop offset="0.552494" stop-color="#515151"/>
<stop offset="0.621823" stop-color="#3B3B3B"/>
<stop offset="0.769442" stop-color="#1A1A1A"/>
<stop offset="0.791582" stop-color="#121212"/>
<stop offset="0.848668" stop-color="#060606"/>
<stop offset="0.980825"/>
</radialGradient>
</defs>
</svg>
