<svg width="1630" height="1470" viewBox="0 0 1630 1470" fill="none" xmlns="http://www.w3.org/2000/svg">
<g filter="url(#filter0_f_442_1227)">
<circle cx="707.501" cy="741.502" r="266.5" fill="url(#paint0_radial_442_1227)"/>
</g>
<path d="M0 153H1438.5L1440 1204H1.49844L0 153Z" fill="url(#paint1_radial_442_1227)"/>
<path d="M412.992 220.822L398.509 230.555C395.751 232.408 394.183 234.296 393.806 236.218C393.429 238.14 394.168 240.48 396.022 243.239L480.374 368.753C482.228 371.511 484.116 373.079 486.038 373.456C487.96 373.833 490.3 373.094 493.058 371.24C500.415 366.297 505.54 360.516 508.434 353.899C511.483 347.512 512.61 340.748 511.816 333.607C510.629 324.393 508.406 315.375 505.147 306.553C501.812 298.115 499.604 293.092 498.523 291.483L505.419 286.848L543.791 349.158L413.105 436.987L370.25 377.689L377.147 373.055C378.228 374.664 382.16 378.529 388.943 384.649C395.65 391.153 403.046 396.695 411.129 401.274C417.44 404.707 424.129 406.219 431.195 405.808C438.415 405.628 445.703 403.066 453.059 398.122C455.818 396.268 457.386 394.38 457.763 392.458C458.14 390.537 457.401 388.196 455.547 385.438L371.195 259.924C369.341 257.165 367.453 255.598 365.531 255.221C363.609 254.844 361.269 255.582 358.51 257.436L344.028 267.169L338.466 258.893L407.43 212.546L412.992 220.822Z" fill="black"/>
<path fill-rule="evenodd" clip-rule="evenodd" d="M1315.83 879.514C1322.17 888.475 1330.36 894.447 1340.4 897.429L1350 881.685C1342.38 878.576 1335.52 872.72 1329.43 864.119C1322.41 854.198 1318.88 845.648 1318.84 838.468C1318.69 831.129 1320.57 823.433 1324.47 815.381L1355.01 810.54L1361.27 763.025L1355.01 763.853L1354.34 762.893C1358.72 754.501 1361.08 745.269 1361.39 735.197C1361.87 725.011 1359.27 715.918 1353.61 707.917C1349.64 702.317 1343.89 697.745 1336.33 694.204C1328.94 690.549 1320.23 689.27 1310.2 690.367C1300.32 691.351 1290.11 695.582 1279.55 703.059C1270.59 709.403 1263.14 717.553 1257.22 727.511C1251.35 737.195 1248.27 747.781 1247.99 759.266C1247.88 770.639 1251.56 781.605 1259.03 792.166C1272.4 811.048 1291.22 819.469 1315.47 817.429L1315.81 817.909C1310.56 826.434 1307.46 836.312 1306.53 847.544C1305.59 858.776 1308.69 869.433 1315.83 879.514ZM1351.69 741.344C1352.32 750.03 1350.33 757.919 1345.75 765.011L1303.6 772.149C1296.07 773.394 1289.68 773.356 1284.42 772.035C1279.16 770.713 1274.26 766.852 1269.73 760.452C1263.39 751.491 1262.42 742.325 1266.84 732.953C1271.41 723.468 1278.02 715.667 1286.66 709.55C1292.1 705.698 1298.29 703.24 1305.22 702.175C1312.2 700.837 1319.07 701.379 1325.83 703.8C1332.59 706.222 1338.29 710.713 1342.94 717.274C1348.04 724.474 1350.95 732.498 1351.69 741.344Z" fill="black"/>
<path fill-rule="evenodd" clip-rule="evenodd" d="M148.342 544.191L124.501 549.664L105.501 584.717L155.035 573.345C158.274 572.602 160.724 572.75 162.383 573.79C164.043 574.829 165.245 576.969 165.988 580.208L169.893 597.215L179.611 594.984L161.019 514L151.3 516.231L155.205 533.238C155.948 536.477 155.8 538.927 154.761 540.586C153.721 542.246 151.581 543.447 148.342 544.191ZM99.1216 671.434L82.0826 597.215L91.8007 594.984L108.84 669.203L173.627 654.329C176.866 653.586 179.006 652.384 180.046 650.725C181.086 649.065 181.234 646.615 180.49 643.376L176.586 626.369L186.304 624.138L204.896 705.122L195.178 707.353L191.273 690.347C190.53 687.107 189.328 684.968 187.669 683.928C186.009 682.888 183.559 682.74 180.32 683.484L71.3531 708.5L75.001 681.366L80.5295 675.702L99.1216 671.434Z" fill="black"/>
<path d="M1020.15 1304.69L1052.2 1304.47C1060.21 1304.41 1064.18 1300.38 1064.13 1292.37L1062.3 1028C1062.27 1023.84 1061.21 1020.88 1059.12 1019.12C1057.33 1017.05 1054.36 1016.03 1050.2 1016.06L1018.16 1016.29L1018.06 1002.04L1163.15 1001.04C1180.66 1000.92 1197 1004.07 1212.18 1010.49C1227.65 1016.91 1240.03 1025.88 1249.3 1037.39C1258.58 1048.6 1263.27 1061.47 1263.37 1076.01C1263.51 1096.19 1256.8 1112.85 1243.24 1126C1229.68 1139.15 1213.87 1147.72 1195.79 1151.7L1195.81 1153.48C1207.98 1154.29 1220.02 1158.06 1231.94 1164.8C1244.15 1171.25 1254.15 1180.23 1261.94 1191.74C1270.03 1203.26 1274.13 1216.29 1274.23 1230.83C1274.36 1248.93 1269.72 1264.54 1260.31 1277.66C1250.91 1290.78 1238.22 1300.81 1222.24 1307.74C1206.56 1314.38 1189.23 1317.76 1170.24 1317.89L1020.25 1318.93L1020.15 1304.69ZM1162.37 1145.25C1186.4 1145.09 1202.68 1138.89 1211.2 1126.67C1220.01 1114.14 1224.35 1097.35 1224.2 1076.28C1224.08 1058.48 1218.34 1043.83 1206.99 1032.34C1195.63 1020.84 1181.64 1015.15 1165.03 1015.27L1115.18 1015.61C1111.03 1015.64 1107.92 1016.7 1105.86 1018.79C1104.09 1020.59 1103.22 1023.56 1103.25 1027.71L1104.06 1145.66L1162.37 1145.25ZM1165.24 1303.69C1183.34 1303.56 1198.14 1298.12 1209.64 1287.36C1221.43 1276.29 1227.24 1257.56 1227.05 1231.15C1226.87 1204.75 1220.81 1186.24 1208.87 1175.64C1197.22 1164.75 1182.35 1159.36 1164.25 1159.48L1104.16 1159.9L1105.08 1292.08C1105.13 1300.1 1109.16 1304.07 1117.18 1304.02L1165.24 1303.69Z" fill="black"/>
<path d="M1127 1008.67H1141.16C1147.55 1008.67 1152.13 1007.56 1154.91 1005.34C1157.68 1002.84 1160.04 998.952 1161.99 993.676C1169.21 972.572 1174.76 949.246 1178.65 923.699C1182.53 898.152 1184.48 872.327 1184.48 846.225C1184.48 841.782 1183.37 837.894 1181.15 834.562C1179.2 831.23 1176.15 829.564 1171.98 829.564H1157.82V819.567H1311.94V829.564H1291.94C1289.44 829.564 1287.64 830.119 1286.53 831.23C1285.7 832.063 1285.28 833.729 1285.28 836.228V993.676C1285.28 998.675 1286.25 1002.42 1288.19 1004.92C1290.42 1007.42 1293.89 1008.67 1298.61 1008.67H1321.1L1323.6 1081.98H1311.94C1311.66 1080.04 1310.55 1075.45 1308.6 1068.24C1306.66 1061.29 1304.16 1054.77 1301.11 1048.66C1296.66 1039.49 1291.53 1031.86 1285.7 1025.75C1279.86 1019.92 1272.09 1017 1262.37 1017H1185.73C1176.01 1017 1168.23 1019.92 1162.4 1025.75C1156.57 1031.86 1151.43 1039.49 1146.99 1048.66C1143.94 1055.04 1141.44 1061.71 1139.49 1068.65C1137.55 1075.59 1136.44 1080.04 1136.16 1081.98H1124.5L1127 1008.67ZM1230.3 1007.01C1234.74 1007.01 1236.96 1004.51 1236.96 999.508V836.228C1236.96 833.729 1236.41 832.063 1235.3 831.23C1234.46 830.119 1232.8 829.564 1230.3 829.564H1221.55C1212.11 829.564 1205.58 833.035 1201.97 839.977C1198.64 846.919 1196.7 856.222 1196.14 867.884C1195.59 884.823 1193.64 903.706 1190.31 924.532C1187.26 945.359 1183.92 962.575 1180.31 976.182C1177.54 986.179 1176.15 993.676 1176.15 998.675C1176.15 1001.17 1177.12 1003.26 1179.06 1004.92C1181.01 1006.31 1183.09 1007.01 1185.31 1007.01H1230.3Z" fill="black"/>
<g filter="url(#filter1_f_442_1227)">
<ellipse cx="1156.77" cy="914.381" rx="43.0744" ry="112.581" transform="rotate(34.0844 1156.77 914.381)" fill="black"/>
</g>
<path d="M786.731 1333.69L798.708 1326.2C804.109 1322.83 807.397 1319.46 808.571 1316.12C809.832 1312.39 809.89 1307.78 808.744 1302.29C803.132 1278.68 795.935 1256.73 787.153 1236.41C778.606 1215.95 767.358 1194.56 753.409 1172.25C747.535 1162.86 742.015 1159.78 736.849 1163.01L722.053 1172.26L716.767 1163.81L843.582 1084.51L848.869 1092.97L834.073 1102.22C831.255 1103.98 829.626 1105.82 829.186 1107.72C828.746 1109.63 829.407 1112 831.169 1114.81L909.139 1239.52C912.164 1243.83 915.159 1246.53 918.125 1247.62C920.943 1248.47 924.349 1247.64 928.341 1245.15L947.363 1233.25L988.242 1293.93L981.196 1298.34C980.169 1296.69 976.292 1292.58 969.568 1286.01C963.225 1279.52 956.09 1273.86 948.163 1269.01C933.658 1260.44 919.478 1260.49 905.622 1269.15L837.987 1311.44C829.533 1316.73 823.985 1322.48 821.344 1328.71C818.703 1334.93 817.765 1342.05 818.529 1350.07C819.412 1359.32 821.263 1368.28 824.083 1376.97C827.285 1385.75 829.4 1390.96 830.427 1392.61L823.382 1397.01L786.731 1333.69ZM883.075 1271.49C885.893 1269.73 887.522 1267.89 887.962 1265.99C888.402 1264.08 887.741 1261.71 885.979 1258.9L805.806 1130.67C804.044 1127.85 802.209 1126.23 800.301 1125.78C798.392 1125.34 796.029 1126.01 793.211 1127.77L775.95 1138.56C761.624 1147.52 761.216 1162.8 774.725 1184.4C781.626 1195.44 788.749 1209.44 796.091 1226.41C803.434 1243.38 808.574 1256.83 811.512 1266.75C816.829 1284.66 820.809 1295.72 823.452 1299.95C824.774 1302.06 826.506 1303.27 828.65 1303.56C830.881 1303.47 833.053 1302.77 835.167 1301.45L883.075 1271.49Z" fill="black"/>
<path d="M131.84 1136.62H151.383C155.105 1136.62 157.742 1135.85 159.293 1134.3C160.844 1132.75 161.619 1130.11 161.619 1126.39V957.014C161.619 953.292 160.844 950.655 159.293 949.104C157.742 947.553 155.105 946.778 151.383 946.778C141.456 946.778 133.08 948.949 126.256 953.292C119.431 957.325 114.158 962.908 110.435 970.043C105.782 979.349 102.215 989.121 99.7333 999.358C97.5619 1009.28 96.4761 1015.33 96.4761 1017.5H87.17L90.4271 935.61H266.779L269.571 1017.5H260.265C260.265 1015.33 259.024 1009.28 256.542 999.358C254.371 989.121 250.959 979.349 246.306 970.043C242.583 962.908 237.31 957.325 230.485 953.292C223.661 948.949 215.285 946.778 205.358 946.778C201.636 946.778 198.999 947.553 197.448 949.104C195.897 950.655 195.122 953.292 195.122 957.014V1126.39C195.122 1130.11 195.897 1132.75 197.448 1134.3C198.999 1135.85 201.636 1136.62 205.358 1136.62H224.901V1147.79H131.84V1136.62Z" fill="black"/>
<path d="M98.2087 783.296V909.595C98.2087 917.073 99.3166 922.751 101.532 926.628C103.748 930.229 107.903 932.029 113.996 932.029H122.305V942H62.4796V932.029H70.7887C76.8821 932.029 81.0366 930.229 83.2524 926.628C85.4681 922.751 86.576 917.073 86.576 909.595V771.664C86.576 768.34 85.8836 765.986 84.4987 764.601C83.1139 763.216 80.7596 762.524 77.436 762.524H62.4796V752.553H119.812L166.343 890.484L210.797 752.553H270.207V762.524H255.25C251.927 762.524 249.573 763.216 248.188 764.601C246.803 765.986 246.11 768.34 246.11 771.664V922.889C246.11 926.213 246.803 928.567 248.188 929.952C249.573 931.337 251.927 932.029 255.25 932.029H270.207V942H192.101V932.029H207.058C210.381 932.029 212.736 931.337 214.12 929.952C215.505 928.567 216.198 926.213 216.198 922.889V779.973L162.189 945.324H154.71L98.2087 783.296Z" fill="black"/>
<path d="M625.457 199.296V325.595C625.457 333.073 626.565 338.751 628.78 342.628C630.996 346.229 635.151 348.029 641.244 348.029H649.553V358H589.728V348.029H598.037C604.13 348.029 608.285 346.229 610.5 342.628C612.716 338.751 613.824 333.073 613.824 325.595V187.664C613.824 184.34 613.132 181.986 611.747 180.601C610.362 179.216 608.008 178.524 604.684 178.524H589.728V168.553H647.06L693.591 306.484L738.045 168.553H797.455V178.524H782.498C779.175 178.524 776.821 179.216 775.436 180.601C774.051 181.986 773.358 184.34 773.358 187.664V338.889C773.358 342.213 774.051 344.567 775.436 345.952C776.821 347.337 779.175 348.029 782.498 348.029H797.455V358H719.349V348.029H734.306C737.629 348.029 739.984 347.337 741.368 345.952C742.753 344.567 743.446 342.213 743.446 338.889V195.973L689.437 361.324H681.959L625.457 199.296Z" fill="black"/>
<path d="M620.554 1219.37H625.908C631.6 1219.37 635.748 1215.85 638.352 1208.81L669.464 1120.97H673.082L704.482 1213C705.447 1215.41 706.605 1217.1 707.955 1218.07C709.306 1218.94 711.042 1219.37 713.165 1219.37H721.268V1224H676.41V1219.37H685.96C687.407 1219.37 688.613 1219.03 689.578 1218.36C690.543 1217.58 691.025 1216.72 691.025 1215.75C691.025 1214.5 690.832 1213.44 690.446 1212.57L683.645 1193.32H649.784L646.311 1203.02C644.961 1206.88 644.285 1209.67 644.285 1211.41C644.285 1213.53 644.816 1215.41 645.877 1217.05C646.938 1218.6 648.771 1219.37 651.376 1219.37H660.203V1224H620.554V1219.37ZM651.376 1188.69H682.053L667.004 1144.56L651.376 1188.69Z" fill="black"/>
<path d="M405.56 1109.27L401.332 1109.25C400.274 1109.25 399.748 1108.72 399.752 1107.66L399.89 1072.77C399.892 1072.23 400.031 1071.84 400.306 1071.6C400.542 1071.33 400.934 1071.19 401.482 1071.2L405.711 1071.21L405.718 1069.33L374.003 1069.21L373.238 1084.59L374.706 1084.6C374.746 1084.36 374.866 1083.8 375.065 1082.9C375.225 1081.96 375.504 1080.84 375.901 1079.55C376.297 1078.22 376.811 1076.99 377.442 1075.86C378.231 1074.41 379.293 1073.26 380.627 1072.41C381.962 1071.55 383.608 1071.12 385.566 1071.13L392.907 1071.16C393.455 1071.16 393.866 1071.3 394.139 1071.58C394.373 1071.81 394.489 1072.21 394.487 1072.75L394.425 1088.32L383.912 1088.28C381.446 1088.27 379.212 1088.75 377.211 1089.72C375.172 1090.65 373.561 1091.97 372.38 1093.69C371.198 1095.41 370.603 1097.39 370.594 1099.62C370.585 1101.85 371.165 1103.83 372.333 1105.56C373.501 1107.28 375.1 1108.64 377.133 1109.63C379.126 1110.57 381.356 1111.05 383.822 1111.06L405.553 1111.15L405.56 1109.27ZM384.828 1109.19C382.166 1109.18 380.172 1108.35 378.847 1106.7C377.484 1105.01 376.808 1102.66 376.82 1099.64C376.832 1096.63 377.526 1094.3 378.903 1092.66C380.241 1090.98 382.241 1090.15 384.903 1090.16L394.418 1090.2L394.349 1107.64C394.345 1108.7 393.814 1109.22 392.757 1109.22L384.828 1109.19Z" fill="black"/>
<path d="M152.113 813.905L158.119 815.888C159.62 816.384 160.618 815.881 161.113 814.38L177.446 764.822C177.703 764.044 177.691 763.423 177.412 762.961C177.207 762.461 176.715 762.083 175.936 761.826L169.931 759.842L170.811 757.173L217.355 772.545L210.814 793.513L208.729 792.824C209.095 791.711 209.468 789.738 209.848 786.903C210.283 784.086 210.154 781.391 209.46 778.819C208.298 774.488 205.603 771.624 201.377 770.228L188.115 765.848C187.336 765.591 186.688 765.593 186.17 765.854C185.727 766.077 185.377 766.578 185.12 767.357L177.724 789.799L184.146 791.921C186.982 792.857 189.489 792.082 191.665 789.593C193.897 787.124 195.554 784.248 196.636 780.966L198.804 781.683L188.961 811.55L186.792 810.834C187.874 807.553 188.251 804.254 187.926 800.94C187.655 797.644 186.102 795.527 183.266 794.59L176.844 792.469L168.787 816.914C168.292 818.416 168.796 819.415 170.297 819.91L183.643 824.318C185.256 824.851 187.015 825.031 188.922 824.859C190.828 824.687 192.613 824.043 194.276 822.927C195.901 821.737 197.46 820.093 198.953 817.996C200.446 815.899 201.643 813.95 202.544 812.151C203.464 810.296 204.043 809.1 204.282 808.562L206.367 809.251L197.777 831.947L151.233 816.575L152.113 813.905Z" fill="black"/>
<path d="M221.494 927.207H231.628C233.559 927.207 234.926 926.805 235.731 926C236.535 925.196 236.937 923.829 236.937 921.898V834.064C236.937 832.133 236.535 830.766 235.731 829.962C234.926 829.157 233.559 828.755 231.628 828.755H221.494V822.964H277.959C288.093 822.964 296.298 825.377 302.572 830.203C309.006 835.029 312.224 841.464 312.224 849.507C312.224 856.746 309.811 862.457 304.985 866.64C300.319 870.661 295.011 873.316 289.059 874.603V875.085C292.276 875.407 296.137 876.614 300.641 878.705C305.146 880.635 309.087 883.611 312.465 887.633C315.843 891.655 317.532 896.642 317.532 902.594C317.532 911.763 313.752 919.163 306.191 924.794C298.791 930.263 290.024 932.998 279.889 932.998H221.494V927.207ZM274.58 872.672C281.176 872.672 286.002 870.581 289.059 866.398C292.276 862.216 293.885 856.907 293.885 850.472C293.885 844.198 292.115 839.051 288.576 835.029C285.037 830.846 280.533 828.755 275.063 828.755H259.62C257.689 828.755 256.322 829.157 255.517 829.962C254.713 830.766 254.311 832.133 254.311 834.064V872.672H274.58ZM276.993 927.207C283.428 927.207 288.254 924.794 291.472 919.968C294.689 914.981 296.298 909.189 296.298 902.594C296.298 895.516 294.689 889.724 291.472 885.22C288.254 880.716 283.267 878.464 276.511 878.464H254.311V921.898C254.311 923.829 254.713 925.196 255.517 926C256.322 926.805 257.689 927.207 259.62 927.207H276.993Z" fill="black"/>
<path d="M1239.97 431.326L1231.44 441.937C1229.82 443.958 1229.09 445.729 1229.25 447.249C1229.42 448.769 1230.51 450.342 1232.53 451.969L1324.42 525.982C1326.44 527.609 1328.21 528.34 1329.72 528.176C1331.24 528.011 1332.81 526.918 1334.44 524.897L1342.97 514.286L1349.03 519.166L1301.51 578.286C1292.98 588.897 1283.55 595.454 1273.22 597.956C1262.76 600.627 1253.32 598.573 1244.9 591.796C1237.33 585.696 1233.39 578.357 1233.07 569.779C1232.79 561.506 1234.48 553.711 1238.14 546.394L1237.64 545.988C1234.6 549.085 1230.08 552.111 1224.11 555.065C1218.3 558.154 1211.86 559.773 1204.81 559.921C1197.76 560.07 1191.13 557.636 1184.9 552.62C1175.31 544.894 1170.75 534.7 1171.22 522.039C1171.72 509.682 1176.24 498.198 1184.77 487.587L1233.91 426.446L1239.97 431.326ZM1252.35 532.862C1246.8 539.768 1244.92 546.583 1246.73 553.308C1248.4 560.201 1252.59 566.359 1259.33 571.781C1265.89 577.068 1272.76 579.553 1279.95 579.236C1287.3 579.055 1293.28 576.101 1297.89 570.374L1310.88 554.205C1312.51 552.183 1313.24 550.413 1313.07 548.893C1312.91 547.373 1311.82 545.8 1309.8 544.173L1269.41 511.64L1252.35 532.862ZM1193.27 489.435C1187.85 496.172 1186.31 503.259 1188.65 510.694C1191.16 518.265 1195.87 524.829 1202.77 530.387C1210.17 536.352 1217.59 539.547 1225.01 539.974C1232.43 540.401 1238.98 537.078 1244.66 530.003L1263.35 506.76L1217.91 470.159C1215.89 468.533 1214.12 467.802 1212.6 467.966C1211.08 468.13 1209.51 469.223 1207.89 471.244L1193.27 489.435Z" fill="black"/>
<path d="M989.428 1075.11C1000.88 1075.11 1010.82 1077.92 1019.25 1083.54C1027.46 1089.16 1031.57 1099.1 1031.57 1113.36C1031.57 1124.38 1028.76 1133.02 1023.14 1139.29C1017.52 1145.56 1011.04 1149.99 1003.69 1152.58C996.127 1155.39 987.051 1157.77 976.462 1159.71L946.641 1165.22V1192.78C946.641 1212.87 956.689 1222.92 976.786 1222.92C984.134 1222.92 990.833 1220.98 996.883 1217.09C1002.93 1213.41 1005.96 1209.2 1005.96 1204.44C1005.96 1202.28 1005.64 1200.66 1004.99 1199.58C1004.55 1198.93 1003.91 1198.29 1003.04 1197.64C1001.96 1196.99 1000.99 1196.56 1000.12 1196.34C996.235 1195.26 993.318 1193.75 991.373 1191.8C989.212 1189.86 988.131 1187.16 988.131 1183.7C988.131 1179.16 989.536 1175.92 992.345 1173.97C994.938 1172.03 998.288 1171.06 1002.39 1171.06C1007.15 1171.06 1011.47 1172.89 1015.36 1176.57C1019.25 1180.24 1021.19 1185.54 1021.19 1192.45C1021.19 1200.45 1019.03 1207.36 1014.71 1213.2C1010.17 1219.03 1004.45 1223.35 997.532 1226.16C990.4 1229.19 983.161 1230.7 975.814 1230.7C961.551 1230.7 949.234 1226.92 938.861 1219.36C928.489 1212.01 923.302 1200.45 923.302 1184.67V1104.93C923.302 1094.13 919.953 1088.72 913.254 1088.72C907.851 1088.72 903.962 1091.86 901.584 1098.12C899.207 1104.39 898.019 1112.06 898.019 1121.14H892.184C892.184 1108.17 894.129 1097.26 898.019 1088.4C901.693 1079.54 908.392 1075.11 918.116 1075.11C927.408 1075.11 934.431 1077.81 939.185 1083.21C943.723 1088.83 946.209 1096.5 946.641 1106.23L948.261 1106.88C951.503 1099.31 956.797 1092.07 964.145 1085.16C971.276 1078.46 979.704 1075.11 989.428 1075.11ZM984.242 1086.78C974.517 1086.78 966.954 1090.56 961.551 1098.12C955.933 1105.9 950.963 1115.74 946.641 1127.62V1158.42L974.841 1152.26C985.214 1150.1 992.777 1145.77 997.532 1139.29C1002.07 1133.02 1004.34 1124.06 1004.34 1112.39C1004.34 1102.45 1002.29 1095.64 998.18 1091.97C994.074 1088.51 989.428 1086.78 984.242 1086.78Z" fill="black"/>
<path d="M294.012 1104.63C284.722 1104.63 276.191 1101.93 268.421 1096.52C260.651 1090.95 254.485 1083.52 249.924 1074.22C245.532 1064.93 243.336 1054.8 243.336 1043.82C243.336 1032.84 245.532 1022.7 249.924 1013.41C254.485 1004.12 260.651 996.774 268.421 991.369C276.191 985.795 284.722 983.007 294.012 983.007C303.303 983.007 311.834 985.795 319.604 991.369C327.374 996.774 333.455 1004.12 337.847 1013.41C342.408 1022.7 344.689 1032.84 344.689 1043.82C344.689 1054.8 342.408 1064.93 337.847 1074.22C333.455 1083.52 327.374 1090.95 319.604 1096.52C311.834 1101.93 303.303 1104.63 294.012 1104.63ZM294.012 1098.55C304.148 1098.55 311.411 1093.82 315.803 1084.36C320.195 1074.73 322.391 1061.22 322.391 1043.82C322.391 1026.42 320.195 1012.99 315.803 1003.53C311.411 993.903 304.148 989.088 294.012 989.088C283.877 989.088 276.614 993.903 272.222 1003.53C267.83 1012.99 265.634 1026.42 265.634 1043.82C265.634 1061.22 267.83 1074.73 272.222 1084.36C276.614 1093.82 283.877 1098.55 294.012 1098.55Z" fill="black"/>
<path d="M523.204 389.079C518.841 384.214 515.51 378.579 513.212 372.172C510.992 365.852 510.337 359.616 511.246 353.464C512.32 347.321 515.286 342.066 520.146 337.698C525.614 332.783 531.698 330.217 538.399 329.999C545.101 329.781 551.15 330.933 556.548 333.456L556.808 333.222C553.939 319.013 557.625 307.306 567.865 298.101C573.593 292.953 579.821 290.023 586.549 289.31C593.355 288.684 599.82 289.776 605.946 292.586C612.236 295.405 617.562 299.246 621.925 304.111C627.068 309.844 630.268 315.597 631.527 321.369C632.863 327.228 632.705 332.469 631.052 337.093C629.477 341.803 627.171 345.524 624.134 348.254C619.794 352.154 614.599 354.313 608.548 354.732C602.574 355.237 596.958 354.48 591.698 352.461L591.178 352.929L592.096 356.575C594.176 363.962 594.371 371.083 592.681 377.936C590.991 384.79 587.933 390.206 583.507 394.184C577.866 399.254 571.572 402.636 564.626 404.329C557.681 406.022 550.599 405.641 543.381 403.186C536.162 400.731 529.437 396.028 523.204 389.079ZM589.858 347.525C594.363 349.752 599.16 350.382 604.25 349.416C609.427 348.372 613.968 346.095 617.873 342.584C621.431 339.386 623.694 335.705 624.661 331.541C625.629 327.376 625.478 323.276 624.208 319.239C623.104 315.211 621.227 311.721 618.578 308.767C614.371 304.076 609.308 300.704 603.39 298.649C597.549 296.681 592.199 297.881 587.339 302.25C583.868 305.37 581.922 308.531 581.502 311.732C581.082 314.934 581.498 318.718 582.749 323.085L589.858 347.525ZM530.525 388.853C533.953 392.675 537.686 395.439 541.724 397.144C545.848 398.772 549.783 399.314 553.529 398.772C557.352 398.316 560.609 396.879 563.299 394.461C566.771 391.341 568.661 387.681 568.969 383.481C569.278 379.281 568.742 374.664 567.361 369.629L558.635 338.405C553.609 336.646 548.933 336.064 544.607 336.658C540.367 337.174 535.557 339.85 530.176 344.686C524.622 349.678 521.443 355.046 520.638 360.79C519.998 366.543 520.746 371.833 522.881 376.66C525.094 381.575 527.642 385.639 530.525 388.853Z" fill="black"/>
<path fill-rule="evenodd" clip-rule="evenodd" d="M55.5011 768.384L119.022 768.036L119.001 764.336L112.527 764.372C111.294 764.378 110.419 764.126 109.903 763.615C109.386 763.104 109.124 762.232 109.118 760.999L108.81 704.891C108.803 703.658 109.055 702.783 109.566 702.266C110.077 701.75 110.949 701.488 112.182 701.481L118.656 701.446L118.636 697.746L87.8075 697.916L87.8278 701.615L94.3018 701.579C95.5349 701.573 96.4098 701.825 96.9264 702.336C97.4431 702.847 97.7047 703.719 97.7115 704.952L98.0193 761.06C98.026 762.293 97.7739 763.168 97.2629 763.685C96.7519 764.201 95.8799 764.463 94.6467 764.47L75.2247 764.576C73.9916 764.583 73.1167 764.331 72.6001 763.82C72.0834 763.309 71.8217 762.437 71.815 761.204L71.5072 705.096C71.5005 703.863 71.7526 702.988 72.2636 702.471C72.7746 701.954 73.6466 701.693 74.8798 701.686L81.3538 701.65L81.3335 697.951L50.5049 698.12L50.5252 701.82L56.9992 701.784C58.2323 701.777 59.1072 702.029 59.6238 702.54C60.1405 703.051 60.4022 703.923 60.4089 705.157L60.7167 761.265C60.7234 762.498 60.4713 763.373 59.9603 763.889C59.4493 764.406 58.5773 764.668 57.3441 764.674L55.5011 764.684L55.5011 768.384Z" fill="black"/>
<path d="M369.532 1051.68H388.225C391.785 1051.68 394.308 1052.43 395.791 1053.91C397.275 1055.39 398.017 1057.91 398.017 1061.48V1223.48C398.017 1227.04 397.275 1229.57 395.791 1231.05C394.308 1232.53 391.785 1233.28 388.225 1233.28C378.73 1233.28 370.718 1231.2 364.191 1227.04C357.663 1223.19 352.619 1217.85 349.058 1211.02C344.607 1202.12 341.195 1192.77 338.821 1182.98C336.744 1173.49 335.706 1167.7 335.706 1165.62H326.804L329.92 1243.96H498.604L501.275 1165.62H492.373C492.373 1167.7 491.186 1173.49 488.812 1182.98C486.735 1192.77 483.472 1202.12 479.021 1211.02C475.46 1217.85 470.416 1223.19 463.888 1227.04C457.36 1231.2 449.349 1233.28 439.854 1233.28C436.293 1233.28 433.771 1232.53 432.288 1231.05C430.804 1229.57 430.062 1227.04 430.062 1223.48V1061.48C430.062 1057.91 430.804 1055.39 432.288 1053.91C433.771 1052.43 436.293 1051.68 439.854 1051.68H458.547V1041H369.532V1051.68Z" fill="black"/>
<path d="M466.769 1211.82H473.886C477.096 1211.82 479.398 1211.26 480.794 1210.14C482.329 1208.88 483.585 1206.93 484.562 1204.28C488.469 1192.7 491.26 1181.39 492.935 1170.37C494.749 1159.34 495.656 1147.2 495.656 1133.95C495.656 1128.36 494.121 1125.57 491.051 1125.57H482.259V1120.55H557.618V1125.57H548.826C547.151 1125.57 545.965 1125.92 545.267 1126.62C544.569 1127.32 544.221 1128.5 544.221 1130.18V1204.28C544.36 1206.93 544.918 1208.88 545.895 1210.14C546.872 1211.26 548.547 1211.82 550.919 1211.82H562.223L563.479 1248.66H559.292C559.292 1247.68 558.734 1244.89 557.618 1240.28C556.641 1235.82 555.106 1231.49 553.012 1227.31C549.105 1219.77 543.034 1216 534.801 1216H494.61C489.586 1216 485.678 1216.98 482.887 1218.93C480.096 1220.89 477.794 1223.68 475.979 1227.31C473.886 1231.49 472.281 1235.82 471.165 1240.28C470.188 1244.89 469.7 1247.68 469.7 1248.66H465.513L466.769 1211.82ZM524.544 1210.98C526.218 1210.98 527.404 1210.63 528.102 1209.93C528.8 1209.23 529.149 1208.05 529.149 1206.37V1130.18C529.149 1128.5 528.8 1127.32 528.102 1126.62C527.404 1125.92 526.218 1125.57 524.544 1125.57H514.287C505.774 1125.57 501.517 1131.99 501.517 1144.83C501.517 1151.39 500.82 1159.27 499.424 1168.48C498.029 1177.69 496.633 1184.81 495.238 1189.84C492.726 1198.91 491.47 1204.7 491.47 1207.21C491.47 1208.47 491.888 1209.44 492.726 1210.14C493.703 1210.7 494.819 1210.98 496.075 1210.98H524.544Z" fill="black"/>
<path d="M562.725 1214.98H570.679C571.935 1214.98 572.772 1214.77 573.191 1214.35C573.749 1213.79 574.028 1212.88 574.028 1211.63V1130.83C574.028 1127.48 572.005 1125.8 567.958 1125.8C564.05 1125.8 560.841 1127.2 558.329 1129.99C555.817 1132.64 553.654 1136.06 551.84 1140.25C549.886 1144.57 548.421 1148.97 547.444 1153.43C546.467 1157.9 545.978 1160.55 545.978 1161.39H540.536L541.792 1120.78H609.196V1125.8H602.079C600.683 1125.8 599.706 1126.15 599.148 1126.85C598.59 1127.55 598.311 1128.8 598.311 1130.62V1165.99H618.406C627.058 1165.99 634.245 1168.57 639.967 1173.74C645.689 1178.9 648.55 1185.25 648.55 1192.79C648.55 1197.81 647.224 1202.42 644.572 1206.6C642.06 1210.65 638.502 1213.93 633.897 1216.44C629.291 1218.81 624.128 1220 618.406 1220H562.725V1214.98ZM609.614 1214.98C613.94 1214.98 617.22 1212.88 619.453 1208.7C621.825 1204.51 623.011 1199.21 623.011 1192.79C623.011 1186.37 621.895 1181.13 619.662 1177.09C617.429 1173.04 614.08 1171.02 609.614 1171.02H598.311V1211.63C598.311 1212.88 598.52 1213.79 598.939 1214.35C599.497 1214.77 600.404 1214.98 601.66 1214.98H609.614Z" fill="black"/>
<path d="M1212.88 777.944H1224.05C1225.81 777.944 1226.99 777.65 1227.58 777.062C1228.36 776.277 1228.76 775.003 1228.76 773.239V724.714C1215.23 728.832 1203.07 730.89 1192.29 730.89C1182.49 730.89 1174.45 728.341 1168.17 723.244C1161.9 717.95 1158.76 710.304 1158.76 700.305V657.369C1158.76 655.604 1158.37 654.428 1157.59 653.84C1157 653.055 1155.82 652.663 1154.06 652.663H1142.88V645.605H1206.99V652.663H1197.58C1195.82 652.663 1194.54 653.055 1193.76 653.84C1193.17 654.428 1192.88 655.604 1192.88 657.369V708.834C1192.88 713.735 1193.76 717.264 1195.52 719.421C1197.29 721.577 1200.13 722.656 1204.05 722.656C1207.39 722.656 1211.5 722.166 1216.4 721.185C1221.31 720.009 1225.42 718.833 1228.76 717.656V657.369C1228.76 655.604 1228.36 654.428 1227.58 653.84C1226.99 653.055 1225.81 652.663 1224.05 652.663H1214.64V645.605H1278.75V652.663H1267.58C1265.81 652.663 1264.54 653.055 1263.75 653.84C1263.16 654.428 1262.87 655.604 1262.87 657.369V773.239C1262.87 775.003 1263.16 776.277 1263.75 777.062C1264.54 777.65 1265.81 777.944 1267.58 777.944H1278.75V785.002H1212.88V777.944Z" fill="black"/>
<path d="M978.229 1086.75L980.626 1087.39C983.174 1088.08 985.454 1087 987.465 1084.16L1011.93 1048.56L1013.55 1048.99L1016.57 1093.97C1016.71 1095.16 1017.03 1096.06 1017.52 1096.65C1018.02 1097.2 1018.74 1097.61 1019.69 1097.86L1023.32 1098.83L1022.77 1100.91L1002.68 1095.52L1003.24 1093.45L1007.51 1094.6C1008.16 1094.77 1008.74 1094.76 1009.26 1094.58C1009.78 1094.35 1010.1 1094.02 1010.22 1093.58C1010.37 1093.02 1010.41 1092.52 1010.34 1092.09L1009.6 1082.66L994.44 1078.6L991.723 1082.52C990.655 1084.09 990.017 1085.26 989.809 1086.03C989.554 1086.98 989.566 1087.89 989.845 1088.75C990.135 1089.57 990.863 1090.14 992.029 1090.45L995.981 1091.51L995.426 1093.58L977.673 1088.82L978.229 1086.75ZM995.709 1076.71L1009.44 1080.39L1008 1058.83L995.709 1076.71Z" fill="black"/>
<path d="M1297.03 694.288C1290.21 691.046 1285.18 686.08 1281.92 679.389C1278.78 672.749 1277.63 664.873 1278.49 655.762C1279.4 646.547 1282.37 636.64 1287.41 626.043C1291.5 617.439 1296.61 609.516 1302.76 602.275C1308.9 595.033 1315.37 589.682 1322.16 586.221C1334.51 579.999 1345.82 579.331 1356.1 584.219C1363.55 587.76 1368.39 593.145 1370.61 600.376C1371.29 603.013 1371.39 605.635 1370.92 608.242C1370.56 610.9 1369.96 613.12 1369.11 614.904C1367.36 618.576 1364.63 620.943 1360.91 622.005C1358.38 622.731 1355.85 622.495 1353.33 621.298C1350.92 620.151 1349.48 618.309 1349.01 615.772C1348.84 614.789 1348.8 613.932 1348.89 613.203C1349.08 612.523 1349.43 611.659 1349.93 610.61C1350.67 609.036 1352.1 607.786 1354.22 606.861C1355.66 606.26 1357.08 605.842 1358.48 605.607C1359.72 605.426 1360.65 605.096 1361.26 604.616C1362.03 604.081 1362.64 603.341 1363.09 602.397C1363.99 600.508 1363.66 598.358 1362.1 595.947C1360.7 593.481 1357.8 591.2 1353.39 589.105C1349.62 587.31 1345.47 586.691 1340.96 587.249C1336.56 587.856 1331.98 590.182 1327.23 594.226C1323.6 597.26 1319.92 601.491 1316.18 606.918C1312.44 612.345 1309.63 617.052 1307.73 621.039L1304.36 628.121L1305.24 629.117C1309.03 626.027 1313.46 624.146 1318.54 623.473C1323.77 622.745 1328.22 623.254 1331.89 625C1338.92 628.341 1344.03 632.89 1347.21 638.647C1349.91 643.529 1351.16 649.013 1350.97 655.096C1350.83 661.075 1349.41 666.897 1346.72 672.563C1344.02 678.229 1340.05 683.349 1334.79 687.923C1329.58 692.392 1323.61 695.343 1316.88 696.776C1310.26 698.259 1303.64 697.43 1297.03 694.288ZM1299.43 689.251C1305.83 692.294 1311.89 691.445 1317.61 686.706C1323.44 682.017 1328.21 675.79 1331.9 668.026C1335.89 659.632 1337.94 652.056 1338.07 645.299C1338.19 638.541 1335.32 633.765 1329.44 630.973C1325.77 629.227 1321.89 628.863 1317.81 629.88C1313.72 630.896 1309.71 633.237 1305.79 636.901C1302.01 640.509 1298.75 645.199 1296.01 650.97C1291.87 659.679 1289.82 667.514 1289.86 674.477C1289.94 681.334 1293.13 686.259 1299.43 689.251Z" fill="black"/>
<defs>
<filter id="filter0_f_442_1227" x="321.001" y="355.002" width="773" height="773" filterUnits="userSpaceOnUse" color-interpolation-filters="sRGB">
<feFlood flood-opacity="0" result="BackgroundImageFix"/>
<feBlend mode="normal" in="SourceGraphic" in2="BackgroundImageFix" result="shape"/>
<feGaussianBlur stdDeviation="60" result="effect1_foregroundBlur_442_1227"/>
</filter>
<filter id="filter1_f_442_1227" x="684.274" y="418.042" width="944.985" height="992.678" filterUnits="userSpaceOnUse" color-interpolation-filters="sRGB">
<feFlood flood-opacity="0" result="BackgroundImageFix"/>
<feBlend mode="normal" in="SourceGraphic" in2="BackgroundImageFix" result="shape"/>
<feGaussianBlur stdDeviation="200" result="effect1_foregroundBlur_442_1227"/>
</filter>
<radialGradient id="paint0_radial_442_1227" cx="0" cy="0" r="1" gradientUnits="userSpaceOnUse" gradientTransform="translate(707.501 741.502) rotate(37.576) scale(437.019 813.921)">
<stop stop-color="white"/>
<stop offset="1" stop-color="#5F5F5F"/>
</radialGradient>
<radialGradient id="paint1_radial_442_1227" cx="0" cy="0" r="1" gradientTransform="matrix(-8.38985e-06 537.999 -767.502 19.9582 720.749 757.001)" gradientUnits="userSpaceOnUse">
<stop stop-color="white"/>
<stop offset="0.552494" stop-color="#515151"/>
<stop offset="0.621823" stop-color="#3B3B3B"/>
<stop offset="0.769442" stop-color="#1A1A1A"/>
<stop offset="0.791582" stop-color="#121212"/>
<stop offset="0.848668" stop-color="#060606"/>
<stop offset="0.980825"/>
</radialGradient>
</defs>
</svg>
