<svg width="1440" height="1052" viewBox="0 0 1440 1052" fill="none" xmlns="http://www.w3.org/2000/svg">
<path d="M0 0H1438.5L1440 1051H1.49844L0 0Z" fill="url(#paint0_radial_449_3058)"/>
<path fill-rule="evenodd" clip-rule="evenodd" d="M411.051 112.788L455.47 178.882C457.324 181.641 458.063 183.981 457.686 185.903C457.309 187.824 455.741 189.712 452.982 191.566C445.626 196.51 438.338 199.072 431.118 199.253C424.052 199.663 417.363 198.152 411.051 194.718C402.968 190.139 395.573 184.598 388.866 178.093C382.083 171.973 378.151 168.108 377.07 166.499L370.173 171.134L413.028 230.431L543.714 142.603L505.342 80.2924L498.446 84.9272C499.527 86.5363 501.735 91.5597 505.07 99.9973C508.329 108.819 510.552 117.837 511.738 127.051C512.533 134.192 511.406 140.956 508.357 147.343C505.463 153.96 500.337 159.741 492.981 164.685C490.223 166.539 487.883 167.277 485.961 166.9C484.039 166.523 482.151 164.955 480.297 162.197L440.5 102.98L411.051 112.788Z" fill="black"/>
<path fill-rule="evenodd" clip-rule="evenodd" d="M681.882 154.771L644.475 47.5L674.984 45L693.515 99.9308L710.735 46.5L723.5 50.251L689.36 154.771H681.882ZM613.748 119.042V43.5H625.38V119.042C625.38 126.52 626.488 132.198 628.704 136.075C630.92 139.676 635.074 141.476 641.168 141.476H649.477V151.447H589.651V141.476H597.96C604.054 141.476 608.208 139.676 610.424 136.075C612.64 132.198 613.748 126.52 613.748 119.042ZM743.369 132.336V52.5H773.282V132.336C773.282 135.66 773.975 138.014 775.359 139.399C776.744 140.784 779.098 141.476 782.422 141.476H797.378V151.447H719.273V141.476H734.229C737.553 141.476 739.907 140.784 741.292 139.399C742.677 138.014 743.369 135.66 743.369 132.336Z" fill="black"/>
<path fill-rule="evenodd" clip-rule="evenodd" d="M148.265 326.191L124.424 331.664L105.424 366.717L154.958 355.345C158.197 354.602 160.647 354.75 162.306 355.79C163.966 356.829 165.167 358.969 165.911 362.208L169.815 379.215L179.533 376.984L160.941 296L151.223 298.231L155.128 315.238C155.871 318.477 155.723 320.927 154.683 322.586C153.644 324.246 151.504 325.447 148.265 326.191ZM99.0444 453.434L82.0054 379.215L91.7235 376.984L108.762 451.203L173.55 436.329C176.789 435.586 178.929 434.384 179.969 432.725C181.008 431.065 181.157 428.615 180.413 425.376L176.509 408.369L186.227 406.138L204.819 487.122L195.101 489.353L191.196 472.347C190.453 469.107 189.251 466.968 187.591 465.928C185.932 464.888 183.482 464.74 180.243 465.484L71.276 490.5L74.9238 463.366L80.4523 457.702L99.0444 453.434Z" fill="black"/>
<path d="M131.763 918.627H151.306C155.029 918.627 157.666 917.851 159.217 916.3C160.768 914.749 161.543 912.112 161.543 908.39V739.017C161.543 735.295 160.768 732.658 159.217 731.107C157.666 729.556 155.029 728.781 151.306 728.781C141.38 728.781 133.004 730.952 126.18 735.295C119.355 739.328 114.082 744.911 110.359 752.046C105.706 761.352 102.139 771.124 99.6571 781.361C97.4856 791.287 96.3999 797.336 96.3999 799.508H87.0938L90.3509 717.613H266.703L269.495 799.508H260.189C260.189 797.336 258.948 791.287 256.466 781.361C254.295 771.124 250.882 761.352 246.229 752.046C242.507 744.911 237.233 739.328 230.409 735.295C223.584 730.952 215.209 728.781 205.282 728.781C201.56 728.781 198.923 729.556 197.372 731.107C195.821 732.658 195.045 735.295 195.045 739.017V908.39C195.045 912.112 195.821 914.749 197.372 916.3C198.923 917.851 201.56 918.627 205.282 918.627H224.825V929.794H131.763V918.627Z" fill="black"/>
<path d="M98.1324 565.298V691.596C98.1324 699.075 99.2403 704.752 101.456 708.63C103.672 712.231 107.826 714.031 113.92 714.031H122.229V724.002H62.4033V714.031H70.7124C76.8057 714.031 80.9603 712.231 83.176 708.63C85.3918 704.752 86.4997 699.075 86.4997 691.596V553.666C86.4997 550.342 85.8072 547.988 84.4224 546.603C83.0375 545.218 80.6833 544.526 77.3597 544.526H62.4033V534.555H119.736L166.267 672.485L210.72 534.555H270.13V544.526H255.174C251.85 544.526 249.496 545.218 248.111 546.603C246.726 547.988 246.034 550.342 246.034 553.666V704.891C246.034 708.215 246.726 710.569 248.111 711.954C249.496 713.338 251.85 714.031 255.174 714.031H270.13V724.002H192.025V714.031H206.981C210.305 714.031 212.659 713.338 214.044 711.954C215.429 710.569 216.121 708.215 216.121 704.891V561.975L162.112 727.325H154.634L98.1324 565.298Z" fill="black"/>
<path d="M152.037 595.908L158.043 597.891C159.544 598.387 160.542 597.884 161.037 596.383L177.37 546.825C177.627 546.047 177.615 545.426 177.336 544.964C177.131 544.465 176.639 544.086 175.86 543.829L169.854 541.846L170.734 539.176L217.278 554.548L210.738 575.516L208.653 574.827C209.019 573.715 209.392 571.741 209.772 568.906C210.207 566.089 210.077 563.394 209.384 560.822C208.221 556.491 205.527 553.627 201.301 552.231L188.038 547.851C187.26 547.594 186.612 547.596 186.094 547.857C185.651 548.08 185.3 548.581 185.044 549.36L177.647 571.803L184.07 573.924C186.906 574.86 189.412 574.085 191.589 571.597C193.821 569.127 195.478 566.251 196.56 562.969L198.728 563.686L188.885 593.554L186.716 592.837C187.797 589.556 188.175 586.258 187.85 582.943C187.579 579.647 186.026 577.53 183.19 576.594L176.767 574.472L168.711 598.917C168.216 600.419 168.719 601.418 170.221 601.914L183.567 606.321C185.179 606.854 186.939 607.034 188.846 606.862C190.752 606.69 192.537 606.046 194.199 604.93C195.825 603.74 197.384 602.096 198.877 599.999C200.37 597.902 201.567 595.954 202.468 594.154C203.388 592.299 203.967 591.103 204.206 590.565L206.291 591.254L197.701 613.95L151.157 598.578L152.037 595.908Z" fill="black"/>
<path d="M221.418 709.208H231.553C233.483 709.208 234.851 708.806 235.655 708.001C236.459 707.197 236.861 705.83 236.861 703.899V616.065C236.861 614.134 236.459 612.767 235.655 611.963C234.851 611.158 233.483 610.756 231.553 610.756H221.418V604.965H277.883C288.018 604.965 296.222 607.378 302.496 612.204C308.931 617.03 312.148 623.465 312.148 631.508C312.148 638.747 309.735 644.458 304.909 648.641C300.244 652.662 294.935 655.317 288.983 656.604V657.086C292.2 657.408 296.061 658.615 300.565 660.706C305.07 662.636 309.011 665.612 312.389 669.634C315.768 673.656 317.457 678.643 317.457 684.595C317.457 693.764 313.676 701.164 306.115 706.795C298.715 712.264 289.948 714.999 279.813 714.999H221.418V709.208ZM274.505 654.673C281.1 654.673 285.926 652.582 288.983 648.399C292.2 644.217 293.809 638.908 293.809 632.473C293.809 626.2 292.039 621.052 288.5 617.03C284.961 612.847 280.457 610.756 274.987 610.756H259.544C257.613 610.756 256.246 611.158 255.442 611.963C254.637 612.767 254.235 614.134 254.235 616.065V654.673H274.505ZM276.918 709.208C283.352 709.208 288.179 706.795 291.396 701.969C294.613 696.982 296.222 691.191 296.222 684.595C296.222 677.517 294.613 671.725 291.396 667.221C288.179 662.717 283.192 660.465 276.435 660.465H254.235V703.899C254.235 705.83 254.637 707.197 255.442 708.001C256.246 708.806 257.613 709.208 259.544 709.208H276.918Z" fill="black"/>
<path d="M293.936 886.635C284.645 886.635 276.115 883.932 268.345 878.527C260.574 872.952 254.409 865.52 249.848 856.229C245.456 846.938 243.26 836.803 243.26 825.823C243.26 814.843 245.456 804.708 249.848 795.417C254.409 786.127 260.574 778.779 268.345 773.373C276.115 767.799 284.645 765.012 293.936 765.012C303.227 765.012 311.757 767.799 319.528 773.373C327.298 778.779 333.379 786.127 337.771 795.417C342.332 804.708 344.612 814.843 344.612 825.823C344.612 836.803 342.332 846.938 337.771 856.229C333.379 865.52 327.298 872.952 319.528 878.527C311.757 883.932 303.227 886.635 293.936 886.635ZM293.936 880.554C304.071 880.554 311.335 875.824 315.727 866.364C320.119 856.736 322.315 843.222 322.315 825.823C322.315 808.424 320.119 794.995 315.727 785.536C311.335 775.907 304.071 771.093 293.936 771.093C283.801 771.093 276.537 775.907 272.145 785.536C267.753 794.995 265.557 808.424 265.557 825.823C265.557 843.222 267.753 856.736 272.145 866.364C276.537 875.824 283.801 880.554 293.936 880.554Z" fill="black"/>
<path fill-rule="evenodd" clip-rule="evenodd" d="M55.424 550.385L118.944 550.037L118.924 546.337L112.45 546.373C111.217 546.379 110.342 546.127 109.825 545.616C109.309 545.105 109.047 544.233 109.04 543L108.733 486.892C108.726 485.659 108.978 484.784 109.489 484.267C110 483.751 110.872 483.489 112.105 483.482L118.579 483.447L118.559 479.747L87.7303 479.916L87.7506 483.616L94.2246 483.58C95.4578 483.574 96.3327 483.826 96.8493 484.337C97.3659 484.848 97.6276 485.72 97.6344 486.953L97.9421 543.061C97.9489 544.294 97.6968 545.169 97.1858 545.686C96.6748 546.202 95.8027 546.464 94.5696 546.471L75.1476 546.577C73.9144 546.584 73.0395 546.332 72.5229 545.821C72.0063 545.31 71.7446 544.438 71.7378 543.205L71.4301 487.097C71.4233 485.864 71.6754 484.989 72.1864 484.472C72.6974 483.955 73.5695 483.694 74.8026 483.687L81.2766 483.651L81.2563 479.952L50.4277 480.121L50.448 483.821L56.922 483.785C58.1552 483.778 59.0301 484.03 59.5467 484.541C60.0633 485.052 60.325 485.924 60.3318 487.158L60.6395 543.266C60.6463 544.499 60.3942 545.374 59.8832 545.89C59.3722 546.407 58.5001 546.669 57.267 546.675L55.424 546.685L55.424 550.385Z" fill="black"/>
<path d="M523.128 182.526C518.765 177.661 515.434 172.026 513.136 165.619C510.916 159.299 510.26 153.063 511.17 146.911C512.243 140.768 515.21 135.513 520.07 131.145C525.538 126.23 531.622 123.664 538.323 123.446C545.025 123.228 551.074 124.38 556.472 126.903L556.732 126.669C553.863 112.46 557.549 100.753 567.789 91.5485C573.517 86.4002 579.745 83.4697 586.473 82.757C593.278 82.1311 599.744 83.2231 605.87 86.0329C612.16 88.8517 617.486 92.6933 621.849 97.5579C626.992 103.291 630.192 109.044 631.451 114.816C632.787 120.675 632.629 125.917 630.976 130.54C629.401 135.25 627.095 138.971 624.058 141.701C619.718 145.601 614.523 147.76 608.472 148.179C602.498 148.684 596.882 147.927 591.622 145.908L591.101 146.376L592.02 150.022C594.1 157.409 594.295 164.53 592.605 171.383C590.915 178.237 587.857 183.653 583.431 187.631C577.79 192.701 571.496 196.083 564.55 197.776C557.605 199.469 550.523 199.088 543.304 196.633C536.086 194.178 529.361 189.475 523.128 182.526ZM589.782 140.972C594.287 143.199 599.084 143.829 604.174 142.863C609.351 141.819 613.892 139.542 617.797 136.031C621.355 132.833 623.618 129.152 624.585 124.988C625.553 120.823 625.402 116.723 624.132 112.686C623.028 108.658 621.151 105.168 618.502 102.214C614.295 97.5234 609.232 94.1506 603.313 92.096C597.473 90.1282 592.123 91.3285 587.263 95.6967C583.792 98.8169 581.846 101.978 581.426 105.18C581.006 108.381 581.421 112.165 582.673 116.532L589.782 140.972ZM530.449 182.3C533.877 186.122 537.61 188.886 541.647 190.591C545.772 192.219 549.707 192.761 553.452 192.219C557.276 191.763 560.533 190.326 563.223 187.908C566.695 184.788 568.585 181.128 568.893 176.928C569.202 172.728 568.666 168.111 567.285 163.076L558.559 131.852C553.533 130.093 548.857 129.511 544.531 130.105C540.291 130.621 535.481 133.297 530.1 138.133C524.546 143.125 521.367 148.493 520.562 154.237C519.922 159.99 520.67 165.28 522.805 170.107C525.018 175.022 527.566 179.086 530.449 182.3Z" fill="black"/>
<path fill-rule="evenodd" clip-rule="evenodd" d="M639.979 988.002L669.388 904.973H673.005L701.334 988.002H687.342L683.569 977.325H649.708L646.235 987.02C646.118 987.355 646.005 987.683 645.898 988.002H639.979ZM651.3 972.694H681.977L666.928 928.559L651.3 972.694Z" fill="black"/>
<path d="M405.484 893.269L401.255 893.252C400.198 893.248 399.672 892.717 399.676 891.66L399.814 856.774C399.816 856.226 399.954 855.835 400.229 855.601C400.465 855.328 400.857 855.193 401.406 855.195L405.634 855.211L405.642 853.332L373.927 853.207L373.161 868.591L374.63 868.597C374.67 868.362 374.789 867.795 374.989 866.895C375.149 865.956 375.428 864.841 375.824 863.551C376.221 862.221 376.735 860.99 377.366 859.857C378.155 858.411 379.216 857.26 380.551 856.404C381.886 855.548 383.532 855.124 385.489 855.132L392.831 855.161C393.379 855.163 393.79 855.302 394.063 855.577C394.297 855.813 394.412 856.205 394.41 856.753L394.349 872.316L383.836 872.275C381.369 872.265 379.136 872.746 377.135 873.717C375.095 874.648 373.485 875.973 372.303 877.691C371.122 879.409 370.527 881.384 370.518 883.616C370.509 885.848 371.089 887.827 372.256 889.555C373.424 891.282 375.024 892.639 377.056 893.626C379.049 894.574 381.279 895.053 383.746 895.062L405.476 895.148L405.484 893.269ZM384.752 893.187C382.089 893.176 380.096 892.346 378.771 890.697C377.407 889.008 376.731 886.656 376.743 883.641C376.755 880.626 377.45 878.299 378.826 876.66C380.164 874.982 382.165 874.148 384.827 874.158L394.341 874.196L394.273 891.639C394.268 892.696 393.738 893.223 392.681 893.218L384.752 893.187Z" fill="black"/>
<path fill-rule="evenodd" clip-rule="evenodd" d="M388.147 835.683H369.454V825.002H458.47V835.683H439.776C436.216 835.683 433.694 836.425 432.21 837.909C430.726 839.392 429.985 841.914 429.985 845.475V986.5H397.939V845.475C397.939 841.914 397.197 839.392 395.714 837.909C394.23 836.425 391.708 835.683 388.147 835.683Z" fill="black"/>
<path fill-rule="evenodd" clip-rule="evenodd" d="M544.143 986.999V914.176C544.143 912.501 544.492 911.315 545.19 910.617C545.887 909.92 547.074 909.571 548.748 909.571H557.54V904.547H482.182V909.571H490.973C494.044 909.571 495.579 912.362 495.579 917.944C495.579 931.201 494.672 943.342 492.857 954.367C491.22 965.144 488.516 976.188 484.746 987.499H491.83C492.394 984.37 493.504 979.815 495.16 973.835C496.556 968.811 497.951 961.694 499.347 952.483C500.742 943.273 501.44 935.388 501.44 928.829C501.44 915.99 505.696 909.571 514.209 909.571H524.466C526.141 909.571 527.327 909.92 528.025 910.617C528.722 911.315 529.071 912.501 529.071 914.176V986.999H544.143Z" fill="black"/>
<path fill-rule="evenodd" clip-rule="evenodd" d="M573.952 914.825V987.999H598.234V955.016H609.538C614.003 955.016 617.352 957.04 619.585 961.087C621.818 965.134 622.935 970.367 622.935 976.786C622.935 981.006 622.422 984.744 621.397 987.999H645.947C647.631 984.527 648.473 980.79 648.473 976.786C648.473 969.251 645.612 962.901 639.89 957.738C634.169 952.574 626.982 949.992 618.329 949.992H598.234V914.616C598.234 912.802 598.513 911.546 599.071 910.848C599.629 910.15 600.606 909.801 602.002 909.801H609.119V904.777H541.715L540.459 945.387H545.902C545.902 944.55 546.39 941.898 547.367 937.433C548.344 932.967 549.809 928.571 551.763 924.245C553.577 920.058 555.74 916.639 558.252 913.988C560.764 911.197 563.974 909.801 567.881 909.801C571.928 909.801 573.952 911.476 573.952 914.825Z" fill="black"/>
<path fill-rule="evenodd" clip-rule="evenodd" d="M1062.22 810.673L1063.42 984.176L1104.37 984.176L1104.08 942.575L1164.17 942.159C1182.27 942.034 1197.14 947.421 1208.79 958.319C1215.4 964.184 1220.21 972.47 1223.21 983.176L1267.83 984.676C1266.17 981.134 1264.18 977.715 1261.87 974.42C1254.07 962.902 1244.07 953.921 1231.86 947.477C1219.94 940.735 1207.9 936.961 1195.73 936.155L1195.72 934.375C1213.79 930.392 1229.6 921.826 1243.16 908.677C1256.72 895.527 1263.43 878.864 1263.29 858.687C1263.19 844.149 1258.5 831.273 1249.23 820.062C1239.95 808.554 1227.57 799.589 1212.1 793.168C1196.92 786.745 1180.58 783.594 1163.07 783.715L1017.98 784.719L1018.08 798.961L1050.12 798.739C1054.28 798.711 1057.25 799.729 1059.05 801.793C1061.14 803.559 1062.2 806.519 1062.22 810.673ZM1211.12 909.343C1202.6 921.568 1186.32 927.763 1162.29 927.93L1103.99 928.333L1103.17 810.39C1103.14 806.236 1104.01 803.263 1105.78 801.47C1107.84 799.379 1110.95 798.319 1115.1 798.29L1164.95 797.945C1181.57 797.83 1195.55 803.52 1206.91 815.014C1218.26 826.507 1224 841.156 1224.13 858.958C1224.27 880.025 1219.94 896.82 1211.12 909.343Z" fill="black"/>
<path fill-rule="evenodd" clip-rule="evenodd" d="M886.543 986.174L831.092 897.489C829.33 894.671 828.669 892.308 829.109 890.399C829.549 888.491 831.178 886.656 833.997 884.894L848.792 875.643L843.506 867.189L716.69 946.48L721.977 954.935L736.772 945.684C741.938 942.454 747.458 945.535 753.332 954.929C759.975 965.554 766.005 975.969 771.423 986.174L785.326 986.174C781.71 979.046 778.151 972.681 774.648 967.08C761.139 945.474 761.548 930.193 775.873 921.236L793.134 910.443C795.952 908.681 798.315 908.02 800.224 908.46C802.132 908.9 803.967 910.529 805.729 913.348L851.265 986.174L886.543 986.174Z" fill="black"/>
<path fill-rule="evenodd" clip-rule="evenodd" d="M1019.17 866.215C1010.74 860.596 1000.8 857.787 989.351 857.787C979.627 857.787 971.199 861.137 964.068 867.836C956.721 874.751 951.426 881.99 948.185 889.553L946.564 888.905C946.132 879.181 943.647 871.509 939.109 865.891C934.355 860.488 927.331 857.787 918.039 857.787C908.315 857.787 901.616 862.217 897.942 871.077C894.053 879.937 892.108 890.85 892.108 903.816H897.942C897.942 894.74 899.131 887.068 901.508 880.801C903.885 874.535 907.775 871.401 913.177 871.401C919.876 871.401 923.226 876.804 923.226 887.608V967.348C923.226 974.052 924.162 979.995 926.035 985.177H947.508C946.879 982.25 946.564 979.008 946.564 975.452V947.899L976.385 942.389C986.974 940.444 996.05 938.067 1003.61 935.258C1010.96 932.665 1017.44 928.235 1023.06 921.968C1028.68 915.701 1031.49 907.057 1031.49 896.036C1031.49 881.774 1027.38 871.833 1019.17 866.215ZM1004.91 982.259C1005.29 982.884 1005.55 983.69 1005.71 984.677H1019.96C1020.73 981.686 1021.12 978.503 1021.12 975.128C1021.12 968.213 1019.17 962.918 1015.28 959.245C1011.39 955.571 1007.07 953.734 1002.32 953.734C998.211 953.734 994.862 954.707 992.269 956.651C989.459 958.596 988.055 961.838 988.055 966.376C988.055 969.833 989.135 972.535 991.296 974.479C993.241 976.424 996.158 977.937 1000.05 979.017C1000.91 979.234 1001.88 979.666 1002.97 980.314C1003.83 980.962 1004.48 981.611 1004.91 982.259ZM961.475 880.801C966.877 873.238 974.441 869.456 984.165 869.456C989.351 869.456 993.997 871.185 998.103 874.643C1002.21 878.316 1004.26 885.123 1004.26 895.064C1004.26 906.733 1001.99 915.701 997.455 921.968C992.701 928.451 985.137 932.773 974.765 934.934L946.564 941.092V910.299C950.886 898.413 955.856 888.581 961.475 880.801Z" fill="black"/>
<path d="M978.152 861.425L980.549 862.067C983.097 862.749 985.377 861.67 987.388 858.83L1011.85 823.234L1013.47 823.668L1016.49 868.641C1016.64 869.836 1016.95 870.731 1017.44 871.325C1017.94 871.875 1018.67 872.278 1019.62 872.533L1023.25 873.505L1022.69 875.578L1002.61 870.197L1003.16 868.124L1007.44 869.27C1008.08 869.443 1008.67 869.437 1009.18 869.25C1009.7 869.02 1010.02 868.689 1010.14 868.257C1010.29 867.696 1010.33 867.198 1010.26 866.763L1009.52 857.33L994.364 853.268L991.646 857.193C990.578 858.758 989.94 859.93 989.732 860.708C989.477 861.658 989.489 862.564 989.768 863.425C990.058 864.244 990.786 864.809 991.952 865.121L995.904 866.18L995.349 868.254L977.596 863.498L978.152 861.425ZM995.632 851.386L1009.37 855.066L1007.92 833.499L995.632 851.386Z" fill="black"/>
<path fill-rule="evenodd" clip-rule="evenodd" d="M1314.33 655.064C1320.67 664.025 1328.86 669.996 1338.9 672.979L1348.5 657.235C1340.88 654.125 1334.02 648.27 1327.93 639.669C1320.91 629.748 1317.38 621.197 1317.34 614.018C1317.19 606.678 1319.07 598.983 1322.97 590.931L1353.52 586.089L1359.78 538.575L1353.52 539.403L1352.84 538.443C1357.22 530.051 1359.58 520.819 1359.89 510.747C1360.37 500.561 1357.77 491.468 1352.11 483.467C1348.15 477.866 1342.39 473.295 1334.83 469.754C1327.44 466.099 1318.73 464.82 1308.7 465.917C1298.83 466.901 1288.61 471.132 1278.05 478.608C1269.09 484.952 1261.64 493.103 1255.72 503.061C1249.85 512.745 1246.77 523.33 1246.5 534.816C1246.38 546.188 1250.06 557.155 1257.54 567.716C1270.9 586.598 1289.72 595.019 1313.98 592.979L1314.31 593.459C1309.06 601.983 1305.96 611.862 1305.03 623.094C1304.09 634.326 1307.19 644.983 1314.33 655.064ZM1350.19 516.894C1350.82 525.58 1348.83 533.469 1344.25 540.56L1302.1 547.699C1294.57 548.944 1288.18 548.906 1282.92 547.584C1277.66 546.263 1272.76 542.402 1268.23 536.001C1261.89 527.041 1260.93 517.874 1265.34 508.503C1269.92 499.018 1276.52 491.217 1285.16 485.1C1290.61 481.248 1296.79 478.79 1303.73 477.725C1310.71 476.387 1317.57 476.929 1324.33 479.35C1331.09 481.772 1336.79 486.263 1341.44 492.823C1346.54 500.024 1349.45 508.048 1350.19 516.894Z" fill="black"/>
<path d="M1125.5 784.222H1139.66C1146.05 784.222 1150.63 783.111 1153.41 780.889C1156.18 778.39 1158.54 774.503 1160.49 769.227C1167.71 748.122 1173.26 724.797 1177.15 699.25C1181.04 673.702 1182.98 647.878 1182.98 621.775C1182.98 617.332 1181.87 613.444 1179.65 610.112C1177.7 606.78 1174.65 605.114 1170.48 605.114H1156.32V595.117H1310.44V605.114H1290.44C1287.95 605.114 1286.14 605.669 1285.03 606.78C1284.2 607.613 1283.78 609.279 1283.78 611.778V769.227C1283.78 774.225 1284.75 777.974 1286.7 780.473C1288.92 782.972 1292.39 784.222 1297.11 784.222H1319.6L1322.1 857.531H1310.44C1310.16 855.587 1309.05 851.005 1307.11 843.785C1305.16 836.843 1302.66 830.318 1299.61 824.209C1295.17 815.045 1290.03 807.408 1284.2 801.299C1278.37 795.468 1270.59 792.552 1260.87 792.552H1184.23C1174.51 792.552 1166.74 795.468 1160.9 801.299C1155.07 807.408 1149.94 815.045 1145.49 824.209C1142.44 830.595 1139.94 837.26 1138 844.202C1136.05 851.144 1134.94 855.587 1134.66 857.531H1123L1125.5 784.222ZM1228.8 782.556C1233.24 782.556 1235.46 780.056 1235.46 775.058V611.778C1235.46 609.279 1234.91 607.613 1233.8 606.78C1232.96 605.669 1231.3 605.114 1228.8 605.114H1220.05C1210.61 605.114 1204.08 608.585 1200.47 615.527C1197.14 622.469 1195.2 631.772 1194.64 643.435C1194.09 660.374 1192.14 679.256 1188.81 700.083C1185.76 720.909 1182.42 738.126 1178.81 751.732C1176.04 761.729 1174.65 769.227 1174.65 774.225C1174.65 776.724 1175.62 778.807 1177.57 780.473C1179.51 781.861 1181.59 782.556 1183.81 782.556H1228.8Z" fill="black"/>
<path d="M1238.47 206.878L1229.94 217.49C1228.32 219.511 1227.59 221.281 1227.75 222.801C1227.92 224.321 1229.01 225.895 1231.03 227.521L1322.92 301.535C1324.94 303.162 1326.71 303.893 1328.23 303.728C1329.74 303.564 1331.32 302.471 1332.94 300.45L1341.47 289.839L1347.53 294.719L1300.01 353.839C1291.48 364.45 1282.05 371.007 1271.72 373.509C1261.26 376.18 1251.82 374.126 1243.4 367.348C1235.83 361.248 1231.89 353.91 1231.57 345.332C1231.29 337.059 1232.98 329.264 1236.65 321.947L1236.14 321.541C1233.1 324.638 1228.58 327.664 1222.61 330.618C1216.8 333.707 1210.37 335.326 1203.32 335.474C1196.27 335.622 1189.63 333.189 1183.4 328.173C1173.81 320.446 1169.25 310.253 1169.72 297.592C1170.23 285.235 1174.74 273.751 1183.27 263.14L1232.42 201.998L1238.47 206.878ZM1250.85 308.415C1245.3 315.321 1243.42 322.136 1245.23 328.861C1246.9 335.754 1251.1 341.911 1257.83 347.334C1264.39 352.62 1271.27 355.105 1278.45 354.789C1285.81 354.608 1291.78 351.654 1296.39 345.927L1309.38 329.757C1311.01 327.736 1311.74 325.966 1311.57 324.446C1311.41 322.926 1310.32 321.352 1308.3 319.726L1267.91 287.192L1250.85 308.415ZM1191.77 264.988C1186.35 271.725 1184.81 278.812 1187.16 286.247C1189.67 293.818 1194.37 300.382 1201.27 305.94C1208.67 311.904 1216.09 315.1 1223.51 315.527C1230.93 315.954 1237.48 312.63 1243.17 305.556L1261.85 282.312L1216.41 245.712C1214.39 244.085 1212.62 243.354 1211.1 243.519C1209.58 243.683 1208.01 244.776 1206.39 246.797L1191.77 264.988Z" fill="black"/>
<path d="M1211.38 553.495H1222.55C1224.32 553.495 1225.49 553.201 1226.08 552.613C1226.86 551.828 1227.26 550.554 1227.26 548.79V500.265C1213.73 504.383 1201.57 506.441 1190.79 506.441C1180.99 506.441 1172.95 503.892 1166.68 498.795C1160.4 493.501 1157.26 485.855 1157.26 475.856V432.92C1157.26 431.155 1156.87 429.979 1156.09 429.391C1155.5 428.606 1154.32 428.214 1152.56 428.214H1141.38V421.156H1205.49V428.214H1196.08C1194.32 428.214 1193.04 428.606 1192.26 429.391C1191.67 429.979 1191.38 431.155 1191.38 432.92V484.385C1191.38 489.286 1192.26 492.815 1194.03 494.972C1195.79 497.128 1198.63 498.207 1202.55 498.207C1205.89 498.207 1210 497.717 1214.91 496.736C1219.81 495.56 1223.92 494.384 1227.26 493.207V432.92C1227.26 431.155 1226.86 429.979 1226.08 429.391C1225.49 428.606 1224.32 428.214 1222.55 428.214H1213.14V421.156H1277.25V428.214H1266.08C1264.31 428.214 1263.04 428.606 1262.25 429.391C1261.66 429.979 1261.37 431.155 1261.37 432.92V548.79C1261.37 550.554 1261.66 551.828 1262.25 552.613C1263.04 553.201 1264.31 553.495 1266.08 553.495H1277.25V560.553H1211.38V553.495Z" fill="black"/>
<path d="M1295.53 469.839C1288.71 466.597 1283.68 461.631 1280.43 454.941C1277.28 448.3 1276.14 440.424 1276.99 431.314C1277.9 422.098 1280.87 412.191 1285.91 401.594C1290 392.99 1295.12 385.068 1301.26 377.826C1307.4 370.585 1313.87 365.233 1320.66 361.772C1333.01 355.55 1344.32 354.883 1354.6 359.77C1362.05 363.311 1366.89 368.697 1369.11 375.927C1369.79 378.564 1369.89 381.186 1369.43 383.794C1369.06 386.451 1368.46 388.672 1367.61 390.455C1365.86 394.128 1363.13 396.495 1359.41 397.556C1356.88 398.282 1354.35 398.047 1351.84 396.85C1349.42 395.703 1347.98 393.861 1347.52 391.324C1347.34 390.34 1347.3 389.483 1347.39 388.754C1347.58 388.075 1347.93 387.21 1348.43 386.161C1349.18 384.587 1350.61 383.338 1352.72 382.412C1354.16 381.812 1355.58 381.394 1356.98 381.158C1358.22 380.977 1359.15 380.647 1359.77 380.167C1360.53 379.632 1361.14 378.892 1361.59 377.948C1362.49 376.059 1362.16 373.909 1360.61 371.498C1359.21 369.032 1356.3 366.751 1351.9 364.657C1348.12 362.861 1343.98 362.242 1339.47 362.8C1335.06 363.408 1330.48 365.733 1325.73 369.777C1322.1 372.812 1318.42 377.042 1314.68 382.469C1310.94 387.896 1308.13 392.603 1306.23 396.59L1302.87 403.672L1303.74 404.668C1307.53 401.579 1311.96 399.698 1317.04 399.025C1322.27 398.297 1326.72 398.806 1330.4 400.551C1337.43 403.892 1342.53 408.441 1345.71 414.198C1348.41 419.081 1349.66 424.564 1349.47 430.648C1349.33 436.626 1347.91 442.449 1345.22 448.114C1342.53 453.78 1338.55 458.9 1333.29 463.474C1328.08 467.943 1322.11 470.894 1315.38 472.327C1308.76 473.81 1302.14 472.981 1295.53 469.839ZM1297.93 464.803C1304.33 467.845 1310.39 466.997 1316.12 462.258C1321.95 457.568 1326.71 451.342 1330.4 443.577C1334.39 435.184 1336.44 427.608 1336.57 420.85C1336.69 414.092 1333.82 409.317 1327.94 406.524C1324.27 404.778 1320.39 404.414 1316.31 405.431C1312.22 406.448 1308.22 408.788 1304.29 412.452C1300.52 416.061 1297.26 420.75 1294.51 426.521C1290.37 435.23 1288.32 443.065 1288.36 450.028C1288.44 456.885 1291.63 461.81 1297.93 464.803Z" fill="black"/>
<defs>
<radialGradient id="paint0_radial_449_3058" cx="0" cy="0" r="1" gradientTransform="matrix(-8.38985e-06 537.999 -767.502 19.9582 720.586 542.001)" gradientUnits="userSpaceOnUse">
<stop stop-color="white"/>
<stop offset="0.552494" stop-color="#515151"/>
<stop offset="0.621823" stop-color="#3B3B3B"/>
<stop offset="0.769442" stop-color="#1A1A1A"/>
<stop offset="0.791582" stop-color="#121212"/>
<stop offset="0.848668" stop-color="#060606"/>
<stop offset="0.980825"/>
</radialGradient>
</defs>
</svg>
