<svg width="1630" height="1258" viewBox="0 0 1630 1258" fill="none" xmlns="http://www.w3.org/2000/svg">
<g filter="url(#filter0_f_442_1227)">
<circle cx="707.5" cy="588.502" r="266.5" fill="url(#paint0_radial_442_1227)"/>
</g>
<path d="M0 0H1438.5L1440 1051H1.49844L0 0Z" fill="url(#paint1_radial_442_1227)"/>
<path d="M412.991 67.8214L398.508 77.5544C395.75 79.4083 394.182 81.2962 393.805 83.2181C393.428 85.1399 394.167 87.4801 396.021 90.2387L480.373 215.753C482.227 218.511 484.115 220.079 486.037 220.456C487.959 220.833 490.299 220.094 493.057 218.24C500.414 213.297 505.539 207.516 508.433 200.899C511.482 194.512 512.609 187.748 511.815 180.606C510.628 171.393 508.405 162.375 505.146 153.553C501.811 145.115 499.603 140.092 498.522 138.483L505.418 133.848L543.79 196.158L413.104 283.987L370.249 224.689L377.146 220.055C378.227 221.664 382.159 225.528 388.942 231.649C395.649 238.153 403.045 243.695 411.128 248.274C417.439 251.707 424.128 253.219 431.194 252.808C438.414 252.628 445.702 250.066 453.059 245.122C455.817 243.268 457.385 241.38 457.762 239.458C458.139 237.536 457.4 235.196 455.546 232.438L371.194 106.924C369.34 104.165 367.452 102.598 365.53 102.221C363.608 101.844 361.268 102.582 358.509 104.436L344.027 114.169L338.465 105.893L407.429 59.5458L412.991 67.8214Z" fill="black"/>
<path fill-rule="evenodd" clip-rule="evenodd" d="M1315.83 726.514C1322.17 735.475 1330.36 741.447 1340.4 744.429L1350 728.685C1342.38 725.576 1335.52 719.72 1329.43 711.119C1322.41 701.198 1318.88 692.648 1318.84 685.468C1318.69 678.129 1320.56 670.433 1324.47 662.381L1355.01 657.54L1361.27 610.025L1355.01 610.853L1354.33 609.893C1358.72 601.501 1361.07 592.269 1361.39 582.197C1361.87 572.011 1359.27 562.918 1353.61 554.917C1349.64 549.317 1343.88 544.745 1336.33 541.204C1328.94 537.549 1320.23 536.27 1310.2 537.367C1300.32 538.351 1290.11 542.582 1279.55 550.059C1270.58 556.403 1263.14 564.553 1257.22 574.511C1251.35 584.195 1248.27 594.781 1247.99 606.266C1247.88 617.639 1251.56 628.605 1259.03 639.166C1272.4 658.048 1291.21 666.469 1315.47 664.429L1315.81 664.909C1310.56 673.434 1307.46 683.312 1306.53 694.544C1305.59 705.776 1308.69 716.433 1315.83 726.514ZM1351.69 588.344C1352.31 597.03 1350.33 604.919 1345.74 612.011L1303.6 619.149C1296.07 620.394 1289.68 620.356 1284.42 619.035C1279.16 617.713 1274.26 613.852 1269.73 607.452C1263.39 598.491 1262.42 589.325 1266.84 579.953C1271.41 570.468 1278.02 562.667 1286.66 556.55C1292.1 552.698 1298.29 550.24 1305.22 549.175C1312.2 547.837 1319.07 548.379 1325.83 550.8C1332.59 553.222 1338.29 557.713 1342.94 564.274C1348.03 571.474 1350.95 579.498 1351.69 588.344Z" fill="black"/>
<path fill-rule="evenodd" clip-rule="evenodd" d="M148.341 391.191L124.5 396.664L105.5 431.717L155.034 420.345C158.273 419.602 160.723 419.75 162.382 420.79C164.042 421.829 165.244 423.969 165.987 427.208L169.892 444.215L179.61 441.984L161.018 361L151.299 363.231L155.204 380.238C155.947 383.477 155.799 385.927 154.76 387.586C153.72 389.246 151.58 390.447 148.341 391.191ZM99.1206 518.434L82.0816 444.215L91.7997 441.984L108.839 516.203L173.626 501.329C176.865 500.586 179.005 499.384 180.045 497.725C181.085 496.065 181.233 493.615 180.489 490.376L176.585 473.369L186.303 471.138L204.895 552.122L195.177 554.353L191.272 537.347C190.529 534.107 189.327 531.968 187.668 530.928C186.008 529.888 183.558 529.74 180.319 530.484L71.3521 555.5L75 528.366L80.5285 522.702L99.1206 518.434Z" fill="black"/>
<path fill-rule="evenodd" clip-rule="evenodd" d="M1062.3 874.997L1063.5 1048.5L1104.45 1048.5L1104.16 1006.9L1164.25 1006.48C1182.34 1006.36 1197.22 1011.75 1208.87 1022.64C1215.47 1028.51 1220.28 1036.79 1223.29 1047.5L1267.91 1049C1266.25 1045.46 1264.26 1042.04 1261.94 1038.74C1254.15 1027.23 1244.15 1018.25 1231.94 1011.8C1220.02 1005.06 1207.98 1001.29 1195.8 1000.48L1195.79 998.699C1213.87 994.717 1229.68 986.15 1243.24 973.001C1256.8 959.851 1263.51 943.188 1263.37 923.012C1263.27 908.473 1258.58 895.598 1249.3 884.386C1240.02 872.878 1227.65 863.914 1212.17 857.493C1197 851.07 1180.66 847.919 1163.15 848.04L1018.06 849.043L1018.16 863.285L1050.2 863.064C1054.35 863.035 1057.33 864.053 1059.12 866.117C1061.21 867.883 1062.27 870.843 1062.3 874.997ZM1211.2 973.667C1202.68 985.892 1186.4 992.088 1162.37 992.254L1104.06 992.657L1103.25 874.714C1103.22 870.56 1104.09 867.587 1105.86 865.794C1107.92 863.703 1111.03 862.643 1115.18 862.614L1165.03 862.27C1181.64 862.155 1195.63 867.844 1206.98 879.338C1218.34 890.832 1224.08 905.48 1224.2 923.283C1224.35 944.349 1220.01 961.144 1211.2 973.667Z" fill="black"/>
<path d="M1127 855.671H1141.16C1147.55 855.671 1152.13 854.561 1154.9 852.339C1157.68 849.84 1160.04 845.952 1161.99 840.676C1169.21 819.572 1174.76 796.246 1178.65 770.699C1182.53 745.152 1184.48 719.327 1184.48 693.225C1184.48 688.782 1183.37 684.894 1181.15 681.562C1179.2 678.23 1176.15 676.564 1171.98 676.564H1157.82V666.567H1311.94V676.564H1291.94C1289.44 676.564 1287.64 677.119 1286.53 678.23C1285.69 679.063 1285.28 680.729 1285.28 683.228V840.676C1285.28 845.675 1286.25 849.423 1288.19 851.923C1290.42 854.422 1293.89 855.671 1298.61 855.671H1321.1L1323.6 928.981H1311.94C1311.66 927.037 1310.55 922.455 1308.6 915.235C1306.66 908.293 1304.16 901.767 1301.11 895.658C1296.66 886.495 1291.53 878.858 1285.69 872.749C1279.86 866.918 1272.09 864.002 1262.37 864.002H1185.73C1176.01 864.002 1168.23 866.918 1162.4 872.749C1156.57 878.858 1151.43 886.495 1146.99 895.658C1143.94 902.045 1141.44 908.709 1139.49 915.652C1137.55 922.594 1136.44 927.037 1136.16 928.981H1124.5L1127 855.671ZM1230.3 854.005C1234.74 854.005 1236.96 851.506 1236.96 846.508V683.228C1236.96 680.729 1236.41 679.063 1235.29 678.23C1234.46 677.119 1232.8 676.564 1230.3 676.564H1221.55C1212.11 676.564 1205.58 680.035 1201.97 686.977C1198.64 693.919 1196.7 703.222 1196.14 714.884C1195.59 731.823 1193.64 750.706 1190.31 771.532C1187.25 792.359 1183.92 809.575 1180.31 823.182C1177.54 833.179 1176.15 840.676 1176.15 845.675C1176.15 848.174 1177.12 850.256 1179.06 851.923C1181.01 853.311 1183.09 854.005 1185.31 854.005H1230.3Z" fill="black"/>
<g filter="url(#filter1_f_442_1227)">
<ellipse cx="1156.77" cy="761.381" rx="43.0744" ry="112.581" transform="rotate(34.0844 1156.77 761.381)" fill="black"/>
</g>
<path fill-rule="evenodd" clip-rule="evenodd" d="M886.619 1050.5L831.169 961.813C829.406 958.995 828.745 956.632 829.185 954.724C829.626 952.815 831.255 950.98 834.073 949.218L848.868 939.967L843.582 931.513L716.767 1010.8L722.053 1019.26L736.848 1010.01C742.014 1006.78 747.534 1009.86 753.408 1019.25C760.051 1029.88 766.082 1040.29 771.5 1050.5L785.402 1050.5C781.786 1043.37 778.227 1037.01 774.724 1031.4C761.216 1009.8 761.624 994.517 775.949 985.56L793.21 974.768C796.028 973.006 798.391 972.345 800.3 972.785C802.208 973.225 804.043 974.854 805.805 977.672L851.341 1050.5L886.619 1050.5Z" fill="black"/>
<path d="M131.84 983.624H151.383C155.105 983.624 157.742 982.848 159.293 981.297C160.844 979.746 161.619 977.109 161.619 973.387V804.015C161.619 800.292 160.844 797.655 159.293 796.104C157.742 794.553 155.105 793.778 151.383 793.778C141.456 793.778 133.08 795.949 126.256 800.292C119.431 804.325 114.158 809.908 110.435 817.043C105.782 826.349 102.215 836.121 99.7333 846.358C97.5618 856.284 96.4761 862.333 96.4761 864.505H87.1699L90.4271 782.61H266.779L269.571 864.505H260.265C260.265 862.333 259.024 856.284 256.542 846.358C254.371 836.121 250.959 826.349 246.305 817.043C242.583 809.908 237.31 804.325 230.485 800.292C223.66 795.949 215.285 793.778 205.358 793.778C201.636 793.778 198.999 794.553 197.448 796.104C195.897 797.655 195.122 800.292 195.122 804.015V973.387C195.122 977.109 195.897 979.746 197.448 981.297C198.999 982.848 201.636 983.624 205.358 983.624H224.901V994.791H131.84V983.624Z" fill="black"/>
<path d="M98.2087 630.296V756.595C98.2087 764.073 99.3166 769.751 101.532 773.628C103.748 777.229 107.903 779.029 113.996 779.029H122.305V789H62.4796V779.029H70.7887C76.8821 779.029 81.0366 777.229 83.2524 773.628C85.4681 769.751 86.576 764.073 86.576 756.595V618.664C86.576 615.34 85.8836 612.986 84.4987 611.601C83.1139 610.216 80.7596 609.524 77.436 609.524H62.4796V599.553H119.812L166.343 737.484L210.797 599.553H270.207V609.524H255.25C251.927 609.524 249.573 610.216 248.188 611.601C246.803 612.986 246.11 615.34 246.11 618.664V769.889C246.11 773.213 246.803 775.567 248.188 776.952C249.573 778.337 251.927 779.029 255.25 779.029H270.207V789H192.101V779.029H207.058C210.381 779.029 212.736 778.337 214.12 776.952C215.505 775.567 216.198 773.213 216.198 769.889V626.973L162.189 792.324H154.71L98.2087 630.296Z" fill="black"/>
<path d="M625.457 46.2963V172.594C625.457 180.073 626.564 185.75 628.78 189.628C630.996 193.229 635.151 195.029 641.244 195.029H649.553V205H589.728V195.029H598.037C604.13 195.029 608.284 193.229 610.5 189.628C612.716 185.75 613.824 180.073 613.824 172.594V34.6636C613.824 31.34 613.131 28.9858 611.747 27.6009C610.362 26.2161 608.008 25.5237 604.684 25.5237H589.728V15.5527H647.06L693.591 153.484L738.045 15.5527H797.455V25.5237H782.498C779.175 25.5237 776.82 26.2161 775.436 27.6009C774.051 28.9858 773.358 31.34 773.358 34.6636V185.889C773.358 189.213 774.051 191.567 775.436 192.952C776.82 194.337 779.175 195.029 782.498 195.029H797.455V205H719.349V195.029H734.306C737.629 195.029 739.983 194.337 741.368 192.952C742.753 191.567 743.446 189.213 743.446 185.889V42.9727L689.437 208.323H681.958L625.457 46.2963Z" fill="black"/>
<path fill-rule="evenodd" clip-rule="evenodd" d="M640.055 1051L669.464 967.971H673.081L701.411 1051H687.418L683.645 1040.32H649.784L646.311 1050.02C646.194 1050.35 646.081 1050.68 645.974 1051H640.055ZM651.376 1035.69H682.053L667.004 991.558L651.376 1035.69Z" fill="black"/>
<path d="M405.56 956.27L401.332 956.253C400.274 956.249 399.748 955.718 399.752 954.661L399.89 919.775C399.892 919.227 400.031 918.836 400.306 918.602C400.542 918.329 400.934 918.193 401.482 918.196L405.711 918.212L405.718 916.333L374.003 916.207L373.238 931.592L374.706 931.598C374.746 931.363 374.866 930.796 375.065 929.896C375.225 928.957 375.504 927.842 375.901 926.552C376.297 925.222 376.811 923.991 377.442 922.858C378.231 921.412 379.293 920.261 380.627 919.405C381.962 918.549 383.608 918.125 385.566 918.133L392.907 918.162C393.455 918.164 393.866 918.302 394.139 918.578C394.373 918.813 394.489 919.205 394.487 919.754L394.425 935.317L383.912 935.276C381.446 935.266 379.212 935.746 377.211 936.717C375.172 937.649 373.561 938.974 372.38 940.692C371.198 942.41 370.603 944.385 370.594 946.617C370.585 948.849 371.165 950.828 372.333 952.556C373.501 954.283 375.1 955.64 377.133 956.627C379.126 957.575 381.356 958.053 383.822 958.063L405.553 958.149L405.56 956.27ZM384.828 956.188C382.166 956.177 380.172 955.347 378.847 953.697C377.484 952.008 376.808 949.656 376.82 946.642C376.832 943.627 377.526 941.3 378.903 939.661C380.241 937.982 382.241 937.148 384.903 937.159L394.418 937.197L394.349 954.64C394.345 955.697 393.814 956.223 392.757 956.219L384.828 956.188Z" fill="black"/>
<path d="M152.113 660.905L158.119 662.888C159.62 663.384 160.618 662.881 161.113 661.38L177.446 611.822C177.703 611.044 177.691 610.423 177.412 609.961C177.207 609.461 176.715 609.083 175.936 608.826L169.931 606.842L170.811 604.173L217.355 619.545L210.814 640.513L208.729 639.824C209.095 638.711 209.468 636.738 209.848 633.903C210.283 631.086 210.154 628.391 209.46 625.819C208.298 621.488 205.603 618.624 201.377 617.228L188.115 612.848C187.336 612.591 186.688 612.593 186.17 612.854C185.727 613.077 185.377 613.578 185.12 614.357L177.724 636.799L184.146 638.921C186.982 639.857 189.489 639.082 191.665 636.593C193.897 634.124 195.554 631.248 196.636 627.966L198.804 628.683L188.961 658.55L186.792 657.834C187.874 654.553 188.251 651.254 187.926 647.94C187.655 644.644 186.102 642.527 183.266 641.59L176.844 639.469L168.787 663.914C168.292 665.416 168.796 666.415 170.297 666.91L183.643 671.318C185.256 671.851 187.015 672.031 188.922 671.859C190.828 671.687 192.613 671.043 194.276 669.927C195.901 668.737 197.46 667.093 198.953 664.996C200.446 662.899 201.643 660.95 202.544 659.151C203.464 657.296 204.043 656.1 204.282 655.562L206.367 656.251L197.777 678.947L151.233 663.575L152.113 660.905Z" fill="black"/>
<path d="M221.494 774.207H231.628C233.559 774.207 234.926 773.805 235.731 773C236.535 772.196 236.937 770.829 236.937 768.898V681.064C236.937 679.133 236.535 677.766 235.731 676.962C234.926 676.157 233.559 675.755 231.628 675.755H221.494V669.964H277.959C288.093 669.964 296.298 672.377 302.572 677.203C309.006 682.029 312.224 688.464 312.224 696.507C312.224 703.746 309.811 709.457 304.985 713.64C300.319 717.661 295.011 720.316 289.059 721.603V722.085C292.276 722.407 296.137 723.614 300.641 725.705C305.146 727.635 309.087 730.611 312.465 734.633C315.843 738.655 317.532 743.642 317.532 749.594C317.532 758.763 313.752 766.163 306.191 771.794C298.791 777.263 290.024 779.998 279.889 779.998H221.494V774.207ZM274.58 719.672C281.176 719.672 286.002 717.581 289.059 713.398C292.276 709.216 293.885 703.907 293.885 697.472C293.885 691.198 292.115 686.051 288.576 682.029C285.037 677.846 280.533 675.755 275.063 675.755H259.62C257.689 675.755 256.322 676.157 255.517 676.962C254.713 677.766 254.311 679.133 254.311 681.064V719.672H274.58ZM276.993 774.207C283.428 774.207 288.254 771.794 291.472 766.968C294.689 761.981 296.298 756.189 296.298 749.594C296.298 742.516 294.689 736.724 291.472 732.22C288.254 727.716 283.267 725.464 276.511 725.464H254.311V768.898C254.311 770.829 254.713 772.196 255.517 773C256.322 773.805 257.689 774.207 259.62 774.207H276.993Z" fill="black"/>
<path d="M1239.97 278.326L1231.44 288.937C1229.82 290.958 1229.09 292.729 1229.25 294.249C1229.42 295.769 1230.51 297.342 1232.53 298.969L1324.42 372.982C1326.44 374.609 1328.21 375.34 1329.72 375.176C1331.24 375.011 1332.81 373.918 1334.44 371.897L1342.97 361.286L1349.03 366.166L1301.51 425.286C1292.98 435.897 1283.55 442.454 1273.22 444.956C1262.76 447.627 1253.32 445.573 1244.9 438.796C1237.33 432.696 1233.39 425.357 1233.07 416.779C1232.79 408.506 1234.48 400.711 1238.14 393.394L1237.64 392.988C1234.59 396.085 1230.08 399.111 1224.1 402.065C1218.29 405.154 1211.86 406.773 1204.81 406.921C1197.76 407.07 1191.12 404.636 1184.9 399.62C1175.31 391.894 1170.75 381.7 1171.22 369.039C1171.72 356.682 1176.24 345.198 1184.77 334.587L1233.91 273.446L1239.97 278.326ZM1252.35 379.862C1246.8 386.768 1244.92 393.583 1246.73 400.308C1248.39 407.201 1252.59 413.359 1259.33 418.781C1265.89 424.068 1272.76 426.553 1279.95 426.236C1287.3 426.055 1293.28 423.101 1297.88 417.374L1310.88 401.205C1312.51 399.183 1313.24 397.413 1313.07 395.893C1312.91 394.373 1311.81 392.8 1309.8 391.173L1269.41 358.64L1252.35 379.862ZM1193.27 336.435C1187.85 343.172 1186.31 350.259 1188.65 357.694C1191.16 365.265 1195.87 371.829 1202.77 377.387C1210.17 383.352 1217.59 386.547 1225.01 386.974C1232.42 387.401 1238.98 384.078 1244.66 377.003L1263.35 353.76L1217.91 317.159C1215.89 315.533 1214.12 314.802 1212.6 314.966C1211.08 315.13 1209.51 316.223 1207.89 318.244L1193.27 336.435Z" fill="black"/>
<path fill-rule="evenodd" clip-rule="evenodd" d="M1019.25 930.538C1010.82 924.92 1000.88 922.11 989.427 922.11C979.703 922.11 971.275 925.46 964.144 932.159C956.797 939.074 951.502 946.313 948.261 953.877L946.64 953.228C946.208 943.504 943.723 935.832 939.185 930.214C934.431 924.811 927.408 922.11 918.115 922.11C908.391 922.11 901.692 926.54 898.018 935.4C894.129 944.26 892.184 955.173 892.184 968.139H898.018C898.018 959.063 899.207 951.391 901.584 945.125C903.961 938.858 907.851 935.724 913.253 935.724C919.952 935.724 923.302 941.127 923.302 951.932V1031.67C923.302 1038.38 924.238 1044.32 926.111 1049.5H947.584C946.955 1046.57 946.64 1043.33 946.64 1039.78V1012.22L976.462 1006.71C987.05 1004.77 996.126 1002.39 1003.69 999.581C1011.04 996.988 1017.52 992.558 1023.14 986.291C1028.76 980.024 1031.57 971.38 1031.57 960.359C1031.57 946.097 1027.46 936.157 1019.25 930.538ZM1004.99 1046.58C1005.36 1047.21 1005.63 1048.01 1005.79 1049H1020.04C1020.81 1046.01 1021.19 1042.83 1021.19 1039.45C1021.19 1032.54 1019.25 1027.24 1015.36 1023.57C1011.47 1019.89 1007.15 1018.06 1002.39 1018.06C998.287 1018.06 994.938 1019.03 992.345 1020.97C989.536 1022.92 988.131 1026.16 988.131 1030.7C988.131 1034.16 989.211 1036.86 991.372 1038.8C993.317 1040.75 996.235 1042.26 1000.12 1043.34C1000.99 1043.56 1001.96 1043.99 1003.04 1044.64C1003.91 1045.29 1004.55 1045.93 1004.99 1046.58ZM961.551 945.125C966.953 937.561 974.517 933.779 984.241 933.779C989.427 933.779 994.074 935.508 998.179 938.966C1002.29 942.639 1004.34 949.447 1004.34 959.387C1004.34 971.056 1002.07 980.024 997.531 986.291C992.777 992.774 985.214 997.096 974.841 999.257L946.64 1005.42V974.622C950.962 962.737 955.932 952.904 961.551 945.125Z" fill="black"/>
<path d="M294.012 951.63C284.722 951.63 276.191 948.928 268.421 943.522C260.651 937.948 254.485 930.515 249.924 921.225C245.532 911.934 243.336 901.799 243.336 890.819C243.336 879.839 245.532 869.704 249.924 860.413C254.485 851.122 260.651 843.774 268.421 838.369C276.191 832.795 284.722 830.007 294.012 830.007C303.303 830.007 311.834 832.795 319.604 838.369C327.374 843.774 333.455 851.122 337.847 860.413C342.408 869.704 344.689 879.839 344.689 890.819C344.689 901.799 342.408 911.934 337.847 921.225C333.455 930.515 327.374 937.948 319.604 943.522C311.834 948.928 303.303 951.63 294.012 951.63ZM294.012 945.549C304.148 945.549 311.411 940.819 315.803 931.36C320.195 921.731 322.391 908.218 322.391 890.819C322.391 873.42 320.195 859.991 315.803 850.531C311.411 840.903 304.148 836.088 294.012 836.088C283.877 836.088 276.614 840.903 272.222 850.531C267.83 859.991 265.634 873.42 265.634 890.819C265.634 908.218 267.83 921.731 272.222 931.36C276.614 940.819 283.877 945.549 294.012 945.549Z" fill="black"/>
<path d="M523.204 236.079C518.841 231.214 515.51 225.579 513.212 219.172C510.992 212.852 510.337 206.616 511.246 200.464C512.32 194.321 515.286 189.066 520.146 184.698C525.614 179.783 531.698 177.217 538.399 176.999C545.101 176.781 551.15 177.933 556.548 180.456L556.808 180.222C553.939 166.013 557.625 154.306 567.865 145.101C573.593 139.953 579.821 137.023 586.549 136.31C593.355 135.684 599.82 136.776 605.946 139.586C612.236 142.405 617.562 146.246 621.925 151.111C627.068 156.844 630.268 162.597 631.527 168.369C632.863 174.228 632.705 179.469 631.052 184.093C629.477 188.803 627.171 192.524 624.134 195.254C619.794 199.154 614.599 201.313 608.548 201.732C602.574 202.237 596.958 201.48 591.698 199.461L591.178 199.929L592.096 203.575C594.176 210.962 594.371 218.083 592.681 224.936C590.991 231.79 587.933 237.206 583.507 241.184C577.866 246.254 571.572 249.636 564.626 251.329C557.681 253.022 550.599 252.641 543.381 250.186C536.162 247.731 529.437 243.028 523.204 236.079ZM589.858 194.525C594.363 196.752 599.16 197.382 604.25 196.416C609.427 195.372 613.968 193.095 617.873 189.584C621.431 186.386 623.694 182.705 624.661 178.541C625.629 174.376 625.478 170.276 624.208 166.239C623.104 162.211 621.227 158.721 618.578 155.767C614.371 151.076 609.308 147.704 603.39 145.649C597.549 143.681 592.199 144.881 587.339 149.25C583.868 152.37 581.922 155.531 581.502 158.732C581.082 161.934 581.498 165.718 582.749 170.085L589.858 194.525ZM530.525 235.853C533.953 239.675 537.686 242.439 541.724 244.144C545.848 245.772 549.783 246.314 553.529 245.772C557.352 245.316 560.609 243.879 563.299 241.461C566.771 238.341 568.661 234.681 568.969 230.481C569.278 226.281 568.742 221.664 567.361 216.629L558.635 185.405C553.609 183.646 548.933 183.064 544.607 183.658C540.367 184.174 535.557 186.85 530.176 191.686C524.622 196.678 521.443 202.046 520.638 207.79C519.998 213.543 520.746 218.833 522.881 223.66C525.094 228.575 527.642 232.639 530.525 235.853Z" fill="black"/>
<path fill-rule="evenodd" clip-rule="evenodd" d="M55.5001 615.384L119.021 615.036L119 611.336L112.526 611.372C111.293 611.378 110.418 611.126 109.902 610.615C109.385 610.104 109.123 609.232 109.117 607.999L108.809 551.891C108.802 550.658 109.054 549.783 109.565 549.266C110.076 548.75 110.948 548.488 112.181 548.481L118.655 548.446L118.635 544.746L87.8065 544.916L87.8268 548.615L94.3008 548.579C95.5339 548.573 96.4088 548.825 96.9255 549.336C97.4421 549.847 97.7038 550.719 97.7105 551.952L98.0183 608.06C98.0251 609.293 97.7729 610.168 97.262 610.685C96.751 611.201 95.8789 611.463 94.6457 611.47L75.2237 611.576C73.9906 611.583 73.1157 611.331 72.5991 610.82C72.0825 610.309 71.8208 609.437 71.814 608.204L71.5062 552.096C71.4995 550.863 71.7516 549.988 72.2626 549.471C72.7736 548.954 73.6456 548.693 74.8788 548.686L81.3528 548.65L81.3325 544.951L50.5039 545.12L50.5242 548.82L56.9982 548.784C58.2313 548.777 59.1062 549.029 59.6229 549.54C60.1395 550.051 60.4012 550.923 60.4079 552.157L60.7157 608.265C60.7225 609.498 60.4703 610.373 59.9594 610.889C59.4484 611.406 58.5763 611.668 57.3432 611.674L55.5001 611.684L55.5001 615.384Z" fill="black"/>
<path fill-rule="evenodd" clip-rule="evenodd" d="M388.224 898.683H369.53V888.002H458.546V898.683H439.853C436.292 898.683 433.77 899.425 432.286 900.909C430.803 902.392 430.061 904.914 430.061 908.475V1049.5H398.015V908.475C398.015 904.914 397.273 902.392 395.79 900.909C394.306 899.425 391.784 898.683 388.224 898.683Z" fill="black"/>
<path fill-rule="evenodd" clip-rule="evenodd" d="M544.219 1050V977.177C544.219 975.502 544.568 974.316 545.266 973.618C545.964 972.921 547.15 972.572 548.824 972.572H557.616V967.548H482.258V972.572H491.05C494.12 972.572 495.655 975.363 495.655 980.945C495.655 994.202 494.748 1006.34 492.934 1017.37C491.297 1028.15 488.593 1039.19 484.822 1050.5H491.906C492.47 1047.37 493.58 1042.82 495.236 1036.84C496.632 1031.81 498.027 1024.69 499.423 1015.48C500.818 1006.27 501.516 998.389 501.516 991.83C501.516 978.991 505.772 972.572 514.285 972.572H524.542C526.217 972.572 527.403 972.921 528.101 973.618C528.799 974.316 529.147 975.502 529.147 977.177V1050H544.219Z" fill="black"/>
<path fill-rule="evenodd" clip-rule="evenodd" d="M574.028 977.826V1051H598.31V1018.02H609.614C614.079 1018.02 617.429 1020.04 619.661 1024.09C621.894 1028.13 623.011 1033.37 623.011 1039.79C623.011 1044.01 622.498 1047.74 621.473 1051H646.023C647.707 1047.53 648.549 1043.79 648.549 1039.79C648.549 1032.25 645.688 1025.9 639.966 1020.74C634.245 1015.58 627.058 1012.99 618.405 1012.99H598.31V977.617C598.31 975.803 598.589 974.547 599.147 973.849C599.705 973.151 600.682 972.802 602.078 972.802H609.195V967.778H541.791L540.535 1008.39H545.978C545.978 1007.55 546.466 1004.9 547.443 1000.43C548.42 995.968 549.885 991.572 551.839 987.246C553.653 983.059 555.816 979.64 558.328 976.989C560.84 974.198 564.05 972.802 567.957 972.802C572.004 972.802 574.028 974.477 574.028 977.826Z" fill="black"/>
<path d="M1212.87 624.944H1224.05C1225.81 624.944 1226.99 624.65 1227.58 624.062C1228.36 623.277 1228.75 622.003 1228.75 620.239V571.714C1215.23 575.832 1203.07 577.89 1192.29 577.89C1182.49 577.89 1174.45 575.341 1168.17 570.244C1161.9 564.95 1158.76 557.304 1158.76 547.305V504.369C1158.76 502.604 1158.37 501.428 1157.59 500.84C1157 500.055 1155.82 499.663 1154.06 499.663H1142.88V492.605H1206.99V499.663H1197.58C1195.82 499.663 1194.54 500.055 1193.76 500.84C1193.17 501.428 1192.88 502.604 1192.88 504.369V555.834C1192.88 560.735 1193.76 564.264 1195.52 566.421C1197.29 568.577 1200.13 569.656 1204.05 569.656C1207.38 569.656 1211.5 569.166 1216.4 568.185C1221.3 567.009 1225.42 565.833 1228.75 564.656V504.369C1228.75 502.604 1228.36 501.428 1227.58 500.84C1226.99 500.055 1225.81 499.663 1224.05 499.663H1214.64V492.605H1278.75V499.663H1267.57C1265.81 499.663 1264.54 500.055 1263.75 500.84C1263.16 501.428 1262.87 502.604 1262.87 504.369V620.239C1262.87 622.003 1263.16 623.277 1263.75 624.062C1264.54 624.65 1265.81 624.944 1267.57 624.944H1278.75V632.002H1212.87V624.944Z" fill="black"/>
<path d="M978.228 925.75L980.625 926.392C983.173 927.075 985.453 925.996 987.464 923.155L1011.93 887.559L1013.55 887.993L1016.57 932.966C1016.71 934.161 1017.03 935.056 1017.52 935.65C1018.02 936.201 1018.74 936.603 1019.69 936.858L1023.32 937.83L1022.77 939.903L1002.68 934.523L1003.24 932.449L1007.51 933.595C1008.16 933.768 1008.74 933.762 1009.25 933.575C1009.78 933.345 1010.1 933.014 1010.21 932.583C1010.36 932.021 1010.41 931.523 1010.34 931.088L1009.6 921.655L994.44 917.593L991.722 921.518C990.654 923.084 990.016 924.255 989.808 925.033C989.553 925.983 989.565 926.889 989.844 927.75C990.134 928.569 990.862 929.134 992.028 929.447L995.98 930.505L995.425 932.579L977.672 927.823L978.228 925.75ZM995.708 915.711L1009.44 919.391L1008 897.825L995.708 915.711Z" fill="black"/>
<path d="M1297.03 541.288C1290.21 538.046 1285.18 533.08 1281.92 526.389C1278.78 519.749 1277.63 511.873 1278.49 502.762C1279.4 493.547 1282.37 483.64 1287.41 473.043C1291.5 464.439 1296.61 456.516 1302.76 449.275C1308.9 442.033 1315.37 436.682 1322.16 433.221C1334.51 426.999 1345.82 426.331 1356.1 431.219C1363.55 434.76 1368.39 440.145 1370.61 447.376C1371.29 450.013 1371.39 452.635 1370.92 455.242C1370.56 457.9 1369.96 460.12 1369.11 461.904C1367.36 465.576 1364.63 467.943 1360.91 469.005C1358.38 469.731 1355.85 469.495 1353.33 468.298C1350.92 467.151 1349.48 465.309 1349.01 462.772C1348.84 461.789 1348.8 460.932 1348.89 460.203C1349.08 459.523 1349.43 458.659 1349.93 457.61C1350.67 456.036 1352.1 454.786 1354.22 453.861C1355.66 453.26 1357.08 452.842 1358.48 452.607C1359.72 452.426 1360.65 452.096 1361.26 451.616C1362.03 451.081 1362.64 450.341 1363.09 449.397C1363.99 447.508 1363.66 445.358 1362.1 442.947C1360.7 440.481 1357.8 438.2 1353.39 436.105C1349.62 434.31 1345.47 433.691 1340.96 434.249C1336.56 434.856 1331.98 437.182 1327.23 441.226C1323.6 444.26 1319.92 448.491 1316.18 453.918C1312.44 459.345 1309.63 464.052 1307.73 468.039L1304.36 475.121L1305.24 476.117C1309.03 473.027 1313.46 471.146 1318.54 470.473C1323.77 469.745 1328.22 470.254 1331.89 472C1338.92 475.341 1344.03 479.89 1347.21 485.647C1349.91 490.529 1351.16 496.013 1350.97 502.096C1350.83 508.075 1349.41 513.897 1346.72 519.563C1344.02 525.229 1340.05 530.349 1334.79 534.923C1329.58 539.392 1323.61 542.343 1316.88 543.776C1310.26 545.259 1303.64 544.43 1297.03 541.288ZM1299.43 536.251C1305.83 539.294 1311.89 538.445 1317.61 533.706C1323.44 529.017 1328.21 522.79 1331.9 515.026C1335.89 506.632 1337.94 499.056 1338.07 492.299C1338.19 485.541 1335.32 480.765 1329.44 477.973C1325.77 476.227 1321.89 475.863 1317.81 476.88C1313.72 477.896 1309.71 480.237 1305.79 483.901C1302.01 487.509 1298.75 492.199 1296.01 497.97C1291.87 506.679 1289.82 514.514 1289.86 521.477C1289.94 528.334 1293.13 533.259 1299.43 536.251Z" fill="black"/>
<defs>
<filter id="filter0_f_442_1227" x="321" y="202.002" width="773" height="773" filterUnits="userSpaceOnUse" color-interpolation-filters="sRGB">
<feFlood flood-opacity="0" result="BackgroundImageFix"/>
<feBlend mode="normal" in="SourceGraphic" in2="BackgroundImageFix" result="shape"/>
<feGaussianBlur stdDeviation="60" result="effect1_foregroundBlur_442_1227"/>
</filter>
<filter id="filter1_f_442_1227" x="684.274" y="265.042" width="944.985" height="992.678" filterUnits="userSpaceOnUse" color-interpolation-filters="sRGB">
<feFlood flood-opacity="0" result="BackgroundImageFix"/>
<feBlend mode="normal" in="SourceGraphic" in2="BackgroundImageFix" result="shape"/>
<feGaussianBlur stdDeviation="200" result="effect1_foregroundBlur_442_1227"/>
</filter>
<radialGradient id="paint0_radial_442_1227" cx="0" cy="0" r="1" gradientUnits="userSpaceOnUse" gradientTransform="translate(707.5 588.502) rotate(37.576) scale(437.019 813.921)">
<stop stop-color="white"/>
<stop offset="1" stop-color="#5F5F5F"/>
</radialGradient>
<radialGradient id="paint1_radial_442_1227" cx="0" cy="0" r="1" gradientTransform="matrix(-8.38985e-06 537.999 -767.502 19.9582 720.749 604.001)" gradientUnits="userSpaceOnUse">
<stop stop-color="white"/>
<stop offset="0.552494" stop-color="#515151"/>
<stop offset="0.621823" stop-color="#3B3B3B"/>
<stop offset="0.769442" stop-color="#1A1A1A"/>
<stop offset="0.791582" stop-color="#121212"/>
<stop offset="0.848668" stop-color="#060606"/>
<stop offset="0.980825"/>
</radialGradient>
</defs>
</svg>
