<svg width="1091" height="615" viewBox="0 0 1091 615" fill="none" xmlns="http://www.w3.org/2000/svg">
<path d="M400.466 467.806C394.42 455.118 392.526 441.46 394.783 426.834C397.275 412.095 403.65 398.245 413.908 385.284C424.167 372.323 437.52 361.924 453.968 354.087C470.416 346.249 486.904 342.429 503.433 342.627C519.961 342.824 534.616 346.653 547.397 354.114C560.414 361.463 569.945 371.482 575.991 384.17C582.037 396.859 583.814 410.572 581.322 425.311C579.065 439.937 572.807 453.731 562.549 466.692C552.29 479.653 538.937 490.053 522.489 497.89C506.041 505.727 489.553 509.547 473.024 509.35C456.496 509.152 441.724 505.379 428.707 498.03C415.926 490.569 406.512 480.495 400.466 467.806ZM408.925 463.775C413.74 473.879 423.269 477.844 437.514 475.67C451.871 473.73 473.031 466.099 500.992 452.775C528.954 439.452 548.21 427.826 558.76 417.897C569.422 408.203 572.346 398.305 567.532 388.201C562.718 378.097 553.132 374.015 538.775 375.954C524.53 378.129 503.427 385.878 475.465 399.201C447.503 412.525 428.191 424.033 417.529 433.727C406.979 443.655 404.111 453.672 408.925 463.775Z" fill="#F3F3F3"/>
<path d="M367.312 182.195L373.48 189.246C377.109 193.394 381.904 195.668 387.865 196.066C393.965 196.344 400.092 195.256 406.244 192.803L572.488 124.635L580.107 133.346L484.74 295.102C479.745 303.621 479.787 310.783 484.866 316.591L492.122 324.887L485.486 330.692L421.811 257.894L428.448 252.089L441.509 267.022C442.96 268.681 444.731 269.45 446.822 269.33C449.173 269.226 451.246 268.389 453.044 266.817C454.565 265.486 456.207 263.318 457.97 260.311L472.076 236.259L433.979 192.705L417.518 199.415C412.317 201.281 408.126 203.604 404.945 206.386C402.457 208.563 401.091 211.466 400.848 215.095C400.865 218.741 402.264 222.154 405.046 225.334L413.572 235.082L406.935 240.887L360.676 188L367.312 182.195ZM444.012 188.689L477.572 227.058L518.1 158.297L444.012 188.689Z" fill="#F3F3F3"/>
<path d="M396.268 434.579L407.036 428.389C408.736 427.411 409.706 426.476 409.947 425.584C410.269 424.394 409.94 422.949 408.963 421.248L344.775 309.605C343.798 307.905 342.768 306.989 341.687 306.857C340.686 306.427 339.335 306.701 337.635 307.678L326.867 313.869L322.957 307.068L384.729 271.553L388.639 278.354L379.572 283.567C377.872 284.544 376.861 285.628 376.54 286.818C376.299 287.711 376.667 289.007 377.645 290.707L405.666 339.445L447.036 315.66L419.015 266.922C418.038 265.222 417.008 264.306 415.927 264.173C414.925 263.743 413.575 264.017 411.875 264.995L402.807 270.208L398.897 263.407L460.669 227.892L464.579 234.693L453.812 240.884C452.112 241.861 451.101 242.945 450.78 244.135C450.539 245.027 450.907 246.324 451.885 248.024L516.072 359.667C517.05 361.367 518.039 362.432 519.04 362.862C520.122 362.994 521.513 362.572 523.213 361.594L533.98 355.404L537.89 362.204L476.118 397.719L472.208 390.919L481.276 385.705C482.976 384.728 483.946 383.793 484.187 382.9C484.508 381.71 484.18 380.265 483.203 378.565L451.598 323.594L410.227 347.379L441.832 402.35C442.81 404.051 443.799 405.116 444.8 405.545C445.882 405.678 447.273 405.255 448.973 404.278L458.04 399.064L461.95 405.865L400.178 441.38L396.268 434.579Z" fill="#F3F3F3"/>
<path d="M729.676 336.598L739.982 329.666C741.609 328.571 742.511 327.57 742.689 326.663C742.926 325.453 742.497 324.035 741.402 322.407L669.527 215.551C668.433 213.924 667.341 213.082 666.253 213.027C665.224 212.668 663.896 213.036 662.269 214.131L651.963 221.063L647.585 214.554L706.708 174.785L711.086 181.294L702.408 187.132C700.781 188.226 699.849 189.379 699.612 190.588C699.434 191.496 699.893 192.763 700.987 194.39L732.364 241.038L771.961 214.404L740.584 167.756C739.489 166.129 738.398 165.287 737.31 165.231C736.281 164.873 734.953 165.241 733.326 166.336L724.647 172.173L720.269 165.664L779.392 125.896L783.77 132.405L773.464 139.337C771.837 140.431 770.905 141.583 770.668 142.793C770.491 143.7 770.949 144.968 772.044 146.595L843.919 253.451C845.014 255.078 846.075 256.071 847.104 256.429C848.192 256.485 849.55 255.966 851.177 254.871L861.483 247.939L865.861 254.448L806.738 294.217L802.36 287.708L811.038 281.87C812.666 280.776 813.568 279.775 813.746 278.868C813.982 277.658 813.553 276.239 812.459 274.612L777.069 221.998L737.472 248.632L772.862 301.246C773.957 302.873 775.019 303.866 776.048 304.225C777.136 304.281 778.493 303.761 780.121 302.667L788.799 296.829L793.177 303.338L734.054 343.107L729.676 336.598Z" fill="#F3F3F3"/>
<path d="M739.576 75.4534L738.078 84.4735C737.196 89.7794 734.384 94.1285 729.64 97.5207C724.72 100.883 719.077 103.127 712.711 104.25L539.725 133.038L537.874 144.181L700.09 229.466C708.611 233.971 712.254 239.937 711.021 247.366L709.258 257.978L717.747 259.388L733.215 166.269L724.725 164.858L721.553 183.96C721.2 186.082 720.125 187.63 718.328 188.604C716.324 189.725 714.172 190.095 711.873 189.713C709.928 189.389 707.451 188.433 704.444 186.843L680.386 174.123L689.64 118.411L706.748 115.527C712.024 114.405 716.695 114.181 720.763 114.857C723.947 115.385 726.571 117.094 728.636 119.981C730.494 123.016 731.086 126.567 730.41 130.635L728.339 143.104L736.828 144.514L748.066 76.8635L739.576 75.4534ZM679.251 120.229L671.099 169.309L602.152 133.048L679.251 120.229Z" fill="#F3F3F3"/>
<path d="M733.569 368.806C727.523 356.118 725.628 342.46 727.885 327.834C730.377 313.095 736.752 299.245 747.011 286.284C757.269 273.323 770.623 262.924 787.071 255.087C803.519 247.249 820.007 243.429 836.535 243.627C853.064 243.824 867.719 247.653 880.5 255.114C893.516 262.463 903.048 272.482 909.093 285.17C915.139 297.859 916.916 311.572 914.425 326.311C912.168 340.937 905.91 354.731 895.651 367.692C885.393 380.653 872.04 391.053 855.592 398.89C839.143 406.727 822.655 410.547 806.127 410.35C789.598 410.152 774.826 406.379 761.81 399.03C749.028 391.569 739.615 381.495 733.569 368.806ZM742.028 364.775C746.842 374.879 756.372 378.844 770.617 376.67C784.974 374.73 806.133 367.099 834.095 353.775C862.057 340.452 881.313 328.826 891.863 318.897C902.525 309.203 905.449 299.305 900.634 289.201C895.82 279.097 886.234 275.015 871.878 276.954C857.633 279.129 836.529 286.878 808.567 300.201C780.606 313.525 761.294 325.033 750.632 334.727C740.081 344.655 737.213 354.672 742.028 364.775Z" fill="#F3F3F3"/>
<path d="M311.747 262.39C307.638 253.766 306.35 244.484 307.884 234.543C309.578 224.526 313.911 215.113 320.883 206.304C327.855 197.495 336.93 190.427 348.109 185.101C359.288 179.774 370.494 177.178 381.728 177.312C392.961 177.446 402.921 180.049 411.608 185.119C420.454 190.114 426.932 196.923 431.041 205.547C435.15 214.171 436.358 223.491 434.664 233.508C433.131 243.449 428.878 252.824 421.905 261.633C414.933 270.441 405.858 277.509 394.679 282.836C383.5 288.162 372.294 290.759 361.061 290.625C349.827 290.49 339.787 287.926 330.941 282.931C322.254 277.861 315.856 271.013 311.747 262.39ZM317.496 259.65C320.768 266.517 327.245 269.212 336.926 267.734C346.684 266.416 361.065 261.229 380.069 252.174C399.073 243.119 412.16 235.217 419.33 228.469C426.577 221.881 428.564 215.153 425.292 208.286C422.02 201.419 415.505 198.645 405.748 199.963C396.066 201.441 381.723 206.708 362.719 215.763C343.715 224.818 330.59 232.64 323.344 239.228C316.173 245.976 314.224 252.783 317.496 259.65Z" fill="#F3F3F3"/>
<path d="M560.77 160.472C569.925 153.888 580.437 150.444 592.306 150.139C604.297 150.004 616.14 153.061 627.836 159.31C639.532 165.56 649.647 174.618 658.181 186.485C666.715 198.353 672.083 210.824 674.286 223.901C676.488 236.978 675.556 249.094 671.489 260.249C667.544 271.573 660.995 280.527 651.84 287.111C642.685 293.694 632.112 297.053 620.121 297.189C608.252 297.494 596.47 294.521 584.774 288.272C573.078 282.022 562.963 272.964 554.429 261.097C545.895 249.23 540.527 236.758 538.324 223.681C536.122 210.604 536.993 198.403 540.938 187.079C545.005 175.924 551.616 167.055 560.77 160.472ZM565.159 166.575C557.869 171.817 556.099 179.906 559.848 190.842C563.427 201.899 572.471 217.515 586.979 237.689C601.486 257.863 613.412 271.407 622.755 278.319C631.929 285.354 640.161 286.25 647.451 281.007C654.741 275.765 656.596 267.615 653.017 256.558C649.268 245.622 640.139 230.067 625.631 209.893C611.124 189.719 599.283 176.115 590.109 169.08C580.765 162.168 572.449 161.332 565.159 166.575Z" fill="#F3F3F3"/>
<path d="M632.374 172.537C628.841 165.123 627.734 157.142 629.053 148.595C630.509 139.983 634.234 131.89 640.229 124.317C646.223 116.743 654.026 110.666 663.637 106.087C673.248 101.507 682.883 99.2751 692.541 99.3905C702.199 99.5058 710.762 101.743 718.231 106.103C725.836 110.397 731.406 116.251 734.939 123.666C738.471 131.08 739.51 139.093 738.054 147.705C736.735 156.252 733.078 164.312 727.084 171.886C721.09 179.46 713.287 185.536 703.676 190.116C694.065 194.695 684.43 196.927 674.772 196.812C665.114 196.697 656.482 194.492 648.876 190.198C641.408 185.838 635.907 179.951 632.374 172.537ZM637.317 170.182C640.13 176.086 645.699 178.402 654.022 177.132C662.412 175.998 674.776 171.539 691.115 163.754C707.453 155.968 718.705 149.175 724.87 143.373C731.1 137.709 732.809 131.925 729.996 126.021C727.183 120.117 721.581 117.732 713.192 118.865C704.868 120.136 692.537 124.664 676.198 132.449C659.859 140.234 648.575 146.959 642.344 152.623C636.179 158.425 634.504 164.278 637.317 170.182Z" fill="#F3F3F3"/>
<path d="M514.278 128.383C512.383 122.868 512.244 117.15 513.863 111.227C515.583 105.27 518.862 99.861 523.7 95.0013C528.538 90.1416 534.531 86.4834 541.68 84.0267C548.828 81.57 555.804 80.7711 562.607 81.63C569.41 82.4888 575.27 84.7565 580.188 88.4329C585.207 92.0743 588.664 96.6521 590.559 102.166C592.455 107.681 592.542 113.417 590.822 119.374C589.203 125.297 585.975 130.688 581.137 135.548C576.299 140.407 570.306 144.066 563.158 146.522C556.01 148.979 549.034 149.778 542.231 148.919C535.427 148.06 529.516 145.81 524.497 142.169C519.579 138.492 516.173 133.897 514.278 128.383ZM517.954 127.119C519.463 131.51 523.205 133.593 529.178 133.366C535.187 133.242 544.268 131.092 556.42 126.916C568.572 122.739 577.055 118.853 581.871 115.257C586.722 111.763 588.392 107.821 586.883 103.43C585.374 99.0388 581.615 96.9053 575.606 97.0294C569.633 97.2556 560.57 99.4568 548.418 103.633C536.266 107.81 527.765 111.645 522.914 115.139C518.098 118.735 516.445 122.728 517.954 127.119Z" fill="#F3F3F3"/>
<path d="M515.073 113.678C452.699 100.332 341.296 45.3116 309.973 20.5253C278.65 -4.26106 229.894 -2.35345 239.7 66.2851C243.373 92 259.311 112.863 312.424 152.084C330.891 165.721 323.864 207.649 229.077 197.026C181.683 190.489 156.352 148.815 99.9701 237.883C76.487 274.979 15.1519 274.981 6 220.723C7.63426 203.563 21.5255 157.804 104.056 112.045C129.916 97.7063 180.703 110.083 186.586 174.147C188.958 199.969 173.534 241.518 186.586 282.249C207.569 327.85 244.248 327.85 355.277 301.745" stroke="#F3F3F3" stroke-width="11"/>
</svg>
