<svg width="226" height="861" viewBox="0 0 226 861" fill="none" xmlns="http://www.w3.org/2000/svg">
<path d="M47.9707 423C-1.0293 330 -4.0293 119.5 30.4707 -1.5H228.471V859.5C145.804 860.167 2.4707 861.1 0.470703 859.5C4.9707 734.5 28.9707 480.5 47.9707 423Z" fill="black"/>
<path d="M40.5827 485.597C32.8711 480.78 40.5829 474.037 41.5469 474.037C41.1269 466.063 38.958 454.362 41.5604 443.804C42.0178 435.112 43.3831 427.509 46.9704 424.639C47.3704 424.639 50.8172 426.639 53.4704 426.639C55.8523 425.071 62.4636 423.693 65.4128 422.553C88.4704 413.639 110.97 411.139 147.97 407.639C184.971 405.434 225.971 409.592 225.971 409.592V419.092C225.971 419.092 175.167 415.291 143.97 417.139C112.773 418.987 90.8186 419.139 64.4704 426.639C38.1222 434.139 48.9373 467.614 46.3667 475C49.4514 479.624 47.652 483.991 46.3667 485.597V523.798C49.4514 524.569 49.5799 527.973 49.2586 529.578C46.9451 530.349 48.2946 534.395 49.2586 536.322C53.8856 539.405 51.1865 543.387 49.2586 544.992C50.0297 544.992 53.4357 545.634 55.0423 545.955C56.5846 548.268 56.9702 589.949 56.9702 610.5H32.8711C29.7865 606.647 31.5859 565.865 32.8711 545.955C34.4134 544.414 37.3695 544.671 38.6548 544.992C32.4854 542.68 34.7989 538.249 36.7269 536.322C39.8115 535.551 39.2974 531.505 38.6548 529.578C36.3411 527.266 38.976 524.762 40.5827 523.798V485.597Z" fill="#202020"/>
<path d="M57.4234 424.702C64.8694 420.946 87.6379 415.746 97.555 414.035L96.7443 420.73L59.5995 430.788C46.7944 433.895 36.7136 448.718 33.2738 455.741C35.7801 460.702 33.4688 464.822 31.9998 466.261L27.3242 499.292C30.2938 500.428 30.0122 503.822 29.5002 505.377C27.1108 505.864 27.9641 510.043 28.6895 512.072C32.9123 515.689 29.7541 519.317 27.6472 520.679C28.4127 520.772 31.7168 521.819 33.2731 522.331C34.5263 524.812 29.8982 566.237 27.4276 586.639L3.50324 583.742C0.904275 579.546 7.59333 539.276 11.2627 519.666C12.9792 518.321 15.8829 518.931 17.1202 519.405C11.2736 516.368 14.1031 512.246 16.2486 510.565C19.4036 510.171 19.3796 506.093 18.9733 504.103C16.9543 501.529 19.8713 499.36 21.5821 498.596L26.2578 465.566C19.1811 459.857 27.6477 454.089 28.6047 454.205C29.5995 439.576 48.2316 428.441 57.4234 424.702Z" fill="#202020"/>
</svg>
