<svg width="251" height="862" viewBox="0 0 251 862" fill="none" xmlns="http://www.w3.org/2000/svg">
<path d="M169 424.5C218 331.5 215 115 194 0L-2.5 0.343786V861.344C80.1667 862.01 250.5 861.344 250.5 861.344C246 736.344 238.5 484.5 169 424.5Z" fill="black"/>
<path d="M179.446 481.367C187.157 476.55 179.445 469.807 178.481 469.807C178.979 460.359 181.9 447.795 176.447 437.121C175.34 430.54 173.528 425.062 170.499 422.639C168.499 424.553 169.153 426.364 166.499 426.364C164.118 424.796 163.507 425.693 160.558 424.553C137.5 415.639 115.001 413.139 78.0001 409.639C40.9998 407.434 -0.000488281 411.592 -0.000488281 411.592V421.092C-0.000488281 421.092 50.8031 417.291 82.0001 419.139C113.197 420.987 130.652 418.864 157 426.364C183.349 433.864 171.091 463.384 173.662 470.77C170.577 475.394 172.376 479.761 173.662 481.367L171.162 548.298C168.077 549.069 167.948 552.473 168.27 554.078C170.583 554.849 169.234 558.895 168.27 560.822C163.643 563.905 166.342 567.887 168.27 569.492C167.499 569.492 164.093 570.134 162.486 570.455C160.944 572.768 160.558 614.449 160.558 635H184.657C187.742 631.147 185.942 590.365 184.657 570.455C183.115 568.914 180.159 569.171 178.874 569.492C185.043 567.18 182.729 562.749 180.801 560.822C177.717 560.051 178.231 556.005 178.874 554.078C181.187 551.766 178.552 549.262 176.946 548.298L179.446 481.367Z" fill="#202020"/>
<path d="M157.132 419.782C146.501 416.639 121.918 415.349 112.001 413.639L115.001 419.782L154.956 425.868C167.761 428.975 177.842 443.798 181.282 450.821C178.776 455.783 181.087 459.902 182.556 461.341L187.232 494.372C184.262 495.508 184.544 498.903 185.056 500.458C187.445 500.945 186.592 505.124 185.866 507.152C181.644 510.769 184.802 514.397 186.909 515.76C186.143 515.852 182.839 516.899 181.283 517.411C180.03 519.892 184.658 561.317 187.128 581.719L211.053 578.822C213.652 574.626 206.962 534.356 203.293 514.746C201.577 513.401 198.673 514.012 197.436 514.485C203.282 511.448 200.453 507.327 198.307 505.646C195.152 505.252 195.176 501.173 195.583 499.183C197.602 496.61 194.685 494.44 192.974 493.677L188.298 460.646C195.375 454.937 186.908 449.17 185.951 449.286C184.956 434.656 171.501 425.139 157.132 419.782Z" fill="#202020"/>
</svg>
