<svg width="255" height="308" viewBox="0 0 255 308" fill="none" xmlns="http://www.w3.org/2000/svg">
<path d="M123.124 30.2504C128.073 25.2931 134.435 28.1249 136.556 30.9581C147.302 33.2243 158.002 43.2352 162.008 47.9574C163.705 47.3907 166.486 50.5544 167.664 52.2071C168.371 55.7485 169.785 55.0402 169.785 55.3087C175.441 57.7901 174.969 59.469 174.027 59.9983C172.896 62.2648 173.555 66.609 174.027 68.4977C174.592 73.5974 171.434 75.3445 169.785 75.5806C165.826 75.5806 162.951 79.3582 162.008 81.247V85.4967C162.008 88.3299 160.123 90.4547 159.18 91.163V94.7045C165.967 93.5712 168.135 94.2323 168.371 94.7045C168.371 95.8377 171.67 97.0654 173.32 97.5376C176.148 95.8377 187.695 94.9406 193.115 94.7045C194.812 91.8713 199.95 88.3298 202.306 86.9133C205.134 85.4967 209.376 85.4967 210.79 82.6635C212.487 80.397 220.452 76.525 224.223 74.8724C220.264 70.9059 220.688 66.6093 221.395 64.9567C221.395 66.0903 223.751 66.3732 224.93 66.3729C228.323 66.3729 228.229 61.6509 227.758 59.29C226.061 57.0235 225.637 54.5683 225.637 53.6241C225.637 49.658 227.993 48.6659 229.172 48.6656C233.696 48.6656 233.885 43.9437 233.414 41.5827C226.061 35.3498 224.694 31.9028 224.93 30.9584C224.93 26.4254 227.286 26.2365 228.465 26.7087C234.686 27.8416 232.942 21.0422 231.293 17.5009C224.505 4.46838 224.694 0.73805 225.637 0.501953C234.12 0.501953 237.184 4.2795 237.655 6.16827C237.09 11.8346 241.662 12.7793 244.018 12.5433C251.371 11.9767 250.852 14.6682 249.674 16.0847C247.412 18.9179 247.789 20.0984 248.26 20.3345C252.785 22.0344 254.387 24.3481 254.623 25.2925C256.32 30.9588 246.375 41.3471 241.19 45.8329C239.494 47.5328 239.541 51.7353 239.776 53.6241C243.736 55.324 243.783 61.8875 243.311 64.9567C241.964 64.9567 239.334 69.4567 239.699 69.8825C239.725 69.893 239.751 69.9037 239.776 69.9147C239.743 69.9147 239.717 69.9037 239.699 69.8825C235.768 68.2828 231.99 73.4746 230.586 76.2894C223.233 81.389 222.809 87.3859 223.516 89.7468C235.959 102.779 226.815 123.981 220.688 132.953C219.557 139.752 213.618 131.536 210.79 126.578C202.872 123.745 198.064 125.397 196.65 126.578C195.519 129.411 192.88 130.119 191.701 130.119C185.48 128.986 177.326 122.092 174.027 118.787C169.502 112.554 167.428 112.884 166.957 113.829C167.523 122.895 161.065 130.355 157.766 132.953C149.848 143.719 148.34 148.771 148.575 149.951C165.543 157.318 170.256 170.492 170.492 176.158C169.361 181.258 169.549 187.255 169.785 189.616C182.228 217.947 174.969 264.222 169.785 283.818C167.522 278.719 160.358 276.499 157.059 276.027C156.494 277.727 152.11 280.985 149.989 282.402V299.401C157.917 299.401 155.35 293.216 154.402 292.405C154.346 292.376 154.289 292.347 154.231 292.318C154.278 292.318 154.336 292.348 154.402 292.405C160.943 295.796 156.562 300.361 153.524 302.234C144.475 309.6 128.073 307.664 121.003 305.775C117.609 302.375 119.589 298.22 121.003 296.567C123.265 294.301 122.888 291.373 122.417 290.193C102.621 289.626 96.7297 280.513 96.2584 276.027C97.3896 266.394 93.9018 264.458 92.0165 264.694C71.5139 281.693 52.4253 285.235 52.4253 284.526C46.7695 284.526 37.343 278.86 33.3367 276.027C22.025 270.361 20.1397 257.611 20.611 251.945C20.611 242.879 18.2544 242.973 17.0761 244.154C13.5412 250.529 10.0062 246.987 10.0062 246.279C9.44065 242.879 3.64337 241.085 0.81543 240.613C2.51219 233.813 16.6048 223.614 23.439 219.364C35.3163 214.831 67.5077 186.783 82.1187 173.325C85.2942 167.599 92.4061 157.886 101.552 151.811C98.6714 153.407 95.6601 154.374 92.7235 154.201C92.7235 154.909 87.0676 155.618 84.9466 164.826L82.1187 168.367C81.5531 170.634 76.6985 171.672 74.3419 171.908L65.1511 173.325C60.6264 167.659 58.5525 170.964 58.0812 173.325L51.0114 171.908C58.364 160.009 63.9728 161.048 65.8581 163.409H78.5838C81.4117 162.276 81.1761 157.27 80.7047 154.909C77.3112 153.776 75.9915 152.076 75.7558 151.368C75.1902 149.102 78.3481 147.118 79.9977 146.41C81.6945 137.344 84.9466 133.661 86.3606 132.953C87.4918 132.953 88.2459 130.592 88.4815 129.411C89.6127 124.311 98.3793 119.731 102.621 118.078C106.58 117.512 110.869 112.176 112.519 109.579C115.913 99.9462 130.901 94.7049 137.97 93.2883C135.143 93.2883 132.55 90.9273 131.608 89.7468C127.083 84.6472 125.48 87.622 125.245 89.7468C126.376 95.4132 123.831 95.4132 122.417 94.7049C120.154 93.005 118.175 93.5244 117.468 93.9966C115.206 97.3964 113.226 98.7185 112.519 98.9546C110.822 97.2547 113.226 92.1078 114.64 89.7468C116.337 86.3471 114.404 84.5527 113.226 84.0805C108.701 84.6472 107.099 84.3166 106.863 84.0805C108.56 75.5811 123.124 70.623 130.194 69.2065C133.022 68.0732 132.315 64.4845 131.608 62.8319C127.649 59.4321 123.359 51.027 121.71 47.2495C93.996 42.7164 98.3793 60.4709 104.035 69.9147C100.642 69.3481 98.3792 64.0123 97.6722 61.4153C89.754 56.8822 90.131 45.8323 91.3093 40.874C95.2684 25.0077 111.341 34.263 118.882 40.874C118.175 36.6242 121.71 31.6668 123.124 30.2504Z" fill="black"/>
</svg>
