<svg width="202" height="281" viewBox="0 0 202 281" fill="none" xmlns="http://www.w3.org/2000/svg">
<path d="M158.39 265.279C156.253 265.279 155.719 260.522 155.719 258.144C155.719 253.474 150.822 251.01 148.373 250.361C143.031 249.324 134.572 244.308 131.011 241.93C129.408 242.968 129.453 247.983 129.675 250.361C128.607 255.031 117.21 261.387 111.645 263.982C108.974 265.538 109.642 265.927 109.642 266.576C111.645 267.873 118.546 270.9 122.998 272.413C128.34 275.007 128.562 273.062 128.34 271.765C124.333 271.116 124.556 270.251 125.001 269.819C133.014 268.781 134.127 272.846 133.682 275.007C132.079 281.234 119.214 281.061 112.981 280.196C110.844 278.121 108.529 278.467 107.639 278.899C93.7491 280.974 94.2833 272.413 96.2866 267.873C90.4102 268.392 89.3863 265.063 89.6089 263.333C91.7458 256.069 88.2733 254.685 86.27 254.902C79.8594 255.42 77.8115 249.064 77.5889 245.821C77.0547 240.633 75.5856 240.633 74.9178 241.281C73.8494 244.395 64.6786 250.361 60.2268 252.956C58.6242 254.512 55.1072 259.225 53.5491 261.387C51.9464 262.944 47.5391 262.468 45.5358 262.036C41.5291 264.63 33.5159 275.007 32.8481 275.007C32.1803 275.007 22.1637 275.656 19.4926 274.359C16.8215 272.802 16.1537 268.522 16.1537 266.576C17.7564 260.868 19.0474 262.901 19.4926 264.63C19.4926 268.262 20.8282 268.305 21.4959 267.873C25.7697 261.647 29.5092 259.225 30.8448 258.793C34.0501 258.793 33.961 257.496 33.5159 256.847C10.1438 252.307 14.8182 234.147 15.4859 234.147C10.1438 230.904 4.80156 225.067 0.794922 211.447C11.4793 129.466 61.3398 109.836 84.9345 110.269C85.4687 107.674 88.7185 105.296 90.2766 104.431V100.54C91.8793 92.2381 90.0541 91.8922 88.9411 92.757C79.8594 105.21 66.4594 103.999 60.8946 101.837C50.2102 95.0918 50.6554 79.5692 52.2135 72.651C53.282 70.0567 53.5491 66.8138 53.5491 65.5167C54.6175 60.328 57.5557 60.7604 58.8913 61.6252C60.4939 63.7006 61.785 63.7871 62.2301 63.5709C67.0381 63.0521 74.0275 64.2195 76.9212 64.8681C82.7976 60.1983 80.7052 55.5718 78.9245 53.8423C72.5139 47.6159 78.0341 43.465 81.5956 42.1678C84.2667 41.649 86.7152 40.2221 87.6056 39.5735C91.3451 36.9792 91.3896 38.4926 90.9444 39.5735C87.7391 41.1301 86.0474 44.546 85.6022 46.0593C85.068 49.1725 86.7152 49.086 87.6056 48.6536C90.2766 43.465 92.28 45.1945 92.9477 46.7079C91.4743 47.0877 90.9983 48.5957 90.9444 49.3022C91.4786 51.8965 91.167 56.0042 90.9444 57.7337C89.3418 58.7714 84.4893 65.0843 82.2634 68.111C83.866 69.1487 84.2667 70.7053 84.2667 71.3539C77.8561 73.4293 78.0341 77.4073 78.9245 79.1368C82.1298 79.6557 84.2667 77.6235 84.9345 76.5425C88.1398 66.6841 96.5092 64.2195 100.293 64.2195C105.635 65.2572 106.526 63.3547 106.303 62.2738C104.701 62.7926 103.855 57.301 103.632 54.4904C94.5504 49.3014 94.0607 45.4104 94.9511 44.1136C96.0195 43.5947 96.7318 41.7355 96.9544 40.8707C98.0228 38.2764 97.8447 35.0335 97.6222 33.7363C93.8826 32.1797 94.7285 30.9258 95.6188 30.4934C97.7557 31.0123 99.1803 30.2772 99.6255 29.8449C101.228 25.1751 105.19 23.5753 106.971 23.3591C110.176 23.3591 109.642 21.1971 108.974 20.1162C102.029 10.2578 109.197 3.90141 113.649 1.95552C130.21 -1.67652 139.247 3.03648 141.695 5.84699C143.832 9.47903 141.25 14.2785 139.692 16.2242C138.623 18.8186 139.247 21.1967 139.692 22.0614C142.897 23.0992 142.808 25.9529 142.363 27.2501C141.829 30.3633 138.579 31.1415 137.021 31.1415V38.9245C144.5 44.632 144.144 48.2208 143.031 49.3017C140.894 51.3772 140.36 53.6256 140.36 54.4904C140.36 65.9053 144.812 64.0028 147.037 61.6247C146.503 68.8888 139.692 64.2193 136.353 60.9766C133.148 58.3826 126.559 57.7335 123.665 57.7333C124.2 59.8087 125.669 60.7602 126.336 60.9766C135.952 60.4577 141.918 68.7591 143.699 72.6506C144.886 75.2449 147.483 79.3528 149.041 81.0823C167.204 75.8936 179.758 83.2442 183.765 87.568C185.902 87.568 191.333 83.2442 193.782 81.0823L201.795 84.9737C195.384 88.6058 187.104 96.8643 183.765 100.54C183.231 111.436 173.748 118.483 169.074 120.645C139.024 134.265 137.689 108.971 137.689 103.436C138.356 98.5939 137.689 93.4053 137.689 94.0539C135.018 103.783 127.672 105.728 127.672 106.377C121.261 108.452 117.433 116.322 116.32 119.997C132.881 131.931 140.137 149.615 141.695 156.966C141.695 159.041 148.373 194.151 151.712 211.447C152.78 217.673 159.725 240.849 163.064 251.658C163.598 260.998 160.171 264.63 158.39 265.279Z" fill="black"/>
</svg>
