<svg width="402" height="520" viewBox="0 0 402 520" fill="none" xmlns="http://www.w3.org/2000/svg">
<path d="M230.336 253.705C229.693 257.242 227.122 259.734 225.917 260.537L227.5 244.863L231.943 223.159L233.55 203.661C231.14 202.053 221 194.161 221 194.161L210 185.379V168.161C210 168.161 213.14 158.29 213.461 156.04C213.461 152.422 213.622 144.464 214.265 141.571C214.801 139.695 215.5 136.161 215.5 136.161C215.5 136.161 214.236 148.881 217.881 161.161C220.974 171.58 231.39 178.942 231.943 183.37C230.336 186.317 231.622 195.301 233.55 203.661L231.943 223.159L227.5 244.863L225.917 260.537C227.122 259.734 229.693 257.242 230.336 253.705C230.738 251.695 231.702 247.355 232.345 246.068C232.613 245.666 233.229 243.335 233.55 237.226C233.952 235.217 234.916 231.198 235.559 231.198C235.291 237.36 234.836 249.927 235.157 250.891C235.291 252.633 235.72 256.197 236.363 256.518C236.899 254.509 237.97 250.329 237.97 249.686V216.327C237.434 216.059 245.202 216.378 245.202 208.661C245.384 205.875 242.066 194.245 244.637 184.661C250.637 175.161 248 160.356 248 156.04C248 148.161 248.5 144.161 245.202 133.532C243.193 124.288 212 111.829 212 111.829C217.491 110.355 215 91.3773 234.5 94.1447C247.5 95.9896 234.293 84.6566 226 80.1611C219.774 76.7863 209.444 72.0394 209.444 72.0394C211.988 70.0298 220.292 63.1206 222.301 47.1206C223.238 40.69 222.25 26.5425 220 19.7903C219.443 10.3837 207.142 -7.36738 177.301 3.31192C173.283 6.52724 165.248 14.3244 165.248 19.7904C164.712 22.068 163.56 26.7034 163.239 27.0249C162.971 32.7857 162.439 38.3828 163.5 46.1602C164.896 56.3908 167.176 61.1073 171.676 72.0394C164.043 73.781 148.293 81.6853 146.364 99.3696C146.364 100.173 147.007 101.299 149.579 99.3696C151.186 97.6279 155.203 94.1447 158.418 94.1447C159.322 94.2117 160.497 94.5064 161.796 95.1217L165.275 97.6313L168 101.237L170.101 105.459C170.851 107.246 172.502 108.835 173 111.16C172.65 111.189 170.604 109.926 167.5 109.16L149.594 103.061L131.322 103.12L119.519 109.504L119.5 111.658L114.924 118.861L110.5 126.158L108.588 132.158L113.5 143.658L113.548 144.504L111.833 147.661L114.662 158.472L125 156.04C127.5 154.164 128.359 153.661 134 153.661C137.5 153.661 147.519 159.004 158.418 149.004C168.615 138.902 175.292 137.953 175.292 137.953C175.56 140.365 172.589 147.41 172.882 150.661C172.078 153.073 173.525 158.129 176.096 160.059C178.774 162.202 179.304 168.82 179.304 170.107C179.304 174.26 179.143 183.129 178.5 185.379C177.429 187.791 170 193.161 170 193.161L141.141 223.159C97.2608 259.273 7.6 363.287 0 480.787C5.66667 487.886 22.3 501.442 43.5 498.873C47.3333 496.61 60.3 482.231 77.5 487.661C88.1405 492.52 112.537 511.992 129 506.161C129.5 505.661 165.65 492.952 188.149 506.161C188.149 508.519 225.5 526.529 247 516.345C262.453 516.381 282 502.161 312.5 502.161C325.5 502.161 331.871 487.23 344.5 484.661C359.5 481.61 382 499.161 397 480.787C403.061 473.362 424.692 351.743 245.202 208.661C245.202 216.378 237.434 216.059 237.97 216.327V249.686C237.97 250.329 236.899 254.509 236.363 256.518C235.72 256.197 235.291 252.633 235.157 250.891C234.836 249.927 235.291 237.36 235.559 231.198C234.916 231.198 233.952 235.217 233.55 237.226C233.229 243.335 232.613 245.666 232.345 246.068C231.702 247.355 230.738 251.695 230.336 253.705Z" fill="black"/>
<path d="M111.833 147.661C110.51 151.195 110.167 154.059 112.833 157.059C115.5 160.059 120.019 159.776 125 156.04L114.662 158.472L111.833 147.661L113.548 144.504L113.5 143.658L108.588 132.158L110.5 126.158L114.924 118.861L119.5 111.658L119.519 109.504L131.322 103.12L149.594 103.061L167.5 109.16C163.711 108.225 155.387 103.81 149.594 103.061L131.322 103.12L119.519 109.504L119.5 111.658L114.924 118.861L110.5 126.158L108.588 132.158L113.5 143.658L113.548 144.504L111.833 147.661Z" fill="black"/>
<path d="M119.519 109.504C119.519 113.523 109.984 125.076 109.019 129.256C106.609 140.643 113.87 143.218 113.548 144.504C113 145.658 112.12 146.896 111.833 147.661L113.548 144.504L113.5 143.658L108.588 132.158L110.5 126.158L114.924 118.861L119.5 111.658L119.519 109.504L131.322 103.12L149.594 103.061C138.359 101.609 125.526 101.924 119.519 109.504Z" fill="black"/>
<path d="M165.275 97.6313L161.796 95.1217C164.8 96.544 167.583 99.4634 170.101 105.459L168 101.237L165.275 97.6313Z" fill="black"/>
<path d="M167.5 109.16L170.101 105.459C167.583 99.4634 164.8 96.544 161.796 95.1217C161.222 95.7375 159.611 97.4062 158.418 98.1602C154.521 100.623 149.594 103.061 149.594 103.061C155.387 103.81 163.711 108.225 167.5 109.16Z" fill="black"/>
</svg>
