<svg width="1276" height="841" viewBox="0 0 1276 841" fill="none" xmlns="http://www.w3.org/2000/svg">
<path d="M643.405 673.512C658.072 701.678 678.605 769.912 635.405 803.512C622.905 811.512 593.405 821.012 536.905 795.012C525.905 789.95 476.405 773.012 454.905 775.012C455.405 775.012 374.905 785.012 324.405 780.012" stroke="#E3E3E3" stroke-width="6"/>
<path d="M633.389 132.118L640.379 651.626M640.379 651.626L813.427 160.934M640.379 651.626L962.806 246.68M640.379 651.626L1094.76 384.557M640.379 651.626L1165.41 535.287M640.379 651.626L451.058 165.55M640.379 651.626L311.384 259.045M640.379 651.626L202.523 398.785M640.379 651.626L139.088 544.326" stroke="#E3E3E3" stroke-width="6"/>
<path d="M9.40566 581.787C1.40566 565.287 -7.4944 531.013 16.9056 519.013C16.4056 518.513 22.4054 517.013 23.9054 497.013C23.9054 495.513 20.4054 471.513 35.4054 462.513C50.4054 453.513 48.4054 440.513 41.9054 433.013C35.4054 425.513 46.4054 395.513 57.9054 392.513C69.4054 389.513 86.9054 381.513 84.4054 365.513C81.9054 349.513 73.4054 357.513 78.9054 331.513C84.4054 305.513 95.9054 300.513 109.905 295.013C123.905 289.513 136.405 275.513 138.905 264.013C141.405 252.513 143.905 230.513 162.905 218.513C181.905 206.513 203.405 204.013 218.905 185.013C234.405 166.013 220.905 163.013 239.405 145.513C257.905 128.013 267.405 148.513 279.405 141.013C291.405 133.513 294.905 110.513 306.905 100.013C318.905 89.5128 333.405 100.013 345.905 92.5129C358.405 85.0129 349.405 81.0128 364.405 71.5128C379.405 62.0128 384.405 74.5128 393.905 68.0128C403.405 61.5128 394.405 48.5126 422.405 34.5126C450.405 20.5126 462.405 40.0126 474.905 38.5126C487.405 37.0126 489.405 28.0117 505.905 22.5117C522.405 17.0117 521.405 27.5117 540.405 22.5117C559.405 17.5117 554.405 14.014 567.405 12.514C580.405 11.014 576.905 21.014 590.905 20.014C604.905 19.014 600.405 9.01273 619.405 8.01273C638.405 7.01273 638.405 17.0127 665.905 16.0127C693.405 15.0127 687.405 0.512635 711.405 1.01264C735.405 1.51264 732.405 18.0118 753.905 22.5117C775.405 27.0117 770.905 17.5117 787.905 25.5117C799.406 30.9236 794.906 35.2871 802.405 38.5126C811.453 42.4037 816.405 20.5108 839.905 29.5117C863.405 38.5126 843.905 45.0117 863.405 53.5117C882.905 62.0117 879.905 46.5117 891.905 53.5117C903.905 60.5117 895.405 68.5117 907.905 75.5117C920.405 82.5117 918.405 73.0117 933.405 81.5117C948.405 90.0117 934.905 90.5117 947.905 97.0117C960.905 103.512 970.905 99.0117 985.405 110.512C999.905 122.012 1007.41 111.512 1023.91 123.512C1040.41 135.512 1051.91 131.012 1064.41 143.012C1076.91 155.012 1064.91 160.012 1078.91 174.012C1092.91 188.012 1104.91 182.012 1113.91 190.512C1122.91 199.012 1111.91 205.512 1121.41 218.512C1130.91 231.512 1133.41 220.512 1146.91 235.512C1160.41 250.512 1148.41 263.512 1157.41 269.512C1166.41 275.512 1184.91 269.512 1199.91 288.512C1214.91 307.512 1205.91 314.512 1217.91 335.012C1229.91 355.512 1240.91 350.512 1248.41 367.012C1255.91 383.512 1233.91 379.512 1238.41 401.012C1242.91 422.512 1261.91 444.012 1263.91 460.012C1265.91 476.012 1252.41 490.512 1253.91 512.012C1255.41 533.512 1271.91 521.787 1273.91 541.287C1275.51 556.887 1269.41 572.562 1266.91 573.562" stroke="#EAEAEA" stroke-width="2"/>
<path d="M639.405 627.512C655.502 627.512 668.405 638.555 668.405 652.012C668.405 665.468 655.502 676.512 639.405 676.512C623.308 676.512 610.405 665.468 610.405 652.012C610.405 638.555 623.308 627.512 639.405 627.512Z" fill="#E3E3E3" stroke="#E3E3E3"/>
<path d="M358.405 591.011C353.905 579.011 350.305 555.111 371.905 555.511M371.905 555.511C372.305 555.511 534.739 612.51 615.905 641.01M371.905 555.511C365.405 543.844 361.605 518.91 398.405 512.51C398.905 512.01 384.905 473.51 421.905 474.01M421.905 474.01L622.405 637.011M421.905 474.01C421.739 460.843 429.805 436.011 463.405 442.011C464.405 441.511 460.405 404.009 492.905 413.009M492.905 413.009C492.905 412.609 584.572 560.176 630.405 634.01M492.905 413.009C495.405 401.343 508.205 380.71 539.405 391.51C544.739 379.677 562.205 360.611 589.405 379.011M589.405 379.011L636.405 630.012M589.405 379.011C598.572 368.845 621.105 354.912 637.905 380.512C645.905 367.011 667.105 347.81 687.905 379.011M687.905 379.011C688.305 379.011 658.405 546.345 643.405 630.012M687.905 379.011C699.072 369.845 723.505 359.512 731.905 391.512C745.239 383.012 773.005 374.712 777.405 409.512M777.405 409.512L650.905 634.01M777.405 409.512C792.405 405.345 820.205 404.912 811.405 436.512C811.905 436.512 861.405 429.512 852.905 471.512M852.905 471.512L656.905 637.011M852.905 471.512C868.572 472.178 895.605 481.112 878.405 511.512C896.072 515.012 924.805 527.512 898.405 549.512M898.405 549.512L656.905 645.012M898.405 549.512C916.572 552.345 943.205 560.112 914.405 584.512L659.905 645.012L1267.41 573.787M615.905 648.012L8.90527 581.012" stroke="#F3F3F3" stroke-width="2"/>
<ellipse cx="445.905" cy="775.287" rx="14.5" ry="12" fill="#F3F3F3"/>
<ellipse cx="395.905" cy="783.287" rx="24.5" ry="20" fill="#F3F3F3"/>
<ellipse cx="344.905" cy="783.287" rx="20.5" ry="20" fill="#F3F3F3"/>
<path d="M311.905 754.787C326.305 757.187 326.572 774.454 324.905 782.787L326.905 793.787C327.305 817.387 302.072 820.954 289.405 819.787C278.405 819.287 274.405 826.787 262.405 827.287C249.405 827.287 221.072 829.454 207.405 831.787C187.405 837.387 156.405 838.12 143.405 837.787C137.835 839.272 132.696 840.011 130.388 840.242C130.242 840.272 130.081 840.287 129.905 840.287C130.049 840.275 130.21 840.26 130.388 840.242C132.733 839.774 131.376 835.787 130.905 835.787C91.9053 842.287 36.4053 839.787 36.4053 839.287C28.0053 838.887 22.2386 833.12 20.4053 830.287C24.9053 829.287 36.9053 817.787 36.4053 817.787C34.0053 817.787 30.4054 814.12 28.9055 812.287C32.1056 813.487 34.2387 812.787 34.9053 812.287C28.1053 807.487 26.4054 793.287 26.4055 786.787C22.0055 785.587 21.2388 783.62 21.4055 782.787C25.0055 782.787 27.9055 779.454 28.9055 777.787C33.7055 761.387 54.5721 760.954 64.4055 762.787C74.0055 764.787 100.405 760.287 112.405 757.787C122.405 755.787 136.239 758.62 141.905 760.287C156.905 762.287 185.405 752.787 185.905 752.787C193.905 752.787 273.239 754.12 311.905 754.787Z" fill="#F3F3F3"/>
</svg>
