<svg width="1517" height="1863" viewBox="0 0 1517 1863" fill="none" xmlns="http://www.w3.org/2000/svg">
<path fill-rule="evenodd" clip-rule="evenodd" d="M368.225 1572.49L359.864 1590.81L279.817 1544.77L284.589 1534.31L283.147 1533.65C272.897 1544.66 260.139 1551.61 244.873 1554.52C230.088 1557.64 215.005 1555.69 199.624 1548.67C175.59 1537.7 158.171 1519.88 147.365 1495.2C137.04 1470.74 133.324 1442.61 136.217 1410.83C139.591 1379.26 148.628 1347.38 163.328 1315.17C178.028 1282.97 196.197 1255.25 217.836 1232.02C239.956 1209.01 263.638 1193.39 288.882 1185.17C314.607 1177.16 339.487 1178.65 363.52 1189.62C377.459 1195.98 387.543 1206.97 393.771 1222.59C400.7 1237.95 403.757 1254.16 402.943 1271.21L404.385 1271.87L438.283 1197.61C447.498 1177.42 454.018 1161.23 457.841 1149.03C462.146 1137.06 463.937 1124.23 463.215 1110.54C462.974 1097.07 458.799 1082.68 450.69 1067.36L463.887 1059.44C478.245 1077.61 487.765 1099.38 492.447 1124.75C497.13 1150.12 496.525 1173.08 490.633 1193.62C502.293 1175.71 519.24 1160.21 541.475 1147.13C563.71 1134.05 586.395 1126.98 609.529 1125.92L612.194 1141.08C595.789 1145.21 582.18 1151.48 571.365 1159.9C560.551 1168.33 551.79 1177.98 545.082 1188.85C538.855 1199.95 531.134 1215.59 521.919 1235.78L488.021 1310.05L489.463 1310.7C501.813 1298.92 515.82 1290.5 531.482 1285.45C547.845 1280.14 562.996 1280.67 576.936 1287.03C600.969 1298 618.148 1315.72 628.473 1340.18C639.279 1364.86 642.995 1392.98 639.621 1424.55C636.728 1456.33 627.932 1488.33 613.232 1520.53C598.531 1552.74 580.122 1580.35 558.002 1603.36C546.252 1615.97 533.899 1626.34 520.944 1634.46L386.861 1627.25C383.61 1623.63 380.742 1619.68 378.258 1615.4C370.933 1602.19 368.069 1588.1 369.667 1573.15L368.225 1572.49ZM218.933 1533.09C237.198 1541.43 256.163 1536.15 275.827 1517.24C295.491 1498.34 312.563 1473.03 327.044 1441.3L366.208 1355.5C374.984 1336.28 380.788 1316.57 383.619 1296.37C386.669 1275.69 386.391 1257.85 382.785 1242.84C379.66 1228.06 373.531 1218.58 364.399 1214.41C349.017 1207.39 332.362 1217.79 314.433 1245.62C296.723 1272.97 277.117 1310.19 255.616 1357.3C234.114 1404.4 218.724 1443.84 209.447 1475.62C200.39 1506.91 203.551 1526.07 218.933 1533.09ZM412.161 1621.29C427.542 1628.32 444.087 1618.15 461.797 1590.81C479.726 1562.98 499.442 1525.51 520.944 1478.41C542.445 1431.3 557.725 1392.1 566.783 1360.81C576.06 1329.03 573.008 1309.63 557.627 1302.61C548.494 1298.44 537.079 1299.91 523.38 1307.02C510.163 1314.34 496.741 1325.93 483.117 1341.78C469.711 1357.16 458.62 1374.45 449.844 1393.68L410.68 1479.48C396.199 1511.2 388.26 1540.69 386.861 1567.93C385.462 1595.17 393.895 1612.96 412.161 1621.29Z" fill="black"/>
<path fill-rule="evenodd" clip-rule="evenodd" d="M368.225 1572.49L359.864 1590.81L279.817 1544.77L284.589 1534.31L283.147 1533.65C272.897 1544.66 260.139 1551.61 244.873 1554.52C230.088 1557.64 215.005 1555.69 199.624 1548.67C175.59 1537.7 158.171 1519.88 147.365 1495.2C137.04 1470.74 133.324 1442.61 136.217 1410.83C139.591 1379.26 148.628 1347.38 163.328 1315.17C178.028 1282.97 196.197 1255.25 217.836 1232.02C239.956 1209.01 263.638 1193.39 288.882 1185.17C314.607 1177.16 339.486 1178.65 363.52 1189.62C377.459 1195.98 387.543 1206.97 393.771 1222.59C400.7 1237.95 403.757 1254.16 402.943 1271.21L404.385 1271.87L438.283 1197.61C447.498 1177.42 454.018 1161.23 457.841 1149.03C462.146 1137.06 463.937 1124.23 463.215 1110.54C462.974 1097.07 458.799 1082.68 450.69 1067.36L463.887 1059.44C478.245 1077.61 487.765 1099.38 492.447 1124.75C497.13 1150.12 496.525 1173.08 490.633 1193.62C502.293 1175.71 519.24 1160.21 541.475 1147.13C563.71 1134.05 586.395 1126.98 609.529 1125.92L612.194 1141.08C595.789 1145.21 582.18 1151.48 571.365 1159.9C560.551 1168.33 551.79 1177.98 545.082 1188.85C538.855 1199.95 531.134 1215.59 521.919 1235.78L488.021 1310.05L489.463 1310.7C501.813 1298.92 515.819 1290.5 531.482 1285.45C547.845 1280.14 562.996 1280.67 576.936 1287.03C600.969 1298 618.148 1315.72 628.473 1340.18C639.279 1364.86 642.995 1392.98 639.621 1424.55C636.728 1456.33 627.932 1488.33 613.232 1520.53C598.531 1552.74 580.122 1580.35 558.002 1603.36C546.252 1615.97 533.899 1626.34 520.944 1634.46L386.861 1627.25C383.61 1623.63 380.742 1619.68 378.258 1615.4C370.933 1602.19 368.069 1588.1 369.667 1573.15L368.225 1572.49ZM218.933 1533.09C237.198 1541.43 256.163 1536.15 275.827 1517.24C295.491 1498.34 312.563 1473.03 327.044 1441.3L366.208 1355.5C374.984 1336.28 380.788 1316.57 383.619 1296.37C386.669 1275.69 386.391 1257.85 382.785 1242.84C379.66 1228.06 373.531 1218.58 364.399 1214.41C349.017 1207.39 332.362 1217.79 314.433 1245.62C296.723 1272.97 277.117 1310.19 255.616 1357.3C234.114 1404.4 218.724 1443.84 209.447 1475.62C200.39 1506.91 203.551 1526.07 218.933 1533.09ZM412.161 1621.29C427.542 1628.32 444.087 1618.15 461.797 1590.81C479.726 1562.98 499.442 1525.51 520.944 1478.41C542.445 1431.3 557.725 1392.1 566.783 1360.81C576.06 1329.03 573.008 1309.63 557.627 1302.61C548.494 1298.44 537.079 1299.91 523.38 1307.02C510.163 1314.34 496.741 1325.93 483.117 1341.78C469.711 1357.16 458.62 1374.45 449.844 1393.68L410.68 1479.48C396.199 1511.2 388.26 1540.69 386.861 1567.93C385.462 1595.17 393.895 1612.96 412.161 1621.29Z" fill="black"/>
<path d="M1233.62 1076.23C1205.1 1088.81 1177 1092.54 1149.33 1087.41C1121.94 1081.59 1102.16 1064.91 1090.01 1037.35C1083.61 1022.85 1082.77 1008.49 1087.48 994.289C1092.67 979.872 1101.79 969.786 1114.85 964.03C1125.97 959.126 1136.64 958.46 1146.88 962.03C1157.6 965.387 1164.99 971.659 1169.04 980.844C1172.23 988.096 1173.56 995.021 1173 1001.62C1172.23 1007.73 1169.18 1014.56 1163.85 1022.11C1156.68 1033.36 1154.59 1042.36 1157.57 1049.13C1162.69 1060.74 1171.5 1066.96 1183.99 1067.8C1196.97 1068.43 1211.93 1065.01 1228.85 1057.55C1245.28 1050.3 1254.55 1037.26 1256.64 1018.44C1258.52 999.129 1253.28 975.455 1240.91 947.415C1231.53 926.143 1220.23 910.338 1207.01 899.999C1194.06 888.963 1179.37 887.07 1162.93 894.319L1096.94 923.419L1087.98 903.114L1153.25 874.333C1169.69 867.085 1177.34 855.626 1176.2 839.957C1175.07 824.289 1169.6 805.335 1159.79 783.096C1138.9 735.718 1114.67 718.104 1087.12 730.256C1066.81 739.211 1054.36 759.427 1049.76 790.905C1045.43 821.687 1047.41 854.311 1055.68 888.777L1038.27 896.452L979.11 762.294L996.514 754.619L1009.99 769.465C1014.27 773.93 1018.34 775.31 1022.21 773.604C1025.11 772.325 1028.64 767.882 1032.79 760.276C1046.97 736.122 1066.63 718.502 1091.77 707.416C1127.06 691.853 1158.24 687.919 1185.31 695.616C1212.87 703.099 1232.19 719.41 1243.27 744.55C1251.37 762.921 1251.48 782.798 1243.58 804.181C1235.47 825.081 1221.47 843.093 1201.58 858.218L1203.5 862.569C1270.92 847.85 1315.51 865.146 1337.26 914.459C1350.26 943.949 1347.65 973.395 1329.44 1002.8C1311.49 1031.5 1279.55 1055.98 1233.62 1076.23Z" fill="black"/>
<path d="M1082.06 1245.43L1087.27 1235.17C1087.94 1233.84 1088.14 1232.75 1087.86 1231.89C1087.53 1230.89 1086.7 1230.05 1085.37 1229.37L1000.72 1186.38C999.39 1185.7 998.271 1185.55 997.363 1185.93C996.408 1186.16 995.593 1186.94 994.918 1188.27L989.707 1198.53L985.146 1196.22L1006.14 1154.89L1010.7 1157.21L1005.48 1167.47C1004.81 1168.8 1004.64 1169.96 1004.96 1170.97C1005.24 1171.83 1006.05 1172.59 1007.38 1173.27L1092.03 1216.26C1093.36 1216.94 1094.51 1217.16 1095.46 1216.92C1096.37 1216.55 1097.16 1215.7 1097.83 1214.37L1112.89 1184.72C1113.56 1183.39 1113.76 1182.3 1113.48 1181.44C1113.15 1180.44 1112.33 1179.6 1111 1178.92L1026.34 1135.93C1025.01 1135.25 1023.89 1135.1 1022.98 1135.48C1022.03 1135.71 1021.21 1136.49 1020.54 1137.82L1015.33 1148.08L1010.77 1145.77L1031.76 1104.44L1036.32 1106.75L1031.11 1117.02C1030.43 1118.35 1030.26 1119.51 1030.58 1120.52C1030.86 1121.37 1031.67 1122.14 1033 1122.82L1117.65 1165.81C1118.98 1166.48 1120.13 1166.71 1121.08 1166.47C1121.99 1166.1 1122.78 1165.25 1123.46 1163.92L1138.51 1134.27C1139.19 1132.94 1139.38 1131.85 1139.1 1130.99C1138.77 1129.98 1137.95 1129.15 1136.62 1128.47L1051.96 1085.48C1050.63 1084.8 1049.51 1084.65 1048.6 1085.03C1047.65 1085.26 1046.84 1086.04 1046.16 1087.37L1040.95 1097.63L1036.39 1095.32L1057.38 1053.99L1061.94 1056.3L1056.73 1066.57C1056.05 1067.9 1055.88 1069.06 1056.2 1070.06C1056.48 1070.92 1057.29 1071.69 1058.62 1072.37L1143.27 1115.36C1144.6 1116.03 1145.75 1116.26 1146.7 1116.02C1147.61 1115.65 1148.4 1114.79 1149.08 1113.46L1154.29 1103.2L1158.85 1105.52L1086.62 1247.75L1082.06 1245.43Z" fill="black"/>
<path d="M367.979 750.733C342.417 746.625 323.119 736.835 310.086 721.362C297.137 705.367 292.716 684.589 296.823 659.026L306.757 597.207C309.104 582.6 307.557 570.578 302.117 561.141C296.76 551.183 288.865 545.365 278.431 543.689L237.74 537.15L214.1 684.264C213.346 688.96 213.584 692.476 214.813 694.814C216.649 696.715 219.914 698.042 224.609 698.797L249.65 702.82L246.632 721.601L76.042 694.189L79.0598 675.408L108.796 680.187C113.491 680.941 116.747 680.662 118.563 679.348C120.985 677.597 122.573 674.373 123.328 669.678L172.871 361.364C173.625 356.669 173.085 353.372 171.249 351.471C170.02 349.133 167.057 347.587 162.362 346.832L132.626 342.054L135.644 323.273L306.234 350.685L303.216 369.466L278.175 365.442C273.48 364.688 269.922 365.186 267.5 366.938C265.683 368.251 264.398 371.255 263.643 375.951L241.261 515.24L290.56 523.161C301.515 524.922 310.272 522.048 316.83 514.539C323.388 507.03 327.757 496.494 329.936 482.931L338.487 429.719C342.678 403.635 352.688 384.64 368.515 372.734C384.863 360.912 402.689 356.552 421.991 359.654C440.772 362.671 454.759 370.538 463.954 383.254C473.149 395.97 476.28 411.457 473.346 429.716C470.998 444.323 463.812 455.744 451.785 463.979C440.364 471.777 428.655 474.712 416.656 472.784C405.179 470.939 396.031 466.258 389.212 458.741C382.476 450.702 380.031 440.943 381.875 429.466C382.964 422.685 386.747 415.8 393.221 408.813C398.316 403.745 401.157 399.386 401.744 395.734C402.499 391.039 400.268 388.272 395.051 387.434C387.747 386.26 380.816 389.428 374.258 396.936C367.784 403.923 363.206 415.763 360.523 432.457L351.847 486.451C349.919 498.45 346.761 508.11 342.374 515.433C338.07 522.233 331.586 527.613 322.923 531.573L322.294 535.485C348.835 543.496 368.193 556.24 380.369 573.716C393.067 591.275 396.901 615.706 391.871 647.007L383.698 697.87C381.435 711.956 386.041 719.921 397.518 721.765C406.909 723.274 414.822 717.321 421.259 703.906C427.78 689.97 432.758 672.307 436.195 650.918L456.541 654.187C451.008 688.618 441.516 714.386 428.065 731.49C415.135 748.678 395.106 755.092 367.979 750.733Z" fill="black"/>
<path d="M322.438 535.005C348.841 542.974 368.209 555.632 380.483 573.009C380.58 573.146 380.678 573.283 380.774 573.42L381.383 574.277C394.028 592.349 397.362 615.985 392.365 647.084L384.192 697.945L384.105 698.504L384.012 699.164C383.573 702.441 383.54 705.415 383.875 707.965L383.935 708.376C384.256 710.413 384.836 712.205 385.667 713.757L385.668 713.759C387.488 716.897 391.831 720.066 396.76 721.114L397.24 721.208L397.434 721.242L397.6 721.269C399.981 721.651 402.476 721.514 404.835 720.821C404.842 720.819 404.849 720.817 404.856 720.815C406.523 720.302 408.138 719.495 409.702 718.39L409.706 718.388L409.708 718.385C413.159 715.785 417.334 710.633 420.432 704.45C420.548 704.216 420.667 703.98 420.782 703.741C420.79 703.724 420.798 703.708 420.806 703.692C420.855 703.586 420.903 703.479 420.953 703.373C427.111 690.105 432.018 672.968 435.402 652.664L435.701 650.836L435.781 650.344L457.114 653.772L457.035 654.265C451.477 688.855 442.222 714.295 428.457 731.797C428.315 731.985 428.173 732.172 428.03 732.358L428.03 732.359C427.954 732.457 427.875 732.553 427.799 732.651C421.101 741.229 412.981 746.961 403.147 750.008C393.209 753.088 381.554 753.419 367.9 751.225L367.898 751.224L367.749 751.199C342.318 747.088 323.704 737.897 310.337 722.425L309.702 721.682L309.697 721.674C309.465 721.387 309.236 721.099 309.01 720.81C296.143 704.404 292.226 684.479 296.329 658.945L306.263 597.126C308.495 583.234 308.01 571.382 302.275 562.292C302.096 562.01 301.913 561.729 301.725 561.452L290.452 549.847L289.953 549.333L290.607 549.042L306.349 542.034L322.09 535.026L322.26 534.95L322.438 535.005Z" stroke="#909090"/>
<path d="M287.501 549.5L289.001 552L322.501 536V534L287.501 549.5Z" fill="black"/>
<path d="M671.531 1356.58L677.345 1355.23C683.526 1353.79 687.14 1348.92 688.187 1340.61L699.752 1237.35L703.68 1236.44L761.064 1328.44C762.721 1330.81 764.406 1332.35 766.116 1333.06C767.803 1333.66 769.798 1333.69 772.103 1333.15L780.903 1331.1L782.074 1336.13L733.36 1347.48L732.188 1342.45L742.56 1340.04C744.131 1339.67 745.355 1339 746.232 1338.02C747.085 1336.94 747.389 1335.87 747.145 1334.83C746.827 1333.46 746.349 1332.36 745.711 1331.52L733.456 1312.34L696.684 1320.9L695.366 1332.31C694.875 1336.84 694.85 1340.05 695.289 1341.94C695.826 1344.24 696.878 1346.15 698.445 1347.66C699.988 1349.07 702.174 1349.44 705.003 1348.79L714.588 1346.55L715.76 1351.58L672.702 1361.61L671.531 1356.58ZM697.242 1315.47L730.556 1307.71L703.048 1263.59L697.242 1315.47Z" fill="black"/>
<path d="M823.313 1319.01L831.316 1315.39C834.082 1314.14 835.866 1312.56 836.669 1310.65C837.57 1308.7 838.016 1306 838.005 1302.55C837.966 1291.15 835.957 1278.02 831.978 1263.16C828.052 1248.16 822.272 1232.21 814.636 1215.32C812.001 1209.49 808.115 1207.73 802.978 1210.06L794.679 1213.81L792.536 1209.07L872.855 1172.76L874.998 1177.5L864.329 1182.33C862.946 1182.95 862.065 1183.77 861.686 1184.77C861.361 1185.63 861.511 1186.75 862.136 1188.14L901.053 1274.23C903.464 1279.57 907.337 1281.03 912.672 1278.62L922.601 1274.13L937.203 1306.44L933.498 1308.11C932.337 1305.54 930.102 1301.91 926.792 1297.22C923.625 1292.59 919.751 1289.28 915.171 1287.31C912.974 1286.39 910.395 1285.95 907.434 1285.98C904.617 1286.07 901.825 1286.73 899.059 1287.98L849.119 1310.56C846.451 1311.76 844.106 1313.42 842.083 1315.52C840.203 1317.68 838.879 1319.89 838.112 1322.14C836.567 1326.88 836.44 1331.99 837.729 1337.48C839.162 1343.02 840.459 1347.07 841.62 1349.64L837.916 1351.31L823.313 1319.01ZM886.097 1288.13C888.765 1286.93 889.496 1284.99 888.29 1282.32L848.503 1194.3C847.297 1191.63 845.36 1190.9 842.693 1192.11L828.911 1198.33C823.972 1200.57 821.444 1203.79 821.327 1208.01C821.265 1212.08 822.059 1215.95 823.712 1219.6C828.981 1231.26 833.525 1244.08 837.345 1258.06C841.12 1271.94 843.403 1283.04 844.193 1291.37C844.343 1292.49 844.568 1294.17 844.869 1296.42C845.223 1298.52 845.557 1299.91 845.869 1300.6C846.628 1302.28 847.483 1303.39 848.433 1303.91C849.338 1304.33 850.878 1304.05 853.051 1303.07L886.097 1288.13Z" fill="black"/>
<path d="M903.429 1240.8L903.057 1241.53L965.427 1273.2C968.443 1274.74 971.2 1275.26 973.698 1274.79C976.155 1274.19 977.964 1272.75 979.123 1270.47L981.359 1266.07L985.272 1268.05L970.491 1297.16L966.577 1295.17L968.813 1290.77C969.973 1288.49 970.048 1286.22 969.04 1283.96C967.991 1281.58 965.959 1279.63 962.942 1278.1L896.781 1244.5C895.64 1243.92 894.68 1243.79 893.901 1244.11C893.081 1244.31 892.382 1244.98 891.802 1246.12L887.331 1254.93L883.417 1252.94L896.584 1227.01L974.091 1241.3L916.147 1188.49L929.003 1163.18L932.917 1165.16L928.445 1173.97C927.865 1175.11 927.716 1176.11 927.997 1176.97C928.238 1177.71 928.929 1178.37 930.07 1178.95L1002.71 1215.84C1004.91 1216.96 1006.57 1216.41 1007.69 1214.21L1012.16 1205.41L1016.08 1207.39L998.066 1242.86L994.153 1240.87L998.624 1232.07C999.742 1229.87 999.2 1228.21 996.999 1227.09L924.846 1190.45L994.317 1253.88L992.826 1256.81L903.429 1240.8Z" fill="black"/>
<path d="M751.465 1324.39C749.111 1320.69 748.447 1317.43 749.473 1314.61C750.625 1311.82 753.351 1308.95 757.652 1306C762.956 1302.41 766.384 1299.37 767.935 1296.86C769.536 1294.44 769.429 1291.8 767.614 1288.94L762.906 1281.53L742.069 1294.78C741.143 1295.36 740.609 1295.97 740.469 1296.61C740.328 1297.24 740.552 1298.01 741.14 1298.94L744.23 1303.8L741.452 1305.57L726.739 1282.42L729.517 1280.65L732.607 1285.51C733.195 1286.44 733.805 1286.97 734.436 1287.11C735.067 1287.25 735.846 1287.03 736.772 1286.44L778.794 1259.74C779.72 1259.15 780.253 1258.54 780.394 1257.91C780.535 1257.28 780.311 1256.5 779.722 1255.57L776.633 1250.71L779.411 1248.94L794.124 1272.1L791.346 1273.86L788.256 1269C787.667 1268.07 787.058 1267.54 786.427 1267.4C785.795 1267.26 785.017 1267.48 784.091 1268.07L765.684 1279.77L770.466 1287.29C772.085 1289.84 774.679 1290.68 778.249 1289.82C781.946 1288.99 786.053 1287.36 790.571 1284.92C794.037 1283.04 797.07 1282.36 799.672 1282.87C802.322 1283.46 804.334 1284.84 805.707 1287C807.326 1289.55 807.679 1291.98 806.765 1294.29C805.901 1296.68 804.427 1298.54 802.344 1299.86C800.26 1301.19 798.17 1301.65 796.073 1301.25C793.976 1300.85 792.388 1299.8 791.31 1298.1C790.329 1296.56 789.993 1295.09 790.302 1293.7C790.612 1292.31 791.384 1291.23 792.619 1290.44C793.313 1290 794.092 1289.78 794.955 1289.77C795.894 1289.71 796.666 1289.82 797.269 1290.09C798.426 1290.54 799.351 1290.55 800.046 1290.11C801.126 1289.42 801.274 1288.46 800.49 1287.23C799.901 1286.3 798.846 1285.83 797.324 1285.83C795.928 1285.85 794.28 1286.41 792.379 1287.51C788.296 1289.78 784.315 1291.44 780.436 1292.5C776.557 1293.55 773.52 1293.21 771.326 1291.46L770.979 1291.68C772.679 1297.42 772.813 1302.32 771.38 1306.38C770.755 1308.29 769.663 1310.07 768.105 1311.71C766.547 1313.35 764.607 1315.07 762.284 1316.87C760.271 1318.47 758.793 1319.9 757.853 1321.15C756.961 1322.47 756.883 1323.71 757.619 1324.87C758.796 1326.72 760.7 1327.25 763.33 1326.44C765.961 1325.64 768.511 1324.45 770.98 1322.88L772.305 1324.97C768.677 1327.27 764.879 1328.71 760.909 1329.28C757.065 1329.88 753.917 1328.25 751.465 1324.39Z" fill="black"/>
<path d="M1030.96 433.731L1021.24 429.859C1016.85 428.113 1013.4 427.622 1010.89 428.388C1008.11 429.269 1005.33 431.255 1002.55 434.345C990.914 448.042 980.952 461.966 972.667 476.115C964.191 490.188 956.347 506.28 949.134 524.39C946.098 532.016 946.676 536.664 950.87 538.334L962.88 543.117L960.147 549.98L857.204 508.984L859.937 502.121L871.947 506.904C874.234 507.815 876.045 507.983 877.377 507.41C878.71 506.836 879.832 505.406 880.743 503.118L921.056 401.89C922.308 398.192 922.608 395.219 921.957 392.972C921.23 390.916 919.246 389.242 916.005 387.952L900.564 381.802L918.89 330.791L924.61 333.068C924.078 334.403 923.322 338.519 922.342 345.418C921.247 352.049 920.991 358.794 921.573 365.652C922.811 378.072 929.054 386.522 940.301 391.001L995.204 412.866C1002.07 415.599 1007.94 416.39 1012.81 415.239C1017.69 414.089 1022.35 411.529 1026.8 407.559C1031.94 402.979 1036.49 397.942 1040.44 392.449C1044.28 386.69 1046.47 383.143 1047 381.808L1052.72 384.086L1030.96 433.731ZM951.58 403.444C949.292 402.533 947.482 402.364 946.149 402.938C944.816 403.511 943.695 404.942 942.784 407.23L901.332 511.317C900.421 513.605 900.252 515.415 900.826 516.748C901.399 518.08 902.83 519.202 905.118 520.113L919.129 525.693C930.758 530.325 940.065 523.871 947.049 506.332C950.618 497.372 955.86 486.981 962.777 475.158C969.694 463.335 975.472 454.372 980.112 448.268C988.478 437.244 993.344 430.015 994.711 426.584C995.394 424.868 995.354 423.306 994.589 421.897C993.559 420.603 992.185 419.615 990.47 418.931L951.58 403.444Z" fill="black"/>
<path d="M206.918 1043.09L212.809 1051.74C215.466 1055.64 218.05 1057.98 220.562 1058.75C223.359 1059.58 226.773 1059.49 230.804 1058.48C248.115 1053.64 264.162 1047.68 278.946 1040.59C293.846 1033.66 309.351 1024.72 325.463 1013.74C332.246 1009.12 334.368 1004.95 331.826 1001.22L324.549 990.531L330.654 986.372L393.032 1077.95L386.927 1082.11L379.65 1071.43C378.263 1069.39 376.858 1068.24 375.432 1067.97C374.006 1067.7 372.276 1068.26 370.241 1069.64L280.187 1130.98C277.08 1133.35 275.168 1135.64 274.45 1137.87C273.902 1139.98 274.609 1142.48 276.573 1145.36L285.93 1159.1L242.197 1191.12L238.731 1186.03C239.918 1185.22 242.848 1182.23 247.521 1177.07C252.139 1172.18 256.126 1166.74 259.481 1160.73C265.405 1149.74 264.959 1139.24 258.143 1129.24L224.875 1080.39C220.716 1074.29 216.295 1070.35 211.61 1068.57C206.926 1066.8 201.628 1066.31 195.717 1067.11C188.896 1068.03 182.31 1069.66 175.959 1072C169.554 1074.63 165.758 1076.34 164.571 1077.15L161.105 1072.06L206.918 1043.09ZM255.758 1112.61C257.145 1114.65 258.55 1115.8 259.976 1116.07C261.402 1116.34 263.132 1115.78 265.167 1114.4L357.765 1051.33C359.8 1049.94 360.953 1048.53 361.224 1047.11C361.494 1045.68 360.936 1043.95 359.55 1041.92L351.06 1029.45C344.013 1019.11 332.689 1019.25 317.086 1029.88C309.115 1035.31 298.955 1040.98 286.607 1046.91C274.259 1052.84 264.454 1057.04 257.194 1059.5C244.091 1063.95 236.013 1067.22 232.96 1069.3C231.434 1070.34 230.593 1071.66 230.439 1073.25C230.569 1074.9 231.154 1076.49 232.193 1078.02L255.758 1112.61Z" fill="black"/>
<path d="M1064.42 544.646L1062.07 541.448C1059.58 538.048 1055.66 537.114 1050.31 538.645L984.207 558.558L982.622 556.398L1023.83 497.305C1024.85 495.672 1025.35 494.24 1025.33 493.011C1025.26 491.824 1024.76 490.596 1023.83 489.328L1020.28 484.488L1023.04 482.459L1042.7 509.253L1039.94 511.283L1035.75 505.578C1035.12 504.714 1034.39 504.141 1033.56 503.861C1032.68 503.623 1031.95 503.716 1031.37 504.138C1030.62 504.688 1030.07 505.268 1029.72 505.879L1021.21 518.377L1036.05 538.602L1043.36 536.428C1046.26 535.543 1048.23 534.72 1049.26 533.959C1050.53 533.029 1051.42 531.888 1051.94 530.535C1052.39 529.225 1052.05 527.792 1050.91 526.236L1047.04 520.963L1049.81 518.934L1067.19 542.617L1064.42 544.646ZM1032.59 539.681L1019.14 521.357L999.374 549.69L1032.59 539.681Z" fill="black"/>
<path d="M241.247 932.448L241.402 936.412C241.567 940.626 244.295 943.594 249.583 945.318L315.51 965.802L315.615 968.48L248.395 994.396C246.638 995.18 245.422 996.086 244.747 997.114C244.143 998.139 243.872 999.437 243.934 1001.01L244.169 1007.01L240.741 1007.14L239.439 973.933L242.867 973.798L243.144 980.869C243.186 981.94 243.471 982.823 243.999 983.517C244.599 984.209 245.255 984.541 245.969 984.513C246.898 984.477 247.678 984.303 248.309 983.992L262.36 978.399L261.377 953.332L254.099 951.042C251.203 950.154 249.113 949.736 247.827 949.786C246.256 949.848 244.879 950.295 243.696 951.128C242.584 951.958 242.066 953.338 242.141 955.266L242.397 961.801L238.969 961.935L237.819 932.583L241.247 932.448ZM264.852 954.376L265.741 977.086L297.978 964.665L264.852 954.376Z" fill="black"/>
<path d="M797.795 404.415C792.775 397.574 790.096 390.405 789.758 382.908C789.515 375.541 793.653 368.732 802.173 362.481C808.756 357.65 815.15 355.54 821.356 356.149C827.562 356.758 833.049 358.689 837.818 361.941C842.811 365.228 848.209 369.607 854.012 375.08L870.373 390.477L886.831 378.401C898.835 369.593 900.433 359.187 891.625 347.183C888.405 342.794 884.307 339.645 879.332 337.736C874.485 335.732 870.642 335.771 867.803 337.855C866.512 338.802 865.686 339.706 865.324 340.567C865.127 341.109 865.024 341.781 865.015 342.581C865.102 343.511 865.27 344.281 865.519 344.892C866.579 347.689 866.954 350.094 866.645 352.108C866.43 354.252 865.29 356.081 863.225 357.596C860.514 359.585 857.962 360.167 855.569 359.341C853.271 358.645 851.222 357.07 849.423 354.618C847.339 351.778 846.542 348.392 847.031 344.458C847.521 340.524 849.831 337.042 853.961 334.012C858.737 330.507 863.815 328.767 869.194 328.791C874.668 328.945 879.76 330.471 884.469 333.37C889.401 336.304 893.478 339.965 896.698 344.354C902.949 352.873 906.089 361.888 906.117 371.399C906.275 380.815 901.642 388.98 892.219 395.894L844.59 430.843C838.136 435.578 836.377 439.947 839.313 443.948C841.681 447.175 845.257 448.125 850.042 446.798C854.827 445.472 859.93 442.819 865.352 438.841L867.909 442.326C860.164 448.009 852.793 451.63 845.796 453.19C838.894 454.879 833.312 452.819 829.05 447.011C824.977 441.46 823.513 436.081 824.656 430.874C826.023 425.701 829.516 420.854 835.135 416.334L834.812 415.082C828.874 416.46 822.229 416.471 814.878 415.113C807.751 413.789 802.057 410.223 797.795 404.415ZM807.038 402.398C811.3 408.207 816.874 411.067 823.759 410.979C830.869 410.926 838.92 409.585 847.914 406.957L866.307 393.461L850.269 379.315C844.432 374.067 838.535 371.443 832.579 371.445C826.847 371.481 820.496 374.056 813.526 379.171C807.588 383.527 804.422 387.737 804.027 391.8C803.761 395.768 804.765 399.3 807.038 402.398Z" fill="black"/>
<path d="M510.652 449.767L519.525 444.97C521.215 444.057 522.222 443.057 522.545 441.973C522.869 440.888 522.574 439.5 521.66 437.81L480.088 360.915C479.174 359.225 478.175 358.218 477.09 357.894C476.005 357.571 474.617 357.866 472.927 358.78L464.055 363.576L461.314 358.506L503.564 335.664L506.305 340.735L497.433 345.531C495.743 346.445 494.736 347.444 494.412 348.529C494.089 349.614 494.384 351.001 495.298 352.691L536.87 429.587C537.784 431.277 538.783 432.284 539.868 432.607C540.953 432.931 542.34 432.636 544.03 431.722L570.648 417.332C572.338 416.418 573.345 415.419 573.668 414.334C573.992 413.249 573.697 411.862 572.783 410.172L531.211 333.276C530.297 331.586 529.298 330.579 528.213 330.256C527.128 329.932 525.74 330.227 524.05 331.141L515.178 335.938L512.437 330.868L554.687 308.026L557.428 313.096L548.556 317.893C546.866 318.806 545.859 319.806 545.535 320.89C545.212 321.975 545.507 323.363 546.421 325.053L587.993 401.948C588.907 403.639 589.906 404.645 590.991 404.969C592.076 405.292 593.463 404.997 595.153 404.083L621.771 389.693C623.461 388.779 624.468 387.78 624.791 386.695C625.115 385.61 624.82 384.223 623.906 382.533L582.334 305.637C581.42 303.947 580.421 302.94 579.336 302.617C578.251 302.293 576.863 302.589 575.173 303.502L566.301 308.299L563.56 303.229L605.81 280.387L608.551 285.457L599.679 290.254C597.989 291.168 596.982 292.167 596.658 293.252C596.335 294.337 596.63 295.724 597.544 297.414L639.116 374.31C640.03 376 641.029 377.007 642.114 377.33C643.199 377.653 644.586 377.358 646.276 376.445L655.149 371.648L657.89 376.718L513.393 454.837L510.652 449.767Z" fill="black"/>
<path d="M1168.66 644.881L1165.55 640.63C1164.14 638.712 1162.8 637.582 1161.52 637.237C1160.09 636.871 1158.38 636.977 1156.36 637.556C1147.73 640.298 1139.76 643.585 1132.44 647.417C1125.06 651.165 1117.41 655.945 1109.49 661.756C1106.16 664.202 1105.16 666.342 1106.51 668.176L1110.36 673.428L1107.36 675.63L1074.33 630.617L1077.33 628.415L1081.19 633.666C1081.92 634.667 1082.65 635.222 1083.37 635.333C1084.09 635.444 1084.95 635.133 1085.95 634.399L1130.22 601.921C1131.74 600.675 1132.66 599.485 1132.98 598.351C1133.22 597.279 1132.82 596.034 1131.78 594.617L1126.83 587.865L1148.28 570.967L1150.12 573.468C1149.54 573.896 1148.11 575.453 1145.85 578.138C1143.61 580.679 1141.7 583.492 1140.12 586.577C1137.33 592.214 1137.74 597.491 1141.35 602.409L1158.96 626.416C1161.16 629.417 1163.46 631.323 1165.85 632.134C1168.24 632.945 1170.92 633.097 1173.88 632.59C1177.3 632.006 1180.59 631.068 1183.74 629.778C1186.92 628.343 1188.8 627.411 1189.39 626.983L1191.22 629.484L1168.66 644.881ZM1142.84 610.738C1142.11 609.738 1141.38 609.182 1140.66 609.071C1139.93 608.96 1139.07 609.272 1138.07 610.006L1092.56 643.401C1091.56 644.135 1091 644.864 1090.89 645.586C1090.78 646.309 1091.09 647.17 1091.83 648.17L1096.32 654.297C1100.05 659.382 1105.75 659.111 1113.42 653.484C1117.34 650.609 1122.36 647.57 1128.47 644.367C1134.58 641.164 1139.45 638.878 1143.06 637.509C1149.58 635.034 1153.59 633.246 1155.09 632.145C1155.84 631.595 1156.24 630.916 1156.29 630.11C1156.19 629.282 1155.87 628.493 1155.32 627.743L1142.84 610.738Z" fill="black"/>
<path d="M1128.5 586.176L1125.01 581.425C1124.46 580.675 1123.97 580.266 1123.54 580.2C1122.96 580.111 1122.3 580.342 1121.54 580.892L1073.28 616.306C1071.28 617.774 1071.17 619.717 1072.94 622.134C1074.65 624.468 1076.89 625.774 1079.66 626.051C1082.35 626.389 1085.34 626.183 1088.63 625.431C1092.07 624.702 1095.34 623.651 1098.44 622.277C1101.53 620.903 1103.33 620.033 1103.83 619.666L1106.22 622.917L1081.41 639.965L1051.87 599.704L1054.87 597.502L1057.99 601.753C1058.6 602.587 1059.23 603.017 1059.9 603.045C1060.56 603.073 1061.43 602.689 1062.51 601.894L1083.64 586.389L1074.84 574.385C1071.04 569.217 1069.44 563.793 1070.01 558.112C1070.59 552.431 1073.13 547.939 1077.63 544.637C1080.63 542.435 1083.96 541.208 1087.63 540.957C1091.14 540.684 1094.66 541.372 1098.18 543.022C1101.62 544.733 1104.59 547.297 1107.1 550.715L1131.5 583.974L1128.5 586.176ZM1107.95 558.168C1106.05 555.584 1103.36 554.543 1099.89 555.044C1096.34 555.462 1092.66 557.077 1088.82 559.891C1084.99 562.704 1082.35 565.665 1080.91 568.772C1079.47 571.88 1079.73 574.767 1081.69 577.435L1086.65 584.187L1110.9 566.388C1111.65 565.838 1112.1 565.315 1112.25 564.82C1112.26 564.303 1111.99 563.67 1111.43 562.919L1107.95 558.168Z" fill="black"/>
<path d="M209.751 772.915L209.981 778.803C210.018 779.733 210.197 780.347 210.519 780.645C210.949 781.042 211.628 781.222 212.558 781.186L272.375 778.842C274.854 778.745 276.035 777.198 275.918 774.202C275.804 771.309 274.678 768.974 272.539 767.195C270.503 765.412 267.91 763.91 264.758 762.689C261.498 761.368 258.202 760.411 254.867 759.817C251.533 759.223 249.556 758.939 248.936 758.963L248.778 754.934L278.878 754.686L280.833 804.585L277.114 804.73L276.908 799.461C276.867 798.428 276.58 797.715 276.048 797.322C275.515 796.929 274.577 796.759 273.234 796.812L247.045 797.838L247.628 812.715C247.879 819.12 246.176 824.515 242.52 828.901C238.863 833.286 234.245 835.588 228.667 835.807C224.947 835.953 221.5 835.105 218.324 833.263C215.255 831.521 212.724 828.982 210.73 825.646C208.841 822.305 207.813 818.517 207.647 814.281L206.031 773.061L209.751 772.915ZM211.111 807.627C211.236 810.83 212.881 813.197 216.045 814.728C219.213 816.363 223.174 817.087 227.926 816.901C232.678 816.715 236.52 815.737 239.451 813.966C242.382 812.196 243.783 809.658 243.654 806.352L243.326 797.984L213.262 799.162C212.333 799.198 211.667 799.379 211.266 799.706C210.972 800.131 210.844 800.809 210.88 801.738L211.111 807.627Z" fill="black"/>
<path d="M465.088 1058.69C479.558 1077 489.139 1098.93 493.848 1124.44C498.135 1147.67 498.017 1168.93 493.464 1188.2C505.04 1172.13 521.024 1158.12 541.385 1146.14C563.744 1132.98 586.585 1125.86 609.899 1124.79L610.777 1124.75L613.756 1141.69L612.854 1141.92C596.554 1146.02 583.079 1152.24 572.396 1160.56C561.673 1168.91 552.996 1178.47 546.356 1189.24C540.152 1200.3 532.45 1215.9 523.246 1236.07L490.277 1308.29L488.75 1310.06L488.438 1309.91L522.336 1235.65C531.551 1215.46 539.272 1199.82 545.499 1188.72C552.207 1177.85 560.968 1168.19 571.782 1159.77C582.596 1151.35 596.206 1145.07 612.61 1140.95L609.945 1125.79C586.811 1126.85 564.127 1133.92 541.893 1147C519.658 1160.08 502.709 1175.58 491.049 1193.49C496.941 1172.95 497.547 1149.99 492.864 1124.62C488.182 1099.25 478.662 1077.48 464.304 1059.31L451.107 1067.23C459.216 1082.54 463.391 1096.94 463.632 1110.41C464.353 1124.09 462.562 1136.93 458.258 1148.9C454.434 1161.09 447.915 1177.29 438.7 1197.47L404.802 1271.74L404.739 1271.71V1269.46L437.79 1197.06C446.998 1176.89 453.498 1160.74 457.304 1148.6L457.316 1148.56C461.572 1136.72 463.348 1124.02 462.633 1110.46L462.632 1110.42C462.394 1097.15 458.279 1082.91 450.223 1067.69L449.779 1066.86L464.543 1058L465.088 1058.69Z" fill="#909090"/>
<path fill-rule="evenodd" clip-rule="evenodd" d="M1160.3 783.603C1166.4 797.422 1170.82 809.973 1173.56 821.255L1175.02 819.755L1183.02 695.372C1156.61 688.71 1126.36 692.893 1092.28 707.923C1067.14 719.009 1047.48 736.629 1033.3 760.783C1029.15 768.389 1025.62 772.832 1022.72 774.111C1018.85 775.817 1014.78 774.437 1010.5 769.972L997.026 755.126L979.622 762.801L1038.78 896.959L1056.19 889.284C1047.92 854.818 1045.95 822.194 1050.27 791.412C1054.87 759.934 1067.32 739.718 1087.63 730.763C1115.19 718.611 1139.41 736.225 1160.3 783.603Z" fill="black"/>
<path d="M1091.88 707.007C1125.97 691.972 1156.36 687.7 1182.99 694.335L1182.93 695.349C1156.96 688.828 1127.3 692.778 1093.93 707.201L1092.28 707.922C1067.14 719.008 1047.48 736.629 1033.3 760.783L1032.53 762.172C1028.71 768.931 1025.44 772.911 1022.72 774.11L1022.36 774.262C1018.6 775.727 1014.65 774.296 1010.5 769.971L997.026 755.125L979.622 762.8L1038.78 896.958L1056.19 889.283C1047.92 854.817 1045.95 822.194 1050.27 791.412C1054.87 759.934 1067.32 739.717 1087.63 730.763L1088.27 730.484C1115.56 718.888 1139.57 736.594 1160.3 783.603L1161.21 785.678C1166.84 798.675 1170.95 810.53 1173.56 821.241L1172.72 822.027C1170 810.685 1165.57 798.013 1159.39 784.006C1148.97 760.375 1137.78 744.319 1125.88 735.667C1114.05 727.072 1101.49 725.745 1088.03 731.678C1068.17 740.438 1055.84 760.257 1051.26 791.556H1051.26C1046.96 822.195 1048.92 854.691 1057.16 889.05L1057.36 889.861L1038.27 898.277L978.304 762.288L997.282 753.919L1011.22 769.279C1013.3 771.443 1015.26 772.786 1017.09 773.407C1018.89 774.018 1020.62 773.946 1022.32 773.196C1023.55 772.655 1025.03 771.377 1026.76 769.197C1028.48 767.038 1030.36 764.079 1032.42 760.304L1032.44 760.276C1046.72 735.945 1066.54 718.179 1091.88 707.007Z" fill="#909090"/>
</svg>
