<svg width="391" height="483" viewBox="0 0 391 483" fill="none" xmlns="http://www.w3.org/2000/svg">
<path d="M146.408 272.773H165.15C167.336 272.773 168.82 272.382 169.601 271.601C170.382 270.664 170.772 269.18 170.772 267.15V128.928C170.772 126.429 169.992 124.476 168.43 123.071C166.868 121.665 164.759 120.962 162.104 120.962C154.764 120.962 148.048 125.023 141.957 133.145C135.865 141.11 131.336 150.481 128.369 161.258C126.651 167.036 125.401 171.956 124.62 176.017C123.995 179.922 123.605 182.342 123.449 183.28H115.952L117.826 113.465H258.391L260.266 183.28H252.769C252.613 182.342 252.144 179.922 251.363 176.017C250.738 171.956 249.567 167.036 247.849 161.258C244.882 150.481 240.352 141.11 234.261 133.145C228.17 125.023 221.454 120.962 214.113 120.962C211.458 120.962 209.35 121.665 207.788 123.071C206.226 124.476 205.445 126.429 205.445 128.928V267.15C205.445 269.18 205.836 270.664 206.617 271.601C207.554 272.382 209.037 272.773 211.068 272.773H229.81V280.27H146.408V272.773Z" fill="#F3F3F3"/>
<path d="M40.5232 354.794L42.5452 351.342C42.7811 350.94 42.8693 350.624 42.8097 350.396C42.7214 350.151 42.4903 349.919 42.1164 349.7L16.6631 334.788C16.203 334.518 15.7592 334.451 15.3318 334.587C14.9045 334.723 14.5476 335.036 14.2611 335.525C13.4692 336.877 13.4924 338.551 14.3308 340.549C15.1405 342.53 16.3775 344.375 18.0418 346.084C18.9206 347.024 19.6918 347.785 20.3553 348.367C21.0069 348.903 21.4106 349.236 21.5663 349.366L20.7575 350.747L8.10361 342.87L23.2687 316.985L36.327 324.172L35.5182 325.552C35.3288 325.48 34.8325 325.305 34.0292 325.028C33.214 324.705 32.1817 324.389 30.9322 324.082C28.6275 323.466 26.4132 323.289 24.2892 323.552C22.1365 323.797 20.6642 324.596 19.8722 325.947C19.5858 326.436 19.4877 326.9 19.5781 327.34C19.6684 327.779 19.9437 328.133 20.4039 328.403L45.8572 343.315C46.2311 343.534 46.5464 343.623 46.8032 343.58C47.0481 343.492 47.2801 343.26 47.4992 342.887L49.5212 339.435L50.9017 340.244L41.9037 355.602L40.5232 354.794Z" fill="#F3F3F3"/>
<path d="M68.7516 378.718L69.1968 382.19C69.2562 382.653 69.3791 382.956 69.5656 383.1C69.7852 383.24 70.1099 383.283 70.5397 383.227L100.296 379.411C100.759 379.352 101.062 379.229 101.206 379.042C101.351 378.856 101.393 378.531 101.334 378.068L100.888 374.597L102.475 374.393L104.612 391.057L103.025 391.26L102.58 387.789C102.525 387.359 102.402 387.055 102.211 386.878C102.025 386.734 101.7 386.692 101.237 386.751L88.1446 388.43L89.6457 400.134L102.738 398.455C103.201 398.396 103.505 398.273 103.649 398.086C103.793 397.9 103.835 397.575 103.776 397.112L103.318 393.541L104.905 393.338L107.055 410.101L105.468 410.304L105.023 406.833C104.968 406.403 104.845 406.099 104.654 405.922C104.467 405.778 104.143 405.736 103.68 405.795L73.9235 409.611C73.4937 409.666 73.1902 409.789 73.013 409.98C72.8732 410.2 72.8308 410.524 72.8859 410.954L73.3311 414.426L71.7441 414.629L69.607 397.966L71.194 397.762L71.6392 401.234C71.6986 401.697 71.8216 402 72.0081 402.144C72.2276 402.284 72.5523 402.327 72.9822 402.271L87.8603 400.363L86.3592 388.659L71.4811 390.567C71.0513 390.622 70.7478 390.745 70.5706 390.936C70.4307 391.156 70.3884 391.48 70.4435 391.91L70.8887 395.382L69.3017 395.585L67.1646 378.922L68.7516 378.718Z" fill="#F3F3F3"/>
<path d="M304.511 379.679C304.769 377.662 304.694 375.888 304.286 374.357C303.877 372.826 303.242 371.619 302.381 370.736C301.483 369.881 300.488 369.384 299.397 369.244C298.405 369.117 297.437 369.328 296.492 369.879C295.548 370.43 295.003 371.268 294.859 372.392C294.758 373.186 294.925 373.846 295.361 374.372C295.761 374.927 296.308 375.25 297.002 375.339C297.597 375.415 298.133 375.299 298.609 374.99C299.081 374.715 299.446 374.358 299.704 373.921C299.791 373.764 299.945 373.616 300.165 373.476C300.347 373.365 300.554 373.324 300.785 373.354C301.678 373.468 302.346 374.024 302.789 375.022C303.195 376.049 303.273 377.538 303.023 379.488C302.773 381.439 302.324 382.843 301.676 383.701C300.991 384.588 300.202 384.974 299.309 384.86C299.078 384.83 298.89 384.722 298.746 384.535C298.565 384.378 298.452 384.212 298.407 384.038C298.268 383.55 298.007 383.096 297.623 382.677C297.236 382.292 296.745 382.061 296.15 381.984C295.455 381.895 294.847 382.052 294.325 382.456C293.765 382.888 293.435 383.501 293.333 384.295C293.189 385.419 293.504 386.367 294.279 387.138C295.054 387.91 295.937 388.359 296.929 388.486C298.02 388.626 299.11 388.379 300.199 387.746C301.252 387.142 302.168 386.15 302.95 384.772C303.732 383.394 304.252 381.696 304.511 379.679ZM342.012 366.341L341.567 369.813C341.507 370.276 341.385 370.579 341.198 370.723C340.978 370.863 340.654 370.906 340.224 370.85L310.468 367.034C310.005 366.975 309.701 366.852 309.557 366.665C309.413 366.479 309.371 366.154 309.43 365.691L309.875 362.22L308.288 362.016L306.151 378.68L307.738 378.883L308.183 375.412C308.239 374.982 308.361 374.678 308.552 374.501C308.739 374.357 309.063 374.315 309.526 374.374L334.174 377.535L309.513 386.269L308.025 386.078C307.562 386.019 307.259 385.896 307.115 385.709C306.971 385.523 306.928 385.198 306.988 384.735L307.446 381.165L305.859 380.961L303.709 397.724L305.296 397.927L305.741 394.456C305.796 394.026 305.919 393.722 306.11 393.545C306.296 393.401 306.621 393.359 307.084 393.418L336.84 397.234C337.27 397.289 337.573 397.412 337.751 397.603C337.891 397.823 337.933 398.147 337.878 398.577L337.433 402.049L339.02 402.252L341.157 385.589L339.57 385.385L339.124 388.857C339.065 389.32 338.942 389.623 338.756 389.767C338.536 389.907 338.211 389.95 337.782 389.894L313.084 386.727L337.795 378L339.283 378.19C339.712 378.245 340.016 378.368 340.193 378.559C340.333 378.779 340.375 379.103 340.32 379.533L339.875 383.005L341.462 383.208L343.599 366.545L342.012 366.341Z" fill="#F3F3F3"/>
<path d="M341.096 289.205L343.769 291.464C344.126 291.766 344.314 292.034 344.333 292.269C344.331 292.529 344.191 292.825 343.911 293.156L324.542 316.065C324.241 316.421 323.973 316.609 323.738 316.629C323.503 316.649 323.207 316.508 322.851 316.207L320.178 313.947L319.145 315.169L340.604 333.311L348.322 324.646L347.1 323.613C346.949 323.792 346.325 324.246 345.227 324.977C344.155 325.729 343.044 326.295 341.893 326.675C340.446 327.198 339.094 327.43 337.835 327.37C336.577 327.309 335.476 326.881 334.535 326.085L330.335 322.534C330.004 322.254 329.816 321.986 329.77 321.73C329.751 321.495 329.892 321.199 330.193 320.843L339.103 310.304L341.05 311.951C341.737 312.532 342.137 313.35 342.249 314.405C342.361 315.46 342.238 316.534 341.88 317.629C341.526 318.77 341.037 319.71 340.413 320.448L341.635 321.481L351.739 309.53L350.517 308.497C349.872 309.261 349.026 309.899 347.981 310.412C346.94 310.973 345.89 311.285 344.831 311.35C343.772 311.415 342.899 311.157 342.212 310.576L340.265 308.93L349.562 297.933C349.842 297.602 350.11 297.414 350.366 297.369C350.626 297.371 350.922 297.512 351.253 297.792L355.415 301.31C356.815 302.494 357.512 304.044 357.507 305.96C357.502 307.877 357.16 309.726 356.482 311.51C356.191 312.268 355.755 313.144 355.176 314.138C354.597 315.133 354.202 315.781 353.991 316.082L355.213 317.115L363.893 306.383L342.129 287.983L341.096 289.205Z" fill="#F3F3F3"/>
<path d="M290.933 334.551L293.835 337.004C294.522 337.585 295.245 337.607 296.004 337.071L321.327 319.588C321.55 319.427 321.705 319.296 321.791 319.194C322.114 318.812 322.008 318.395 321.473 317.943L318.571 315.49L319.91 314.526L340.987 332.346L331.87 339.566L330.915 338.759C331.027 338.679 331.225 338.497 331.508 338.213C331.813 337.904 332.171 337.507 332.579 337.023C334.387 334.885 335.292 333.118 335.293 331.723C335.295 330.327 334.608 329.048 333.233 327.886L326.971 322.592C326.284 322.011 325.561 321.988 324.802 322.525L313.331 330.44L317.454 333.926C318.447 334.765 319.475 335.176 320.538 335.158C321.622 335.114 322.616 334.842 323.52 334.341C324.45 333.861 325.496 333.217 326.658 332.41L327.613 333.217L313.87 342.812L312.915 342.005C314.117 341.1 315.051 340.253 315.718 339.464C316.472 338.573 316.885 337.723 316.959 336.912C317.059 336.123 316.689 335.374 315.849 334.664L311.992 331.403L299.479 340.008C299.256 340.169 299.112 340.287 299.048 340.364C298.703 340.771 298.798 341.201 299.333 341.652L306.435 347.657C307.097 348.216 308.002 348.72 309.151 349.168C310.322 349.59 311.554 349.759 312.848 349.674C314.163 349.564 315.544 349.247 316.991 348.724C318.484 348.197 319.764 347.664 320.83 347.125C321.897 346.587 322.565 346.235 322.835 346.071L323.752 346.845L311.893 354.367L289.594 335.514L290.933 334.551Z" fill="#F3F3F3"/>
<path d="M43.3851 356.238L45.9126 351.924C46.3507 351.176 47.017 350.929 47.9115 351.183L77.6067 359.25C77.928 359.361 78.1174 359.434 78.1749 359.467C78.6063 359.72 78.6535 360.134 78.3165 360.709L77.4824 362.133C76.9095 363.111 76.1174 363.902 75.1062 364.508C74.1117 365.084 73.1728 365.5 72.2893 365.755C70.9954 366.117 69.565 366.283 67.9983 366.254C66.4771 366.213 65.0809 366.09 63.8096 365.886C62.5839 365.67 61.928 365.537 61.8417 365.487L61.2098 366.565L74.7937 369.888L88.6445 346.246L75.4903 342.19L74.8584 343.269C74.9903 343.308 75.2744 343.416 75.7108 343.594C76.164 343.744 76.761 343.978 77.5018 344.296C78.2426 344.614 78.9581 344.975 79.6484 345.38C81.7767 346.627 82.9967 347.94 83.3084 349.321C83.637 350.672 83.4727 351.909 82.8155 353.03L81.9814 354.454C81.4759 355.317 80.7843 355.607 79.9067 355.325L50.2115 347.257C50.0796 347.218 49.913 347.14 49.7117 347.022C49.4816 346.887 49.3427 346.729 49.2951 346.546C49.2643 346.335 49.3332 346.085 49.5017 345.798L52.0292 341.484L50.4465 341.02L41.8023 355.774L43.3851 356.238Z" fill="#F3F3F3"/>
<path d="M65.6789 379.918L66.1623 383.687C66.2768 384.579 65.9025 385.199 65.0395 385.545L36.6048 397.307C36.3488 397.407 36.1712 397.464 36.072 397.476C35.543 397.544 35.234 397.231 35.1449 396.537L34.6615 392.768L33.1254 393.368L35.0081 408.048L36.5442 407.447L36.0608 403.678C35.9506 402.819 36.3249 402.199 37.1836 401.82L50.06 396.489L52.0254 411.814L39.149 417.145C38.893 417.245 38.7154 417.301 38.6162 417.314C38.0872 417.382 37.7782 417.069 37.6891 416.374L37.2057 412.605L35.6696 413.205L37.5523 427.885L39.0884 427.285L38.605 423.516C38.4948 422.656 38.869 422.037 39.7278 421.658L68.1625 409.895C68.4185 409.795 68.5961 409.739 68.6953 409.726C69.2243 409.658 69.5333 409.971 69.6224 410.666L70.1058 414.435L71.6419 413.835L69.7592 399.155L68.2231 399.755L68.7065 403.524C68.8209 404.417 68.4467 405.036 67.5837 405.382L53.5615 411.213L51.5961 395.889L65.6183 390.058C65.8743 389.958 66.0519 389.901 66.1511 389.888C66.6801 389.821 66.9891 390.134 67.0782 390.828L67.5616 394.597L69.0977 393.997L67.215 379.317L65.6789 379.918Z" fill="#F3F3F3"/>
<path d="M376.894 398.589C377.059 397.3 377.451 396.073 378.071 394.909C378.691 393.745 379.482 392.822 380.443 392.138C381.437 391.459 382.513 391.194 383.67 391.342C385.059 391.521 386.039 391.999 386.612 392.778C387.217 393.562 387.454 394.466 387.322 395.491C387.221 396.284 386.929 396.852 386.449 397.193C385.964 397.568 385.424 397.717 384.829 397.641C384.134 397.552 383.612 397.3 383.262 396.885C382.941 396.508 382.82 396.005 382.901 395.377C382.943 395.047 382.859 394.784 382.649 394.589C382.402 394.423 382.146 394.323 381.881 394.289C380.889 394.162 380.092 394.614 379.489 395.645C378.886 396.677 378.492 397.92 378.305 399.375C378.042 401.425 378.084 403.06 378.432 404.281C378.779 405.502 379.367 406.165 380.193 406.271C380.391 406.297 380.565 406.252 380.714 406.137C380.893 406.059 381.019 405.991 381.093 405.933C381.756 405.48 382.485 405.305 383.278 405.407C384.138 405.517 384.771 405.817 385.179 406.306C385.616 406.832 385.781 407.509 385.675 408.335C385.578 409.096 385.237 409.657 384.653 410.019C384.097 410.418 383.489 410.576 382.828 410.491C381.472 410.317 380.287 409.728 379.274 408.724C378.289 407.758 377.571 406.406 377.122 404.668C376.673 402.93 376.597 400.904 376.894 398.589ZM345.085 367.541L344.601 371.31C344.487 372.202 344.861 372.822 345.724 373.168L374.159 384.93C374.415 385.03 374.609 385.089 374.741 385.106C375.237 385.169 375.53 384.854 375.619 384.16L376.102 380.391L377.638 380.991L375.756 395.671L374.219 395.07L374.703 391.301C374.817 390.409 374.443 389.789 373.58 389.443L350.125 379.731L370.035 404.112L371.615 404.768C371.871 404.868 372.048 404.924 372.147 404.937C372.676 405.005 372.988 404.675 373.081 403.948L373.558 400.228L375.094 400.828L373.211 415.508L371.675 414.908L372.152 411.188C372.212 410.726 372.143 410.347 371.945 410.053C371.781 409.763 371.478 409.506 371.036 409.281L342.601 397.518C342.345 397.418 342.168 397.362 342.068 397.349C341.539 397.281 341.228 397.611 341.135 398.338L340.658 402.058L339.122 401.458L341.004 386.778L342.541 387.378L342.057 391.147C341.998 391.61 342.053 391.97 342.221 392.227C342.419 392.521 342.738 392.78 343.18 393.005L366.641 402.668L346.725 378.337L345.145 377.681C344.889 377.581 344.712 377.524 344.613 377.512C344.084 377.444 343.775 377.757 343.685 378.451L343.202 382.22L341.666 381.62L343.549 366.94L345.085 367.541Z" fill="#F3F3F3"/>
<path d="M149.891 287.435H173.395C177.469 287.435 180.055 289.551 181.151 293.782L218.993 433.397C219.307 434.964 219.464 435.905 219.464 436.218C219.464 438.568 217.897 439.744 214.763 439.744H207.006C201.679 439.744 196.586 438.412 191.728 435.748C187.028 433.084 183.11 430.264 179.976 427.286C175.432 422.899 171.358 417.493 167.754 411.068C164.307 404.8 161.486 398.846 159.292 393.205C157.255 387.721 156.237 384.743 156.237 384.273H150.361L169.164 447.265H297.968L283.16 384.273H277.284C277.441 384.9 277.676 386.31 277.989 388.504C278.459 390.698 278.93 393.675 279.4 397.436C279.87 401.197 280.105 404.957 280.105 408.718C280.105 420.313 277.676 428.383 272.818 432.927C268.118 437.472 262.712 439.744 256.6 439.744H248.844C244.143 439.744 241.323 437.628 240.382 433.397L202.54 293.782C202.384 293.155 202.305 292.293 202.305 291.196C202.305 289.943 202.619 289.002 203.246 288.376C204.029 287.749 205.204 287.435 206.771 287.435H230.276L228.395 279.914H148.01L149.891 287.435Z" fill="#F3F3F3"/>
<path d="M52.065 111.513H61.3669C62.6071 111.513 63.4487 111.292 63.8917 110.849C64.3346 110.317 64.5561 109.476 64.5561 108.324V28.5937C64.5561 27.3534 64.3346 26.5118 63.8917 26.0689C63.4487 25.6259 62.6071 25.4045 61.3669 25.4045H52.065V21.1522H126.746L127.543 51.9813H123.291C123.291 51.3612 122.804 49.3679 121.829 46.0015C120.943 42.6351 119.659 39.5788 117.975 36.8325C115.938 33.2889 113.59 30.4984 110.933 28.4608C108.275 26.4232 105.307 25.4045 102.029 25.4045H87.4121C86.2605 25.4045 85.4189 25.6259 84.8873 26.0689C84.4444 26.5118 84.2229 27.3534 84.2229 28.5937V65.2697H91C93.3919 65.2697 95.6067 64.2952 97.6442 62.3462C99.6818 60.3973 101.276 58.0054 102.428 55.1705C103.668 52.247 104.288 49.5008 104.288 46.9317H108.541V88.5244H104.288C104.288 85.8667 103.668 83.1204 102.428 80.2856C101.276 77.3621 99.6818 74.9259 97.6442 72.977C95.6067 71.028 93.3919 70.0535 91 70.0535H84.2229V108.324C84.2229 109.476 84.4444 110.317 84.8873 110.849C85.4189 111.292 86.2605 111.513 87.4121 111.513H101.897C106.769 111.513 110.844 109.564 114.122 105.666C117.4 101.769 119.88 97.4276 121.563 92.6438C122.272 90.6062 122.892 88.0814 123.424 85.0694C123.955 82.0574 124.265 80.0641 124.354 79.0896H128.606L127.809 115.766H52.065V111.513Z" fill="#F3F3F3"/>
<path d="M147.131 299.667L147.142 290.099C147.144 287.707 145.95 286.51 143.558 286.507L64.6246 286.419C63.3843 286.418 62.4981 286.727 61.9659 287.346C61.3452 287.877 61.0341 288.763 61.0327 290.003L61.022 299.571L56.7698 299.566L56.8193 255.183C56.8262 248.982 57.8954 243.49 60.0269 238.709C62.0699 233.839 64.9975 230.077 68.8098 227.423C72.5336 224.681 76.7874 223.313 81.5713 223.318C86.4437 223.324 90.783 224.702 94.5893 227.452C98.3957 230.114 101.404 233.882 103.613 238.757C105.734 243.544 106.791 249.037 106.784 255.239L106.762 274.241L143.571 274.282C144.812 274.283 145.742 274.019 146.363 273.488C146.895 272.957 147.162 272.027 147.163 270.698L147.176 259.004L151.429 259.009L151.383 299.672L147.131 299.667ZM102.533 253.506C102.539 248.722 100.505 244.867 96.4335 241.939C92.2732 238.922 87.3139 237.41 81.5556 237.404C75.7973 237.397 70.9675 238.854 67.0663 241.773C63.0765 244.692 61.0789 248.588 61.0735 253.46L61.0544 270.602C61.053 271.842 61.362 272.773 61.9814 273.394C62.5124 273.926 63.398 274.193 64.6382 274.194L102.51 274.236L102.533 253.506Z" fill="#F3F3F3"/>
<path d="M231.898 302.64L231.887 292.541C231.884 290.149 233.079 288.642 235.47 288.019L314.379 266.537L315.973 266.269C317.302 266.268 317.968 267.197 317.97 269.057L317.981 279.157L322.232 277.956L322.181 232.642C322.174 226.087 320.308 220.773 316.582 216.703C312.946 212.631 307.805 210.6 301.161 210.607C295.846 210.613 290.886 212.257 286.283 215.54C281.769 218.735 278.098 223.345 275.27 229.373C272.53 235.311 271.164 242.178 271.173 249.974L271.191 266.186L235.456 275.926C235.102 276.015 234.615 276.06 233.995 276.061C233.197 276.062 232.621 275.885 232.267 275.531C232 275.089 231.867 274.38 231.866 273.406L231.849 258.523L227.598 259.59L227.647 303.708L231.898 302.64ZM275.422 247.179C275.418 243.724 276.256 240.401 277.936 237.21C279.616 233.93 281.96 231.181 284.97 228.963C287.448 227.189 290.326 225.812 293.602 224.834C296.968 223.856 300.289 223.365 303.567 223.361C308.44 223.356 312.029 224.548 314.335 226.937C316.729 229.238 317.928 232.116 317.932 235.571L317.948 249.922C317.951 252.314 316.757 253.821 314.365 254.444L275.442 264.985L275.422 247.179Z" fill="#F3F3F3"/>
<path d="M29.7342 201.843H39.8334C42.2253 201.843 43.7314 200.647 44.3515 198.256L65.7458 119.322C65.923 118.614 66.0116 118.082 66.0116 117.728C66.0116 116.399 65.0814 115.735 63.221 115.735H53.1218L54.1849 111.482H127.537L121.424 141.78H118.102C118.191 141.425 118.279 140.717 118.368 139.654C118.456 138.502 118.501 137.085 118.501 135.401C118.501 127.96 117.305 122.822 114.913 119.987C112.521 117.152 108.933 115.735 104.149 115.735H82.3563C79.9644 115.735 78.4584 116.931 77.8383 119.322L68.1377 155.068H82.4892C85.9442 155.068 88.7348 154.138 90.8609 152.278C92.987 150.329 94.5374 148.07 95.5118 145.501C96.5749 142.931 97.5937 139.831 98.5682 136.199H101.89L90.4622 179.253H87.1401C88.026 175.355 88.469 172.033 88.469 169.287C88.469 166.186 87.8489 163.75 86.6086 161.978C85.4569 160.206 83.4194 159.321 80.4959 159.321H67.0747L56.4439 198.256C56.2667 198.964 56.1782 199.452 56.1782 199.717C56.1782 201.135 57.1083 201.843 58.9687 201.843H83.6852C85.9885 201.843 88.6905 201.312 91.7911 200.249C94.8917 199.097 97.6823 197.325 100.163 194.933C102.643 192.453 104.902 189.441 106.94 185.897C109.066 182.265 110.749 178.987 111.989 176.064C113.23 173.14 113.983 171.28 114.248 170.483H117.438L106.275 206.096H28.6712L29.7342 201.843Z" fill="#F3F3F3"/>
<path d="M246.847 109.748H251.365C254.023 109.748 256.37 108.729 258.408 106.691C260.445 104.565 261.996 101.996 263.059 98.9841L291.097 16.9946H296.678L325.116 102.971C326.622 107.489 329.235 109.748 332.956 109.748H338.271V114H291.629V109.748H301.196C302.26 109.748 303.101 109.349 303.721 108.552C304.43 107.666 304.784 106.647 304.784 105.495C304.784 104.521 304.519 103.236 303.987 101.642L299.735 88.8849H271.829L269.039 96.9908C268.064 99.4713 267.577 101.73 267.577 103.768C267.577 105.363 268.197 106.78 269.437 108.02C270.766 109.172 272.449 109.748 274.487 109.748H280.732V114H246.847V109.748ZM273.557 83.9682H298.14L286.048 47.4251L273.557 83.9682Z" fill="#F3F3F3"/>
<path d="M246.434 117.844H251.351C254.983 117.844 258.216 118.774 261.051 120.635C263.975 122.495 266.234 124.754 267.828 127.412L322.444 208.205H325.633V123.558C325.81 121.343 326.43 119.837 327.493 119.04C328.556 118.243 330.062 117.844 332.011 117.844H339.453L338.39 113.592H299.056L300.119 117.844H308.358C310.218 117.844 311.591 118.243 312.477 119.04C313.452 119.837 313.939 121.476 313.939 123.957V146.016H286.166L277.13 132.727C274.118 128.386 272.612 124.931 272.612 122.362C272.612 119.35 274.384 117.844 277.927 117.844H285.236L284.173 113.592H245.371L246.434 117.844ZM289.09 150.268H313.939V186.944L289.09 150.268Z" fill="#F3F3F3"/>
</svg>
