<svg width="1440" height="963" viewBox="0 0 1440 963" fill="none" xmlns="http://www.w3.org/2000/svg">
<g clip-path="url(#clip0_431_13)" filter="url(#filter0_n_431_13)">
<rect width="1440" height="963" fill="black"/>
<g filter="url(#filter1_f_431_13)">
<path d="M1105.65 723.315C994.226 895.195 751.612 935.81 563.752 814.031C375.893 692.253 156.334 174.239 197.186 83.0532C241.703 18.4014 779.38 69.8208 967.24 191.599C1155.1 313.378 1217.07 551.435 1105.65 723.315Z" fill="url(#paint0_radial_431_13)" fill-opacity="0.8"/>
</g>
<path d="M361 287L361 0" stroke="black" stroke-width="2"/>
<path d="M459 360L459 0" stroke="black" stroke-width="2"/>
<path d="M565 333L565 0" stroke="black" stroke-width="2"/>
<path d="M640 517V0" stroke="black" stroke-width="2"/>
<path d="M758 362L758 0" stroke="black" stroke-width="2"/>
<path d="M828 432L828 0" stroke="black" stroke-width="2"/>
<path d="M930 412L930 0" stroke="black" stroke-width="2"/>
<path d="M919 653L919 0" stroke="black" stroke-width="2"/>
<path d="M1027 715L1027 0" stroke="black" stroke-width="2"/>
<path d="M1043 489L1043 0" stroke="black" stroke-width="2"/>
<g filter="url(#filter2_n_431_13)">
<path d="M708.865 461.285H719.273C720.66 461.285 721.602 461.037 722.098 460.542C722.593 459.947 722.841 459.005 722.841 457.717V368.507C722.841 367.119 722.593 366.178 722.098 365.682C721.602 365.186 720.66 364.939 719.273 364.939H708.865V360.181H764.175C772.402 360.181 779.935 362.411 786.775 366.871C793.614 371.233 799.016 377.378 802.981 385.308C807.045 393.139 809.077 402.109 809.077 412.22C809.077 422.33 807.045 431.499 802.981 439.726C799.016 447.953 793.565 454.396 786.626 459.055C779.787 463.714 772.303 466.043 764.175 466.043H708.865V461.285ZM761.647 461.285C767.991 461.285 773.245 459.104 777.408 454.743C781.67 450.283 783.801 443.84 783.801 435.414V390.809C783.801 382.384 781.67 375.991 777.408 371.629C773.245 367.169 767.991 364.939 761.647 364.939H748.414C747.126 364.939 746.184 365.186 745.59 365.682C745.094 366.178 744.846 367.119 744.846 368.507V457.717C744.846 459.005 745.094 459.947 745.59 460.542C746.184 461.037 747.126 461.285 748.414 461.285H761.647Z" fill="black"/>
</g>
<g filter="url(#filter3_n_431_13)">
<path d="M774.954 535.629H780.009C782.983 535.629 785.61 534.489 787.89 532.209C790.169 529.83 791.904 526.956 793.093 523.586L824.466 431.848H830.71L862.528 528.046C864.213 533.101 867.138 535.629 871.301 535.629H877.248V540.387H825.06V535.629H835.765C836.955 535.629 837.897 535.183 838.59 534.291C839.383 533.299 839.78 532.16 839.78 530.871C839.78 529.781 839.483 528.343 838.888 526.559L834.13 512.286H802.907L799.784 521.355C798.694 524.131 798.149 526.658 798.149 528.938C798.149 530.722 798.843 532.308 800.23 533.696C801.717 534.985 803.6 535.629 805.88 535.629H812.868V540.387H774.954V535.629ZM804.839 506.784H832.346L818.816 465.897L804.839 506.784Z" fill="black"/>
</g>
<g filter="url(#filter4_n_431_13)">
<path d="M963.744 520.721C957.4 520.721 952.345 518.837 948.578 515.071C944.911 511.304 943.077 505.753 943.077 498.418V479.982C943.077 475.224 941.887 471.209 939.508 467.938C937.229 464.667 933.66 463.032 928.803 463.032H920.477V508.826C920.477 510.115 920.725 511.056 921.22 511.651C921.815 512.147 922.757 512.394 924.045 512.394H937.129V517.152H884.496V512.394H894.903C896.291 512.394 897.233 512.147 897.728 511.651C898.224 511.056 898.472 510.115 898.472 508.826V419.616C898.472 418.229 898.224 417.287 897.728 416.791C897.233 416.296 896.291 416.048 894.903 416.048H884.496V411.29H932.669C943.374 411.29 951.998 413.669 958.54 418.427C965.082 423.086 968.353 429.429 968.353 437.458C968.353 444.298 965.825 449.7 960.77 453.665C955.814 457.63 949.222 460.108 940.995 461.099V462.14C948.727 463.527 954.674 466.303 958.837 470.466C963 474.53 965.082 480.923 965.082 489.646V506.15C965.082 510.313 966.47 512.394 969.245 512.394C971.822 512.394 973.705 510.263 974.895 506.001C976.084 501.739 976.679 496.535 976.679 490.389H981.437C981.437 500.004 980.148 507.488 977.571 512.841C974.994 518.094 970.385 520.721 963.744 520.721ZM930.439 458.274C935.692 458.274 939.36 456.341 941.441 452.475C943.523 448.61 944.564 443.207 944.564 436.269C944.564 429.529 943.523 424.473 941.441 421.103C939.36 417.733 935.692 416.048 930.439 416.048H924.045C922.757 416.048 921.815 416.296 921.22 416.791C920.725 417.287 920.477 418.229 920.477 419.616V458.274H930.439Z" fill="black"/>
</g>
<g filter="url(#filter5_n_431_13)">
<path d="M993.218 589.242H1003.63C1005.01 589.242 1005.96 588.994 1006.45 588.499C1006.95 587.904 1007.19 586.962 1007.19 585.674V496.464C1007.19 495.076 1006.95 494.135 1006.45 493.639C1005.96 493.143 1005.01 492.896 1003.63 492.896H993.218V488.138H1048.53C1056.76 488.138 1064.29 490.368 1071.13 494.828C1077.97 499.19 1083.37 505.335 1087.33 513.265C1091.4 521.096 1093.43 530.066 1093.43 540.177C1093.43 550.287 1091.4 559.456 1087.33 567.683C1083.37 575.91 1077.92 582.353 1070.98 587.012C1064.14 591.671 1056.66 594 1048.53 594H993.218V589.242ZM1046 589.242C1052.34 589.242 1057.6 587.061 1061.76 582.7C1066.02 578.24 1068.15 571.797 1068.15 563.371V518.766C1068.15 510.341 1066.02 503.948 1061.76 499.586C1057.6 495.126 1052.34 492.896 1046 492.896H1032.77C1031.48 492.896 1030.54 493.143 1029.94 493.639C1029.45 494.135 1029.2 495.076 1029.2 496.464V585.674C1029.2 586.962 1029.45 587.904 1029.94 588.499C1030.54 588.994 1031.48 589.242 1032.77 589.242H1046Z" fill="black"/>
</g>
<g filter="url(#filter6_n_431_13)">
<path d="M891.4 757.88H904.2C905.693 757.88 906.707 757.613 907.24 757.08C907.773 756.44 908.04 755.427 908.04 754.04V659.64C908.04 657.933 907.507 656.6 906.44 655.64C905.373 654.68 903.933 654.2 902.12 654.2C897.107 654.2 892.52 656.973 888.36 662.52C884.2 667.96 881.107 674.36 879.08 681.72C877.907 685.667 877.053 689.027 876.52 691.8C876.093 694.467 875.827 696.12 875.72 696.76H870.6L871.88 649.08H967.88L969.16 696.76H964.04C963.933 696.12 963.613 694.467 963.08 691.8C962.653 689.027 961.853 685.667 960.68 681.72C958.653 674.36 955.56 667.96 951.4 662.52C947.24 656.973 942.653 654.2 937.64 654.2C935.827 654.2 934.387 654.68 933.32 655.64C932.253 656.6 931.72 657.933 931.72 659.64V754.04C931.72 755.427 931.987 756.44 932.52 757.08C933.16 757.613 934.173 757.88 935.56 757.88H948.36V763H891.4V757.88Z" fill="black"/>
</g>
<g filter="url(#filter7_n_431_13)">
<path d="M999.4 821.88H1012.2C1013.69 821.88 1014.71 821.613 1015.24 821.08C1015.77 820.44 1016.04 819.427 1016.04 818.04V723.64C1016.04 721.933 1015.51 720.6 1014.44 719.64C1013.37 718.68 1011.93 718.2 1010.12 718.2C1005.11 718.2 1000.52 720.973 996.36 726.52C992.2 731.96 989.107 738.36 987.08 745.72C985.907 749.667 985.053 753.027 984.52 755.8C984.093 758.467 983.827 760.12 983.72 760.76H978.6L979.88 713.08H1075.88L1077.16 760.76H1072.04C1071.93 760.12 1071.61 758.467 1071.08 755.8C1070.65 753.027 1069.85 749.667 1068.68 745.72C1066.65 738.36 1063.56 731.96 1059.4 726.52C1055.24 720.973 1050.65 718.2 1045.64 718.2C1043.83 718.2 1042.39 718.68 1041.32 719.64C1040.25 720.6 1039.72 721.933 1039.72 723.64V818.04C1039.72 819.427 1039.99 820.44 1040.52 821.08C1041.16 821.613 1042.17 821.88 1043.56 821.88H1056.36V827H999.4V821.88Z" fill="black"/>
</g>
<g filter="url(#filter8_n_431_13)">
<path d="M511.972 426.902H517.027C520.001 426.902 522.627 425.762 524.907 423.483C527.187 421.104 528.922 418.229 530.111 414.859L561.483 323.122H567.728L599.546 419.319C601.231 424.375 604.155 426.902 608.318 426.902H614.266V431.66H562.078V426.902H572.783C573.973 426.902 574.914 426.456 575.608 425.564C576.401 424.573 576.797 423.433 576.797 422.144C576.797 421.054 576.5 419.617 575.905 417.833L571.148 403.559H539.924L536.802 412.629C535.711 415.404 535.166 417.932 535.166 420.212C535.166 421.996 535.86 423.582 537.248 424.969C538.735 426.258 540.618 426.902 542.898 426.902H549.886V431.66H511.972V426.902ZM541.857 398.058H569.363L555.833 357.17L541.857 398.058Z" fill="black"/>
</g>
<g filter="url(#filter9_n_431_13)">
<path d="M615.413 487.131H614.818V543.779C614.818 548.339 616.553 552.056 620.022 554.93C623.59 557.805 628.1 559.242 633.552 559.242V564H590.137V559.242C595.588 559.242 600.049 557.805 603.518 554.93C607.087 552.056 608.871 548.339 608.871 543.779V480.292C608.871 479.201 608.772 478.408 608.573 477.913C608.375 477.417 607.929 476.674 607.235 475.682L601.288 466.761C600.297 465.275 599.206 464.283 598.017 463.788C596.828 463.193 595.093 462.896 592.813 462.896H590.137V458.138H623.144L670.723 526.086V478.359C670.723 473.799 668.939 470.082 665.37 467.207C661.901 464.333 657.441 462.896 651.989 462.896V458.138H695.404V462.896C689.953 462.896 685.443 464.333 681.874 467.207C678.405 470.082 676.67 473.799 676.67 478.359V566.676H671.02L615.413 487.131Z" fill="black"/>
</g>
<g filter="url(#filter10_n_431_13)">
<path d="M433.318 461.242H445.213C446.6 461.242 447.542 460.994 448.038 460.499C448.533 459.904 448.781 458.962 448.781 457.674V369.951C448.781 368.365 448.286 367.126 447.294 366.234C446.303 365.342 444.965 364.896 443.28 364.896C438.621 364.896 434.359 367.473 430.493 372.627C426.627 377.682 423.753 383.63 421.87 390.469C420.779 394.137 419.986 397.259 419.491 399.836C419.094 402.314 418.846 403.851 418.747 404.445H413.989L415.179 360.138H504.389L505.578 404.445H500.82C500.721 403.851 500.424 402.314 499.928 399.836C499.532 397.259 498.788 394.137 497.698 390.469C495.815 383.63 492.94 377.682 489.074 372.627C485.208 367.473 480.946 364.896 476.287 364.896C474.602 364.896 473.264 365.342 472.273 366.234C471.282 367.126 470.786 368.365 470.786 369.951V457.674C470.786 458.962 471.034 459.904 471.53 460.499C472.124 460.994 473.066 461.242 474.355 461.242H486.249V466H433.318V461.242Z" fill="black"/>
</g>
<g filter="url(#filter11_nf_431_13)">
<path fill-rule="evenodd" clip-rule="evenodd" d="M433.819 714.758H418.95L417.761 710H468.61L469.8 714.758H454.931C453.94 714.758 453.197 714.956 452.701 715.353C452.305 715.749 452.106 716.344 452.106 717.137C452.106 717.831 452.156 718.376 452.255 718.772L476.193 807.09C476.788 809.766 478.572 811.104 481.546 811.104H486.452C490.318 811.104 493.738 809.667 496.711 806.793C499.784 803.918 501.321 798.813 501.321 791.478C501.321 789.099 501.172 786.72 500.874 784.342C500.577 781.963 500.28 780.079 499.982 778.692C499.784 777.304 499.635 776.412 499.536 776.015H503.253L512.62 815.862H444.001L435.013 800.001C435.965 801.158 436.954 802.232 437.982 803.224C439.964 805.108 442.442 806.892 445.416 808.577C448.489 810.262 451.71 811.104 455.08 811.104H459.987C461.969 811.104 462.96 810.361 462.96 808.874C462.96 808.676 462.861 808.081 462.663 807.09L438.725 718.772C438.031 716.096 436.396 714.758 433.819 714.758Z" fill="black"/>
</g>
<g filter="url(#filter12_n_431_13)">
<path d="M365.593 398.096C361.232 398.096 357.316 397.452 353.847 396.163C350.378 394.974 347.503 393.437 345.223 391.554C342.944 389.869 341.308 388.729 340.317 388.134C339.326 387.441 338.384 387.094 337.492 387.094C335.41 387.094 334.122 388.779 333.626 392.149L332.883 396.907H328.274L327.381 349.923H332.139C333.527 357.456 335.856 364.543 339.127 371.185C342.498 377.826 346.512 383.178 351.171 387.242C355.929 391.306 361.033 393.338 366.485 393.338C374.316 393.338 379.668 391.604 382.543 388.134C385.417 384.665 386.855 380.75 386.855 376.389C386.855 373.811 385.913 371.532 384.03 369.549C382.245 367.468 379.619 365.287 376.149 363.007L344.331 342.489C339.673 339.515 335.708 335.798 332.437 331.338C329.265 326.877 327.679 321.574 327.679 315.429C327.679 305.814 330.454 298.677 336.005 294.018C341.655 289.26 348.594 286.881 356.821 286.881C363.858 286.881 370.896 289.359 377.934 294.316C380.213 296.1 381.998 296.992 383.286 296.992C385.07 296.992 386.161 295.852 386.557 293.572L387.449 289.558H392.207L393.694 328.215H388.936C387.053 321.376 384.426 315.181 381.056 309.63C377.686 304.079 373.771 299.718 369.31 296.546C364.949 293.275 360.389 291.639 355.631 291.639C350.378 291.639 346.462 292.68 343.885 294.762C341.407 296.843 340.168 299.965 340.168 304.129C340.168 309.779 344.579 315.478 353.401 321.227L385.368 341.894C389.432 344.57 392.653 348.238 395.032 352.897C397.51 357.555 398.749 362.412 398.749 367.468C398.749 372.622 397.51 377.528 395.032 382.187C392.554 386.846 388.837 390.662 383.881 393.636C378.925 396.609 372.829 398.096 365.593 398.096Z" fill="black"/>
</g>
<g filter="url(#filter13_n_431_13)">
<path d="M476.546 147.242H486.954C488.342 147.242 489.284 146.994 489.779 146.499C490.275 145.904 490.523 144.962 490.523 143.674V54.464C490.523 53.0763 490.275 52.1346 489.779 51.639C489.284 51.1434 488.342 50.8956 486.954 50.8956H476.546V46.1378H531.857C540.084 46.1378 547.617 48.368 554.456 52.8285C561.296 57.1899 566.698 63.3354 570.663 71.2652C574.727 79.0958 576.759 88.0663 576.759 98.1768C576.759 108.287 574.727 117.456 570.663 125.683C566.698 133.91 561.246 140.353 554.308 145.012C547.468 149.671 539.985 152 531.857 152H476.546V147.242ZM529.329 147.242C535.673 147.242 540.926 145.061 545.089 140.7C549.352 136.24 551.483 129.797 551.483 121.371V76.7664C551.483 68.3411 549.352 61.9477 545.089 57.5863C540.926 53.1259 535.673 50.8956 529.329 50.8956H516.096C514.808 50.8956 513.866 51.1434 513.271 51.639C512.776 52.1346 512.528 53.0763 512.528 54.464V143.674C512.528 144.962 512.776 145.904 513.271 146.499C513.866 146.994 514.808 147.242 516.096 147.242H529.329Z" fill="black"/>
</g>
<g filter="url(#filter14_n_431_13)">
<path d="M414.287 209.504H424.695C425.983 209.504 426.875 209.206 427.371 208.612C427.966 207.918 428.263 206.877 428.263 205.489V116.726C428.263 115.338 428.015 114.396 427.519 113.901C427.024 113.405 426.082 113.157 424.695 113.157H414.287V108.399H464.244V113.157H453.836C452.548 113.157 451.606 113.405 451.011 113.901C450.516 114.396 450.268 115.338 450.268 116.726V205.489C450.268 206.877 450.516 207.918 451.011 208.612C451.606 209.206 452.548 209.504 453.836 209.504H468.853C474.206 209.504 478.766 206.728 482.532 201.178C486.398 195.627 489.272 189.779 491.156 183.633C491.85 181.353 492.593 178.528 493.386 175.158C494.179 171.788 494.675 169.558 494.873 168.467H499.631L498.441 214.262H414.287V209.504Z" fill="black"/>
</g>
<g filter="url(#filter15_n_431_13)">
<path d="M368.418 180.696C360.786 180.696 353.55 178.069 346.71 172.816C339.97 167.562 334.568 160.673 330.504 152.149C326.44 143.525 324.408 134.505 324.408 125.088C324.408 115.672 326.44 106.701 330.504 98.1768C334.568 89.5532 339.97 82.6147 346.71 77.3612C353.55 72.1077 360.786 69.481 368.418 69.481C376.05 69.481 383.237 72.1077 389.977 77.3612C396.816 82.6147 402.268 89.5532 406.332 98.1768C410.396 106.701 412.428 115.672 412.428 125.088C412.428 134.505 410.396 143.525 406.332 152.149C402.268 160.673 396.816 167.562 389.977 172.816C383.237 178.069 376.05 180.696 368.418 180.696ZM368.418 175.938C374.464 175.938 379.074 173.757 382.245 169.396C385.516 164.935 387.152 157.6 387.152 147.391V102.786C387.152 92.5764 385.516 85.2909 382.245 80.9296C379.074 76.4691 374.464 74.2388 368.418 74.2388C362.372 74.2388 357.713 76.4691 354.442 80.9296C351.27 85.2909 349.684 92.5764 349.684 102.786V147.391C349.684 157.6 351.27 164.935 354.442 169.396C357.713 173.757 362.372 175.938 368.418 175.938Z" fill="black"/>
</g>
<path d="M368.5 70V0" stroke="black" stroke-width="2"/>
<path d="M440 109L440 0" stroke="black" stroke-width="2"/>
<path d="M512 46L512 0" stroke="black" stroke-width="2"/>
<path d="M1262 425C1213 332 1210 121.5 1244.5 0.5H1442.5V861.5C1359.83 862.167 1216.5 863.1 1214.5 861.5C1219 736.5 1243 482.5 1262 425Z" fill="black"/>
<path d="M169 424.5C218 331.5 215 115 194 0L-2.5 0.343786V861.344C80.1667 862.01 250.5 861.344 250.5 861.344C246 736.344 238.5 484.5 169 424.5Z" fill="black"/>
<path d="M1254.61 487.597C1246.9 482.78 1254.61 476.037 1255.58 476.037C1255.16 468.063 1252.99 456.362 1255.59 445.804C1256.05 437.112 1257.41 429.509 1261 426.639C1261.4 426.639 1264.85 428.639 1267.5 428.639C1269.88 427.071 1276.49 425.693 1279.44 424.553C1302.5 415.639 1325 413.139 1362 409.639C1399 407.434 1440 411.592 1440 411.592V421.092C1440 421.092 1389.2 417.291 1358 419.139C1326.8 420.987 1304.85 421.139 1278.5 428.639C1252.15 436.139 1262.97 469.614 1260.4 477C1263.48 481.624 1261.68 485.991 1260.4 487.597V525.798C1263.48 526.569 1263.61 529.973 1263.29 531.578C1260.97 532.349 1262.32 536.395 1263.29 538.322C1267.91 541.405 1265.22 545.387 1263.29 546.992C1264.06 546.992 1267.47 547.634 1269.07 547.955C1270.61 550.268 1271 591.949 1271 612.5H1246.9C1243.82 608.647 1245.62 567.865 1246.9 547.955C1248.44 546.414 1251.4 546.671 1252.68 546.992C1246.51 544.68 1248.83 540.249 1250.76 538.322C1253.84 537.551 1253.33 533.505 1252.68 531.578C1250.37 529.266 1253.01 526.762 1254.61 525.798V487.597Z" fill="#202020"/>
<path d="M1271.45 426.702C1278.9 422.946 1301.67 417.746 1311.58 416.035L1310.77 422.73L1273.63 432.788C1260.82 435.895 1250.74 450.718 1247.3 457.741C1249.81 462.702 1247.5 466.822 1246.03 468.261L1241.35 501.292C1244.32 502.428 1244.04 505.822 1243.53 507.377C1241.14 507.864 1241.99 512.043 1242.72 514.072C1246.94 517.689 1243.78 521.317 1241.68 522.679C1242.44 522.772 1245.75 523.819 1247.3 524.331C1248.56 526.812 1243.93 568.237 1241.46 588.639L1217.53 585.742C1214.93 581.546 1221.62 541.276 1225.29 521.666C1227.01 520.321 1229.91 520.931 1231.15 521.405C1225.3 518.368 1228.13 514.246 1230.28 512.565C1233.43 512.171 1233.41 508.093 1233 506.103C1230.98 503.529 1233.9 501.36 1235.61 500.596L1240.29 467.566C1233.21 461.857 1241.68 456.089 1242.63 456.205C1243.63 441.576 1262.26 430.441 1271.45 426.702Z" fill="#202020"/>
<path d="M179.447 481.367C187.158 476.55 179.446 469.807 178.482 469.807C178.98 460.359 181.901 447.795 176.448 437.121C175.341 430.54 173.529 425.062 170.5 422.639C168.5 424.553 169.154 426.364 166.5 426.364C164.119 424.796 163.508 425.693 160.559 424.553C137.501 415.639 115.002 413.139 78.0011 409.639C41.0008 407.434 0.000488281 411.592 0.000488281 411.592V421.092C0.000488281 421.092 50.8041 417.291 82.0011 419.139C113.198 420.987 130.653 418.864 157.001 426.364C183.35 433.864 171.092 463.384 173.663 470.77C170.578 475.394 172.377 479.761 173.663 481.367L171.163 548.298C168.078 549.069 167.949 552.473 168.271 554.078C170.584 554.849 169.235 558.895 168.271 560.822C163.644 563.905 166.343 567.887 168.271 569.492C167.5 569.492 164.094 570.134 162.487 570.455C160.945 572.768 160.559 614.449 160.559 635H184.658C187.743 631.147 185.943 590.365 184.658 570.455C183.116 568.914 180.16 569.171 178.875 569.492C185.044 567.18 182.73 562.749 180.802 560.822C177.718 560.051 178.232 556.005 178.875 554.078C181.188 551.766 178.553 549.262 176.947 548.298L179.447 481.367Z" fill="#202020"/>
<path d="M157.132 419.782C146.501 416.639 121.918 415.349 112.001 413.639L115.001 419.782L154.956 425.868C167.761 428.975 177.842 443.798 181.282 450.821C178.776 455.783 181.087 459.902 182.556 461.341L187.232 494.372C184.262 495.508 184.544 498.903 185.056 500.458C187.445 500.945 186.592 505.124 185.866 507.152C181.644 510.769 184.802 514.397 186.909 515.76C186.143 515.852 182.839 516.899 181.283 517.411C180.03 519.892 184.658 561.317 187.128 581.719L211.053 578.822C213.652 574.626 206.962 534.356 203.293 514.746C201.577 513.401 198.673 514.012 197.436 514.485C203.282 511.448 200.453 507.327 198.307 505.646C195.152 505.252 195.176 501.173 195.583 499.183C197.602 496.61 194.685 494.44 192.974 493.677L188.298 460.646C195.375 454.937 186.908 449.17 185.951 449.286C184.956 434.656 171.501 425.139 157.132 419.782Z" fill="#202020"/>
<g filter="url(#filter16_f_431_13)">
<g filter="url(#filter17_f_431_13)">
<g filter="url(#filter18_n_431_13)">
<path d="M747.703 843.758H759.003C761.679 843.758 763.364 845.096 764.058 847.772L787.996 936.09C788.194 936.883 788.293 937.478 788.293 937.874C788.293 939.361 787.252 940.104 785.171 940.104H773.871L775.209 944.862H822.936C829.875 944.862 835.822 943.227 840.778 939.956C845.734 936.685 849.501 932.125 852.078 926.277C854.655 920.528 855.944 913.887 855.944 906.353C855.944 898.523 854.507 890.593 851.632 882.564C848.757 874.535 844.743 867.349 839.589 861.005C834.236 854.364 828.041 849.011 821.003 844.947C814.065 840.982 806.284 839 797.66 839H746.513L747.703 843.758ZM799.147 843.758C812.033 843.758 822.589 851.093 830.816 865.763C834.087 871.611 836.714 878.698 838.697 887.025C840.679 895.45 841.67 904.222 841.67 913.341C841.67 921.271 839.936 927.714 836.466 932.67C833.096 937.626 827.496 940.104 819.665 940.104H806.581C803.905 940.104 802.22 938.766 801.526 936.09L777.588 847.772C777.39 846.979 777.291 846.434 777.291 846.137C777.291 844.551 778.331 843.758 780.413 843.758H799.147Z" fill="black"/>
</g>
<g filter="url(#filter19_n_431_13)">
<path d="M857.647 839.758H863.149C867.213 839.758 870.831 840.799 874.003 842.88C877.274 844.962 879.801 847.489 881.585 850.463L942.694 940.862H946.262V846.151C946.461 843.673 947.155 841.988 948.344 841.096C949.533 840.204 951.219 839.758 953.399 839.758H961.725L960.536 835H916.526L917.715 839.758H926.934C929.015 839.758 930.552 840.204 931.543 841.096C932.633 841.988 933.178 843.822 933.178 846.597V871.279H902.104L891.993 856.41C888.623 851.553 886.938 847.688 886.938 844.813C886.938 841.443 888.92 839.758 892.885 839.758H901.063L899.873 835H856.458L857.647 839.758ZM905.375 876.036H933.178V917.073L905.375 876.036Z" fill="black"/>
</g>
<g filter="url(#filter20_n_431_13)">
<path d="M521.647 789.758H527.149C531.213 789.758 534.831 790.799 538.003 792.88C541.274 794.962 543.801 797.489 545.585 800.463L606.694 890.862H610.262V796.151C610.461 793.673 611.155 791.988 612.344 791.096C613.533 790.204 615.219 789.758 617.399 789.758H625.725L624.536 785H580.526L581.715 789.758H590.934C593.015 789.758 594.552 790.204 595.543 791.096C596.633 791.988 597.178 793.822 597.178 796.597V821.279H566.104L555.993 806.41C552.623 801.553 550.938 797.688 550.938 794.813C550.938 791.443 552.92 789.758 556.885 789.758H565.063L563.873 785H520.458L521.647 789.758ZM569.375 826.036H597.178V867.073L569.375 826.036Z" fill="black"/>
</g>
<g filter="url(#filter21_n_431_13)">
<path d="M658.389 810.656H657.646L638.168 739.734C637.573 737.553 637.276 735.422 637.276 733.341C637.276 728.285 639.754 725.758 644.71 725.758H651.847L650.658 721H610.513L611.703 725.758H618.839C622.011 725.758 624.787 727.096 627.166 729.772C629.644 732.449 631.378 735.769 632.37 739.734L653.631 818.09C653.829 818.883 653.929 819.428 653.929 819.725C653.929 821.311 652.888 822.104 650.806 822.104H637.871L639.06 826.862H666.121L697.195 740.18L715.781 808.128C716.475 810.507 716.821 812.638 716.821 814.522C716.821 819.577 714.294 822.104 709.239 822.104H702.102L703.291 826.862H743.436L742.246 822.104H735.109C732.235 822.104 729.559 820.865 727.081 818.387C724.603 815.909 722.769 812.49 721.579 808.128L697.195 718.324H691.248L658.389 810.656Z" fill="#0A0A0A"/>
</g>
</g>
</g>
</g>
<defs>
<filter id="filter0_n_431_13" x="0" y="0" width="1440" height="963" filterUnits="userSpaceOnUse" color-interpolation-filters="sRGB">
<feFlood flood-opacity="0" result="BackgroundImageFix"/>
<feBlend mode="normal" in="SourceGraphic" in2="BackgroundImageFix" result="shape"/>
<feTurbulence type="fractalNoise" baseFrequency="2 2" stitchTiles="stitch" numOctaves="3" result="noise" seed="5383" />
<feColorMatrix in="noise" type="luminanceToAlpha" result="alphaNoise" />
<feComponentTransfer in="alphaNoise" result="coloredNoise1">
<feFuncA type="discrete" tableValues="1 1 1 1 1 1 1 1 1 1 1 1 1 1 1 1 1 1 1 1 1 1 1 1 1 1 1 1 1 1 1 1 1 1 1 1 1 1 1 1 1 1 1 1 1 1 1 1 1 1 1 0 0 0 0 0 0 0 0 0 0 0 0 0 0 0 0 0 0 0 0 0 0 0 0 0 0 0 0 0 0 0 0 0 0 0 0 0 0 0 0 0 0 0 0 0 0 0 0 0 "/>
</feComponentTransfer>
<feComposite operator="in" in2="shape" in="coloredNoise1" result="noise1Clipped" />
<feFlood flood-color="rgba(0, 0, 0, 0.25)" result="color1Flood" />
<feComposite operator="in" in2="noise1Clipped" in="color1Flood" result="color1" />
<feMerge result="effect1_noise_431_13">
<feMergeNode in="shape" />
<feMergeNode in="color1" />
</feMerge>
</filter>
<filter id="filter1_f_431_13" x="32.2285" y="-105.034" width="1288.81" height="1149.29" filterUnits="userSpaceOnUse" color-interpolation-filters="sRGB">
<feFlood flood-opacity="0" result="BackgroundImageFix"/>
<feBlend mode="normal" in="SourceGraphic" in2="BackgroundImageFix" result="shape"/>
<feGaussianBlur stdDeviation="80" result="effect1_foregroundBlur_431_13"/>
</filter>
<filter id="filter2_n_431_13" x="708.865" y="360.181" width="100.212" height="105.862" filterUnits="userSpaceOnUse" color-interpolation-filters="sRGB">
<feFlood flood-opacity="0" result="BackgroundImageFix"/>
<feBlend mode="normal" in="SourceGraphic" in2="BackgroundImageFix" result="shape"/>
<feTurbulence type="fractalNoise" baseFrequency="2.152230978012085 2.152230978012085" stitchTiles="stitch" numOctaves="3" result="noise" seed="8932" />
<feColorMatrix in="noise" type="luminanceToAlpha" result="alphaNoise" />
<feComponentTransfer in="alphaNoise" result="coloredNoise1">
<feFuncA type="discrete" tableValues="1 1 1 1 1 1 1 1 1 1 1 1 1 1 1 1 1 1 1 1 1 1 1 1 1 1 1 1 1 1 1 1 1 1 1 1 1 1 1 1 1 1 1 1 1 1 1 1 1 1 1 0 0 0 0 0 0 0 0 0 0 0 0 0 0 0 0 0 0 0 0 0 0 0 0 0 0 0 0 0 0 0 0 0 0 0 0 0 0 0 0 0 0 0 0 0 0 0 0 0 "/>
</feComponentTransfer>
<feComposite operator="in" in2="shape" in="coloredNoise1" result="noise1Clipped" />
<feFlood flood-color="rgba(201, 201, 201, 0.25)" result="color1Flood" />
<feComposite operator="in" in2="noise1Clipped" in="color1Flood" result="color1" />
<feMerge result="effect1_noise_431_13">
<feMergeNode in="shape" />
<feMergeNode in="color1" />
</feMerge>
</filter>
<filter id="filter3_n_431_13" x="774.954" y="431.848" width="102.294" height="108.539" filterUnits="userSpaceOnUse" color-interpolation-filters="sRGB">
<feFlood flood-opacity="0" result="BackgroundImageFix"/>
<feBlend mode="normal" in="SourceGraphic" in2="BackgroundImageFix" result="shape"/>
<feTurbulence type="fractalNoise" baseFrequency="2.152230978012085 2.152230978012085" stitchTiles="stitch" numOctaves="3" result="noise" seed="8932" />
<feColorMatrix in="noise" type="luminanceToAlpha" result="alphaNoise" />
<feComponentTransfer in="alphaNoise" result="coloredNoise1">
<feFuncA type="discrete" tableValues="1 1 1 1 1 1 1 1 1 1 1 1 1 1 1 1 1 1 1 1 1 1 1 1 1 1 1 1 1 1 1 1 1 1 1 1 1 1 1 1 1 1 1 1 1 1 1 1 1 1 1 0 0 0 0 0 0 0 0 0 0 0 0 0 0 0 0 0 0 0 0 0 0 0 0 0 0 0 0 0 0 0 0 0 0 0 0 0 0 0 0 0 0 0 0 0 0 0 0 0 "/>
</feComponentTransfer>
<feComposite operator="in" in2="shape" in="coloredNoise1" result="noise1Clipped" />
<feFlood flood-color="rgba(201, 201, 201, 0.25)" result="color1Flood" />
<feComposite operator="in" in2="noise1Clipped" in="color1Flood" result="color1" />
<feMerge result="effect1_noise_431_13">
<feMergeNode in="shape" />
<feMergeNode in="color1" />
</feMerge>
</filter>
<filter id="filter4_n_431_13" x="884.496" y="411.29" width="96.9404" height="109.431" filterUnits="userSpaceOnUse" color-interpolation-filters="sRGB">
<feFlood flood-opacity="0" result="BackgroundImageFix"/>
<feBlend mode="normal" in="SourceGraphic" in2="BackgroundImageFix" result="shape"/>
<feTurbulence type="fractalNoise" baseFrequency="2.152230978012085 2.152230978012085" stitchTiles="stitch" numOctaves="3" result="noise" seed="8932" />
<feColorMatrix in="noise" type="luminanceToAlpha" result="alphaNoise" />
<feComponentTransfer in="alphaNoise" result="coloredNoise1">
<feFuncA type="discrete" tableValues="1 1 1 1 1 1 1 1 1 1 1 1 1 1 1 1 1 1 1 1 1 1 1 1 1 1 1 1 1 1 1 1 1 1 1 1 1 1 1 1 1 1 1 1 1 1 1 1 1 1 1 0 0 0 0 0 0 0 0 0 0 0 0 0 0 0 0 0 0 0 0 0 0 0 0 0 0 0 0 0 0 0 0 0 0 0 0 0 0 0 0 0 0 0 0 0 0 0 0 0 "/>
</feComponentTransfer>
<feComposite operator="in" in2="shape" in="coloredNoise1" result="noise1Clipped" />
<feFlood flood-color="rgba(201, 201, 201, 0.25)" result="color1Flood" />
<feComposite operator="in" in2="noise1Clipped" in="color1Flood" result="color1" />
<feMerge result="effect1_noise_431_13">
<feMergeNode in="shape" />
<feMergeNode in="color1" />
</feMerge>
</filter>
<filter id="filter5_n_431_13" x="993.219" y="488.138" width="100.212" height="105.862" filterUnits="userSpaceOnUse" color-interpolation-filters="sRGB">
<feFlood flood-opacity="0" result="BackgroundImageFix"/>
<feBlend mode="normal" in="SourceGraphic" in2="BackgroundImageFix" result="shape"/>
<feTurbulence type="fractalNoise" baseFrequency="2.152230978012085 2.152230978012085" stitchTiles="stitch" numOctaves="3" result="noise" seed="8932" />
<feColorMatrix in="noise" type="luminanceToAlpha" result="alphaNoise" />
<feComponentTransfer in="alphaNoise" result="coloredNoise1">
<feFuncA type="discrete" tableValues="1 1 1 1 1 1 1 1 1 1 1 1 1 1 1 1 1 1 1 1 1 1 1 1 1 1 1 1 1 1 1 1 1 1 1 1 1 1 1 1 1 1 1 1 1 1 1 1 1 1 1 0 0 0 0 0 0 0 0 0 0 0 0 0 0 0 0 0 0 0 0 0 0 0 0 0 0 0 0 0 0 0 0 0 0 0 0 0 0 0 0 0 0 0 0 0 0 0 0 0 "/>
</feComponentTransfer>
<feComposite operator="in" in2="shape" in="coloredNoise1" result="noise1Clipped" />
<feFlood flood-color="rgba(201, 201, 201, 0.25)" result="color1Flood" />
<feComposite operator="in" in2="noise1Clipped" in="color1Flood" result="color1" />
<feMerge result="effect1_noise_431_13">
<feMergeNode in="shape" />
<feMergeNode in="color1" />
</feMerge>
</filter>
<filter id="filter6_n_431_13" x="870.6" y="649.08" width="98.5605" height="113.92" filterUnits="userSpaceOnUse" color-interpolation-filters="sRGB">
<feFlood flood-opacity="0" result="BackgroundImageFix"/>
<feBlend mode="normal" in="SourceGraphic" in2="BackgroundImageFix" result="shape"/>
<feTurbulence type="fractalNoise" baseFrequency="2.152230978012085 2.152230978012085" stitchTiles="stitch" numOctaves="3" result="noise" seed="8932" />
<feColorMatrix in="noise" type="luminanceToAlpha" result="alphaNoise" />
<feComponentTransfer in="alphaNoise" result="coloredNoise1">
<feFuncA type="discrete" tableValues="1 1 1 1 1 1 1 1 1 1 1 1 1 1 1 1 1 1 1 1 1 1 1 1 1 1 1 1 1 1 1 1 1 1 1 1 1 1 1 1 1 1 1 1 1 1 1 1 1 1 1 0 0 0 0 0 0 0 0 0 0 0 0 0 0 0 0 0 0 0 0 0 0 0 0 0 0 0 0 0 0 0 0 0 0 0 0 0 0 0 0 0 0 0 0 0 0 0 0 0 "/>
</feComponentTransfer>
<feComposite operator="in" in2="shape" in="coloredNoise1" result="noise1Clipped" />
<feFlood flood-color="rgba(201, 201, 201, 0.25)" result="color1Flood" />
<feComposite operator="in" in2="noise1Clipped" in="color1Flood" result="color1" />
<feMerge result="effect1_noise_431_13">
<feMergeNode in="shape" />
<feMergeNode in="color1" />
</feMerge>
</filter>
<filter id="filter7_n_431_13" x="978.6" y="713.08" width="98.5605" height="113.92" filterUnits="userSpaceOnUse" color-interpolation-filters="sRGB">
<feFlood flood-opacity="0" result="BackgroundImageFix"/>
<feBlend mode="normal" in="SourceGraphic" in2="BackgroundImageFix" result="shape"/>
<feTurbulence type="fractalNoise" baseFrequency="2.152230978012085 2.152230978012085" stitchTiles="stitch" numOctaves="3" result="noise" seed="8932" />
<feColorMatrix in="noise" type="luminanceToAlpha" result="alphaNoise" />
<feComponentTransfer in="alphaNoise" result="coloredNoise1">
<feFuncA type="discrete" tableValues="1 1 1 1 1 1 1 1 1 1 1 1 1 1 1 1 1 1 1 1 1 1 1 1 1 1 1 1 1 1 1 1 1 1 1 1 1 1 1 1 1 1 1 1 1 1 1 1 1 1 1 0 0 0 0 0 0 0 0 0 0 0 0 0 0 0 0 0 0 0 0 0 0 0 0 0 0 0 0 0 0 0 0 0 0 0 0 0 0 0 0 0 0 0 0 0 0 0 0 0 "/>
</feComponentTransfer>
<feComposite operator="in" in2="shape" in="coloredNoise1" result="noise1Clipped" />
<feFlood flood-color="rgba(201, 201, 201, 0.25)" result="color1Flood" />
<feComposite operator="in" in2="noise1Clipped" in="color1Flood" result="color1" />
<feMerge result="effect1_noise_431_13">
<feMergeNode in="shape" />
<feMergeNode in="color1" />
</feMerge>
</filter>
<filter id="filter8_n_431_13" x="511.972" y="323.122" width="102.294" height="108.539" filterUnits="userSpaceOnUse" color-interpolation-filters="sRGB">
<feFlood flood-opacity="0" result="BackgroundImageFix"/>
<feBlend mode="normal" in="SourceGraphic" in2="BackgroundImageFix" result="shape"/>
<feTurbulence type="fractalNoise" baseFrequency="2.152230978012085 2.152230978012085" stitchTiles="stitch" numOctaves="3" result="noise" seed="8932" />
<feColorMatrix in="noise" type="luminanceToAlpha" result="alphaNoise" />
<feComponentTransfer in="alphaNoise" result="coloredNoise1">
<feFuncA type="discrete" tableValues="1 1 1 1 1 1 1 1 1 1 1 1 1 1 1 1 1 1 1 1 1 1 1 1 1 1 1 1 1 1 1 1 1 1 1 1 1 1 1 1 1 1 1 1 1 1 1 1 1 1 1 0 0 0 0 0 0 0 0 0 0 0 0 0 0 0 0 0 0 0 0 0 0 0 0 0 0 0 0 0 0 0 0 0 0 0 0 0 0 0 0 0 0 0 0 0 0 0 0 0 "/>
</feComponentTransfer>
<feComposite operator="in" in2="shape" in="coloredNoise1" result="noise1Clipped" />
<feFlood flood-color="rgba(201, 201, 201, 0.25)" result="color1Flood" />
<feComposite operator="in" in2="noise1Clipped" in="color1Flood" result="color1" />
<feMerge result="effect1_noise_431_13">
<feMergeNode in="shape" />
<feMergeNode in="color1" />
</feMerge>
</filter>
<filter id="filter9_n_431_13" x="590.137" y="458.138" width="105.268" height="108.539" filterUnits="userSpaceOnUse" color-interpolation-filters="sRGB">
<feFlood flood-opacity="0" result="BackgroundImageFix"/>
<feBlend mode="normal" in="SourceGraphic" in2="BackgroundImageFix" result="shape"/>
<feTurbulence type="fractalNoise" baseFrequency="2.152230978012085 2.152230978012085" stitchTiles="stitch" numOctaves="3" result="noise" seed="8932" />
<feColorMatrix in="noise" type="luminanceToAlpha" result="alphaNoise" />
<feComponentTransfer in="alphaNoise" result="coloredNoise1">
<feFuncA type="discrete" tableValues="1 1 1 1 1 1 1 1 1 1 1 1 1 1 1 1 1 1 1 1 1 1 1 1 1 1 1 1 1 1 1 1 1 1 1 1 1 1 1 1 1 1 1 1 1 1 1 1 1 1 1 0 0 0 0 0 0 0 0 0 0 0 0 0 0 0 0 0 0 0 0 0 0 0 0 0 0 0 0 0 0 0 0 0 0 0 0 0 0 0 0 0 0 0 0 0 0 0 0 0 "/>
</feComponentTransfer>
<feComposite operator="in" in2="shape" in="coloredNoise1" result="noise1Clipped" />
<feFlood flood-color="rgba(201, 201, 201, 0.25)" result="color1Flood" />
<feComposite operator="in" in2="noise1Clipped" in="color1Flood" result="color1" />
<feMerge result="effect1_noise_431_13">
<feMergeNode in="shape" />
<feMergeNode in="color1" />
</feMerge>
</filter>
<filter id="filter10_n_431_13" x="413.989" y="360.138" width="91.5889" height="105.862" filterUnits="userSpaceOnUse" color-interpolation-filters="sRGB">
<feFlood flood-opacity="0" result="BackgroundImageFix"/>
<feBlend mode="normal" in="SourceGraphic" in2="BackgroundImageFix" result="shape"/>
<feTurbulence type="fractalNoise" baseFrequency="2.152230978012085 2.152230978012085" stitchTiles="stitch" numOctaves="3" result="noise" seed="8932" />
<feColorMatrix in="noise" type="luminanceToAlpha" result="alphaNoise" />
<feComponentTransfer in="alphaNoise" result="coloredNoise1">
<feFuncA type="discrete" tableValues="1 1 1 1 1 1 1 1 1 1 1 1 1 1 1 1 1 1 1 1 1 1 1 1 1 1 1 1 1 1 1 1 1 1 1 1 1 1 1 1 1 1 1 1 1 1 1 1 1 1 1 0 0 0 0 0 0 0 0 0 0 0 0 0 0 0 0 0 0 0 0 0 0 0 0 0 0 0 0 0 0 0 0 0 0 0 0 0 0 0 0 0 0 0 0 0 0 0 0 0 "/>
</feComponentTransfer>
<feComposite operator="in" in2="shape" in="coloredNoise1" result="noise1Clipped" />
<feFlood flood-color="rgba(201, 201, 201, 0.25)" result="color1Flood" />
<feComposite operator="in" in2="noise1Clipped" in="color1Flood" result="color1" />
<feMerge result="effect1_noise_431_13">
<feMergeNode in="shape" />
<feMergeNode in="color1" />
</feMerge>
</filter>
<filter id="filter11_nf_431_13" x="409.761" y="702" width="110.859" height="121.862" filterUnits="userSpaceOnUse" color-interpolation-filters="sRGB">
<feFlood flood-opacity="0" result="BackgroundImageFix"/>
<feBlend mode="normal" in="SourceGraphic" in2="BackgroundImageFix" result="shape"/>
<feTurbulence type="fractalNoise" baseFrequency="2.152230978012085 2.152230978012085" stitchTiles="stitch" numOctaves="3" result="noise" seed="8932" />
<feColorMatrix in="noise" type="luminanceToAlpha" result="alphaNoise" />
<feComponentTransfer in="alphaNoise" result="coloredNoise1">
<feFuncA type="discrete" tableValues="1 1 1 1 1 1 1 1 1 1 1 1 1 1 1 1 1 1 1 1 1 1 1 1 1 1 1 1 1 1 1 1 1 1 1 1 1 1 1 1 1 1 1 1 1 1 1 1 1 1 1 0 0 0 0 0 0 0 0 0 0 0 0 0 0 0 0 0 0 0 0 0 0 0 0 0 0 0 0 0 0 0 0 0 0 0 0 0 0 0 0 0 0 0 0 0 0 0 0 0 "/>
</feComponentTransfer>
<feComposite operator="in" in2="shape" in="coloredNoise1" result="noise1Clipped" />
<feFlood flood-color="rgba(201, 201, 201, 0.25)" result="color1Flood" />
<feComposite operator="in" in2="noise1Clipped" in="color1Flood" result="color1" />
<feMerge result="effect1_noise_431_13">
<feMergeNode in="shape" />
<feMergeNode in="color1" />
</feMerge>
<feGaussianBlur stdDeviation="4" result="effect2_foregroundBlur_431_13"/>
</filter>
<filter id="filter12_n_431_13" x="327.382" y="286.881" width="71.3672" height="111.215" filterUnits="userSpaceOnUse" color-interpolation-filters="sRGB">
<feFlood flood-opacity="0" result="BackgroundImageFix"/>
<feBlend mode="normal" in="SourceGraphic" in2="BackgroundImageFix" result="shape"/>
<feTurbulence type="fractalNoise" baseFrequency="2.152230978012085 2.152230978012085" stitchTiles="stitch" numOctaves="3" result="noise" seed="8932" />
<feColorMatrix in="noise" type="luminanceToAlpha" result="alphaNoise" />
<feComponentTransfer in="alphaNoise" result="coloredNoise1">
<feFuncA type="discrete" tableValues="1 1 1 1 1 1 1 1 1 1 1 1 1 1 1 1 1 1 1 1 1 1 1 1 1 1 1 1 1 1 1 1 1 1 1 1 1 1 1 1 1 1 1 1 1 1 1 1 1 1 1 0 0 0 0 0 0 0 0 0 0 0 0 0 0 0 0 0 0 0 0 0 0 0 0 0 0 0 0 0 0 0 0 0 0 0 0 0 0 0 0 0 0 0 0 0 0 0 0 0 "/>
</feComponentTransfer>
<feComposite operator="in" in2="shape" in="coloredNoise1" result="noise1Clipped" />
<feFlood flood-color="rgba(201, 201, 201, 0.25)" result="color1Flood" />
<feComposite operator="in" in2="noise1Clipped" in="color1Flood" result="color1" />
<feMerge result="effect1_noise_431_13">
<feMergeNode in="shape" />
<feMergeNode in="color1" />
</feMerge>
</filter>
<filter id="filter13_n_431_13" x="476.547" y="46.1377" width="100.212" height="105.862" filterUnits="userSpaceOnUse" color-interpolation-filters="sRGB">
<feFlood flood-opacity="0" result="BackgroundImageFix"/>
<feBlend mode="normal" in="SourceGraphic" in2="BackgroundImageFix" result="shape"/>
<feTurbulence type="fractalNoise" baseFrequency="2.152230978012085 2.152230978012085" stitchTiles="stitch" numOctaves="3" result="noise" seed="8932" />
<feColorMatrix in="noise" type="luminanceToAlpha" result="alphaNoise" />
<feComponentTransfer in="alphaNoise" result="coloredNoise1">
<feFuncA type="discrete" tableValues="1 1 1 1 1 1 1 1 1 1 1 1 1 1 1 1 1 1 1 1 1 1 1 1 1 1 1 1 1 1 1 1 1 1 1 1 1 1 1 1 1 1 1 1 1 1 1 1 1 1 1 0 0 0 0 0 0 0 0 0 0 0 0 0 0 0 0 0 0 0 0 0 0 0 0 0 0 0 0 0 0 0 0 0 0 0 0 0 0 0 0 0 0 0 0 0 0 0 0 0 "/>
</feComponentTransfer>
<feComposite operator="in" in2="shape" in="coloredNoise1" result="noise1Clipped" />
<feFlood flood-color="rgba(201, 201, 201, 0.25)" result="color1Flood" />
<feComposite operator="in" in2="noise1Clipped" in="color1Flood" result="color1" />
<feMerge result="effect1_noise_431_13">
<feMergeNode in="shape" />
<feMergeNode in="color1" />
</feMerge>
</filter>
<filter id="filter14_n_431_13" x="414.287" y="108.399" width="85.3438" height="105.862" filterUnits="userSpaceOnUse" color-interpolation-filters="sRGB">
<feFlood flood-opacity="0" result="BackgroundImageFix"/>
<feBlend mode="normal" in="SourceGraphic" in2="BackgroundImageFix" result="shape"/>
<feTurbulence type="fractalNoise" baseFrequency="2.152230978012085 2.152230978012085" stitchTiles="stitch" numOctaves="3" result="noise" seed="8932" />
<feColorMatrix in="noise" type="luminanceToAlpha" result="alphaNoise" />
<feComponentTransfer in="alphaNoise" result="coloredNoise1">
<feFuncA type="discrete" tableValues="1 1 1 1 1 1 1 1 1 1 1 1 1 1 1 1 1 1 1 1 1 1 1 1 1 1 1 1 1 1 1 1 1 1 1 1 1 1 1 1 1 1 1 1 1 1 1 1 1 1 1 0 0 0 0 0 0 0 0 0 0 0 0 0 0 0 0 0 0 0 0 0 0 0 0 0 0 0 0 0 0 0 0 0 0 0 0 0 0 0 0 0 0 0 0 0 0 0 0 0 "/>
</feComponentTransfer>
<feComposite operator="in" in2="shape" in="coloredNoise1" result="noise1Clipped" />
<feFlood flood-color="rgba(201, 201, 201, 0.25)" result="color1Flood" />
<feComposite operator="in" in2="noise1Clipped" in="color1Flood" result="color1" />
<feMerge result="effect1_noise_431_13">
<feMergeNode in="shape" />
<feMergeNode in="color1" />
</feMerge>
</filter>
<filter id="filter15_n_431_13" x="324.408" y="69.481" width="88.0195" height="111.215" filterUnits="userSpaceOnUse" color-interpolation-filters="sRGB">
<feFlood flood-opacity="0" result="BackgroundImageFix"/>
<feBlend mode="normal" in="SourceGraphic" in2="BackgroundImageFix" result="shape"/>
<feTurbulence type="fractalNoise" baseFrequency="2.152230978012085 2.152230978012085" stitchTiles="stitch" numOctaves="3" result="noise" seed="8932" />
<feColorMatrix in="noise" type="luminanceToAlpha" result="alphaNoise" />
<feComponentTransfer in="alphaNoise" result="coloredNoise1">
<feFuncA type="discrete" tableValues="1 1 1 1 1 1 1 1 1 1 1 1 1 1 1 1 1 1 1 1 1 1 1 1 1 1 1 1 1 1 1 1 1 1 1 1 1 1 1 1 1 1 1 1 1 1 1 1 1 1 1 0 0 0 0 0 0 0 0 0 0 0 0 0 0 0 0 0 0 0 0 0 0 0 0 0 0 0 0 0 0 0 0 0 0 0 0 0 0 0 0 0 0 0 0 0 0 0 0 0 "/>
</feComponentTransfer>
<feComposite operator="in" in2="shape" in="coloredNoise1" result="noise1Clipped" />
<feFlood flood-color="rgba(201, 201, 201, 0.25)" result="color1Flood" />
<feComposite operator="in" in2="noise1Clipped" in="color1Flood" result="color1" />
<feMerge result="effect1_noise_431_13">
<feMergeNode in="shape" />
<feMergeNode in="color1" />
</feMerge>
</filter>
<filter id="filter16_f_431_13" x="512.458" y="710.324" width="457.268" height="242.539" filterUnits="userSpaceOnUse" color-interpolation-filters="sRGB">
<feFlood flood-opacity="0" result="BackgroundImageFix"/>
<feBlend mode="normal" in="SourceGraphic" in2="BackgroundImageFix" result="shape"/>
<feGaussianBlur stdDeviation="4" result="effect1_foregroundBlur_431_13"/>
</filter>
<filter id="filter17_f_431_13" x="514.458" y="712.324" width="453.268" height="238.539" filterUnits="userSpaceOnUse" color-interpolation-filters="sRGB">
<feFlood flood-opacity="0" result="BackgroundImageFix"/>
<feBlend mode="normal" in="SourceGraphic" in2="BackgroundImageFix" result="shape"/>
<feGaussianBlur stdDeviation="3" result="effect1_foregroundBlur_431_13"/>
</filter>
<filter id="filter18_n_431_13" x="746.513" y="839" width="109.431" height="105.862" filterUnits="userSpaceOnUse" color-interpolation-filters="sRGB">
<feFlood flood-opacity="0" result="BackgroundImageFix"/>
<feBlend mode="normal" in="SourceGraphic" in2="BackgroundImageFix" result="shape"/>
<feTurbulence type="fractalNoise" baseFrequency="2.152230978012085 2.152230978012085" stitchTiles="stitch" numOctaves="3" result="noise" seed="8932" />
<feColorMatrix in="noise" type="luminanceToAlpha" result="alphaNoise" />
<feComponentTransfer in="alphaNoise" result="coloredNoise1">
<feFuncA type="discrete" tableValues="1 1 1 1 1 1 1 1 1 1 1 1 1 1 1 1 1 1 1 1 1 1 1 1 1 1 1 1 1 1 1 1 1 1 1 1 1 1 1 1 1 1 1 1 1 1 1 1 1 1 1 0 0 0 0 0 0 0 0 0 0 0 0 0 0 0 0 0 0 0 0 0 0 0 0 0 0 0 0 0 0 0 0 0 0 0 0 0 0 0 0 0 0 0 0 0 0 0 0 0 "/>
</feComponentTransfer>
<feComposite operator="in" in2="shape" in="coloredNoise1" result="noise1Clipped" />
<feFlood flood-color="rgba(201, 201, 201, 0.25)" result="color1Flood" />
<feComposite operator="in" in2="noise1Clipped" in="color1Flood" result="color1" />
<feMerge result="effect1_noise_431_13">
<feMergeNode in="shape" />
<feMergeNode in="color1" />
</feMerge>
</filter>
<filter id="filter19_n_431_13" x="856.458" y="835" width="105.268" height="105.862" filterUnits="userSpaceOnUse" color-interpolation-filters="sRGB">
<feFlood flood-opacity="0" result="BackgroundImageFix"/>
<feBlend mode="normal" in="SourceGraphic" in2="BackgroundImageFix" result="shape"/>
<feTurbulence type="fractalNoise" baseFrequency="2.152230978012085 2.152230978012085" stitchTiles="stitch" numOctaves="3" result="noise" seed="8932" />
<feColorMatrix in="noise" type="luminanceToAlpha" result="alphaNoise" />
<feComponentTransfer in="alphaNoise" result="coloredNoise1">
<feFuncA type="discrete" tableValues="1 1 1 1 1 1 1 1 1 1 1 1 1 1 1 1 1 1 1 1 1 1 1 1 1 1 1 1 1 1 1 1 1 1 1 1 1 1 1 1 1 1 1 1 1 1 1 1 1 1 1 0 0 0 0 0 0 0 0 0 0 0 0 0 0 0 0 0 0 0 0 0 0 0 0 0 0 0 0 0 0 0 0 0 0 0 0 0 0 0 0 0 0 0 0 0 0 0 0 0 "/>
</feComponentTransfer>
<feComposite operator="in" in2="shape" in="coloredNoise1" result="noise1Clipped" />
<feFlood flood-color="rgba(201, 201, 201, 0.25)" result="color1Flood" />
<feComposite operator="in" in2="noise1Clipped" in="color1Flood" result="color1" />
<feMerge result="effect1_noise_431_13">
<feMergeNode in="shape" />
<feMergeNode in="color1" />
</feMerge>
</filter>
<filter id="filter20_n_431_13" x="520.458" y="785" width="105.268" height="105.862" filterUnits="userSpaceOnUse" color-interpolation-filters="sRGB">
<feFlood flood-opacity="0" result="BackgroundImageFix"/>
<feBlend mode="normal" in="SourceGraphic" in2="BackgroundImageFix" result="shape"/>
<feTurbulence type="fractalNoise" baseFrequency="2.152230978012085 2.152230978012085" stitchTiles="stitch" numOctaves="3" result="noise" seed="8932" />
<feColorMatrix in="noise" type="luminanceToAlpha" result="alphaNoise" />
<feComponentTransfer in="alphaNoise" result="coloredNoise1">
<feFuncA type="discrete" tableValues="1 1 1 1 1 1 1 1 1 1 1 1 1 1 1 1 1 1 1 1 1 1 1 1 1 1 1 1 1 1 1 1 1 1 1 1 1 1 1 1 1 1 1 1 1 1 1 1 1 1 1 0 0 0 0 0 0 0 0 0 0 0 0 0 0 0 0 0 0 0 0 0 0 0 0 0 0 0 0 0 0 0 0 0 0 0 0 0 0 0 0 0 0 0 0 0 0 0 0 0 "/>
</feComponentTransfer>
<feComposite operator="in" in2="shape" in="coloredNoise1" result="noise1Clipped" />
<feFlood flood-color="rgba(201, 201, 201, 0.25)" result="color1Flood" />
<feComposite operator="in" in2="noise1Clipped" in="color1Flood" result="color1" />
<feMerge result="effect1_noise_431_13">
<feMergeNode in="shape" />
<feMergeNode in="color1" />
</feMerge>
</filter>
<filter id="filter21_n_431_13" x="610.513" y="718.324" width="132.923" height="108.539" filterUnits="userSpaceOnUse" color-interpolation-filters="sRGB">
<feFlood flood-opacity="0" result="BackgroundImageFix"/>
<feBlend mode="normal" in="SourceGraphic" in2="BackgroundImageFix" result="shape"/>
<feTurbulence type="fractalNoise" baseFrequency="2.152230978012085 2.152230978012085" stitchTiles="stitch" numOctaves="3" result="noise" seed="8932" />
<feColorMatrix in="noise" type="luminanceToAlpha" result="alphaNoise" />
<feComponentTransfer in="alphaNoise" result="coloredNoise1">
<feFuncA type="discrete" tableValues="1 1 1 1 1 1 1 1 1 1 1 1 1 1 1 1 1 1 1 1 1 1 1 1 1 1 1 1 1 1 1 1 1 1 1 1 1 1 1 1 1 1 1 1 1 1 1 1 1 1 1 0 0 0 0 0 0 0 0 0 0 0 0 0 0 0 0 0 0 0 0 0 0 0 0 0 0 0 0 0 0 0 0 0 0 0 0 0 0 0 0 0 0 0 0 0 0 0 0 0 "/>
</feComponentTransfer>
<feComposite operator="in" in2="shape" in="coloredNoise1" result="noise1Clipped" />
<feFlood flood-color="rgba(201, 201, 201, 0.25)" result="color1Flood" />
<feComposite operator="in" in2="noise1Clipped" in="color1Flood" result="color1" />
<feMerge result="effect1_noise_431_13">
<feMergeNode in="shape" />
<feMergeNode in="color1" />
</feMerge>
</filter>
<radialGradient id="paint0_radial_431_13" cx="0" cy="0" r="1" gradientTransform="matrix(240.333 597.789 -1121.83 342.637 765.495 502.816)" gradientUnits="userSpaceOnUse">
<stop stop-color="white"/>
<stop offset="1" stop-color="#5F5F5F"/>
</radialGradient>
<clipPath id="clip0_431_13">
<rect width="1440" height="963" fill="white"/>
</clipPath>
</defs>
</svg>
