<svg width="317" height="770" viewBox="0 0 317 770" fill="none" xmlns="http://www.w3.org/2000/svg">
<path fill-rule="evenodd" clip-rule="evenodd" d="M36.4555 401.679L56.6793 606.707L50.4038 611.591L44.1275 615.775C43.0117 616.891 45.9872 618.099 47.6144 618.564L39.9433 626.235C36.5959 628.467 39.0134 630.42 40.6406 631.117C33.9459 633.907 30.8774 639.718 30.1801 642.275C26.2748 658.454 37.8511 662.034 44.1275 661.801C41.338 679.654 53.6582 681.793 60.1671 680.63C71.325 676.725 70.3952 670.635 68.5355 668.078C64.6302 665.288 63.189 667.845 62.9565 669.473C61.8407 677.283 57.3776 676.911 55.2854 675.749C51.3802 672.402 53.6582 665.521 55.2854 662.499C66.4434 640.88 79.6935 663.894 79.6935 664.591C89.7356 708.107 121.536 717.591 136.181 716.894C136.181 721.357 142.689 724.797 145.944 725.96C145.944 727.075 144.084 728.749 143.154 729.447C135.344 739.489 148.733 745.719 156.404 747.578V748.973C153.615 750.647 155.242 752.46 156.404 753.157V755.947C152.499 764.873 158.497 768.964 161.983 769.894C170.352 765.989 169.19 758.969 167.562 755.947V753.157C170.352 752.041 168.725 749.903 167.562 748.973V747.578C185.973 741.441 183.137 732.933 179.418 729.447C178.302 728.331 178.488 726.657 178.72 725.96C181.51 725.96 185.927 719.916 187.786 716.894C221.26 721.357 238.927 687.604 243.576 670.17C246.923 657.896 257.058 653.433 261.708 652.736C263.381 659.988 273.098 660.639 277.747 660.407C282.21 663.754 281.095 671.286 277.747 672.959C274.4 674.633 271.471 673.657 270.076 671.565C268.771 669.607 269.501 666.02 269.982 663.663C270.014 663.501 270.046 663.345 270.076 663.196C263.381 662.08 262.637 666.916 263.102 669.473C267.008 678.957 275.423 678.538 279.142 677.144C292.531 672.68 288.905 660.872 285.418 655.525C292.671 642.136 284.256 634.139 279.142 631.814L277.747 624.841C274.958 624.283 272.401 619.959 271.471 617.867C269.239 616.751 271.006 615.077 272.168 614.38L263.102 604.617L284.023 394.01L292.392 384.944C285.139 381.596 294.019 373.786 299.366 370.299V362.628C306.618 360.954 312.616 352.632 314.708 348.68C320.287 332.501 306.804 325.202 299.366 323.575C289.881 321.901 286.581 328.457 286.116 331.944C286.674 342.544 291.462 345.659 293.787 345.891C291.555 342.544 294.252 336.593 295.879 334.036C299.784 329.015 304.015 330.549 305.642 331.944C311.221 339.196 305.177 348.448 301.458 352.167C294.205 359.978 280.304 358.211 274.26 356.352C256.965 352.446 254.501 326.365 255.431 313.812C257.105 302.654 248.69 301.724 244.273 302.654C240.926 278.664 217.773 268.948 206.615 267.088C204.384 264.299 198.247 263.136 195.457 262.903C191.552 264.018 188.251 261.043 187.089 259.416C190.994 254.952 188.251 250.583 186.391 248.957C184.718 246.725 175.001 243.842 170.352 242.68C168.12 241.005 171.049 236.404 172.444 234.311C175.233 233.615 174.536 229.43 171.049 228.035C169.376 226.918 170.817 223.85 171.747 222.456C180.115 219.666 176.628 215.249 173.839 213.39C172.165 212.273 175.001 208.74 176.628 207.114C179.976 204.323 180.812 195.258 180.812 191.074C190.297 189.958 193.133 185.495 193.365 183.403C192.249 174.476 181.742 169.455 176.628 168.061C174.955 164.155 171.282 160.389 169.654 158.995C172.444 157.321 170.817 155.508 169.654 154.811C168.539 154.811 168.725 152.952 168.957 152.022C177.883 143.096 173.606 134.819 170.352 131.797C170.91 123.986 170.491 90.2195 170.026 86.5004C173.931 82.5945 174.443 77.8992 174.21 76.0398C174.21 71.576 169.794 67.6711 167.934 66.2766C167.237 66.2766 167.004 64.8819 167.237 64.1845C169.468 64.1838 170.724 61.3947 170.724 60.0003C170.724 57.768 167.702 55.8158 166.539 55.1187C165.981 54.0022 166.772 51.864 167.237 50.9344C172.816 50.3759 174.675 45.5882 174.908 43.2642C176.581 43.2642 182.114 41.4045 184.671 40.4747C201.408 33.7799 204.197 24.667 203.5 20.9474C200.711 3.6526 172.583 0.258718 158.868 0.723633C134.321 1.28153 121.675 9.32456 118.421 13.2763C115.631 15.5079 115.864 21.1799 116.328 23.7369C118.002 34.8949 136.552 41.8686 145.618 43.9607C146.176 48.4239 151.43 50.4695 153.987 50.9344C155.102 51.4923 154.916 53.9564 154.684 55.1187C151.894 55.6766 150.732 58.6055 150.5 60.0003C150.5 62.2319 151.894 63.7196 152.592 64.1845C154.266 64.7424 154.219 65.8117 153.987 66.2766C148.408 68.5082 147.013 73.7153 147.013 76.0398C147.013 82.1767 151.197 85.5706 153.289 86.5004C152.731 94.8689 153.615 126.451 154.312 129.008C154.87 130.681 154.545 131.565 154.312 131.797C150.407 135.145 148.966 139.236 148.733 140.863C148.175 144.211 151.29 148.767 152.918 150.626C155.707 153.416 155.475 154.113 155.01 154.113C151.662 155.229 152.685 157.833 153.615 158.995C150.825 160.669 147.339 165.736 145.944 168.061C131.996 172.524 129.439 180.149 129.904 183.403C132.136 188.424 138.738 190.609 141.76 191.074C142.317 201.116 144.782 205.951 145.944 207.114C150.407 209.345 149.663 212.228 148.733 213.39C142.039 218.411 146.874 221.526 150.128 222.456C154.033 224.687 153.15 227.105 152.22 228.035C147.757 229.708 148.501 232.916 149.431 234.311C154.452 237.101 153.382 241.052 152.22 242.68C149.198 243.377 142.178 245.469 138.273 248.258C134.367 251.048 134.786 256.859 135.483 259.416C135.483 261.09 131.764 262.438 129.904 262.903C116.515 263.461 108.518 267.32 106.194 269.179C83.3198 273.085 74.347 295.447 72.7197 306.14H61.5618C59.8881 307.256 59.9346 326.131 60.1671 335.43C55.2854 366.114 28.0879 365.417 28.7853 365.417C15.3958 367.09 8.32906 356.816 6.4694 351.469C4.23781 341.427 12.0478 340.31 16.2317 341.007C24.5995 343.796 22.9727 350.539 21.1133 353.561C29.4811 349.656 28.3198 343.565 26.6932 341.007C14.4194 329.85 5.30759 337.288 2.28588 342.402C-4.96679 358.023 8.56117 367.973 16.2317 370.994C15.6738 377.689 19.2537 379.828 21.1133 380.06C29.4818 384.524 26.4599 389.359 23.9028 391.218L36.4555 401.679ZM45.5222 406.562L83.8777 392.615L95.0357 595.551L63.6539 601.13L45.5222 406.562ZM201.734 590.669L211.497 388.431L98.5225 391.22L107.588 592.762L201.734 590.669ZM215.681 592.064L252.642 599.038L270.773 401.681L226.839 389.128L215.681 592.064ZM124.325 652.038C124.325 645.901 115.027 628.56 110.378 621.354H199.641V624.143C193.365 629.722 190.576 644.367 190.576 645.065C190.018 642.833 185.694 640.88 183.602 640.183C181.928 639.067 184.299 637.858 185.694 637.393C186.81 634.046 182.44 632.279 180.115 631.814H146.641C139.946 632.372 139.203 635.766 139.667 637.393C142.457 637.393 142.225 639.253 141.76 640.183C137.296 640.741 135.251 643.205 134.786 644.367C131.438 649.388 134.786 651.573 136.878 652.038H124.325ZM129.207 658.315C133.159 664.823 140.783 680.77 139.667 692.486C143.852 692.718 153.196 688.999 154.312 675.052C151.523 672.959 148.036 669.473 150.825 667.38C151.058 667.148 150.965 666.404 148.733 665.288C146.176 664.823 142.457 662.499 140.365 658.315H129.207ZM170.352 675.052C168.678 685.652 175.233 691.091 178.72 692.486C184.299 688.581 187.554 668.078 188.484 658.315H183.602C183.044 661.104 177.79 664.126 175.233 665.288C173.56 665.288 173.606 666.683 173.839 667.38C175.512 670.17 172.212 673.657 170.352 675.052ZM86.6672 654.828C91.0839 669.473 104.799 699.599 124.325 702.946L117.352 687.604C110.843 687.837 100.057 682.304 108.983 658.315L86.6672 654.828ZM207.313 696.67C208.008 688.862 211.065 671.363 217.731 663.711C217.772 663.791 217.996 663.969 218.332 664.238C219.893 665.484 223.888 668.672 223.352 672.959C218.471 672.494 210.52 674.354 217.773 685.512L207.313 696.67ZM224.747 624.841C225.955 629.955 227.369 641.438 223.352 646.459L236.602 645.065C239.624 639.95 246.644 629.722 250.55 629.722C249.992 629.722 233.115 626.468 224.747 624.841ZM95.0357 628.328C91.1304 631.675 91.5488 636.696 92.2462 638.788H103.404L102.009 650.643H107.588C107.03 638.37 98.9874 630.652 95.0357 628.328ZM69.2329 631.117L79.6935 629.025L78.9961 642.275L69.2329 631.117ZM35.0617 647.854C35.0617 639.486 40.6406 636.929 43.4301 636.696C46.7775 637.254 49.0091 643.902 49.7065 647.157C50.8223 655.525 47.3819 658.082 45.5222 658.315C38.2696 658.872 35.5266 651.573 35.0617 647.854ZM84.5751 311.72C83.6453 311.72 81.6461 311.163 81.0882 308.93C81.5531 301.027 86.1093 284.104 100.615 279.641C100.847 280.57 101.033 282.988 99.9173 285.22C95.2681 288.939 85.6909 299.446 84.5751 311.72ZM66.4434 341.707C64.7697 348.402 61.0969 353.795 59.4697 355.654C66.1645 355.096 70.6276 352.167 72.0224 350.773C70.9066 344.636 67.8381 342.172 66.4434 341.707Z" fill="black"/>
</svg>
