<svg width="1283" height="1420" viewBox="0 0 1283 1420" fill="none" xmlns="http://www.w3.org/2000/svg">
<path fill-rule="evenodd" clip-rule="evenodd" d="M286.845 1292.1L278.484 1310.42L198.437 1264.38L203.209 1253.93L201.767 1253.27C191.517 1264.27 178.759 1271.23 163.494 1274.13C148.708 1277.26 133.625 1275.31 118.244 1268.29C94.2104 1257.32 76.7909 1239.49 65.9854 1214.81C55.6606 1190.35 51.9445 1162.23 54.8373 1130.44C58.2108 1098.88 67.2477 1066.99 81.9479 1034.79C96.6481 1002.58 114.818 974.864 136.456 951.634C158.576 928.624 182.258 913.007 207.502 904.782C233.227 896.777 258.107 898.26 282.14 909.23C296.079 915.593 306.163 926.585 312.392 942.206C319.32 957.565 322.377 973.772 321.563 990.825L323.005 991.483L356.903 917.22C366.118 897.032 372.638 880.841 376.461 868.647C380.766 856.672 382.557 843.84 381.835 830.152C381.594 816.683 377.419 802.29 369.31 786.972L382.507 779.056C396.865 797.226 406.385 818.996 411.067 844.367C415.75 869.737 415.145 892.693 409.253 913.236C420.913 895.326 437.86 879.829 460.095 866.746C482.33 853.663 505.015 846.593 528.149 845.536L530.814 860.692C514.409 864.821 500.8 871.096 489.985 879.518C479.171 887.941 470.41 897.591 463.702 908.469C457.475 919.566 449.754 935.209 440.539 955.397L406.641 1029.66L408.083 1030.32C420.433 1018.53 434.44 1010.11 450.102 1005.07C466.465 999.757 481.617 1000.28 495.556 1006.65C519.589 1017.62 536.768 1035.33 547.093 1059.79C557.899 1084.47 561.615 1112.6 558.241 1144.16C555.348 1175.95 546.552 1207.94 531.852 1240.15C517.151 1272.35 498.742 1299.96 476.622 1322.97C464.872 1335.58 452.519 1345.95 439.564 1354.08L305.481 1346.87C302.23 1343.24 299.362 1339.29 296.878 1335.02C289.553 1321.8 286.689 1307.71 288.287 1292.76L286.845 1292.1ZM137.553 1252.71C155.818 1261.04 174.783 1255.76 194.447 1236.86C214.111 1217.96 231.184 1192.64 245.664 1160.92L284.828 1075.12C293.605 1055.89 299.408 1036.18 302.239 1015.98C305.289 995.303 305.011 977.461 301.405 962.456C298.28 947.671 292.152 938.194 283.019 934.026C267.638 927.005 250.982 937.407 233.053 965.234C215.343 992.58 195.738 1029.81 174.236 1076.91C152.734 1124.02 137.345 1163.46 128.067 1195.23C119.01 1226.53 122.171 1245.69 137.553 1252.71ZM330.781 1340.91C346.162 1347.93 362.708 1337.77 380.417 1310.42C398.347 1282.59 418.062 1245.13 439.564 1198.02C461.066 1150.92 476.345 1111.72 485.403 1080.42C494.68 1048.65 491.628 1029.25 476.247 1022.23C467.114 1018.06 455.699 1019.53 442 1026.63C428.783 1033.96 415.361 1045.55 401.737 1061.4C388.331 1076.77 377.241 1094.07 368.464 1113.3L329.3 1199.09C314.82 1230.82 306.88 1260.3 305.481 1287.54C304.082 1314.78 312.515 1332.57 330.781 1340.91Z" fill="black"/>
<path fill-rule="evenodd" clip-rule="evenodd" d="M286.845 1292.1L278.484 1310.42L198.437 1264.38L203.209 1253.93L201.767 1253.27C191.517 1264.27 178.759 1271.23 163.494 1274.13C148.708 1277.26 133.625 1275.31 118.244 1268.29C94.2104 1257.32 76.7909 1239.49 65.9854 1214.81C55.6606 1190.35 51.9445 1162.23 54.8373 1130.44C58.2108 1098.88 67.2477 1066.99 81.9479 1034.79C96.6481 1002.58 114.818 974.864 136.456 951.634C158.576 928.624 182.258 913.007 207.502 904.782C233.227 896.777 258.107 898.26 282.14 909.23C296.079 915.593 306.163 926.585 312.392 942.206C319.32 957.565 322.377 973.772 321.563 990.825L323.005 991.483L356.903 917.22C366.118 897.032 372.638 880.841 376.461 868.647C380.766 856.672 382.557 843.84 381.835 830.152C381.594 816.683 377.419 802.29 369.31 786.972L382.507 779.056C396.865 797.226 406.385 818.996 411.067 844.367C415.75 869.737 415.145 892.693 409.253 913.236C420.913 895.326 437.86 879.829 460.095 866.746C482.33 853.663 505.015 846.593 528.149 845.536L530.814 860.692C514.409 864.821 500.8 871.096 489.985 879.518C479.171 887.941 470.41 897.591 463.702 908.469C457.475 919.566 449.754 935.209 440.539 955.397L406.641 1029.66L408.083 1030.32C420.433 1018.53 434.44 1010.11 450.102 1005.07C466.465 999.757 481.617 1000.28 495.556 1006.65C519.589 1017.62 536.768 1035.33 547.093 1059.79C557.899 1084.47 561.615 1112.6 558.241 1144.16C555.348 1175.95 546.552 1207.94 531.852 1240.15C517.151 1272.35 498.742 1299.96 476.622 1322.97C464.872 1335.58 452.519 1345.95 439.564 1354.08L305.481 1346.87C302.23 1343.24 299.362 1339.29 296.878 1335.02C289.553 1321.8 286.689 1307.71 288.287 1292.76L286.845 1292.1ZM137.553 1252.71C155.818 1261.04 174.783 1255.76 194.447 1236.86C214.111 1217.96 231.184 1192.64 245.664 1160.92L284.828 1075.12C293.605 1055.89 299.408 1036.18 302.239 1015.98C305.289 995.303 305.011 977.461 301.405 962.456C298.28 947.671 292.152 938.194 283.019 934.026C267.638 927.005 250.982 937.407 233.053 965.234C215.343 992.58 195.738 1029.81 174.236 1076.91C152.734 1124.02 137.345 1163.46 128.067 1195.23C119.01 1226.53 122.171 1245.69 137.553 1252.71ZM330.781 1340.91C346.162 1347.93 362.708 1337.77 380.417 1310.42C398.347 1282.59 418.062 1245.13 439.564 1198.02C461.066 1150.92 476.345 1111.72 485.403 1080.42C494.68 1048.65 491.628 1029.25 476.247 1022.23C467.114 1018.06 455.699 1019.53 442 1026.63C428.783 1033.96 415.361 1045.55 401.737 1061.4C388.331 1076.77 377.241 1094.07 368.464 1113.3L329.3 1199.09C314.82 1230.82 306.88 1260.3 305.481 1287.54C304.082 1314.78 312.515 1332.57 330.781 1340.91Z" fill="black"/>
<path fill-rule="evenodd" clip-rule="evenodd" d="M1067.96 807.028C1095.62 812.151 1123.72 808.424 1152.24 795.845C1181.43 782.974 1204.97 768.397 1222.85 752.114L1169.62 577.18C1155.3 576.729 1139.47 578.397 1122.12 582.183L1120.2 577.832C1134.2 567.189 1145.28 555.117 1153.44 541.614C1156.88 535.928 1159.8 529.989 1162.2 523.796C1170.1 502.413 1170 482.536 1161.89 464.164C1157.15 453.399 1150.89 444.253 1143.12 436.725C1132.75 426.674 1119.69 419.509 1103.93 415.23C1076.86 407.534 1045.68 411.467 1010.39 427.03C985.251 438.116 965.592 455.736 951.412 479.891C947.259 487.497 943.733 491.939 940.832 493.219C936.964 494.924 932.891 493.544 928.612 489.079L915.136 474.233L897.731 481.908L956.893 616.067L974.297 608.392C966.028 573.925 964.057 541.301 968.384 510.52C972.982 479.041 985.433 458.825 1005.74 449.871C1033.29 437.719 1057.52 455.332 1078.41 502.71C1088.22 524.949 1093.69 543.903 1094.83 559.572C1095.96 575.24 1088.31 586.699 1071.87 593.948L1006.61 622.729L1015.56 643.034L1081.55 613.933C1097.99 606.684 1112.68 608.578 1125.63 619.613C1138.85 629.952 1150.16 645.757 1159.54 667.029C1171.9 695.07 1177.14 718.744 1175.26 738.052C1173.17 756.876 1163.91 769.913 1147.47 777.162C1130.55 784.623 1115.6 788.04 1102.62 787.413C1090.12 786.572 1081.31 780.35 1076.19 768.747C1073.21 761.979 1075.3 752.972 1082.47 741.726C1087.8 734.177 1090.85 727.346 1091.62 721.232C1092.18 714.635 1090.86 707.711 1087.66 700.459C1083.61 691.273 1076.22 685.002 1065.5 681.644C1055.27 678.074 1044.59 678.741 1033.47 683.644C1020.41 689.4 1011.29 699.487 1006.1 713.903C1001.39 728.106 1002.24 742.46 1008.63 756.963C1020.78 784.52 1040.56 801.208 1067.96 807.028Z" fill="black"/>
<path d="M1000.68 965.048L1005.89 954.787C1006.57 953.457 1006.76 952.362 1006.48 951.503C1006.16 950.5 1005.33 949.661 1004 948.985L919.342 905.994C918.012 905.319 916.893 905.169 915.985 905.544C915.031 905.777 914.216 906.558 913.54 907.888L908.329 918.149L903.769 915.833L924.757 874.504L929.318 876.82L924.107 887.081C923.431 888.411 923.257 889.577 923.585 890.58C923.865 891.44 924.671 892.207 926.001 892.883L1010.65 935.874C1011.99 936.549 1013.13 936.771 1014.08 936.539C1014.99 936.163 1015.78 935.31 1016.46 933.98L1031.51 904.337C1032.19 903.007 1032.38 901.912 1032.1 901.052C1031.78 900.049 1030.95 899.21 1029.62 898.535L944.963 855.544C943.633 854.868 942.514 854.718 941.606 855.094C940.652 855.326 939.836 856.107 939.161 857.437L933.95 867.699L929.389 865.383L950.378 824.053L954.939 826.369L949.728 836.63C949.052 837.96 948.878 839.127 949.206 840.13C949.486 840.989 950.291 841.757 951.622 842.432L1036.28 885.423C1037.61 886.099 1038.75 886.32 1039.7 886.088C1040.61 885.712 1041.4 884.86 1042.08 883.529L1057.13 853.886C1057.81 852.556 1058 851.461 1057.72 850.602C1057.4 849.599 1056.57 848.76 1055.24 848.084L970.584 805.093C969.254 804.418 968.135 804.268 967.227 804.643C966.272 804.876 965.457 805.657 964.782 806.987L959.571 817.248L955.01 814.932L975.999 773.603L980.56 775.919L975.349 786.18C974.673 787.51 974.499 788.676 974.826 789.679C975.107 790.539 975.912 791.306 977.242 791.982L1061.9 834.973C1063.23 835.648 1064.37 835.87 1065.32 835.638C1066.23 835.262 1067.02 834.409 1067.7 833.079L1072.91 822.818L1077.47 825.134L1005.24 967.364L1000.68 965.048Z" fill="black"/>
<path fill-rule="evenodd" clip-rule="evenodd" d="M228.707 440.975C241.74 456.448 261.038 466.238 286.6 470.346C313.727 474.705 333.756 468.291 346.686 451.103C360.137 433.999 369.629 408.231 375.162 373.8L354.816 370.531C351.38 391.92 346.401 409.583 339.88 423.519C333.443 436.934 325.53 442.887 316.139 441.378C304.662 439.534 300.056 431.569 302.319 417.483L310.492 366.62C315.522 335.319 311.688 310.888 298.99 293.328C286.814 275.853 267.456 263.109 240.915 255.098L241.544 251.186C250.207 247.226 256.691 241.846 260.995 235.046C265.382 227.723 268.54 218.063 270.468 206.064L279.144 152.07C281.827 135.376 286.405 123.536 292.879 116.549C299.438 109.041 306.368 105.873 313.672 107.047C318.889 107.885 321.12 110.652 320.365 115.347C319.779 118.999 316.937 123.358 311.842 128.426C305.368 135.413 301.586 142.298 300.496 149.079C298.652 160.556 301.097 170.315 307.833 178.354C314.652 185.871 323.8 190.552 335.277 192.397C347.276 194.325 358.985 191.39 370.406 183.592C382.433 175.357 389.62 163.936 391.967 149.329C394.901 131.07 391.77 115.583 382.575 102.867C373.38 90.1511 359.393 82.2843 340.612 79.2665C321.31 76.1649 303.484 80.525 287.136 92.3471C271.309 104.253 261.299 123.248 257.108 149.332L248.557 202.544C246.378 216.107 242.009 226.643 235.451 234.152C228.893 241.661 220.136 244.535 209.181 242.774L159.882 234.853L171.073 165.208L125.123 256.763L89.8704 429.101L165.253 441.214L168.271 422.433L143.23 418.41C138.535 417.655 135.27 416.328 133.434 414.427C132.205 412.089 131.967 408.572 132.722 403.877L156.361 256.763L197.052 263.302C207.486 264.978 215.381 270.796 220.738 280.754C226.179 290.191 227.725 302.213 225.378 316.82L215.444 378.639C211.337 404.201 215.758 424.98 228.707 440.975Z" fill="black"/>
<path d="M224.391 316.661C226.684 302.391 226.076 290.411 219.957 281.384L207.717 268.782L240.848 254.032L241.203 254.14C267.887 262.194 287.46 275.04 299.8 292.742C313.054 311.072 316.568 335.116 311.48 366.778L303.307 417.636L303.221 418.192L303.129 418.845C302.695 422.085 302.664 425.013 302.992 427.511L303.051 427.913C303.363 429.897 303.925 431.63 304.722 433.123C306.518 436.218 310.949 439.416 315.951 440.331L316.302 440.39C318.62 440.762 321.048 440.626 323.34 439.948C324.948 439.452 326.511 438.671 328.031 437.597C331.543 434.951 335.874 429.553 338.979 423.086C345.18 409.83 350.124 392.63 353.53 372.196L353.99 369.385L376.309 372.972L376.15 373.959C370.586 408.587 361.312 434.122 347.472 451.72C347.331 451.907 347.189 452.093 347.047 452.278C340.247 461.096 331.967 466.986 321.916 470.1C312.195 473.112 300.876 473.511 287.721 471.531L286.442 471.333C260.445 467.155 241.476 457.687 227.942 441.618L227.936 441.611L227.929 441.603C214.403 424.894 210.266 404.564 214.457 378.48L224.391 316.661ZM215.444 378.639C211.285 404.523 215.404 424.543 228.707 440.974C241.838 456.564 260.187 465.9 285.395 470.147L286.601 470.345C313.811 474.718 332.889 468.999 346.255 451.667C346.399 451.48 346.543 451.292 346.686 451.102C360.375 433.696 369.61 408.353 375.163 373.8L354.816 370.531L354.516 372.361C351.1 392.857 346.134 410.154 339.88 423.519C336.723 430.095 332.296 435.642 328.622 438.407L328.017 438.819C326.598 439.747 325.134 440.443 323.624 440.908C321.183 441.63 318.602 441.774 316.14 441.378L315.771 441.315C310.516 440.353 305.808 436.999 303.85 433.614C302.93 431.896 302.313 429.907 302 427.647C301.658 425.045 301.694 422.024 302.138 418.711L302.232 418.045L302.319 417.483L310.493 366.619C315.479 335.588 312.137 312.103 299.595 294.178L298.99 293.328C286.814 275.852 267.455 263.108 240.915 255.098L209.432 269.113L220.738 280.754C227.122 290.114 227.688 302.444 225.378 316.82L215.444 378.639Z" fill="#909090"/>
<path d="M206.121 269.114L207.621 271.614L241.121 255.614V253.614L206.121 269.114Z" fill="black"/>
<path d="M590.153 1076.21L595.967 1074.85C602.148 1073.41 605.762 1068.54 606.809 1060.23L618.373 956.976L622.302 956.061L679.685 1048.06C681.343 1050.44 683.027 1051.98 684.738 1052.68C686.424 1053.28 688.42 1053.31 690.725 1052.78L699.525 1050.73L700.696 1055.76L651.981 1067.11L650.81 1062.08L661.182 1059.66C662.753 1059.29 663.977 1058.62 664.854 1057.65C665.706 1056.56 666.01 1055.5 665.766 1054.45C665.449 1053.09 664.971 1051.99 664.332 1051.14L652.078 1031.96L615.306 1040.53L613.987 1051.93C613.497 1056.47 613.471 1059.67 613.911 1061.56C614.448 1063.87 615.5 1065.77 617.067 1067.29C618.61 1068.69 620.796 1069.07 623.624 1068.41L633.21 1066.18L634.381 1071.21L591.324 1081.24L590.153 1076.21ZM615.863 1035.1L649.178 1027.33L621.669 983.213L615.863 1035.1Z" fill="black"/>
<path d="M741.936 1038.62L749.938 1035.01C752.704 1033.76 754.489 1032.18 755.291 1030.27C756.193 1028.31 756.638 1025.61 756.627 1022.17C756.589 1010.76 754.579 997.631 750.6 982.773C746.675 967.772 740.894 951.824 733.258 934.93C730.624 929.102 726.738 927.348 721.6 929.67L713.302 933.421L711.158 928.679L791.477 892.375L793.621 897.117L782.951 901.94C781.568 902.565 780.687 903.38 780.308 904.384C779.983 905.244 780.133 906.366 780.758 907.749L819.675 993.848C822.086 999.183 825.959 1000.64 831.294 998.233L841.223 993.745L855.825 1026.05L852.12 1027.73C850.959 1025.16 848.724 1021.53 845.414 1016.84C842.247 1012.2 838.374 1008.89 833.793 1006.92C831.596 1006.01 829.018 1005.57 826.057 1005.6C823.239 1005.68 820.447 1006.35 817.681 1007.6L767.741 1030.17C765.074 1031.38 762.728 1033.03 760.705 1035.14C758.825 1037.29 757.501 1039.5 756.734 1041.75C755.19 1046.49 755.062 1051.61 756.352 1057.09C757.785 1062.63 759.082 1066.69 760.243 1069.25L756.538 1070.93L741.936 1038.62ZM804.72 1007.75C807.387 1006.54 808.118 1004.6 806.912 1001.94L767.125 913.912C765.919 911.244 763.983 910.513 761.315 911.719L747.534 917.948C742.594 920.181 740.066 923.406 739.949 927.623C739.887 931.696 740.682 935.561 742.334 939.216C747.603 950.874 752.148 963.692 755.968 977.67C759.743 991.55 762.025 1002.65 762.815 1010.98C762.965 1012.1 763.191 1013.79 763.491 1016.03C763.845 1018.13 764.179 1019.53 764.491 1020.22C765.251 1021.9 766.105 1023 767.055 1023.52C767.96 1023.94 769.5 1023.67 771.673 1022.68L804.72 1007.75Z" fill="black"/>
<path d="M822.051 960.42L821.678 961.154L884.048 992.828C887.065 994.36 889.822 994.889 892.319 994.414C894.777 993.816 896.585 992.375 897.745 990.092L899.98 985.69L903.894 987.677L889.113 1016.78L885.199 1014.8L887.435 1010.39C888.594 1008.11 888.67 1005.84 887.662 1003.59C886.613 1001.21 884.581 999.252 881.564 997.72L815.403 964.121C814.262 963.541 813.301 963.412 812.522 963.735C811.703 963.934 811.004 964.604 810.424 965.746L805.952 974.551L802.039 972.563L815.206 946.637L892.713 960.924L834.769 908.114L847.625 882.8L851.538 884.787L847.067 893.592C846.487 894.734 846.338 895.735 846.619 896.595C846.859 897.333 847.55 897.991 848.692 898.571L921.335 935.462C923.536 936.58 925.195 936.038 926.313 933.837L930.785 925.032L934.698 927.019L916.688 962.484L912.774 960.497L917.246 951.692C918.364 949.491 917.822 947.831 915.621 946.713L843.467 910.07L912.938 973.502L911.448 976.438L822.051 960.42Z" fill="black"/>
<path d="M670.088 1044.02C667.733 1040.32 667.069 1037.05 668.095 1034.24C669.247 1031.44 671.973 1028.57 676.274 1025.62C681.578 1022.04 685.006 1018.99 686.558 1016.49C688.158 1014.06 688.051 1011.42 686.237 1008.57L681.528 1001.16L660.691 1014.4C659.765 1014.99 659.231 1015.6 659.091 1016.23C658.95 1016.86 659.174 1017.64 659.763 1018.57L662.852 1023.43L660.074 1025.19L645.361 1002.04L648.139 1000.28L651.229 1005.14C651.817 1006.06 652.427 1006.6 653.058 1006.74C653.689 1006.88 654.468 1006.65 655.394 1006.07L697.416 979.362C698.342 978.773 698.876 978.163 699.016 977.532C699.157 976.901 698.933 976.122 698.345 975.196L695.255 970.334L698.033 968.569L712.746 991.721L709.968 993.487L706.878 988.625C706.29 987.699 705.68 987.165 705.049 987.025C704.418 986.884 703.639 987.108 702.713 987.696L684.307 999.393L689.088 1006.92C690.707 1009.46 693.301 1010.31 696.871 1009.45C700.568 1008.62 704.675 1006.98 709.193 1004.54C712.659 1002.67 715.692 1001.98 718.294 1002.5C720.945 1003.09 722.957 1004.46 724.33 1006.62C725.948 1009.17 726.301 1011.6 725.388 1013.92C724.524 1016.31 723.05 1018.16 720.966 1019.49C718.882 1020.81 716.792 1021.27 714.695 1020.87C712.599 1020.47 711.011 1019.42 709.932 1017.72C708.951 1016.18 708.615 1014.71 708.925 1013.33C709.234 1011.94 710.006 1010.85 711.241 1010.07C711.936 1009.63 712.714 1009.4 713.577 1009.39C714.517 1009.34 715.288 1009.45 715.891 1009.71C717.048 1010.17 717.974 1010.18 718.668 1009.73C719.749 1009.05 719.896 1008.09 719.112 1006.85C718.523 1005.93 717.468 1005.46 715.946 1005.45C714.551 1005.47 712.902 1006.03 711.001 1007.13C706.918 1009.4 702.937 1011.06 699.058 1012.12C695.179 1013.18 692.142 1012.83 689.948 1011.08L689.601 1011.31C691.302 1017.05 691.435 1021.95 690.002 1026C689.377 1027.92 688.285 1029.69 686.727 1031.33C685.169 1032.97 683.229 1034.69 680.907 1036.49C678.893 1038.1 677.416 1039.53 676.475 1040.77C675.584 1042.1 675.506 1043.34 676.241 1044.5C677.418 1046.35 679.322 1046.87 681.953 1046.07C684.583 1045.26 687.133 1044.08 689.603 1042.51L690.927 1044.59C687.3 1046.9 683.501 1048.33 679.531 1048.91C675.688 1049.51 672.54 1047.88 670.088 1044.02Z" fill="black"/>
<path d="M949.581 153.345L939.858 149.473C935.474 147.727 932.024 147.237 929.511 148.002C926.73 148.883 923.952 150.869 921.175 153.959C909.536 167.656 899.574 181.58 891.289 195.729C882.813 209.802 874.969 225.894 867.756 244.005C864.72 251.63 865.298 256.278 869.492 257.948L881.502 262.731L878.769 269.594L775.826 228.598L778.559 221.735L790.569 226.518C792.856 227.429 794.667 227.597 795.999 227.024C797.332 226.45 798.454 225.02 799.365 222.732L839.678 121.504C840.93 117.806 841.23 114.833 840.579 112.586C839.852 110.53 837.868 108.856 834.627 107.566L819.185 101.416L837.512 50.4049L843.231 52.6825C842.7 54.0169 841.944 58.1333 840.964 65.0317C839.869 71.6635 839.612 78.4083 840.194 85.2662C841.433 97.6863 847.676 106.136 858.923 110.615L913.826 132.48C920.689 135.213 926.558 136.004 931.434 134.854C936.31 133.703 940.974 131.143 945.426 127.173C950.563 122.593 955.109 117.556 959.063 112.063C962.903 106.304 965.088 102.757 965.62 101.422L971.339 103.7L949.581 153.345ZM870.202 123.058C867.914 122.147 866.104 121.978 864.771 122.552C863.438 123.126 862.316 124.556 861.405 126.844L819.954 230.931C819.043 233.219 818.874 235.029 819.448 236.362C820.021 237.695 821.452 238.816 823.739 239.728L837.751 245.308C849.38 249.939 858.687 243.485 865.671 225.946C869.239 216.986 874.482 206.595 881.399 194.772C888.316 182.949 894.094 173.986 898.734 167.882C907.1 156.858 911.966 149.629 913.333 146.198C914.016 144.482 913.976 142.92 913.211 141.511C912.181 140.217 910.807 139.229 909.092 138.546L870.202 123.058Z" fill="black"/>
<path d="M125.537 762.708L131.429 771.357C134.085 775.258 136.67 777.594 139.182 778.366C141.979 779.192 145.393 779.101 149.424 778.093C166.734 773.254 182.782 767.289 197.566 760.199C212.465 753.278 227.971 744.33 244.082 733.357C250.866 728.736 252.987 724.56 250.446 720.829L243.169 710.145L249.274 705.986L311.652 797.567L305.547 801.725L298.269 791.041C296.883 789.006 295.477 787.853 294.052 787.583C292.626 787.312 290.896 787.87 288.861 789.256L198.806 850.595C195.7 852.959 193.787 855.255 193.07 857.482C192.521 859.593 193.229 862.09 195.193 864.973L204.55 878.71L160.816 910.733L157.351 905.645C158.538 904.836 161.468 901.848 166.141 896.679C170.759 891.795 174.746 886.349 178.101 880.339C184.024 869.353 183.579 858.857 176.763 848.851L143.495 800.008C139.336 793.902 134.915 789.962 130.23 788.187C125.545 786.413 120.247 785.925 114.336 786.723C107.516 787.645 100.93 789.276 94.5788 791.615C88.1736 794.24 84.3774 795.957 83.1903 796.766L79.7248 791.678L125.537 762.708ZM174.378 832.227C175.764 834.262 177.17 835.415 178.596 835.685C180.021 835.956 181.752 835.398 183.787 834.011L276.385 770.94C278.42 769.554 279.573 768.148 279.843 766.723C280.114 765.297 279.556 763.567 278.17 761.532L269.679 749.066C262.633 738.721 251.308 738.862 235.706 749.49C227.735 754.919 217.575 760.598 205.227 766.526C192.878 772.454 183.074 776.649 175.813 779.112C162.711 783.567 154.633 786.835 151.58 788.914C150.054 789.954 149.213 791.271 149.058 792.866C149.188 794.516 149.773 796.103 150.813 797.63L174.378 832.227Z" fill="black"/>
<path d="M983.041 264.26L980.694 261.062C978.2 257.662 974.278 256.727 968.93 258.258L902.829 278.172L901.243 276.011L942.453 216.918C943.471 215.285 943.972 213.854 943.956 212.624C943.883 211.437 943.381 210.21 942.451 208.942L938.899 204.102L941.665 202.072L961.326 228.867L958.56 230.896L954.374 225.191C953.74 224.327 953.01 223.755 952.184 223.475C951.3 223.237 950.57 223.329 949.994 223.752C949.244 224.301 948.695 224.882 948.346 225.493L939.831 237.99L954.671 258.216L961.985 256.041C964.882 255.157 966.849 254.334 967.886 253.573C969.154 252.643 970.045 251.501 970.559 250.149C971.016 248.838 970.674 247.405 969.532 245.849L965.663 240.577L968.429 238.547L985.807 262.23L983.041 264.26ZM951.208 259.295L937.762 240.971L917.996 269.304L951.208 259.295Z" fill="black"/>
<path d="M159.867 652.062L160.023 656.026C160.188 660.24 162.915 663.208 168.204 664.932L234.131 685.416L234.236 688.094L167.016 714.01C165.258 714.794 164.042 715.7 163.367 716.728C162.763 717.753 162.492 719.051 162.554 720.622L162.789 726.621L159.361 726.755L158.06 693.547L161.488 693.412L161.765 700.483C161.807 701.554 162.092 702.437 162.62 703.131C163.219 703.823 163.876 704.155 164.59 704.127C165.518 704.091 166.298 703.917 166.93 703.606L180.98 698.013L179.998 672.946L172.72 670.656C169.824 669.768 167.733 669.35 166.448 669.4C164.877 669.462 163.499 669.909 162.316 670.742C161.204 671.572 160.686 672.952 160.762 674.88L161.018 681.414L157.59 681.549L156.439 652.197L159.867 652.062ZM183.472 673.99L184.362 696.7L216.598 684.279L183.472 673.99Z" fill="black"/>
<path d="M716.416 124.028C711.397 117.187 708.718 110.018 708.38 102.522C708.137 95.1542 712.275 88.345 720.794 82.0939C727.377 77.2636 733.772 75.1531 739.977 75.7625C746.183 76.3719 751.671 78.3026 756.44 81.5547C761.433 84.8412 766.831 89.2206 772.633 94.6931L788.995 110.091L805.453 98.0149C817.457 89.2066 819.055 78.8003 810.247 66.796C807.026 62.4074 802.929 59.2584 797.953 57.349C793.107 55.3449 789.264 55.3847 786.424 57.4684C785.133 58.4155 784.307 59.3195 783.946 60.1803C783.748 60.7226 783.645 61.3939 783.637 62.1944C783.723 63.1239 783.891 63.8942 784.141 64.5052C785.2 67.3022 785.576 69.7077 785.266 71.7218C785.052 73.865 783.912 75.6943 781.846 77.2097C779.136 79.1987 776.584 79.7804 774.191 78.9548C771.893 78.2583 769.844 76.6837 768.044 74.2313C765.961 71.3915 765.164 68.0049 765.653 64.0714C766.143 60.1379 768.453 56.6557 772.583 53.6249C777.359 50.1205 782.437 48.3805 787.816 48.4049C793.29 48.5583 798.382 50.0846 803.09 52.9838C808.023 55.9174 812.099 59.5786 815.32 63.9672C821.571 72.4864 824.71 81.5013 824.739 91.012C824.896 100.428 820.264 108.593 810.841 115.507L763.211 150.456C756.757 155.192 754.998 159.56 757.934 163.562C760.302 166.788 763.879 167.739 768.664 166.412C773.449 165.085 778.552 162.433 783.973 158.455L786.531 161.94C778.786 167.623 771.415 171.244 764.418 172.804C757.516 174.492 751.934 172.433 747.672 166.624C743.599 161.074 742.134 155.695 743.277 150.487C744.645 145.314 748.138 140.467 753.757 135.947L753.434 134.695C747.495 136.074 740.851 136.084 733.5 134.726C726.373 133.403 720.678 129.837 716.416 124.028ZM725.66 122.012C729.922 127.82 735.496 130.681 742.381 130.593C749.49 130.539 757.542 129.198 766.535 126.571L784.929 113.074L768.89 98.9287C763.053 93.6801 757.157 91.0566 751.201 91.0583C745.469 91.0943 739.117 93.6695 732.147 98.784C726.21 103.141 723.043 107.35 722.649 111.413C722.383 115.381 723.387 118.914 725.66 122.012Z" fill="black"/>
<path d="M429.272 169.38L438.145 164.583C439.835 163.67 440.841 162.67 441.165 161.585C441.488 160.501 441.193 159.113 440.28 157.423L398.707 80.5273C397.794 78.8373 396.794 77.8306 395.71 77.5071C394.625 77.1836 393.237 77.4787 391.547 78.3924L382.675 83.1892L379.934 78.1191L422.184 55.2772L424.925 60.3473L416.052 65.1441C414.362 66.0578 413.356 67.057 413.032 68.1419C412.709 69.2268 413.004 70.6142 413.918 72.3042L455.49 149.2C456.403 150.89 457.403 151.897 458.488 152.22C459.572 152.544 460.96 152.249 462.65 151.335L489.268 136.944C490.958 136.031 491.964 135.032 492.288 133.947C492.611 132.862 492.316 131.474 491.403 129.784L449.83 52.8886C448.917 51.1986 447.917 50.1918 446.833 49.8684C445.748 49.5449 444.36 49.84 442.67 50.7537L433.798 55.5505L431.057 50.4804L473.307 27.6385L476.048 32.7086L467.175 37.5054C465.485 38.419 464.479 39.4183 464.155 40.5032C463.832 41.5881 464.127 42.9755 465.04 44.6655L506.613 121.561C507.526 123.251 508.526 124.258 509.611 124.581C510.695 124.905 512.083 124.61 513.773 123.696L540.391 109.306C542.081 108.392 543.087 107.393 543.411 106.308C543.734 105.223 543.439 103.836 542.526 102.146L500.953 25.2499C500.04 23.5599 499.04 22.5531 497.956 22.2297C496.871 21.9062 495.483 22.2013 493.793 23.115L484.921 27.9118L482.18 22.8417L524.43 -0.000200418L527.171 5.06985L518.298 9.86666C516.608 10.7803 515.602 11.7796 515.278 12.8645C514.955 13.9493 515.25 15.3368 516.163 17.0268L557.736 93.9225C558.649 95.6125 559.649 96.6193 560.734 96.9428C561.818 97.2662 563.206 96.9711 564.896 96.0575L573.768 91.2607L576.51 96.3307L432.013 174.45L429.272 169.38Z" fill="black"/>
<path d="M1087.29 364.495L1084.17 360.243C1082.76 358.326 1081.42 357.195 1080.14 356.851C1078.72 356.485 1077 356.591 1074.99 357.169C1066.36 359.912 1058.38 363.199 1051.06 367.031C1043.68 370.779 1036.03 375.559 1028.11 381.369C1024.78 383.816 1023.78 385.956 1025.13 387.79L1028.98 393.041L1025.98 395.243L992.954 350.23L995.955 348.029L999.808 353.28C1000.54 354.28 1001.27 354.836 1001.99 354.947C1002.72 355.058 1003.58 354.746 1004.58 354.012L1048.84 321.534C1050.36 320.289 1051.28 319.099 1051.61 317.965C1051.85 316.892 1051.45 315.647 1050.41 314.23L1045.45 307.478L1066.91 290.581L1068.74 293.082C1068.16 293.51 1066.74 295.066 1064.47 297.752C1062.24 300.292 1060.32 303.105 1058.74 306.191C1055.95 311.828 1056.36 317.105 1059.97 322.023L1077.59 346.03C1079.79 349.031 1082.08 350.937 1084.47 351.747C1086.86 352.558 1089.54 352.71 1092.5 352.204C1095.92 351.619 1099.21 350.682 1102.37 349.391C1105.54 347.956 1107.43 347.025 1108.01 346.597L1109.84 349.097L1087.29 364.495ZM1061.47 330.352C1060.73 329.351 1060 328.796 1059.28 328.685C1058.56 328.574 1057.7 328.885 1056.7 329.619L1011.18 363.015C1010.18 363.749 1009.63 364.477 1009.52 365.2C1009.41 365.922 1009.72 366.784 1010.45 367.784L1014.95 373.911C1018.68 378.996 1024.38 378.725 1032.05 373.097C1035.96 370.223 1040.98 367.184 1047.09 363.98C1053.21 360.777 1058.07 358.491 1061.68 357.123C1068.2 354.648 1072.21 352.86 1073.71 351.759C1074.46 351.208 1074.86 350.53 1074.91 349.724C1074.82 348.896 1074.49 348.107 1073.94 347.357L1061.47 330.352Z" fill="black"/>
<path d="M1047.12 305.791L1043.64 301.039C1043.09 300.289 1042.59 299.881 1042.16 299.814C1041.58 299.725 1040.92 299.956 1040.17 300.507L991.903 335.921C989.903 337.389 989.789 339.331 991.563 341.749C993.276 344.083 995.516 345.388 998.284 345.665C1000.97 346.004 1003.96 345.797 1007.26 345.046C1010.7 344.317 1013.96 343.265 1017.06 341.892C1020.15 340.518 1021.95 339.647 1022.45 339.28L1024.84 342.531L1000.03 359.58L970.488 319.318L973.489 317.117L976.609 321.368C977.22 322.201 977.857 322.632 978.518 322.659C979.18 322.687 980.052 322.303 981.136 321.508L1002.27 306.003L993.459 294C989.667 288.832 988.059 283.407 988.636 277.726C989.212 272.046 991.751 267.554 996.252 264.251C999.253 262.049 1002.58 260.823 1006.25 260.572C1009.77 260.298 1013.28 260.986 1016.8 262.636C1020.24 264.347 1023.21 266.912 1025.72 270.329L1050.12 303.589L1047.12 305.791ZM1026.57 277.783C1024.67 275.199 1021.99 274.157 1018.51 274.658C1014.97 275.076 1011.28 276.692 1007.45 279.505C1003.61 282.319 1000.97 285.279 999.536 288.387C998.097 291.494 998.356 294.382 1000.31 297.049L1005.27 303.801L1029.52 286.002C1030.27 285.452 1030.72 284.929 1030.87 284.435C1030.88 283.918 1030.61 283.284 1030.06 282.534L1026.57 277.783Z" fill="black"/>
<path d="M128.371 492.529L128.602 498.418C128.638 499.348 128.817 499.961 129.14 500.259C129.569 500.656 130.249 500.836 131.178 500.8L190.995 498.456C193.475 498.359 194.656 496.812 194.538 493.816C194.425 490.924 193.299 488.588 191.16 486.809C189.124 485.027 186.53 483.525 183.378 482.303C180.119 480.982 176.822 480.025 173.488 479.431C170.153 478.838 168.176 478.553 167.556 478.577L167.399 474.548L197.498 474.3L199.454 524.199L195.734 524.345L195.528 519.076C195.488 518.043 195.201 517.33 194.668 516.937C194.135 516.544 193.198 516.373 191.854 516.426L165.665 517.452L166.248 532.329C166.499 538.734 164.796 544.13 161.14 548.515C157.483 552.901 152.866 555.203 147.287 555.421C143.568 555.567 140.12 554.719 136.944 552.878C133.875 551.136 131.344 548.596 129.351 545.26C127.461 541.919 126.433 538.131 126.267 533.896L124.652 492.675L128.371 492.529ZM129.731 527.241C129.857 530.444 131.502 532.811 134.666 534.343C137.834 535.977 141.794 536.702 146.546 536.515C151.299 536.329 155.14 535.351 158.072 533.581C161.003 531.81 162.404 529.272 162.274 525.966L161.946 517.598L131.883 518.776C130.953 518.812 130.288 518.994 129.886 519.32C129.593 519.745 129.464 520.423 129.5 521.353L129.731 527.241Z" fill="black"/>
<path d="M383.97 778.305C398.44 796.617 408.021 818.542 412.729 844.054C417.017 867.285 416.898 888.544 412.346 907.813C423.922 891.749 439.906 877.732 460.267 865.752C482.625 852.596 505.467 845.47 528.781 844.405L529.659 844.365L532.638 861.303L531.736 861.53C515.436 865.632 501.96 871.855 491.278 880.175C480.555 888.526 471.878 898.085 465.238 908.85C459.034 919.91 451.332 935.516 442.128 955.68L409.159 1027.9L407.632 1029.67L407.319 1029.53L441.218 955.265C450.433 935.077 458.154 919.434 464.381 908.337C471.089 897.459 479.85 887.809 490.664 879.387C501.478 870.964 515.088 864.689 531.492 860.561L528.827 845.404C505.693 846.461 483.009 853.531 460.774 866.614C438.54 879.698 421.591 895.194 409.931 913.104C415.823 892.561 416.429 869.604 411.746 844.234C407.064 818.864 397.543 797.094 383.186 778.924L369.989 786.84C378.098 802.157 382.273 816.551 382.514 830.02C383.235 843.708 381.444 856.54 377.14 868.515C373.316 880.709 366.797 896.9 357.582 917.088L323.684 991.351L323.621 991.321V989.078L356.672 916.673C365.88 896.5 372.38 880.352 376.186 868.216L376.198 868.177C380.454 856.337 382.23 843.638 381.515 830.072L381.514 830.038C381.276 816.765 377.161 802.525 369.104 787.308L368.661 786.47L383.425 777.614L383.97 778.305Z" fill="#909090"/>
<path fill-rule="evenodd" clip-rule="evenodd" d="M1078.93 503.217C1085.02 517.036 1089.44 529.587 1092.18 540.869L1093.65 539.369L1101.65 414.985C1075.23 408.324 1044.99 412.507 1010.9 427.537C985.764 438.623 966.105 456.243 951.925 480.397C947.772 488.003 944.245 492.446 941.345 493.725C937.477 495.431 933.404 494.051 929.125 489.586L915.648 474.74L898.244 482.415L957.405 616.573L974.81 608.898C966.54 574.432 964.569 541.808 968.897 511.026C973.494 479.548 985.946 459.331 1006.25 450.377C1033.81 438.225 1058.03 455.838 1078.93 503.217Z" fill="black"/>
<path d="M1010.5 426.621C1044.59 411.586 1074.99 407.314 1101.62 413.949L1101.55 414.963C1075.59 408.443 1045.92 412.392 1012.55 426.815L1010.9 427.536C985.765 438.622 966.105 456.243 951.926 480.397L951.154 481.786C947.334 488.546 944.064 492.525 941.345 493.725L940.981 493.876C937.222 495.341 933.27 493.911 929.125 489.585L915.648 474.739L898.244 482.414L957.405 616.572L974.81 608.897C966.54 574.431 964.569 541.808 968.896 511.026C973.494 479.548 985.946 459.331 1006.25 450.377L1006.9 450.099C1034.19 438.503 1058.2 456.208 1078.93 503.217L1079.83 505.292C1085.46 518.289 1089.57 530.144 1092.18 540.855L1091.34 541.642C1088.62 530.299 1084.19 517.627 1078.01 503.62C1067.59 479.99 1056.4 463.933 1044.5 455.281C1032.68 446.686 1020.11 445.359 1006.65 451.292C986.789 460.052 974.458 479.872 969.887 511.17H969.886C965.579 541.81 967.539 574.305 975.782 608.664L975.978 609.475L956.894 617.891L896.926 481.902L915.904 473.533L929.847 488.894C931.92 491.057 933.878 492.401 935.71 493.021C937.514 493.633 939.241 493.56 940.941 492.811C942.168 492.27 943.652 490.991 945.383 488.812C947.097 486.652 948.985 483.694 951.047 479.918L951.062 479.891C965.346 455.559 985.165 437.794 1010.5 426.621Z" fill="#909090"/>
</svg>
