<svg width="1440" height="1041" viewBox="0 0 1440 1041" fill="none" xmlns="http://www.w3.org/2000/svg">
<path d="M82.1788 714.502V999.002H139.179C140.679 927.002 98.8155 842.502 98.8155 828.502C101.315 816.502 103.316 817.002 111.816 804.502C136.816 783.502 181.845 671.335 196.679 632.502C126.179 632.502 91.6788 689.169 82.1788 714.502Z" fill="url(#paint0_linear_307_1778)"/>
<path d="M309.679 999.002C309.545 926.056 309.625 797.189 309.663 742.23C309.666 737.742 309.669 734.614 309.671 731.983C309.671 731.933 309.671 731.884 309.671 731.834V731.829C309.676 726.502 309.679 723.169 309.679 714.502C309.679 706.992 297.664 680.791 272.669 660.002C254.399 644.806 229.195 632.502 196.679 632.502C213.179 671.169 256.48 743.35 288.315 772.002C300.315 782.802 297.815 789.002 290.315 812.002C276.922 853.076 261.679 915.502 261.679 999.002H309.679Z" fill="url(#paint1_linear_307_1778)"/>
<path d="M177.363 86.5021C156.859 84.1526 114.363 93.1021 108.363 137.502L106.363 260.502L130.863 264.073C130.863 212.644 119 184.502 119 184.002C115.5 177.002 111.5 174.502 119 168.002C125.4 162.002 160.53 111.169 177.363 86.5021Z" fill="url(#paint2_linear_307_1778)"/>
<path d="M734.166 495.502L731.5 497.002L731.497 497.616L734.149 496.116L734.166 495.502Z" fill="url(#paint3_linear_307_1778)"/>
<path d="M734.655 495.891L737.5 494.502V494.002L734.653 495.354L734.655 495.891Z" fill="url(#paint4_linear_307_1778)"/>
<path d="M1137.16 691.636L1112.16 996.636H1172.16C1172.16 965.136 1143.79 788.636 1142.29 781.136C1140.79 773.636 1142.29 765.687 1148.79 756.136C1168.39 727.336 1231.86 660.669 1243.86 632.002C1181.36 630.514 1143.66 669.47 1137.16 691.636Z" fill="url(#paint5_linear_307_1778)"/>
<path d="M1350.66 691.636C1350.66 676.636 1306.36 633.49 1243.86 632.002C1258.7 673.835 1305.29 758.193 1327.29 784.193C1330.28 789.667 1332.78 801.185 1327.29 815.136C1314.63 836.97 1313.86 947.836 1314.66 996.636H1356.66C1357.25 945.876 1353.99 822.79 1352.04 749.081C1351.24 718.723 1350.66 696.741 1350.66 691.636Z" fill="url(#paint6_linear_307_1778)"/>
<path d="M165.5 235.002L165.363 269.101L174.863 270.486L175 236.638L170.25 235.82L165.5 235.002Z" fill="url(#paint7_linear_307_1778)"/>
<path d="M167 225.502C164.6 230.302 168.5 234.881 170.25 235.82C176.05 230.474 170.917 219.881 168.5 217.002C168.5 219.502 167 225.002 167 225.502Z" fill="url(#paint8_linear_307_1778)"/>
<path d="M167 225.502C164.6 230.302 168.5 234.881 170.25 235.82C176.05 230.474 170.917 219.881 168.5 217.002C168.5 219.502 167 225.002 167 225.502Z" fill="white" fill-opacity="0.95"/>
<path d="M1171 507.002L1170.86 522.194L1173.36 521.81L1173.5 507.002H1172H1171Z" fill="url(#paint9_linear_307_1778)"/>
<path d="M1171 505.002C1171 505.802 1171.67 506.752 1172 507.002C1174 505.002 1172.5 502.669 1172 502.002C1172 502.802 1171 504.502 1171 505.002Z" fill="url(#paint10_linear_307_1778)"/>
<path d="M1171 505.002C1171 505.802 1171.67 506.752 1172 507.002C1174 505.002 1172.5 502.669 1172 502.002C1172 502.802 1171 504.502 1171 505.002Z" fill="white" fill-opacity="0.95"/>
<path fill-rule="evenodd" clip-rule="evenodd" d="M538.363 141.502L420.363 0.50208L0 0.501953V1041H1440L1439.86 120.502L1383.86 140.502L1358.36 123.502C1339.15 132.61 1304.46 150.873 1304.36 151.497C1303.17 147.498 1303.7 142.5 1305.86 140.502L1304.36 134.002H1280.86L1271.36 140.502L1269.86 146.502L1274.86 148.002V164.502L1242.36 181.502H1216.36C1213.86 183.002 1208.86 185.902 1208.86 185.502C1206.86 187.502 1208.36 194.002 1208.86 194.002C1211.26 194.002 1212.2 195.669 1212.36 196.502L1199.86 202.502C1200.26 200.102 1198.36 197.502 1197.36 196.502C1188.56 194.902 1177.7 171.502 1173.36 160.002C1176.16 154.002 1173.53 150.169 1171.86 149.002L1174.36 101.002L1180.36 94.0021H1175.86H1171.86L1169.86 98.5021L1168.36 101.002V105.002L1171.86 103.502L1169.86 147.502C1164.36 153.502 1167.86 160.502 1168.36 160.002C1165.96 176.802 1145.36 197.335 1135.36 205.502C1132.56 202.702 1125.2 202.669 1121.86 203.002L1119.86 191.502H1091.36C1086.16 198.302 1084.86 224.002 1084.86 236.002C1083.64 236.959 1082.13 237.864 1080.62 238.768C1077.41 240.698 1074.2 242.618 1073.86 245.002C1073.86 246.505 1074.57 249.818 1075.42 253.828L1075.43 253.841L1075.43 253.842C1076.85 260.507 1078.68 269.094 1078.36 274.502L1071.36 281.002C1071.36 281.002 1060.36 281.502 1057.36 284.002C1054.36 286.502 1052.86 290.835 1054.86 292.002L995.363 335.002C988.863 335.002 987.363 336.502 987.363 338.502C987.363 344.002 981.197 350.169 975.863 353.002H940.363V381.002L922.863 392.502C923.263 400.102 930.363 407.002 933.863 409.502V437.502C930.263 447.902 919.363 448.835 914.363 448.002V383.002C914.363 383.002 919.363 378.002 919.363 371.502C919.363 365.002 917.863 360.502 914.363 360.502V273.002C918.763 268.202 916.197 263.335 914.363 261.502L904.863 257.002C903.263 245.802 895.53 236.335 890.363 233.002C886.363 224.202 885.03 192.335 885.863 177.502C889.863 174.302 887.863 170.502 885.863 169.002V167.002C888.663 164.602 889.863 162.002 888.363 159.502C888.763 152.702 880.363 149.002 876.363 148.502C874.363 148.502 873.197 144.835 872.863 143.002L866.541 105.502H865.363L865.541 102.002C866.341 101.602 866.875 99.8354 867.041 99.0021C867.041 95.8021 866.697 95.6687 865.363 96.0021C862.163 98.0021 864.03 100.835 865.363 102.002V105.502H864.363L857.685 143.502C857.283 147.527 854.613 148.204 852.804 148.663C852.366 148.774 851.978 148.872 851.685 149.002C844.685 149.502 841.352 156.502 842.185 159.502C839.385 162.702 841.019 165.502 842.185 167.002V169.002C838.358 172.447 840.715 174.813 842.231 176.335C842.695 176.801 843.081 177.188 843.185 177.502C845.185 183.502 844.363 222.502 840.363 233.002C831.163 238.202 825.53 251.169 823.863 257.002C823.305 257.174 822.734 257.343 822.157 257.515C817.36 258.939 812.149 260.485 810.363 264.502C808.863 270.002 811.863 273.002 813.363 273.002V361.502C808.563 364.302 807.03 369.335 806.863 371.502C806.463 377.902 810.363 381.835 812.363 383.002L813.863 448.002H795.363V463.502C793.363 464.702 794.53 469.002 795.363 471.002C797.763 475.802 796.363 524.669 795.363 548.502V567.002V575.502C793.834 573.973 785.476 570.088 778.04 566.632L778.037 566.63L778.036 566.63C771.857 563.758 766.317 561.183 765.863 560.502C764.863 559.002 765.363 555.502 765.363 555.502H757.363V559.002L751.363 562.002V539.502C751.363 539.502 749.363 526.002 735.863 524.002L734.655 495.891L734.653 495.354L734.363 488.502L734.166 495.502L734.149 496.116L733.363 524.002C719.363 526.502 717.363 539.502 717.363 539.502V563.502H702.363V553.002H665.863H653.863H632.363V531.502C631.563 523.502 613.53 520.502 605.363 520.002L610.863 510.502L603.363 499.502C598.863 489.002 610.863 474.502 610.863 474.502C610.863 474.502 618.53 440.002 619.363 427.502C619.363 427.502 622.363 423.502 622.363 418.502C622.363 413.502 617.832 410.158 611.363 406.502C611.213 406.417 611.06 406.331 610.904 406.243C610.752 406.158 610.598 406.072 610.443 405.985L610.092 405.789C608.234 404.751 606.363 403.705 606.363 403.502C604.672 402.656 604.769 394.654 604.839 388.879C604.852 387.827 604.863 386.849 604.863 386.002C604.863 381.602 601.03 378.502 598.863 377.502L597.863 359.002H595.863L594.363 377.502C594.363 377.502 587.863 380.502 587.863 386.002C587.863 388.125 588.062 390.844 588.258 393.526L588.258 393.529C588.57 397.795 588.875 401.967 588.363 403.502C587.055 404.355 585.844 405.138 584.722 405.862L584.718 405.865C575.984 411.503 572.693 413.629 571.363 418.502C570.363 423.002 572.363 425.502 574.363 427.502L582.363 474.502C590.363 480.902 591.363 493.835 590.863 499.502L582.863 510.502L588.863 520.002H561.863C561.863 520.002 563.363 455.502 561.863 454.002C560.363 452.502 528.863 454.002 528.863 454.002L514.363 441.002L512.863 412.002L514.363 379.002L516.863 374.002L509.863 329.502L514.363 324.002L511.363 314.502L514.863 210.002L545.863 173.002V167.002H548.363V163.002H541.363C543.363 161.335 547.963 156.302 550.363 149.502C552.763 142.702 543.363 141.335 538.363 141.502ZM863.363 281.002C849.763 281.002 851.697 319.335 854.363 338.502H873.863C877.463 326.902 876.363 303.002 875.363 292.502C874.563 282.502 866.53 280.669 863.363 281.002ZM823.863 341.502C822.363 323.335 821.463 286.702 829.863 285.502C830.363 285.502 840.363 286.002 840.363 338.502C836.863 339.502 828.663 341.502 823.863 341.502ZM896.863 281.002C885.663 283.002 888.863 320.169 891.863 338.502H904.863V307.002C904.863 287.002 899.53 281.335 896.863 281.002ZM858.363 436.502L857.863 396.002C857.863 396.002 858.863 389.502 865.363 389.502C871.363 389.502 872.363 396.002 872.363 396.002V436.502H858.363ZM130.863 264.073L106.363 260.502L108.363 137.502C114.363 93.1021 156.859 84.1526 177.363 86.5021C225.363 92.0021 229.863 136.502 229.863 137.502V278.502L174.863 270.486L165.363 269.101L130.863 264.073ZM805.363 526.002C805.763 530.002 808.863 531.002 810.363 531.002C814.363 531.002 815.697 527.669 815.863 526.002L814.863 483.002C812.463 480.602 810.863 475.335 810.363 473.002C807.163 473.402 805.697 478.835 805.363 481.502V526.002ZM918.363 495.502C918.363 493.502 918.863 490.002 922.363 490.002C925.863 490.002 925.863 495.502 925.863 495.502V531.002C925.863 532.002 925.163 535.002 922.363 535.002C919.563 535.002 918.53 532.335 918.363 531.002V495.502ZM394.863 354.502V210.002C395.03 206.835 396.863 198.502 406.863 198.502C416.863 198.502 420.363 212.202 420.363 219.002V374.002L394.863 354.502ZM1052.86 362.002V412.002L1061.36 407.002V365.002C1061.36 354.602 1058.86 352.002 1057.36 352.002C1053.76 352.002 1052.7 358.669 1052.86 362.002ZM1035.86 421.502V374.002C1035.7 370.669 1036.66 364.002 1039.86 364.002C1042.36 364.002 1043.86 366.302 1043.86 375.502V417.002L1035.86 421.502ZM1018.36 382.502V432.002L1026.86 426.502V382.502C1026.86 376.502 1024.62 375.002 1022.86 375.002C1019.86 375.002 1018.53 380.335 1018.36 382.502ZM1131.86 436.002V529.002L1145.86 527.002V430.502C1145.86 430.502 1144.36 425.502 1140.36 425.502C1131.85 425.502 1131.86 436.002 1131.86 436.002ZM1162.36 421.502V523.502L1170.86 522.194L1173.36 521.81L1181.86 520.502V415.002C1181.86 415.002 1180.36 411.002 1172.36 411.002C1164.36 411.002 1162.36 421.502 1162.36 421.502ZM1193.86 406.502V518.502L1213.36 515.502V399.002C1213.36 399.002 1213.86 393.502 1205.86 393.502C1204.97 393.502 1204.14 393.617 1203.36 393.826C1195.91 395.834 1193.86 406.502 1193.86 406.502ZM1106.86 330.502C1108.06 326.102 1110.36 324.002 1112.86 324.002C1115.36 324.002 1117.36 325.802 1117.36 327.002V343.002L1106.86 348.502V330.502ZM82.1788 999.002V714.502C91.6788 689.169 126.179 632.502 196.679 632.502C229.195 632.502 254.399 644.806 272.669 660.002C297.664 680.791 309.679 706.992 309.679 714.502C309.679 723.169 309.676 726.502 309.671 731.829V731.834L309.671 731.983C309.669 734.614 309.666 737.742 309.663 742.23C309.625 797.189 309.545 926.056 309.679 999.002H261.679H139.179H82.1788ZM1350.66 691.636C1350.66 676.636 1306.36 633.49 1243.86 632.002C1181.36 630.514 1143.66 669.47 1137.16 691.636L1112.16 996.636H1172.16H1314.66H1356.66C1357.25 945.876 1353.99 822.79 1352.04 749.081C1351.24 718.723 1350.66 696.741 1350.66 691.636ZM439.863 382.002V231.502C440.697 227.335 444.363 219.002 452.363 219.002C456.03 220.169 463.563 226.002 464.363 240.002C463.963 240.002 464.197 349.002 464.363 403.502L439.863 382.002ZM583.363 448.002C583.365 455.002 586.823 467.512 590.835 471.801C591.74 472.769 595.269 473.985 596.363 474.502C596.363 474.502 597.363 475.002 597.863 475.002C598.363 475.002 599.363 474.502 599.363 474.502C600.462 474.162 603.597 472.788 604.5 472.002C609.132 467.969 611.5 453.002 611.5 448.002C611.5 443.002 610.863 434.502 608.863 429.91C607.93 425.354 606.415 421.146 602.573 419.425C601.496 418.943 600.266 418.635 598.863 418.536C598.539 418.514 598.206 418.502 597.863 418.502C597.292 418.502 596.891 418.416 596.548 418.342C595.993 418.223 595.59 418.137 594.863 418.502C593.728 419.073 592.234 419.514 591.363 420.502C589.454 422.669 587.153 426.507 586.31 429.709C584.929 434.948 583.362 441.002 583.363 448.002Z" fill="url(#paint11_linear_307_1778)"/>
<path d="M591.363 420.502C590.679 423.143 589.198 426.85 588.723 429.94C586.446 440.301 587.31 457.9 590.835 471.801C591.74 472.769 595.269 473.985 596.363 474.502C593.863 445.852 594.905 439.746 595.5 430.14C595.784 425.561 594.29 421.738 594.863 418.502C593.728 419.073 592.234 419.514 591.363 420.502Z" fill="url(#paint12_linear_307_1778)"/>
<path d="M604.5 472.002C607 459.002 608.5 443.502 604.5 429.64C604.5 425.492 602.922 422.227 602.573 419.425C601.496 418.943 600.266 418.635 598.863 418.536C599.128 419.603 598.798 423.9 599 430.14C600.298 440.246 600.661 462.502 599.363 474.502C600.462 474.162 603.597 472.788 604.5 472.002Z" fill="url(#paint13_linear_307_1778)"/>
<path d="M586.31 429.709C587.044 429.793 587.94 429.87 588.723 429.94C589.198 426.85 590.679 423.143 591.363 420.502C589.454 422.669 587.153 426.507 586.31 429.709Z" fill="url(#paint14_linear_307_1778)"/>
<path d="M598.863 418.536C598.539 418.514 598.206 418.502 597.863 418.502C597.292 418.502 596.891 418.416 596.548 418.342C595.993 418.223 595.59 418.137 594.863 418.502C594.29 421.738 595.784 425.561 595.5 430.14C595.834 430.152 596.381 430.14 597.5 430.14C598.289 430.118 598.775 430.151 599 430.14C598.798 423.9 599.128 419.603 598.863 418.536Z" fill="url(#paint15_linear_307_1778)"/>
<path d="M604.5 429.64C605.367 429.577 606.009 429.683 606.645 429.789C607.341 429.905 607.893 430.02 608.863 429.91C607.93 425.354 606.415 421.146 602.573 419.425C602.922 422.227 604.5 425.492 604.5 429.64Z" fill="url(#paint16_linear_307_1778)"/>
<path d="M596.363 474.502L597.863 475.002L599.363 474.502C600.661 462.502 600.298 440.246 599 430.14C598.775 430.151 598.289 430.118 597.5 430.14C596.381 430.14 595.834 430.152 595.5 430.14C594.905 439.746 593.863 445.852 596.363 474.502Z" fill="url(#paint17_linear_307_1778)"/>
<path d="M596.363 474.502L597.863 475.002L599.363 474.502C600.661 462.502 600.298 440.246 599 430.14C598.775 430.151 598.289 430.118 597.5 430.14C596.381 430.14 595.834 430.152 595.5 430.14C594.905 439.746 593.863 445.852 596.363 474.502Z" fill="white" fill-opacity="0.9"/>
<path d="M583.363 448.002C583.365 455.002 586.823 467.512 590.835 471.801C587.31 457.9 586.446 440.301 588.723 429.94C587.94 429.87 587.044 429.793 586.31 429.709C584.929 434.948 583.362 441.002 583.363 448.002Z" fill="url(#paint18_linear_307_1778)"/>
<path d="M583.363 448.002C583.365 455.002 586.823 467.512 590.835 471.801C587.31 457.9 586.446 440.301 588.723 429.94C587.94 429.87 587.044 429.793 586.31 429.709C584.929 434.948 583.362 441.002 583.363 448.002Z" fill="white" fill-opacity="0.9"/>
<path d="M611.5 448.002C611.5 443.002 610.863 434.502 608.863 429.91C607.893 430.02 607.341 429.905 606.645 429.789C606.009 429.683 605.367 429.577 604.5 429.64C608.5 443.502 607 459.002 604.5 472.002C609.132 467.969 611.5 453.002 611.5 448.002Z" fill="url(#paint19_linear_307_1778)"/>
<path d="M611.5 448.002C611.5 443.002 610.863 434.502 608.863 429.91C607.893 430.02 607.341 429.905 606.645 429.789C606.009 429.683 605.367 429.577 604.5 429.64C608.5 443.502 607 459.002 604.5 472.002C609.132 467.969 611.5 453.002 611.5 448.002Z" fill="white" fill-opacity="0.9"/>
<defs>
<linearGradient id="paint0_linear_307_1778" x1="719.001" y1="968" x2="720" y2="2553.5" gradientUnits="userSpaceOnUse">
<stop/>
<stop offset="0.549196" stop-color="#5B5B5B"/>
<stop offset="0.904788"/>
</linearGradient>
<linearGradient id="paint1_linear_307_1778" x1="719.001" y1="968" x2="720" y2="2553.5" gradientUnits="userSpaceOnUse">
<stop/>
<stop offset="0.549196" stop-color="#5B5B5B"/>
<stop offset="0.904788"/>
</linearGradient>
<linearGradient id="paint2_linear_307_1778" x1="719.001" y1="968" x2="720" y2="2553.5" gradientUnits="userSpaceOnUse">
<stop/>
<stop offset="0.549196" stop-color="#5B5B5B"/>
<stop offset="0.904788"/>
</linearGradient>
<linearGradient id="paint3_linear_307_1778" x1="719.001" y1="968" x2="720" y2="2553.5" gradientUnits="userSpaceOnUse">
<stop/>
<stop offset="0.549196" stop-color="#5B5B5B"/>
<stop offset="0.904788"/>
</linearGradient>
<linearGradient id="paint4_linear_307_1778" x1="719.001" y1="968" x2="720" y2="2553.5" gradientUnits="userSpaceOnUse">
<stop/>
<stop offset="0.549196" stop-color="#5B5B5B"/>
<stop offset="0.904788"/>
</linearGradient>
<linearGradient id="paint5_linear_307_1778" x1="719.001" y1="968" x2="720" y2="2553.5" gradientUnits="userSpaceOnUse">
<stop/>
<stop offset="0.549196" stop-color="#5B5B5B"/>
<stop offset="0.904788"/>
</linearGradient>
<linearGradient id="paint6_linear_307_1778" x1="719.001" y1="968" x2="720" y2="2553.5" gradientUnits="userSpaceOnUse">
<stop/>
<stop offset="0.549196" stop-color="#5B5B5B"/>
<stop offset="0.904788"/>
</linearGradient>
<linearGradient id="paint7_linear_307_1778" x1="719.001" y1="968" x2="720" y2="2553.5" gradientUnits="userSpaceOnUse">
<stop/>
<stop offset="0.549196" stop-color="#5B5B5B"/>
<stop offset="0.904788"/>
</linearGradient>
<linearGradient id="paint8_linear_307_1778" x1="720.5" y1="397.851" x2="720.669" y2="1049.01" gradientUnits="userSpaceOnUse">
<stop/>
<stop offset="0.549196"/>
<stop offset="0.904788"/>
</linearGradient>
<linearGradient id="paint9_linear_307_1778" x1="719.001" y1="968" x2="720" y2="2553.5" gradientUnits="userSpaceOnUse">
<stop/>
<stop offset="0.549196" stop-color="#5B5B5B"/>
<stop offset="0.904788"/>
</linearGradient>
<linearGradient id="paint10_linear_307_1778" x1="720.5" y1="397.851" x2="720.669" y2="1049.01" gradientUnits="userSpaceOnUse">
<stop/>
<stop offset="0.549196"/>
<stop offset="0.904788"/>
</linearGradient>
<linearGradient id="paint11_linear_307_1778" x1="719.001" y1="968" x2="720" y2="2553.5" gradientUnits="userSpaceOnUse">
<stop/>
<stop offset="0.549196" stop-color="#5B5B5B"/>
<stop offset="0.904788"/>
</linearGradient>
<linearGradient id="paint12_linear_307_1778" x1="719.001" y1="968" x2="720" y2="2553.5" gradientUnits="userSpaceOnUse">
<stop/>
<stop offset="0.549196" stop-color="#5B5B5B"/>
<stop offset="0.904788"/>
</linearGradient>
<linearGradient id="paint13_linear_307_1778" x1="719.001" y1="968" x2="720" y2="2553.5" gradientUnits="userSpaceOnUse">
<stop/>
<stop offset="0.549196" stop-color="#5B5B5B"/>
<stop offset="0.904788"/>
</linearGradient>
<linearGradient id="paint14_linear_307_1778" x1="719.001" y1="968" x2="720" y2="2553.5" gradientUnits="userSpaceOnUse">
<stop/>
<stop offset="0.549196" stop-color="#5B5B5B"/>
<stop offset="0.904788"/>
</linearGradient>
<linearGradient id="paint15_linear_307_1778" x1="719.001" y1="968" x2="720" y2="2553.5" gradientUnits="userSpaceOnUse">
<stop/>
<stop offset="0.549196" stop-color="#5B5B5B"/>
<stop offset="0.904788"/>
</linearGradient>
<linearGradient id="paint16_linear_307_1778" x1="719.001" y1="968" x2="720" y2="2553.5" gradientUnits="userSpaceOnUse">
<stop/>
<stop offset="0.549196" stop-color="#5B5B5B"/>
<stop offset="0.904788"/>
</linearGradient>
<linearGradient id="paint17_linear_307_1778" x1="720.5" y1="397.851" x2="720.669" y2="1049.01" gradientUnits="userSpaceOnUse">
<stop/>
<stop offset="0.549196"/>
<stop offset="0.904788"/>
</linearGradient>
<linearGradient id="paint18_linear_307_1778" x1="720.5" y1="397.851" x2="720.669" y2="1049.01" gradientUnits="userSpaceOnUse">
<stop/>
<stop offset="0.549196"/>
<stop offset="0.904788"/>
</linearGradient>
<linearGradient id="paint19_linear_307_1778" x1="720.5" y1="397.851" x2="720.669" y2="1049.01" gradientUnits="userSpaceOnUse">
<stop/>
<stop offset="0.549196"/>
<stop offset="0.904788"/>
</linearGradient>
</defs>
</svg>
