<svg width="1440" height="1041" viewBox="0 0 1440 1041" fill="none" xmlns="http://www.w3.org/2000/svg">
<path d="M83.1787 714V998.5H140.179C141.679 926.5 98.8154 842 98.8154 828C101.315 816 103.315 816.5 111.815 804C136.815 783 182.845 670.833 197.679 632C127.179 632 92.6787 688.667 83.1787 714Z" fill="url(#paint0_linear_315_2447)"/>
<path d="M310.679 998.5C310.545 925.554 310.625 796.687 310.663 741.728C310.666 737.24 310.669 734.112 310.671 731.481C310.671 731.431 310.671 731.381 310.671 731.332V731.327C310.676 726 310.679 722.667 310.679 714C310.679 706.49 298.664 680.289 273.669 659.5C255.399 644.304 230.195 632 197.679 632C214.179 670.667 256.48 742.848 288.315 771.5C300.315 782.3 297.815 788.5 290.315 811.5C276.922 852.574 262.679 915 262.679 998.5H310.679Z" fill="url(#paint1_linear_315_2447)"/>
<path d="M178.363 86C157.859 83.6505 115.363 92.6 109.363 137L107.363 260L131.863 263.571C131.863 212.142 119 184 119 183.5C115.5 176.5 111.5 174 119 167.5C125.4 161.5 161.53 110.667 178.363 86Z" fill="url(#paint2_linear_315_2447)"/>
<path d="M735.166 495L731.5 496.5L731.497 497.114L735.149 495.614L735.166 495Z" fill="url(#paint3_linear_315_2447)"/>
<path d="M735.655 495.388L737.5 494V493.5L735.653 494.852L735.655 495.388Z" fill="url(#paint4_linear_315_2447)"/>
<path d="M1138.16 691.134L1113.16 996.134H1173.16C1173.16 964.634 1143.79 788.134 1142.29 780.634C1140.79 773.134 1142.29 765.185 1148.79 755.634C1168.39 726.834 1232.86 660.167 1244.86 631.5C1182.36 630.012 1144.66 668.968 1138.16 691.134Z" fill="url(#paint5_linear_315_2447)"/>
<path d="M1351.66 691.134C1351.66 676.134 1307.36 632.988 1244.86 631.5C1259.7 673.333 1305.29 757.691 1327.29 783.691C1330.28 789.165 1332.78 800.682 1327.29 814.634C1314.63 836.468 1314.86 947.334 1315.66 996.134H1357.66C1358.25 945.373 1354.99 822.288 1353.04 748.579C1353.04 748.557 1353.04 748.535 1353.04 748.513C1352.24 718.19 1351.66 696.236 1351.66 691.134Z" fill="url(#paint6_linear_315_2447)"/>
<path d="M165.5 234.5L166.363 268.599L175.863 269.984L175 236.136L170.25 235.318L165.5 234.5Z" fill="url(#paint7_linear_315_2447)"/>
<path d="M167 225C164.6 229.8 168.5 234.379 170.25 235.318C176.05 229.972 170.917 219.379 168.5 216.5C168.5 219 167 224.5 167 225Z" fill="url(#paint8_linear_315_2447)"/>
<path d="M167 225C164.6 229.8 168.5 234.379 170.25 235.318C176.05 229.972 170.917 219.379 168.5 216.5C168.5 219 167 224.5 167 225Z" fill="white" fill-opacity="0.95"/>
<path d="M1171 506.5L1171.86 521.692L1174.36 521.308L1173.5 506.5H1172H1171Z" fill="url(#paint9_linear_315_2447)"/>
<path d="M1171 504.5C1171 505.3 1171.67 506.25 1172 506.5C1174 504.5 1172.5 502.167 1172 501.5C1172 502.3 1171 504 1171 504.5Z" fill="url(#paint10_linear_315_2447)"/>
<path d="M1171 504.5C1171 505.3 1171.67 506.25 1172 506.5C1174 504.5 1172.5 502.167 1172 501.5C1172 502.3 1171 504 1171 504.5Z" fill="white" fill-opacity="0.95"/>
<path d="M592.363 420C591.679 422.641 589.198 426.348 588.723 429.438C586.446 439.799 588.309 457.398 591.834 471.299C592.504 472.015 594.609 472.867 596.103 473.471C596.629 473.683 597.078 473.865 597.363 474C594.863 445.35 594.905 439.244 595.5 429.638C595.784 425.059 595.29 421.236 595.863 418C595.569 418.148 595.251 418.287 594.926 418.429C593.996 418.836 593.009 419.268 592.363 420Z" fill="url(#paint11_linear_315_2447)"/>
<path d="M605.5 471.5C608 458.5 608.5 443 604.5 429.137C604.5 424.99 603.922 421.724 603.573 418.923C602.496 418.441 601.266 418.133 599.863 418.034C600.128 419.101 598.798 423.398 599 429.638C600.298 439.744 601.661 462 600.363 474C601.462 473.66 604.597 472.286 605.5 471.5Z" fill="url(#paint12_linear_315_2447)"/>
<path d="M587.309 429.207C588.044 429.291 587.94 429.368 588.723 429.438C589.198 426.348 591.679 422.641 592.363 420C590.453 422.166 588.153 426.005 587.309 429.207Z" fill="url(#paint13_linear_315_2447)"/>
<path d="M599.863 418.034C599.539 418.012 599.206 418 598.863 418C598.292 418 597.891 417.914 597.548 417.84C596.993 417.721 596.59 417.634 595.863 418C595.29 421.236 595.784 425.059 595.5 429.638C595.834 429.65 596.381 429.638 597.5 429.638C598.289 429.616 598.775 429.649 599 429.638C598.798 423.398 600.128 419.101 599.863 418.034Z" fill="url(#paint14_linear_315_2447)"/>
<path d="M604.5 429.137C605.367 429.075 606.009 429.181 606.645 429.287C607.341 429.403 608.893 429.518 609.863 429.408C608.93 424.852 607.414 420.644 603.573 418.923C603.922 421.724 604.5 424.99 604.5 429.137Z" fill="url(#paint15_linear_315_2447)"/>
<path d="M597.363 474L598.863 474.5L600.363 474C601.661 462 600.298 439.744 599 429.638C598.775 429.649 598.289 429.616 597.5 429.638C596.381 429.638 595.834 429.65 595.5 429.638C594.905 439.244 594.863 445.35 597.363 474Z" fill="url(#paint16_linear_315_2447)"/>
<path d="M597.363 474L598.863 474.5L600.363 474C601.661 462 600.298 439.744 599 429.638C598.775 429.649 598.289 429.616 597.5 429.638C596.381 429.638 595.834 429.65 595.5 429.638C594.905 439.244 594.863 445.35 597.363 474Z" fill="white" fill-opacity="0.9"/>
<path d="M584.363 447.5C584.365 454.5 587.822 467.01 591.834 471.299C588.309 457.398 586.446 439.799 588.723 429.438C587.94 429.368 588.044 429.291 587.309 429.207C585.929 434.446 584.362 440.5 584.363 447.5Z" fill="url(#paint17_linear_315_2447)"/>
<path d="M584.363 447.5C584.365 454.5 587.822 467.01 591.834 471.299C588.309 457.398 586.446 439.799 588.723 429.438C587.94 429.368 588.044 429.291 587.309 429.207C585.929 434.446 584.362 440.5 584.363 447.5Z" fill="white" fill-opacity="0.9"/>
<path d="M612.5 447.5C612.5 442.5 611.863 434 609.863 429.408C608.893 429.518 607.341 429.403 606.645 429.287C606.009 429.181 605.367 429.075 604.5 429.137C608.5 443 608 458.5 605.5 471.5C610.132 467.467 612.5 452.5 612.5 447.5Z" fill="url(#paint18_linear_315_2447)"/>
<path d="M612.5 447.5C612.5 442.5 611.863 434 609.863 429.408C608.893 429.518 607.341 429.403 606.645 429.287C606.009 429.181 605.367 429.075 604.5 429.137C608.5 443 608 458.5 605.5 471.5C610.132 467.467 612.5 452.5 612.5 447.5Z" fill="white" fill-opacity="0.9"/>
<path fill-rule="evenodd" clip-rule="evenodd" d="M421.363 0L539.363 141C544.363 140.833 553.763 142.2 551.363 149C548.963 155.8 544.363 160.833 542.363 162.5H549.363V166.5H546.863V172.5L515.863 209.5L512.363 314L515.363 323.5L510.863 329L517.863 373.5L515.363 378.5L513.863 411.5L515.363 440.5L529.863 453.5C529.863 453.5 561.363 452 562.863 453.5C564.363 455 562.863 519.5 562.863 519.5H589.863L583.863 510L591.863 499C592.363 493.333 591.363 480.4 583.363 474L575.363 427C573.363 425 571.363 422.5 572.363 418C573.692 413.127 576.984 411.001 585.717 405.362L585.722 405.36C586.844 404.635 588.055 403.853 589.363 403C589.875 401.465 589.57 397.293 589.258 393.027L589.258 393.024C589.062 390.342 588.863 387.623 588.863 385.5C588.863 380 595.363 377 595.363 377L596.863 358.5H598.863L599.863 377C602.03 378 605.863 381.1 605.863 385.5C605.863 386.347 605.852 387.325 605.839 388.377C605.769 394.152 605.672 402.154 607.363 403C607.363 403.203 609.234 404.249 611.092 405.287L611.443 405.483C611.598 405.57 611.752 405.656 611.904 405.741C612 405.795 612.096 405.849 612.19 405.902L612.363 406C618.832 409.656 623.363 413 623.363 418C623.363 423 620.363 427 620.363 427C619.53 439.5 611.863 474 611.863 474C611.863 474 599.863 488.5 604.363 499L611.863 510L606.363 519.5C614.53 520 632.563 523 633.363 531V552.5H654.863H666.863H703.363V563H718.363V539C718.363 539 720.363 526 734.363 523.5L735.149 495.614L735.166 495L735.363 488L735.653 494.852L735.655 495.388L736.863 523.5C750.363 525.5 752.363 539 752.363 539V561.5L758.363 558.5V555H766.363C766.363 555 765.863 558.5 766.863 560C767.317 560.681 772.855 563.255 779.033 566.126L779.036 566.128L779.037 566.128L779.04 566.13C786.476 569.586 794.834 573.471 796.363 575V566.5V548C797.363 524.167 798.763 475.3 796.363 470.5C795.53 468.5 794.363 464.2 796.363 463V447.5H814.863L813.363 382.5C811.363 381.333 807.463 377.4 807.863 371C808.03 368.833 809.563 363.8 814.363 361V272.5C812.863 272.5 809.863 269.5 811.363 264C813.149 259.983 818.36 258.436 823.157 257.013C823.734 256.841 824.305 256.672 824.863 256.5C826.53 250.667 832.163 237.7 841.363 232.5C845.363 222 846.185 183 844.185 177C844.081 176.685 843.695 176.299 843.231 175.832C841.714 174.311 839.358 171.945 843.185 168.5V166.5C842.019 165 840.385 162.2 843.185 159C842.352 156 845.685 149 852.685 148.5C852.978 148.37 853.366 148.272 853.804 148.16C855.613 147.702 858.283 147.025 858.685 143L865.363 105H866.363H867.541L873.863 142.5C874.197 144.333 875.363 148 877.363 148C881.363 148.5 889.763 152.2 889.363 159C890.863 161.5 889.663 164.1 886.863 166.5V168.5C888.863 170 890.863 173.8 886.863 177C886.03 191.833 887.363 223.7 891.363 232.5C896.53 235.833 904.263 245.3 905.863 256.5L915.363 261C917.197 262.833 919.763 267.7 915.363 272.5V360C918.863 360 920.363 364.5 920.363 371C920.363 377.5 915.363 382.5 915.363 382.5V447.5C920.363 448.333 931.263 447.4 934.863 437V409C931.363 406.5 924.263 399.6 923.863 392L941.363 380.5V352.5H976.863C982.197 349.667 988.363 343.5 988.363 338C988.363 336 989.863 334.5 996.363 334.5L1055.86 291.5C1053.86 290.333 1055.36 286 1058.36 283.5C1061.36 281 1072.36 280.5 1072.36 280.5L1079.36 274C1079.68 268.592 1077.85 260.005 1076.43 253.34L1076.43 253.339L1076.42 253.326C1075.57 249.316 1074.86 246.002 1074.86 244.5C1075.2 242.116 1078.41 240.196 1081.62 238.266C1083.13 237.362 1084.64 236.457 1085.86 235.5C1085.86 223.5 1087.16 197.8 1092.36 191H1120.86L1122.86 202.5C1126.2 202.167 1133.56 202.2 1136.36 205C1146.36 196.833 1166.96 176.3 1169.36 159.5C1168.86 160 1165.36 153 1170.86 147L1172.86 103L1169.36 104.5V100.5L1170.86 98L1172.86 93.5H1176.86H1181.36L1175.36 100.5L1172.86 148.5C1174.53 149.667 1177.16 153.5 1174.36 159.5C1178.7 171 1189.56 194.4 1198.36 196C1199.36 197 1201.26 199.6 1200.86 202L1213.36 196C1213.2 195.167 1212.26 193.5 1209.86 193.5C1209.36 193.5 1207.86 187 1209.86 185C1209.86 185.4 1214.86 182.5 1217.36 181H1243.36L1275.86 164V147.5L1270.86 146L1272.36 140L1281.86 133.5H1305.36L1306.86 140C1304.7 141.998 1304.17 146.996 1305.36 150.995C1305.46 150.371 1340.15 132.108 1359.36 123L1384.86 140L1440.86 120L1441 1040.5H1L-2.13672 0H421.363ZM866.363 105V101.5C865.03 100.333 863.163 97.5 866.363 95.5C867.697 95.1667 868.041 95.3 868.041 98.5C867.875 99.3333 867.341 101.1 866.541 101.5L866.363 105ZM833.137 284.996C824.737 286.196 824.5 322.831 826 340.998C830.8 340.998 837.863 339 841.363 338C841.363 285.5 837.137 284.996 833.137 284.996ZM891.5 338C890 319.998 888.5 284.964 898.5 284.964C909.5 284.964 905.679 340.966 905.679 340.966L891.5 338ZM858.863 395.5L859.363 436H873.363V395.5C873.363 395.5 872.363 389 866.363 389C859.863 389 858.863 395.5 858.863 395.5ZM107.363 260L131.863 263.571L166.363 268.599L175.863 269.984L230.863 278V137C230.863 136 226.363 91.5 178.363 86C157.859 83.6505 115.363 92.6 109.363 137L107.363 260ZM811.363 530.5C809.863 530.5 806.763 529.5 806.363 525.5V481C806.697 478.333 808.163 472.9 811.363 472.5C811.863 474.833 813.463 480.1 815.863 482.5L816.863 525.5C816.697 527.167 815.363 530.5 811.363 530.5ZM923.363 489.5C919.863 489.5 919.363 493 919.363 495V530.5C919.53 531.833 920.563 534.5 923.363 534.5C926.163 534.5 926.863 531.5 926.863 530.5V495C926.863 495 926.863 489.5 923.363 489.5ZM395.863 209.5V354L421.363 373.5V218.5C421.363 211.7 417.863 198 407.863 198C397.863 198 396.03 206.333 395.863 209.5ZM1053.86 411.5V361.5C1053.7 358.167 1054.76 351.5 1058.36 351.5C1059.86 351.5 1062.36 354.1 1062.36 364.5V406.5L1053.86 411.5ZM1036.86 373.5V421L1044.86 416.5V375C1044.86 365.8 1043.36 363.5 1040.86 363.5C1037.66 363.5 1036.7 370.167 1036.86 373.5ZM1019.36 431.5V382C1019.53 379.833 1020.86 374.5 1023.86 374.5C1025.62 374.5 1027.86 376 1027.86 382V426L1019.36 431.5ZM1132.86 528.5V435.5C1132.86 435.5 1132.85 425 1141.36 425C1145.36 425 1146.86 430 1146.86 430V526.5L1132.86 528.5ZM1163.36 523V421C1163.36 421 1165.36 410.5 1173.36 410.5C1181.36 410.5 1182.86 414.5 1182.86 414.5V520L1174.36 521.308L1171.86 521.692L1163.36 523ZM1194.86 518V406C1194.86 406 1196.91 395.332 1204.36 393.324C1205.14 393.115 1205.97 393 1206.86 393C1214.86 393 1214.36 398.5 1214.36 398.5V515L1194.86 518ZM1113.86 323.5C1111.36 323.5 1109.06 325.6 1107.86 330V348L1118.36 342.5V326.5C1118.36 325.3 1116.36 323.5 1113.86 323.5ZM83.1787 714V998.5H140.179H262.679H310.679C310.545 925.554 310.625 796.687 310.663 741.728C310.666 737.24 310.669 734.112 310.671 731.481L310.671 731.332V731.327C310.676 726 310.679 722.667 310.679 714C310.679 706.49 298.664 680.289 273.669 659.5C255.399 644.304 230.195 632 197.679 632C127.179 632 92.6787 688.667 83.1787 714ZM1244.86 631.5C1307.36 632.988 1351.66 676.134 1351.66 691.134C1351.66 696.236 1352.24 718.19 1353.04 748.513L1353.04 748.579C1354.99 822.288 1358.25 945.373 1357.66 996.134H1315.66H1173.16H1113.16L1138.16 691.134C1144.66 668.968 1182.36 630.012 1244.86 631.5ZM440.863 231V381.5L465.363 403C465.197 348.5 464.963 239.5 465.363 239.5C464.563 225.5 457.03 219.667 453.363 218.5C445.363 218.5 441.697 226.833 440.863 231ZM591.834 471.299C587.822 467.01 584.365 454.5 584.363 447.5C584.362 440.5 585.929 434.446 587.309 429.207C588.153 426.005 590.453 422.166 592.363 420C593.009 419.268 593.996 418.836 594.926 418.429C595.251 418.287 595.569 418.148 595.863 418C596.59 417.634 596.993 417.721 597.548 417.84C597.891 417.914 598.292 418 598.863 418C599.206 418 599.539 418.012 599.863 418.034C601.266 418.133 602.496 418.441 603.573 418.923C607.414 420.644 608.93 424.852 609.863 429.408C611.863 434 612.5 442.5 612.5 447.5C612.5 452.5 610.132 467.467 605.5 471.5C604.597 472.286 601.462 473.66 600.363 474C600.363 474 599.363 474.5 598.863 474.5C598.363 474.5 597.363 474 597.363 474C597.078 473.865 596.629 473.683 596.103 473.471C594.609 472.867 592.504 472.015 591.834 471.299ZM866 280.498C850 280.498 856.054 337.498 856.054 337.498H875.554C875.554 337.498 882 280.498 866 280.498Z" fill="url(#paint19_linear_315_2447)"/>
<defs>
<linearGradient id="paint0_linear_315_2447" x1="719.001" y1="967.498" x2="720.001" y2="2553" gradientUnits="userSpaceOnUse">
<stop/>
</linearGradient>
<linearGradient id="paint1_linear_315_2447" x1="719.001" y1="967.498" x2="720.001" y2="2553" gradientUnits="userSpaceOnUse">
<stop/>
</linearGradient>
<linearGradient id="paint2_linear_315_2447" x1="719.001" y1="967.498" x2="720.001" y2="2553" gradientUnits="userSpaceOnUse">
<stop/>
</linearGradient>
<linearGradient id="paint3_linear_315_2447" x1="719.001" y1="967.498" x2="720.001" y2="2553" gradientUnits="userSpaceOnUse">
<stop/>
</linearGradient>
<linearGradient id="paint4_linear_315_2447" x1="719.001" y1="967.498" x2="720.001" y2="2553" gradientUnits="userSpaceOnUse">
<stop/>
</linearGradient>
<linearGradient id="paint5_linear_315_2447" x1="719.001" y1="967.498" x2="720.001" y2="2553" gradientUnits="userSpaceOnUse">
<stop/>
</linearGradient>
<linearGradient id="paint6_linear_315_2447" x1="719.001" y1="967.498" x2="720.001" y2="2553" gradientUnits="userSpaceOnUse">
<stop/>
</linearGradient>
<linearGradient id="paint7_linear_315_2447" x1="719.001" y1="967.498" x2="720.001" y2="2553" gradientUnits="userSpaceOnUse">
<stop/>
</linearGradient>
<linearGradient id="paint8_linear_315_2447" x1="719.932" y1="397.349" x2="720.101" y2="1048.51" gradientUnits="userSpaceOnUse">
<stop/>
<stop offset="0.549196"/>
<stop offset="0.904788"/>
</linearGradient>
<linearGradient id="paint9_linear_315_2447" x1="719.001" y1="967.498" x2="720.001" y2="2553" gradientUnits="userSpaceOnUse">
<stop/>
</linearGradient>
<linearGradient id="paint10_linear_315_2447" x1="719.932" y1="397.349" x2="720.101" y2="1048.51" gradientUnits="userSpaceOnUse">
<stop/>
<stop offset="0.549196"/>
<stop offset="0.904788"/>
</linearGradient>
<linearGradient id="paint11_linear_315_2447" x1="719.001" y1="967.498" x2="720.001" y2="2553" gradientUnits="userSpaceOnUse">
<stop/>
</linearGradient>
<linearGradient id="paint12_linear_315_2447" x1="719.001" y1="967.498" x2="720.001" y2="2553" gradientUnits="userSpaceOnUse">
<stop/>
</linearGradient>
<linearGradient id="paint13_linear_315_2447" x1="719.001" y1="967.498" x2="720.001" y2="2553" gradientUnits="userSpaceOnUse">
<stop/>
</linearGradient>
<linearGradient id="paint14_linear_315_2447" x1="719.001" y1="967.498" x2="720.001" y2="2553" gradientUnits="userSpaceOnUse">
<stop/>
</linearGradient>
<linearGradient id="paint15_linear_315_2447" x1="719.001" y1="967.498" x2="720.001" y2="2553" gradientUnits="userSpaceOnUse">
<stop/>
</linearGradient>
<linearGradient id="paint16_linear_315_2447" x1="719.932" y1="397.349" x2="720.101" y2="1048.51" gradientUnits="userSpaceOnUse">
<stop/>
<stop offset="0.549196"/>
<stop offset="0.904788"/>
</linearGradient>
<linearGradient id="paint17_linear_315_2447" x1="719.932" y1="397.349" x2="720.101" y2="1048.51" gradientUnits="userSpaceOnUse">
<stop/>
<stop offset="0.549196"/>
<stop offset="0.904788"/>
</linearGradient>
<linearGradient id="paint18_linear_315_2447" x1="719.932" y1="397.349" x2="720.101" y2="1048.51" gradientUnits="userSpaceOnUse">
<stop/>
<stop offset="0.549196"/>
<stop offset="0.904788"/>
</linearGradient>
<linearGradient id="paint19_linear_315_2447" x1="719.001" y1="967.498" x2="720.001" y2="2553" gradientUnits="userSpaceOnUse">
<stop/>
</linearGradient>
</defs>
</svg>
