<svg width="1440" height="1041" viewBox="0 0 1440 1041" fill="none" xmlns="http://www.w3.org/2000/svg">
<path d="M82.1788 714V998.5H139.179C140.679 926.5 98.8155 842 98.8155 828C101.316 816 103.316 816.5 111.816 804C136.816 783 181.845 670.833 196.679 632C126.179 632 91.6788 688.667 82.1788 714Z" fill="url(#paint0_linear_307_1778)"/>
<path d="M309.679 998.5C309.545 925.554 309.626 796.687 309.663 741.728C309.666 737.24 309.669 734.112 309.671 731.481C309.671 731.431 309.671 731.382 309.671 731.332V731.327C309.676 726 309.679 722.667 309.679 714C309.679 706.49 297.664 680.289 272.669 659.5C254.399 644.304 229.195 632 196.679 632C213.179 670.667 256.48 742.848 288.316 771.5C300.316 782.3 297.816 788.5 290.316 811.5C276.922 852.575 261.679 915 261.679 998.5H309.679Z" fill="url(#paint1_linear_307_1778)"/>
<path d="M177.363 86.0001C156.859 83.6506 114.363 92.6001 108.363 137L106.363 260L130.863 263.571C130.863 212.142 119 184 119 183.5C115.5 176.5 111.5 174 119 167.5C125.4 161.5 160.53 110.667 177.363 86.0001Z" fill="url(#paint2_linear_307_1778)"/>
<path d="M734.166 495L731.5 496.5L731.497 497.114L734.149 495.614L734.166 495Z" fill="url(#paint3_linear_307_1778)"/>
<path d="M734.655 495.389L737.5 494V493.5L734.653 494.852L734.655 495.389Z" fill="url(#paint4_linear_307_1778)"/>
<path d="M1137.16 691.134L1112.16 996.134H1172.16C1172.16 964.634 1143.79 788.134 1142.29 780.634C1140.79 773.134 1142.29 765.185 1148.79 755.634C1168.39 726.834 1231.86 660.167 1243.86 631.5C1181.36 630.012 1143.66 668.968 1137.16 691.134Z" fill="url(#paint5_linear_307_1778)"/>
<path d="M1350.66 691.134C1350.66 676.134 1306.36 632.988 1243.86 631.5C1258.7 673.333 1305.29 757.691 1327.29 783.691C1330.28 789.165 1332.78 800.683 1327.29 814.634C1314.63 836.468 1313.86 947.334 1314.66 996.134H1356.66C1357.25 945.374 1353.99 822.288 1352.04 748.579C1351.24 718.221 1350.66 696.239 1350.66 691.134Z" fill="url(#paint6_linear_307_1778)"/>
<path d="M165.5 234.5L165.363 268.599L174.863 269.984L175 236.136L170.25 235.318L165.5 234.5Z" fill="url(#paint7_linear_307_1778)"/>
<path d="M167 225C164.6 229.8 168.5 234.379 170.25 235.318C176.05 229.972 170.917 219.379 168.5 216.5C168.5 219 167 224.5 167 225Z" fill="url(#paint8_linear_307_1778)"/>
<path d="M167 225C164.6 229.8 168.5 234.379 170.25 235.318C176.05 229.972 170.917 219.379 168.5 216.5C168.5 219 167 224.5 167 225Z" fill="white" fill-opacity="0.95"/>
<path d="M1171 506.5L1170.86 521.692L1173.36 521.308L1173.5 506.5H1172H1171Z" fill="url(#paint9_linear_307_1778)"/>
<path d="M1171 504.5C1171 505.3 1171.67 506.25 1172 506.5C1174 504.5 1172.5 502.167 1172 501.5C1172 502.3 1171 504 1171 504.5Z" fill="url(#paint10_linear_307_1778)"/>
<path d="M1171 504.5C1171 505.3 1171.67 506.25 1172 506.5C1174 504.5 1172.5 502.167 1172 501.5C1172 502.3 1171 504 1171 504.5Z" fill="white" fill-opacity="0.95"/>
<path fill-rule="evenodd" clip-rule="evenodd" d="M538.363 141L420.363 0.000126421L4.0099e-05 0L0 1040.5H1440L1439.86 120L1383.86 140L1358.36 123C1339.15 132.109 1304.46 150.371 1304.36 150.995C1303.17 146.997 1303.7 141.999 1305.86 140L1304.36 133.5H1280.86L1271.36 140L1269.86 146L1274.86 147.5V164L1242.36 181H1216.36C1213.86 182.5 1208.86 185.4 1208.86 185C1206.86 187 1208.36 193.5 1208.86 193.5C1211.26 193.5 1212.2 195.167 1212.36 196L1199.86 202C1200.26 199.6 1198.36 197 1197.36 196C1188.56 194.4 1177.7 171 1173.36 159.5C1176.16 153.5 1173.53 149.667 1171.86 148.5L1174.36 100.5L1180.36 93.5001H1175.86H1171.86L1169.86 98.0001L1168.36 100.5V104.5L1171.86 103L1169.86 147C1164.36 153 1167.86 160 1168.36 159.5C1165.96 176.3 1145.36 196.833 1135.36 205C1132.56 202.2 1125.2 202.167 1121.86 202.5L1119.86 191H1091.36C1086.16 197.8 1084.86 223.5 1084.86 235.5C1083.64 236.457 1082.13 237.362 1080.62 238.266C1077.41 240.196 1074.2 242.116 1073.86 244.5C1073.86 246.003 1074.57 249.316 1075.42 253.326L1075.43 253.339L1075.43 253.34C1076.85 260.005 1078.68 268.592 1078.36 274L1071.36 280.5C1071.36 280.5 1060.36 281 1057.36 283.5C1054.36 286 1052.86 290.333 1054.86 291.5L995.363 334.5C988.863 334.5 987.363 336 987.363 338C987.363 343.5 981.197 349.667 975.863 352.5H940.363V380.5L922.863 392C923.263 399.6 930.363 406.5 933.863 409V437C930.263 447.4 919.363 448.333 914.363 447.5V382.5C914.363 382.5 919.363 377.5 919.363 371C919.363 364.5 917.863 360 914.363 360V272.5C918.763 267.7 916.197 262.833 914.363 261L904.863 256.5C903.263 245.3 895.53 235.833 890.363 232.5C886.363 223.7 885.03 191.833 885.863 177C889.863 173.8 887.863 170 885.863 168.5V166.5C888.663 164.1 889.863 161.5 888.363 159C888.763 152.2 880.363 148.5 876.363 148C874.363 148 873.197 144.333 872.863 142.5L866.541 105H865.363L865.541 101.5C866.341 101.1 866.875 99.3335 867.041 98.5001C867.041 95.3001 866.697 95.1668 865.363 95.5001C862.163 97.5001 864.03 100.333 865.363 101.5V105H864.363L857.685 143C857.283 147.025 854.613 147.702 852.804 148.161C852.366 148.272 851.978 148.37 851.685 148.5C844.685 149 841.352 156 842.185 159C839.385 162.2 841.019 165 842.185 166.5V168.5C838.358 171.945 840.715 174.311 842.231 175.833C842.695 176.299 843.081 176.686 843.185 177C845.185 183 844.363 222 840.363 232.5C831.163 237.7 825.53 250.667 823.863 256.5C823.305 256.672 822.734 256.841 822.157 257.013C817.36 258.437 812.149 259.983 810.363 264C808.863 269.5 811.863 272.5 813.363 272.5V361C808.563 363.8 807.03 368.833 806.863 371C806.463 377.4 810.363 381.333 812.363 382.5L813.863 447.5H795.363V463C793.363 464.2 794.53 468.5 795.363 470.5C797.763 475.3 796.363 524.167 795.363 548V566.5V575C793.834 573.471 785.476 569.586 778.04 566.13L778.037 566.129L778.036 566.128C771.857 563.256 766.317 560.681 765.863 560C764.863 558.5 765.363 555 765.363 555H757.363V558.5L751.363 561.5V539C751.363 539 749.363 525.5 735.863 523.5L734.655 495.389L734.653 494.852L734.363 488L734.166 495L734.149 495.614L733.363 523.5C719.363 526 717.363 539 717.363 539V563H702.363V552.5H665.863H653.863H632.363V531C631.563 523 613.53 520 605.363 519.5L610.863 510L603.363 499C598.863 488.5 610.863 474 610.863 474C610.863 474 618.53 439.5 619.363 427C619.363 427 622.363 423 622.363 418C622.363 413 617.832 409.656 611.363 406C611.213 405.915 611.06 405.829 610.904 405.741C610.752 405.656 610.598 405.57 610.443 405.483L610.092 405.287C608.234 404.249 606.363 403.203 606.363 403C604.672 402.154 604.769 394.152 604.839 388.377C604.852 387.326 604.863 386.348 604.863 385.5C604.863 381.1 601.03 378 598.863 377L597.863 358.5H595.863L594.363 377C594.363 377 587.863 380 587.863 385.5C587.863 387.623 588.062 390.342 588.258 393.024L588.258 393.027C588.57 397.293 588.875 401.465 588.363 403C587.055 403.853 585.844 404.636 584.722 405.36L584.718 405.363C575.984 411.001 572.693 413.127 571.363 418C570.363 422.5 572.363 425 574.363 427L582.363 474C590.363 480.4 591.363 493.333 590.863 499L582.863 510L588.863 519.5H561.863C561.863 519.5 563.363 455 561.863 453.5C560.363 452 528.863 453.5 528.863 453.5L514.363 440.5L512.863 411.5L514.363 378.5L516.863 373.5L509.863 329L514.363 323.5L511.363 314L514.863 209.5L545.863 172.5V166.5H548.363V162.5H541.363C543.363 160.833 547.963 155.8 550.363 149C552.763 142.2 543.363 140.833 538.363 141ZM863.363 280.5C849.763 280.5 851.697 318.833 854.363 338H873.863C877.463 326.4 876.363 302.5 875.363 292C874.563 282 866.53 280.167 863.363 280.5ZM823.863 341C822.363 322.833 821.463 286.2 829.863 285C830.363 285 840.363 285.5 840.363 338C836.863 339 828.663 341 823.863 341ZM896.863 280.5C885.663 282.5 888.863 319.667 891.863 338H904.863V306.5C904.863 286.5 899.53 280.833 896.863 280.5ZM858.363 436L857.863 395.5C857.863 395.5 858.863 389 865.363 389C871.363 389 872.363 395.5 872.363 395.5V436H858.363ZM130.863 263.571L106.363 260L108.363 137C114.363 92.6001 156.859 83.6506 177.363 86.0001C225.363 91.5001 229.863 136 229.863 137V278L174.863 269.984L165.363 268.599L130.863 263.571ZM805.363 525.5C805.763 529.5 808.863 530.5 810.363 530.5C814.363 530.5 815.697 527.167 815.863 525.5L814.863 482.5C812.463 480.1 810.863 474.833 810.363 472.5C807.163 472.9 805.697 478.333 805.363 481V525.5ZM918.363 495C918.363 493 918.863 489.5 922.363 489.5C925.863 489.5 925.863 495 925.863 495V530.5C925.863 531.5 925.163 534.5 922.363 534.5C919.563 534.5 918.53 531.833 918.363 530.5V495ZM394.863 354V209.5C395.03 206.333 396.863 198 406.863 198C416.863 198 420.363 211.7 420.363 218.5V373.5L394.863 354ZM1052.86 361.5V411.5L1061.36 406.5V364.5C1061.36 354.1 1058.86 351.5 1057.36 351.5C1053.76 351.5 1052.7 358.167 1052.86 361.5ZM1035.86 421V373.5C1035.7 370.167 1036.66 363.5 1039.86 363.5C1042.36 363.5 1043.86 365.8 1043.86 375V416.5L1035.86 421ZM1018.36 382V431.5L1026.86 426V382C1026.86 376 1024.62 374.5 1022.86 374.5C1019.86 374.5 1018.53 379.833 1018.36 382ZM1131.86 435.5V528.5L1145.86 526.5V430C1145.86 430 1144.36 425 1140.36 425C1131.85 425 1131.86 435.5 1131.86 435.5ZM1162.36 421V523L1170.86 521.692L1173.36 521.308L1181.86 520V414.5C1181.86 414.5 1180.36 410.5 1172.36 410.5C1164.36 410.5 1162.36 421 1162.36 421ZM1193.86 406V518L1213.36 515V398.5C1213.36 398.5 1213.86 393 1205.86 393C1204.97 393 1204.14 393.115 1203.36 393.324C1195.91 395.332 1193.86 406 1193.86 406ZM1106.86 330C1108.06 325.6 1110.36 323.5 1112.86 323.5C1115.36 323.5 1117.36 325.3 1117.36 326.5V342.5L1106.86 348V330ZM82.1788 998.5V714C91.6788 688.667 126.179 632 196.679 632C229.195 632 254.399 644.304 272.669 659.5C297.664 680.289 309.679 706.49 309.679 714C309.679 722.667 309.676 726 309.671 731.327V731.332L309.671 731.481C309.669 734.112 309.666 737.24 309.663 741.728C309.626 796.687 309.545 925.554 309.679 998.5H261.679H139.179H82.1788ZM1350.66 691.134C1350.66 676.134 1306.36 632.988 1243.86 631.5C1181.36 630.012 1143.66 668.968 1137.16 691.134L1112.16 996.134H1172.16H1314.66H1356.66C1357.25 945.374 1353.99 822.288 1352.04 748.579C1351.24 718.221 1350.66 696.239 1350.66 691.134ZM439.863 381.5V231C440.697 226.833 444.363 218.5 452.363 218.5C456.03 219.667 463.563 225.5 464.363 239.5C463.963 239.5 464.197 348.5 464.363 403L439.863 381.5ZM583.363 447.5C583.365 454.5 586.823 467.01 590.835 471.299C591.74 472.267 595.269 473.483 596.363 474C596.363 474 597.363 474.5 597.863 474.5C598.363 474.5 599.363 474 599.363 474C600.462 473.66 603.597 472.286 604.5 471.5C609.132 467.467 611.5 452.5 611.5 447.5C611.5 442.5 610.863 434 608.863 429.408C607.93 424.852 606.415 420.644 602.573 418.924C601.496 418.441 600.266 418.133 598.863 418.035C598.539 418.012 598.206 418 597.863 418C597.292 418 596.891 417.914 596.548 417.84C595.993 417.721 595.59 417.635 594.863 418C593.728 418.571 592.234 419.012 591.363 420C589.454 422.167 587.153 426.005 586.31 429.207C584.929 434.446 583.362 440.5 583.363 447.5Z" fill="url(#paint11_linear_307_1778)"/>
<path d="M591.363 420C590.679 422.641 589.198 426.348 588.723 429.438C586.446 439.799 587.31 457.398 590.835 471.299C591.74 472.267 595.269 473.483 596.363 474C593.863 445.35 594.905 439.244 595.5 429.638C595.784 425.059 594.29 421.236 594.863 418C593.728 418.571 592.234 419.012 591.363 420Z" fill="url(#paint12_linear_307_1778)"/>
<path d="M604.5 471.5C607 458.5 608.5 443 604.5 429.138C604.5 424.99 602.922 421.725 602.573 418.924C601.496 418.441 600.266 418.133 598.863 418.035C599.128 419.101 598.798 423.398 599 429.638C600.298 439.744 600.661 462 599.363 474C600.462 473.66 603.597 472.286 604.5 471.5Z" fill="url(#paint13_linear_307_1778)"/>
<path d="M586.31 429.207C587.044 429.291 587.94 429.368 588.723 429.438C589.198 426.348 590.679 422.641 591.363 420C589.454 422.167 587.153 426.005 586.31 429.207Z" fill="url(#paint14_linear_307_1778)"/>
<path d="M598.863 418.035C598.539 418.012 598.206 418 597.863 418C597.292 418 596.891 417.914 596.548 417.84C595.993 417.721 595.59 417.635 594.863 418C594.29 421.236 595.784 425.059 595.5 429.638C595.834 429.65 596.381 429.638 597.5 429.638C598.289 429.616 598.775 429.649 599 429.638C598.798 423.398 599.128 419.101 598.863 418.035Z" fill="url(#paint15_linear_307_1778)"/>
<path d="M604.5 429.138C605.367 429.075 606.009 429.182 606.645 429.287C607.341 429.403 607.893 429.518 608.863 429.408C607.93 424.852 606.415 420.644 602.573 418.924C602.922 421.725 604.5 424.99 604.5 429.138Z" fill="url(#paint16_linear_307_1778)"/>
<path d="M596.363 474L597.863 474.5L599.363 474C600.661 462 600.298 439.744 599 429.638C598.775 429.649 598.289 429.616 597.5 429.638C596.381 429.638 595.834 429.65 595.5 429.638C594.905 439.244 593.863 445.35 596.363 474Z" fill="url(#paint17_linear_307_1778)"/>
<path d="M596.363 474L597.863 474.5L599.363 474C600.661 462 600.298 439.744 599 429.638C598.775 429.649 598.289 429.616 597.5 429.638C596.381 429.638 595.834 429.65 595.5 429.638C594.905 439.244 593.863 445.35 596.363 474Z" fill="white" fill-opacity="0.9"/>
<path d="M583.363 447.5C583.365 454.5 586.823 467.01 590.835 471.299C587.31 457.398 586.446 439.799 588.723 429.438C587.94 429.368 587.044 429.291 586.31 429.207C584.929 434.446 583.362 440.5 583.363 447.5Z" fill="url(#paint18_linear_307_1778)"/>
<path d="M583.363 447.5C583.365 454.5 586.823 467.01 590.835 471.299C587.31 457.398 586.446 439.799 588.723 429.438C587.94 429.368 587.044 429.291 586.31 429.207C584.929 434.446 583.362 440.5 583.363 447.5Z" fill="white" fill-opacity="0.9"/>
<path d="M611.5 447.5C611.5 442.5 610.863 434 608.863 429.408C607.893 429.518 607.341 429.403 606.645 429.287C606.009 429.182 605.367 429.075 604.5 429.138C608.5 443 607 458.5 604.5 471.5C609.132 467.467 611.5 452.5 611.5 447.5Z" fill="url(#paint19_linear_307_1778)"/>
<path d="M611.5 447.5C611.5 442.5 610.863 434 608.863 429.408C607.893 429.518 607.341 429.403 606.645 429.287C606.009 429.182 605.367 429.075 604.5 429.138C608.5 443 607 458.5 604.5 471.5C609.132 467.467 611.5 452.5 611.5 447.5Z" fill="white" fill-opacity="0.9"/>
<defs>
<linearGradient id="paint0_linear_307_1778" x1="719.001" y1="967.498" x2="720" y2="2553" gradientUnits="userSpaceOnUse">
<stop/>
</linearGradient>
<linearGradient id="paint1_linear_307_1778" x1="719.001" y1="967.498" x2="720" y2="2553" gradientUnits="userSpaceOnUse">
<stop/>
</linearGradient>
<linearGradient id="paint2_linear_307_1778" x1="719.001" y1="967.498" x2="720" y2="2553" gradientUnits="userSpaceOnUse">
<stop/>
</linearGradient>
<linearGradient id="paint3_linear_307_1778" x1="719.001" y1="967.498" x2="720" y2="2553" gradientUnits="userSpaceOnUse">
<stop/>
</linearGradient>
<linearGradient id="paint4_linear_307_1778" x1="719.001" y1="967.498" x2="720" y2="2553" gradientUnits="userSpaceOnUse">
<stop/>
</linearGradient>
<linearGradient id="paint5_linear_307_1778" x1="719.001" y1="967.498" x2="720" y2="2553" gradientUnits="userSpaceOnUse">
<stop/>
</linearGradient>
<linearGradient id="paint6_linear_307_1778" x1="719.001" y1="967.498" x2="720" y2="2553" gradientUnits="userSpaceOnUse">
<stop/>
</linearGradient>
<linearGradient id="paint7_linear_307_1778" x1="719.001" y1="967.498" x2="720" y2="2553" gradientUnits="userSpaceOnUse">
<stop/>
</linearGradient>
<linearGradient id="paint8_linear_307_1778" x1="720.5" y1="397.349" x2="720.669" y2="1048.51" gradientUnits="userSpaceOnUse">
<stop/>
<stop offset="0.549196"/>
<stop offset="0.904788"/>
</linearGradient>
<linearGradient id="paint9_linear_307_1778" x1="719.001" y1="967.498" x2="720" y2="2553" gradientUnits="userSpaceOnUse">
<stop/>
</linearGradient>
<linearGradient id="paint10_linear_307_1778" x1="720.5" y1="397.349" x2="720.669" y2="1048.51" gradientUnits="userSpaceOnUse">
<stop/>
<stop offset="0.549196"/>
<stop offset="0.904788"/>
</linearGradient>
<linearGradient id="paint11_linear_307_1778" x1="719.001" y1="967.498" x2="720" y2="2553" gradientUnits="userSpaceOnUse">
<stop/>
</linearGradient>
<linearGradient id="paint12_linear_307_1778" x1="719.001" y1="967.498" x2="720" y2="2553" gradientUnits="userSpaceOnUse">
<stop/>
</linearGradient>
<linearGradient id="paint13_linear_307_1778" x1="719.001" y1="967.498" x2="720" y2="2553" gradientUnits="userSpaceOnUse">
<stop/>
</linearGradient>
<linearGradient id="paint14_linear_307_1778" x1="719.001" y1="967.498" x2="720" y2="2553" gradientUnits="userSpaceOnUse">
<stop/>
</linearGradient>
<linearGradient id="paint15_linear_307_1778" x1="719.001" y1="967.498" x2="720" y2="2553" gradientUnits="userSpaceOnUse">
<stop/>
</linearGradient>
<linearGradient id="paint16_linear_307_1778" x1="719.001" y1="967.498" x2="720" y2="2553" gradientUnits="userSpaceOnUse">
<stop/>
</linearGradient>
<linearGradient id="paint17_linear_307_1778" x1="720.5" y1="397.349" x2="720.669" y2="1048.51" gradientUnits="userSpaceOnUse">
<stop/>
<stop offset="0.549196"/>
<stop offset="0.904788"/>
</linearGradient>
<linearGradient id="paint18_linear_307_1778" x1="720.5" y1="397.349" x2="720.669" y2="1048.51" gradientUnits="userSpaceOnUse">
<stop/>
<stop offset="0.549196"/>
<stop offset="0.904788"/>
</linearGradient>
<linearGradient id="paint19_linear_307_1778" x1="720.5" y1="397.349" x2="720.669" y2="1048.51" gradientUnits="userSpaceOnUse">
<stop/>
<stop offset="0.549196"/>
<stop offset="0.904788"/>
</linearGradient>
</defs>
</svg>
