<svg width="1440" height="1041" viewBox="0 0 1440 1041" fill="none" xmlns="http://www.w3.org/2000/svg">
<path d="M83.1787 714.502V999.002H140.179C141.679 927.002 98.8154 842.502 98.8154 828.502C101.315 816.502 103.315 817.002 111.815 804.502C136.815 783.502 182.845 671.335 197.679 632.502C127.179 632.502 92.6787 689.169 83.1787 714.502Z" fill="url(#paint0_linear_315_2447)"/>
<path d="M310.679 999.002C310.545 926.056 310.625 797.189 310.663 742.23C310.666 737.742 310.669 734.614 310.671 731.983C310.671 731.933 310.671 731.883 310.671 731.834V731.829C310.676 726.502 310.679 723.169 310.679 714.502C310.679 706.992 298.664 680.791 273.669 660.002C255.399 644.806 230.195 632.502 197.679 632.502C214.179 671.169 256.48 743.35 288.315 772.002C300.315 782.802 297.815 789.002 290.315 812.002C276.922 853.076 262.679 915.502 262.679 999.002H310.679Z" fill="url(#paint1_linear_315_2447)"/>
<path d="M178.363 86.502C157.859 84.1525 115.363 93.102 109.363 137.502L107.363 260.502L131.863 264.073C131.863 212.644 119 184.502 119 184.002C115.5 177.002 111.5 174.502 119 168.002C125.4 162.002 161.53 111.169 178.363 86.502Z" fill="url(#paint2_linear_315_2447)"/>
<path d="M735.166 495.502L731.5 497.002L731.497 497.616L735.149 496.116L735.166 495.502Z" fill="url(#paint3_linear_315_2447)"/>
<path d="M735.655 495.89L737.5 494.502V494.002L735.653 495.354L735.655 495.89Z" fill="url(#paint4_linear_315_2447)"/>
<path d="M1138.16 691.636L1113.16 996.636H1173.16C1173.16 965.136 1143.79 788.636 1142.29 781.136C1140.79 773.636 1142.29 765.687 1148.79 756.136C1168.39 727.336 1232.86 660.669 1244.86 632.002C1182.36 630.514 1144.66 669.47 1138.16 691.636Z" fill="url(#paint5_linear_315_2447)"/>
<path d="M1351.66 691.636C1351.66 676.636 1307.36 633.49 1244.86 632.002C1259.7 673.835 1305.29 758.193 1327.29 784.193C1330.28 789.667 1332.78 801.184 1327.29 815.136C1314.63 836.97 1314.86 947.836 1315.66 996.636H1357.66C1358.25 945.875 1354.99 822.79 1353.04 749.081C1353.04 749.059 1353.04 749.037 1353.04 749.015C1352.24 718.692 1351.66 696.737 1351.66 691.636Z" fill="url(#paint6_linear_315_2447)"/>
<path d="M165.5 235.002L166.363 269.101L175.863 270.486L175 236.638L170.25 235.82L165.5 235.002Z" fill="url(#paint7_linear_315_2447)"/>
<path d="M167 225.502C164.6 230.302 168.5 234.88 170.25 235.82C176.05 230.474 170.917 219.88 168.5 217.002C168.5 219.502 167 225.002 167 225.502Z" fill="url(#paint8_linear_315_2447)"/>
<path d="M167 225.502C164.6 230.302 168.5 234.88 170.25 235.82C176.05 230.474 170.917 219.88 168.5 217.002C168.5 219.502 167 225.002 167 225.502Z" fill="white" fill-opacity="0.95"/>
<path d="M1171 507.002L1171.86 522.194L1174.36 521.81L1173.5 507.002H1172H1171Z" fill="url(#paint9_linear_315_2447)"/>
<path d="M1171 505.002C1171 505.802 1171.67 506.752 1172 507.002C1174 505.002 1172.5 502.669 1172 502.002C1172 502.802 1171 504.502 1171 505.002Z" fill="url(#paint10_linear_315_2447)"/>
<path d="M1171 505.002C1171 505.802 1171.67 506.752 1172 507.002C1174 505.002 1172.5 502.669 1172 502.002C1172 502.802 1171 504.502 1171 505.002Z" fill="white" fill-opacity="0.95"/>
<path d="M592.363 420.502C591.679 423.142 589.198 426.85 588.723 429.939C586.446 440.301 588.309 457.9 591.834 471.801C592.504 472.517 594.609 473.369 596.103 473.973C596.629 474.185 597.078 474.367 597.363 474.502C594.863 445.852 594.905 439.746 595.5 430.14C595.784 425.561 595.29 421.738 595.863 418.502C595.569 418.65 595.251 418.789 594.926 418.931C593.996 419.338 593.009 419.77 592.363 420.502Z" fill="url(#paint11_linear_315_2447)"/>
<path d="M605.5 472.002C608 459.002 608.5 443.502 604.5 429.639C604.5 425.492 603.922 422.226 603.573 419.425C602.496 418.943 601.266 418.635 599.863 418.536C600.128 419.603 598.798 423.9 599 430.14C600.298 440.246 601.661 462.502 600.363 474.502C601.462 474.162 604.597 472.788 605.5 472.002Z" fill="url(#paint12_linear_315_2447)"/>
<path d="M587.309 429.709C588.044 429.793 587.94 429.87 588.723 429.939C589.198 426.85 591.679 423.142 592.363 420.502C590.453 422.668 588.153 426.507 587.309 429.709Z" fill="url(#paint13_linear_315_2447)"/>
<path d="M599.863 418.536C599.539 418.514 599.206 418.502 598.863 418.502C598.292 418.502 597.891 418.416 597.548 418.342C596.993 418.223 596.59 418.136 595.863 418.502C595.29 421.738 595.784 425.561 595.5 430.14C595.834 430.152 596.381 430.14 597.5 430.14C598.289 430.118 598.775 430.151 599 430.14C598.798 423.9 600.128 419.603 599.863 418.536Z" fill="url(#paint14_linear_315_2447)"/>
<path d="M604.5 429.639C605.367 429.577 606.009 429.683 606.645 429.789C607.341 429.905 608.893 430.02 609.863 429.91C608.93 425.354 607.414 421.146 603.573 419.425C603.922 422.226 604.5 425.492 604.5 429.639Z" fill="url(#paint15_linear_315_2447)"/>
<path d="M597.363 474.502L598.863 475.002L600.363 474.502C601.661 462.502 600.298 440.246 599 430.14C598.775 430.151 598.289 430.118 597.5 430.14C596.381 430.14 595.834 430.152 595.5 430.14C594.905 439.746 594.863 445.852 597.363 474.502Z" fill="url(#paint16_linear_315_2447)"/>
<path d="M597.363 474.502L598.863 475.002L600.363 474.502C601.661 462.502 600.298 440.246 599 430.14C598.775 430.151 598.289 430.118 597.5 430.14C596.381 430.14 595.834 430.152 595.5 430.14C594.905 439.746 594.863 445.852 597.363 474.502Z" fill="white" fill-opacity="0.9"/>
<path d="M584.363 448.002C584.365 455.002 587.822 467.512 591.834 471.801C588.309 457.9 586.446 440.301 588.723 429.939C587.94 429.87 588.044 429.793 587.309 429.709C585.929 434.948 584.362 441.002 584.363 448.002Z" fill="url(#paint17_linear_315_2447)"/>
<path d="M584.363 448.002C584.365 455.002 587.822 467.512 591.834 471.801C588.309 457.9 586.446 440.301 588.723 429.939C587.94 429.87 588.044 429.793 587.309 429.709C585.929 434.948 584.362 441.002 584.363 448.002Z" fill="white" fill-opacity="0.9"/>
<path d="M612.5 448.002C612.5 443.002 611.863 434.502 609.863 429.91C608.893 430.02 607.341 429.905 606.645 429.789C606.009 429.683 605.367 429.577 604.5 429.639C608.5 443.502 608 459.002 605.5 472.002C610.132 467.969 612.5 453.002 612.5 448.002Z" fill="url(#paint18_linear_315_2447)"/>
<path d="M612.5 448.002C612.5 443.002 611.863 434.502 609.863 429.91C608.893 430.02 607.341 429.905 606.645 429.789C606.009 429.683 605.367 429.577 604.5 429.639C608.5 443.502 608 459.002 605.5 472.002C610.132 467.969 612.5 453.002 612.5 448.002Z" fill="white" fill-opacity="0.9"/>
<path fill-rule="evenodd" clip-rule="evenodd" d="M421.363 0.501953L539.363 141.502C544.363 141.335 553.763 142.702 551.363 149.502C548.963 156.302 544.363 161.335 542.363 163.002H549.363V167.002H546.863V173.002L515.863 210.002L512.363 314.502L515.363 324.002L510.863 329.502L517.863 374.002L515.363 379.002L513.863 412.002L515.363 441.002L529.863 454.002C529.863 454.002 561.363 452.502 562.863 454.002C564.363 455.502 562.863 520.002 562.863 520.002H589.863L583.863 510.502L591.863 499.502C592.363 493.835 591.363 480.902 583.363 474.502L575.363 427.502C573.363 425.502 571.363 423.002 572.363 418.502C573.692 413.629 576.984 411.503 585.717 405.864L585.722 405.862C586.844 405.137 588.055 404.355 589.363 403.502C589.875 401.967 589.57 397.795 589.258 393.529L589.258 393.526C589.062 390.844 588.863 388.125 588.863 386.002C588.863 380.502 595.363 377.502 595.363 377.502L596.863 359.002H598.863L599.863 377.502C602.03 378.502 605.863 381.602 605.863 386.002C605.863 386.849 605.852 387.827 605.839 388.879C605.769 394.654 605.672 402.656 607.363 403.502C607.363 403.705 609.234 404.75 611.092 405.789L611.443 405.985C611.598 406.072 611.752 406.158 611.904 406.243C612 406.297 612.096 406.351 612.19 406.404L612.363 406.502C618.832 410.158 623.363 413.502 623.363 418.502C623.363 423.502 620.363 427.502 620.363 427.502C619.53 440.002 611.863 474.502 611.863 474.502C611.863 474.502 599.863 489.002 604.363 499.502L611.863 510.502L606.363 520.002C614.53 520.502 632.563 523.502 633.363 531.502V553.002H654.863H666.863H703.363V563.502H718.363V539.502C718.363 539.502 720.363 526.502 734.363 524.002L735.149 496.116L735.166 495.502L735.363 488.502L735.653 495.354L735.655 495.89L736.863 524.002C750.363 526.002 752.363 539.502 752.363 539.502V562.002L758.363 559.002V555.502H766.363C766.363 555.502 765.863 559.002 766.863 560.502C767.317 561.183 772.855 563.757 779.033 566.628L779.036 566.63L779.037 566.63L779.04 566.632C786.476 570.088 794.834 573.973 796.363 575.502V567.002V548.502C797.363 524.669 798.763 475.802 796.363 471.002C795.53 469.002 794.363 464.702 796.363 463.502V448.002H814.863L813.363 383.002C811.363 381.835 807.463 377.902 807.863 371.502C808.03 369.335 809.563 364.302 814.363 361.502V273.002C812.863 273.002 809.863 270.002 811.363 264.502C813.149 260.485 818.36 258.938 823.157 257.515C823.734 257.343 824.305 257.174 824.863 257.002C826.53 251.169 832.163 238.202 841.363 233.002C845.363 222.502 846.185 183.502 844.185 177.502C844.081 177.187 843.695 176.8 843.231 176.334C841.714 174.813 839.358 172.447 843.185 169.002V167.002C842.019 165.502 840.385 162.702 843.185 159.502C842.352 156.502 845.685 149.502 852.685 149.002C852.978 148.872 853.366 148.774 853.804 148.662C855.613 148.204 858.283 147.527 858.685 143.502L865.363 105.502H866.363H867.541L873.863 143.002C874.197 144.835 875.363 148.502 877.363 148.502C881.363 149.002 889.763 152.702 889.363 159.502C890.863 162.002 889.663 164.602 886.863 167.002V169.002C888.863 170.502 890.863 174.302 886.863 177.502C886.03 192.335 887.363 224.202 891.363 233.002C896.53 236.335 904.263 245.802 905.863 257.002L915.363 261.502C917.197 263.335 919.763 268.202 915.363 273.002V360.502C918.863 360.502 920.363 365.002 920.363 371.502C920.363 378.002 915.363 383.002 915.363 383.002V448.002C920.363 448.835 931.263 447.902 934.863 437.502V409.502C931.363 407.002 924.263 400.102 923.863 392.502L941.363 381.002V353.002H976.863C982.197 350.169 988.363 344.002 988.363 338.502C988.363 336.502 989.863 335.002 996.363 335.002L1055.86 292.002C1053.86 290.835 1055.36 286.502 1058.36 284.002C1061.36 281.502 1072.36 281.002 1072.36 281.002L1079.36 274.502C1079.68 269.094 1077.85 260.507 1076.43 253.842L1076.43 253.841L1076.42 253.828C1075.57 249.818 1074.86 246.504 1074.86 245.002C1075.2 242.618 1078.41 240.698 1081.62 238.768C1083.13 237.864 1084.64 236.958 1085.86 236.002C1085.86 224.002 1087.16 198.302 1092.36 191.502H1120.86L1122.86 203.002C1126.2 202.669 1133.56 202.702 1136.36 205.502C1146.36 197.335 1166.96 176.802 1169.36 160.002C1168.86 160.502 1165.36 153.502 1170.86 147.502L1172.86 103.502L1169.36 105.002V101.002L1170.86 98.502L1172.86 94.002H1176.86H1181.36L1175.36 101.002L1172.86 149.002C1174.53 150.169 1177.16 154.002 1174.36 160.002C1178.7 171.502 1189.56 194.902 1198.36 196.502C1199.36 197.502 1201.26 200.102 1200.86 202.502L1213.36 196.502C1213.2 195.669 1212.26 194.002 1209.86 194.002C1209.36 194.002 1207.86 187.502 1209.86 185.502C1209.86 185.902 1214.86 183.002 1217.36 181.502H1243.36L1275.86 164.502V148.002L1270.86 146.502L1272.36 140.502L1281.86 134.002H1305.36L1306.86 140.502C1304.7 142.5 1304.17 147.498 1305.36 151.497C1305.46 150.873 1340.15 132.61 1359.36 123.502L1384.86 140.502L1440.86 120.502L1441 1041H1L-2.13672 0.501953H421.363ZM866.363 105.502V102.002C865.03 100.835 863.163 98.002 866.363 96.002C867.697 95.6686 868.041 95.802 868.041 99.002C867.875 99.8353 867.341 101.602 866.541 102.002L866.363 105.502ZM833.137 285.498C824.737 286.698 824.5 323.333 826 341.5C830.8 341.5 837.863 339.502 841.363 338.502C841.363 286.002 837.137 285.498 833.137 285.498ZM891.5 338.502C890 320.5 888.5 285.466 898.5 285.466C909.5 285.466 905.679 341.468 905.679 341.468L891.5 338.502ZM858.863 396.002L859.363 436.502H873.363V396.002C873.363 396.002 872.363 389.502 866.363 389.502C859.863 389.502 858.863 396.002 858.863 396.002ZM107.363 260.502L131.863 264.073L166.363 269.101L175.863 270.486L230.863 278.502V137.502C230.863 136.502 226.363 92.002 178.363 86.502C157.859 84.1525 115.363 93.102 109.363 137.502L107.363 260.502ZM811.363 531.002C809.863 531.002 806.763 530.002 806.363 526.002V481.502C806.697 478.835 808.163 473.402 811.363 473.002C811.863 475.335 813.463 480.602 815.863 483.002L816.863 526.002C816.697 527.669 815.363 531.002 811.363 531.002ZM923.363 490.002C919.863 490.002 919.363 493.502 919.363 495.502V531.002C919.53 532.335 920.563 535.002 923.363 535.002C926.163 535.002 926.863 532.002 926.863 531.002V495.502C926.863 495.502 926.863 490.002 923.363 490.002ZM395.863 210.002V354.502L421.363 374.002V219.002C421.363 212.202 417.863 198.502 407.863 198.502C397.863 198.502 396.03 206.835 395.863 210.002ZM1053.86 412.002V362.002C1053.7 358.669 1054.76 352.002 1058.36 352.002C1059.86 352.002 1062.36 354.602 1062.36 365.002V407.002L1053.86 412.002ZM1036.86 374.002V421.502L1044.86 417.002V375.502C1044.86 366.302 1043.36 364.002 1040.86 364.002C1037.66 364.002 1036.7 370.669 1036.86 374.002ZM1019.36 432.002V382.502C1019.53 380.335 1020.86 375.002 1023.86 375.002C1025.62 375.002 1027.86 376.502 1027.86 382.502V426.502L1019.36 432.002ZM1132.86 529.002V436.002C1132.86 436.002 1132.85 425.502 1141.36 425.502C1145.36 425.502 1146.86 430.502 1146.86 430.502V527.002L1132.86 529.002ZM1163.36 523.502V421.502C1163.36 421.502 1165.36 411.002 1173.36 411.002C1181.36 411.002 1182.86 415.002 1182.86 415.002V520.502L1174.36 521.81L1171.86 522.194L1163.36 523.502ZM1194.86 518.502V406.502C1194.86 406.502 1196.91 395.834 1204.36 393.826C1205.14 393.617 1205.97 393.502 1206.86 393.502C1214.86 393.502 1214.36 399.002 1214.36 399.002V515.502L1194.86 518.502ZM1113.86 324.002C1111.36 324.002 1109.06 326.102 1107.86 330.502V348.502L1118.36 343.002V327.002C1118.36 325.802 1116.36 324.002 1113.86 324.002ZM83.1787 714.502V999.002H140.179H262.679H310.679C310.545 926.056 310.625 797.189 310.663 742.23C310.666 737.742 310.669 734.614 310.671 731.983L310.671 731.834V731.829C310.676 726.502 310.679 723.169 310.679 714.502C310.679 706.992 298.664 680.791 273.669 660.002C255.399 644.806 230.195 632.502 197.679 632.502C127.179 632.502 92.6787 689.169 83.1787 714.502ZM1244.86 632.002C1307.36 633.49 1351.66 676.636 1351.66 691.636C1351.66 696.737 1352.24 718.692 1353.04 749.015L1353.04 749.081C1354.99 822.79 1358.25 945.875 1357.66 996.636H1315.66H1173.16H1113.16L1138.16 691.636C1144.66 669.47 1182.36 630.514 1244.86 632.002ZM440.863 231.502V382.002L465.363 403.502C465.197 349.002 464.963 240.002 465.363 240.002C464.563 226.002 457.03 220.169 453.363 219.002C445.363 219.002 441.697 227.335 440.863 231.502ZM591.834 471.801C587.822 467.512 584.365 455.002 584.363 448.002C584.362 441.002 585.929 434.948 587.309 429.709C588.153 426.507 590.453 422.668 592.363 420.502C593.009 419.77 593.996 419.338 594.926 418.931C595.251 418.789 595.569 418.65 595.863 418.502C596.59 418.136 596.993 418.223 597.548 418.342C597.891 418.416 598.292 418.502 598.863 418.502C599.206 418.502 599.539 418.514 599.863 418.536C601.266 418.635 602.496 418.943 603.573 419.425C607.414 421.146 608.93 425.354 609.863 429.91C611.863 434.502 612.5 443.002 612.5 448.002C612.5 453.002 610.132 467.969 605.5 472.002C604.597 472.788 601.462 474.162 600.363 474.502C600.363 474.502 599.363 475.002 598.863 475.002C598.363 475.002 597.363 474.502 597.363 474.502C597.078 474.367 596.629 474.185 596.103 473.973C594.609 473.369 592.504 472.517 591.834 471.801ZM866 281C850 281 856.054 338 856.054 338H875.554C875.554 338 882 281 866 281Z" fill="url(#paint19_linear_315_2447)"/>
<defs>
<linearGradient id="paint0_linear_315_2447" x1="719.001" y1="968" x2="720.001" y2="2553.5" gradientUnits="userSpaceOnUse">
<stop/>
<stop offset="0.549196" stop-color="#5B5B5B"/>
<stop offset="0.904788"/>
</linearGradient>
<linearGradient id="paint1_linear_315_2447" x1="719.001" y1="968" x2="720.001" y2="2553.5" gradientUnits="userSpaceOnUse">
<stop/>
<stop offset="0.549196" stop-color="#5B5B5B"/>
<stop offset="0.904788"/>
</linearGradient>
<linearGradient id="paint2_linear_315_2447" x1="719.001" y1="968" x2="720.001" y2="2553.5" gradientUnits="userSpaceOnUse">
<stop/>
<stop offset="0.549196" stop-color="#5B5B5B"/>
<stop offset="0.904788"/>
</linearGradient>
<linearGradient id="paint3_linear_315_2447" x1="719.001" y1="968" x2="720.001" y2="2553.5" gradientUnits="userSpaceOnUse">
<stop/>
<stop offset="0.549196" stop-color="#5B5B5B"/>
<stop offset="0.904788"/>
</linearGradient>
<linearGradient id="paint4_linear_315_2447" x1="719.001" y1="968" x2="720.001" y2="2553.5" gradientUnits="userSpaceOnUse">
<stop/>
<stop offset="0.549196" stop-color="#5B5B5B"/>
<stop offset="0.904788"/>
</linearGradient>
<linearGradient id="paint5_linear_315_2447" x1="719.001" y1="968" x2="720.001" y2="2553.5" gradientUnits="userSpaceOnUse">
<stop/>
<stop offset="0.549196" stop-color="#5B5B5B"/>
<stop offset="0.904788"/>
</linearGradient>
<linearGradient id="paint6_linear_315_2447" x1="719.001" y1="968" x2="720.001" y2="2553.5" gradientUnits="userSpaceOnUse">
<stop/>
<stop offset="0.549196" stop-color="#5B5B5B"/>
<stop offset="0.904788"/>
</linearGradient>
<linearGradient id="paint7_linear_315_2447" x1="719.001" y1="968" x2="720.001" y2="2553.5" gradientUnits="userSpaceOnUse">
<stop/>
<stop offset="0.549196" stop-color="#5B5B5B"/>
<stop offset="0.904788"/>
</linearGradient>
<linearGradient id="paint8_linear_315_2447" x1="719.932" y1="397.851" x2="720.101" y2="1049.01" gradientUnits="userSpaceOnUse">
<stop/>
<stop offset="0.549196"/>
<stop offset="0.904788"/>
</linearGradient>
<linearGradient id="paint9_linear_315_2447" x1="719.001" y1="968" x2="720.001" y2="2553.5" gradientUnits="userSpaceOnUse">
<stop/>
<stop offset="0.549196" stop-color="#5B5B5B"/>
<stop offset="0.904788"/>
</linearGradient>
<linearGradient id="paint10_linear_315_2447" x1="719.932" y1="397.851" x2="720.101" y2="1049.01" gradientUnits="userSpaceOnUse">
<stop/>
<stop offset="0.549196"/>
<stop offset="0.904788"/>
</linearGradient>
<linearGradient id="paint11_linear_315_2447" x1="719.001" y1="968" x2="720.001" y2="2553.5" gradientUnits="userSpaceOnUse">
<stop/>
<stop offset="0.549196" stop-color="#5B5B5B"/>
<stop offset="0.904788"/>
</linearGradient>
<linearGradient id="paint12_linear_315_2447" x1="719.001" y1="968" x2="720.001" y2="2553.5" gradientUnits="userSpaceOnUse">
<stop/>
<stop offset="0.549196" stop-color="#5B5B5B"/>
<stop offset="0.904788"/>
</linearGradient>
<linearGradient id="paint13_linear_315_2447" x1="719.001" y1="968" x2="720.001" y2="2553.5" gradientUnits="userSpaceOnUse">
<stop/>
<stop offset="0.549196" stop-color="#5B5B5B"/>
<stop offset="0.904788"/>
</linearGradient>
<linearGradient id="paint14_linear_315_2447" x1="719.001" y1="968" x2="720.001" y2="2553.5" gradientUnits="userSpaceOnUse">
<stop/>
<stop offset="0.549196" stop-color="#5B5B5B"/>
<stop offset="0.904788"/>
</linearGradient>
<linearGradient id="paint15_linear_315_2447" x1="719.001" y1="968" x2="720.001" y2="2553.5" gradientUnits="userSpaceOnUse">
<stop/>
<stop offset="0.549196" stop-color="#5B5B5B"/>
<stop offset="0.904788"/>
</linearGradient>
<linearGradient id="paint16_linear_315_2447" x1="719.932" y1="397.851" x2="720.101" y2="1049.01" gradientUnits="userSpaceOnUse">
<stop/>
<stop offset="0.549196"/>
<stop offset="0.904788"/>
</linearGradient>
<linearGradient id="paint17_linear_315_2447" x1="719.932" y1="397.851" x2="720.101" y2="1049.01" gradientUnits="userSpaceOnUse">
<stop/>
<stop offset="0.549196"/>
<stop offset="0.904788"/>
</linearGradient>
<linearGradient id="paint18_linear_315_2447" x1="719.932" y1="397.851" x2="720.101" y2="1049.01" gradientUnits="userSpaceOnUse">
<stop/>
<stop offset="0.549196"/>
<stop offset="0.904788"/>
</linearGradient>
<linearGradient id="paint19_linear_315_2447" x1="719.001" y1="968" x2="720.001" y2="2553.5" gradientUnits="userSpaceOnUse">
<stop/>
<stop offset="0.549196" stop-color="#5B5B5B"/>
<stop offset="0.904788"/>
</linearGradient>
</defs>
</svg>
