<svg width="283" height="280" viewBox="0 0 283 280" fill="none" xmlns="http://www.w3.org/2000/svg">
<path d="M51.0503 160.512L50.0435 159.403C49.4512 158.751 48.6781 158.402 47.7241 158.356C46.7483 158.33 45.7724 158.522 44.7964 158.932L18.4297 170.323L17.186 168.953L31.9459 142.816C32.7189 141.44 32.6909 140.295 31.8617 139.382L30.6773 138.078L31.7207 137.131L42.1145 148.576L41.071 149.523L38.939 147.175C38.7021 146.915 38.4167 146.797 38.0829 146.822C37.7076 146.846 37.3786 146.986 37.096 147.243C36.8569 147.46 36.6009 147.811 36.3281 148.297L34.1454 152.183L40.3639 159.031L42.9748 157.909C43.8006 157.596 44.4635 157.212 44.9635 156.758C45.3548 156.402 45.5644 155.934 45.5923 155.354C45.5788 154.771 45.345 154.23 44.891 153.73L43.4992 152.197L44.5427 151.249L52.0937 159.564L51.0503 160.512ZM38.7725 159.702L33.2943 153.67L27.022 164.781L38.7725 159.702Z" fill="#F3F3F3"/>
<path d="M60.3535 149.434C58.8779 149.523 57.4482 149.099 56.0646 148.163C54.7001 147.226 53.5752 145.957 52.69 144.357C51.8036 142.737 51.3055 141.017 51.1956 139.196C51.0858 137.375 51.374 135.617 52.0602 133.922C52.7453 132.207 53.7088 130.802 54.9507 129.708C56.2117 128.613 57.5801 128.02 59.0558 127.931C60.5314 127.842 61.9515 128.266 63.316 129.203C64.6996 130.139 65.8346 131.417 66.721 133.037C67.6062 134.638 68.1037 136.348 68.2136 138.169C68.3235 139.99 68.0359 141.757 67.3508 143.472C66.6645 145.168 65.6909 146.563 64.4298 147.659C63.1879 148.753 61.8292 149.345 60.3535 149.434ZM60.298 148.514C61.467 148.443 62.3327 147.968 62.8951 147.088C63.4755 146.187 63.7061 144.75 63.587 142.776L63.0665 134.152C62.9473 132.178 62.5461 130.788 61.8628 129.983C61.1975 129.158 60.2803 128.781 59.1113 128.851C57.9422 128.922 57.0675 129.407 56.4872 130.308C55.9248 131.188 55.7032 132.615 55.8223 134.589L56.3428 143.213C56.4619 145.187 56.8542 146.587 57.5195 147.412C58.2028 148.217 59.129 148.584 60.298 148.514Z" fill="#F3F3F3"/>
<path d="M127.956 178.486C127.081 183.043 124.683 187.062 120.763 190.544C116.854 193.966 112.122 196.402 106.566 197.851C100.952 199.289 95.3333 199.469 89.7111 198.389C84.0889 197.31 78.9659 195.069 74.3421 191.666C69.6591 188.251 66.1355 184.23 63.7714 179.604C61.4186 174.918 60.6796 170.297 61.5543 165.74C62.4291 161.183 64.821 157.194 68.73 153.771C72.6505 150.29 77.418 147.83 83.0325 146.392C88.5878 144.943 94.1766 144.757 99.7988 145.837C105.421 146.916 110.574 149.163 115.257 152.578C119.88 155.981 123.369 160.025 125.722 164.711C128.086 169.337 128.83 173.929 127.956 178.486ZM125.115 177.941C125.808 174.331 125.034 171.329 122.794 168.935C120.505 166.471 116.313 164.654 110.218 163.484L83.5863 158.372C77.4906 157.202 72.9533 157.343 69.9745 158.796C66.9478 160.179 65.088 162.675 64.395 166.285C63.7021 169.895 64.4997 172.932 66.788 175.397C69.0284 177.79 73.1965 179.572 79.2922 180.742L105.924 185.854C112.019 187.024 116.581 186.918 119.607 185.536C122.586 184.082 124.422 181.551 125.115 177.941Z" fill="#F3F3F3"/>
<path d="M143.041 118.155C143.521 120.309 143.235 122.518 142.182 124.779C141.123 127.013 139.518 128.971 137.367 130.655C135.188 132.345 132.769 133.486 130.111 134.079C127.452 134.671 124.792 134.662 122.129 134.051C119.439 133.446 117.14 132.358 115.233 130.785C113.319 129.185 112.122 127.307 111.642 125.152C111.162 122.998 111.451 120.803 112.51 118.57C113.563 116.308 115.179 114.333 117.358 112.643C119.509 110.959 121.914 109.821 124.572 109.228C127.231 108.636 129.906 108.642 132.596 109.247C135.258 109.858 137.546 110.963 139.46 112.564C141.367 114.136 142.561 116 143.041 118.155ZM141.698 118.454C141.317 116.747 140.412 115.583 138.981 114.962C137.516 114.319 135.342 114.319 132.459 114.961L119.866 117.768C116.984 118.41 115.03 119.33 114.004 120.528C112.945 121.704 112.605 123.146 112.985 124.853C113.366 126.56 114.289 127.735 115.754 128.378C117.185 128.999 119.341 128.988 122.224 128.346L134.817 125.539C137.699 124.897 139.671 123.988 140.73 122.811C141.756 121.614 142.078 120.161 141.698 118.454Z" fill="#F3F3F3"/>
<path d="M231.892 121.945C232.083 123.723 231.652 125.475 230.599 127.201C229.543 128.903 228.073 130.335 226.188 131.495C224.28 132.658 222.229 133.357 220.034 133.593C217.839 133.829 215.698 133.58 213.61 132.846C211.498 132.115 209.746 131.029 208.353 129.59C206.957 128.128 206.164 126.507 205.973 124.728C205.782 122.95 206.214 121.209 207.27 119.507C208.323 117.781 209.804 116.337 211.712 115.174C213.597 114.014 215.636 113.316 217.831 113.08C220.025 112.844 222.178 113.092 224.29 113.823C226.378 114.557 228.12 115.655 229.516 117.118C230.909 118.557 231.701 120.166 231.892 121.945ZM230.783 122.064C230.632 120.655 230.008 119.635 228.912 119.005C227.791 118.354 226.041 118.157 223.661 118.412L213.266 119.529C210.887 119.784 209.23 120.348 208.295 121.219C207.335 122.07 206.931 123.2 207.082 124.609C207.233 126.018 207.87 127.048 208.991 127.699C210.087 128.329 211.824 128.516 214.204 128.261L224.599 127.144C226.978 126.889 228.648 126.336 229.608 125.485C230.543 124.613 230.934 123.473 230.783 122.064Z" fill="#F3F3F3"/>
<path d="M129.88 174.893C127.449 172.47 126.004 169.667 125.543 166.483C125.083 163.299 125.494 160.075 126.778 156.812C128.099 153.511 130.141 150.475 132.904 147.702C137.825 142.764 143.449 139.248 149.777 137.151C156.105 135.055 162.19 134.457 168.03 135.356C173.871 136.256 178.538 138.447 182.032 141.929C184.463 144.352 185.89 147.174 186.313 150.396C186.773 153.58 186.343 156.823 185.021 160.124C183.7 163.425 181.658 166.461 178.895 169.234C173.974 174.171 168.35 177.688 162.022 179.785C155.732 181.843 149.666 182.422 143.826 181.523C138.023 180.585 133.374 178.375 129.88 174.893ZM132.153 173.524C135.381 176.741 139.403 178.099 144.217 177.598C149.069 177.134 153.92 175.761 158.769 173.477C162.671 171.613 166.137 169.465 169.166 167.033C172.233 164.639 174.75 162.454 176.719 160.479C180.011 157.175 181.883 154.044 182.333 151.085C182.858 148.127 182.001 145.531 179.76 143.298C176.531 140.081 172.491 138.704 167.639 139.168C162.824 139.669 157.993 141.061 153.143 143.345C149.241 145.209 145.757 147.338 142.69 149.732C139.661 152.164 137.162 154.368 135.194 156.343C131.901 159.647 129.992 162.778 129.466 165.737C129.016 168.695 129.912 171.291 132.153 173.524Z" fill="#F3F3F3"/>
<path d="M146.714 201.491L148.688 201.899C148.951 201.953 149.14 201.943 149.253 201.869C149.371 201.776 149.455 201.607 149.505 201.362L153.006 184.441C153.061 184.178 153.051 183.99 152.976 183.876C152.902 183.763 152.733 183.679 152.47 183.624L150.496 183.216L150.682 182.314L160.158 184.274L159.971 185.177L157.997 184.768C157.753 184.718 157.564 184.728 157.432 184.798C157.319 184.873 157.235 185.042 157.18 185.305L155.64 192.75L162.295 194.127L163.836 186.682C163.89 186.419 163.88 186.231 163.806 186.117C163.731 186.004 163.562 185.92 163.299 185.865L161.269 185.445L161.455 184.543L170.987 186.515L170.801 187.418L168.827 187.009C168.582 186.959 168.394 186.969 168.262 187.039C168.148 187.114 168.064 187.283 168.01 187.546L164.508 204.467C164.458 204.711 164.468 204.9 164.538 205.032C164.632 205.149 164.801 205.233 165.045 205.284L167.019 205.692L166.832 206.595L157.357 204.634L157.543 203.731L159.518 204.14C159.781 204.194 159.969 204.184 160.083 204.11C160.2 204.016 160.284 203.848 160.334 203.603L162.085 195.143L155.43 193.765L153.679 202.226C153.628 202.47 153.638 202.659 153.709 202.791C153.802 202.908 153.971 202.992 154.216 203.043L156.19 203.451L156.003 204.354L146.527 202.393L146.714 201.491Z" fill="#F3F3F3"/>
<path d="M138.417 219.439L140.549 219.935C141.053 220.052 141.43 219.873 141.678 219.399L150.068 203.787C150.14 203.646 150.183 203.547 150.196 203.491C150.265 203.192 150.104 202.997 149.711 202.905L147.579 202.41L148.012 201.564L156.315 203.494L155.882 204.34L153.75 203.844C153.264 203.731 152.888 203.91 152.621 204.38L148.819 211.45L157.487 213.465L161.288 206.395C161.361 206.254 161.403 206.155 161.416 206.099C161.486 205.8 161.324 205.605 160.931 205.514L158.8 205.018L159.233 204.173L167.536 206.103L167.103 206.948L164.971 206.453C164.485 206.34 164.108 206.518 163.841 206.988L155.451 222.601C155.379 222.742 155.337 222.84 155.324 222.896C155.254 223.195 155.416 223.391 155.808 223.482L157.94 223.978L157.507 224.823L149.204 222.893L149.637 222.047L151.769 222.543C152.274 222.66 152.65 222.482 152.899 222.007L157.053 214.31L148.386 212.295L144.231 219.992C144.159 220.133 144.116 220.232 144.103 220.288C144.034 220.587 144.195 220.782 144.588 220.874L146.72 221.369L146.287 222.215L137.984 220.285L138.417 219.439Z" fill="#F3F3F3"/>
<path d="M232.217 115.57L232.693 117.528C232.757 117.789 232.847 117.955 232.963 118.026C233.097 118.092 233.286 118.095 233.528 118.036L250.317 113.949C250.579 113.886 250.744 113.796 250.815 113.68C250.886 113.564 250.889 113.376 250.826 113.114L250.349 111.156L251.244 110.938L253.533 120.34L252.637 120.558L252.161 118.599C252.102 118.356 252.012 118.19 251.891 118.101C251.775 118.031 251.587 118.027 251.326 118.091L243.938 119.889L245.546 126.493L252.933 124.694C253.194 124.631 253.36 124.541 253.431 124.425C253.501 124.309 253.505 124.121 253.441 123.859L252.951 121.845L253.846 121.627L256.148 131.085L255.253 131.303L254.776 129.344C254.717 129.101 254.627 128.935 254.507 128.846C254.391 128.776 254.202 128.772 253.941 128.836L237.152 132.923C236.91 132.982 236.744 133.071 236.654 133.192C236.588 133.327 236.585 133.515 236.644 133.758L237.121 135.716L236.225 135.934L233.937 126.533L234.832 126.315L235.309 128.273C235.373 128.534 235.462 128.7 235.578 128.771C235.713 128.837 235.901 128.84 236.144 128.781L244.539 126.738L242.931 120.134L234.536 122.178C234.294 122.237 234.128 122.326 234.039 122.447C233.973 122.582 233.969 122.77 234.028 123.013L234.505 124.971L233.61 125.189L231.321 115.787L232.217 115.57Z" fill="#F3F3F3"/>
<path d="M105.385 147.256L105.737 144.111C105.784 143.691 105.741 143.398 105.608 143.232C105.445 143.062 105.169 142.955 104.779 142.911L77.8174 139.892C77.398 139.845 77.105 139.888 76.9384 140.021C76.7718 140.154 76.6651 140.43 76.6181 140.849L76.2658 143.995L74.8278 143.834L76.5995 128.016C76.7975 126.249 77.3116 124.638 78.1418 123.184C78.9753 121.7 80.0283 120.559 81.3006 119.761C82.5431 118.96 83.8982 118.642 85.3662 118.806C87.3434 119.027 88.8639 119.941 89.9277 121.546C90.9916 123.152 91.689 125.05 92.0199 127.241L92.2896 127.271C92.6536 125.916 93.254 124.619 94.0906 123.378C94.9007 122.103 95.9086 121.094 97.1144 120.349C98.3201 119.605 99.6569 119.315 101.125 119.479C102.952 119.684 104.471 120.339 105.682 121.445C106.893 122.552 107.752 123.952 108.26 125.647C108.741 127.309 108.875 129.098 108.66 131.016L106.823 147.417L105.385 147.256ZM91.0683 130.456C91.2495 128.838 90.8028 127.681 89.7282 126.984C88.6236 126.284 86.9179 125.805 84.6112 125.546C82.6639 125.328 81.1125 125.503 79.9568 126.072C78.7712 126.636 78.1113 127.518 77.9771 128.716L77.6046 132.042C77.561 132.431 77.604 132.724 77.7337 132.921C77.8667 133.087 78.1429 133.194 78.5623 133.241L90.6053 134.59L91.0683 130.456ZM107.066 132.248C107.244 130.66 106.852 129.418 105.891 128.521C104.903 127.592 103.046 126.974 100.32 126.669C97.5934 126.364 95.6608 126.557 94.5217 127.248C93.3559 127.906 92.6842 129.029 92.5063 130.617L92.0433 134.751L105.524 136.261C105.914 136.304 106.207 136.261 106.403 136.132C106.573 135.969 106.68 135.693 106.723 135.303L107.066 132.248Z" fill="#F3F3F3"/>
<path d="M170.869 138.587L171.252 135.172C171.342 134.363 170.995 133.809 170.21 133.508L144.328 123.284C144.095 123.197 143.918 123.147 143.798 123.134C143.349 123.083 143.089 123.373 143.019 124.002L142.636 127.417L141.238 126.896L142.99 111.258C143.148 109.85 143.563 108.578 144.237 107.44C144.88 106.298 145.767 105.427 146.896 104.825C147.998 104.191 149.283 103.955 150.751 104.12C152.429 104.308 153.793 104.991 154.844 106.171C155.895 107.35 156.649 108.739 157.107 110.337C157.569 111.906 157.82 113.45 157.862 114.972L157.947 115.027C158.148 113.775 158.61 112.629 159.333 111.588C160.057 110.546 160.964 109.753 162.057 109.208C163.149 108.663 164.354 108.464 165.673 108.612C167.62 108.83 169.285 109.669 170.669 111.128C172.022 112.584 172.993 114.346 173.58 116.414C174.171 118.452 174.361 120.414 174.149 122.302L172.267 139.108L170.869 138.587ZM156.746 117.622C156.978 115.555 156.773 113.864 156.132 112.548C155.464 111.2 154.589 110.207 153.508 109.57C152.426 108.933 151.316 108.551 150.178 108.424C146.613 108.024 144.644 109.487 144.272 112.813L143.743 117.531C143.653 118.34 144 118.894 144.786 119.195L156.072 123.644L156.746 117.622ZM172.797 121.377C172.955 119.969 172.689 118.68 172.001 117.511C171.283 116.339 170.327 115.397 169.133 114.687C167.908 113.974 166.652 113.545 165.364 113.401C163.327 113.172 161.674 113.442 160.405 114.21C159.106 114.975 158.357 116.241 158.159 118.008L157.465 124.209L170.668 129.419C170.901 129.506 171.062 129.554 171.152 129.564C171.631 129.618 171.906 129.33 171.976 128.701L172.797 121.377Z" fill="#F3F3F3"/>
<path d="M52.8465 158.279L51.7117 157.109C50.8734 156.245 50.3485 155.261 50.1368 154.157C49.9047 153.032 49.9208 151.973 50.1851 150.98L56.8022 119.34L56.0661 118.581L35.9273 138.117C35.3595 138.586 34.8581 138.786 34.423 138.717C33.988 138.648 33.5456 138.382 33.0957 137.918L31.3783 136.148L30.612 137.382L39.6899 146.74L40.4563 145.506L38.5548 143.546C38.1254 143.103 37.9034 142.685 37.8886 142.29C37.8534 141.874 38.1308 141.38 38.721 140.807L43.9691 135.716L50.3789 142.324L49.3029 147.541C48.9653 149.259 48.4908 150.415 47.8796 151.008C47.163 151.703 46.3958 151.629 45.5779 150.786L43.8912 149.047L43.1248 150.281L52.0801 159.513L52.8465 158.279ZM50.7159 140.647L44.9808 134.735L53.7066 126.27L50.7159 140.647Z" fill="#F3F3F3"/>
<path d="M234.752 137.637L233.442 132.368C233.115 131.051 232.293 130.556 230.975 130.883L187.506 141.689C186.822 141.859 186.377 142.151 186.169 142.565C185.9 142.943 185.851 143.473 186.021 144.156L187.331 149.425L184.989 150.007L178.913 125.564C178.064 122.149 177.897 118.979 178.413 116.053C178.869 113.091 179.963 110.617 181.697 108.632C183.37 106.61 185.524 105.272 188.159 104.617C190.842 103.95 193.421 104.112 195.894 105.103C198.356 106.045 200.53 107.706 202.417 110.087C204.243 112.43 205.58 115.309 206.429 118.724L209.03 129.189L229.302 124.15C229.985 123.981 230.461 123.707 230.729 123.329C230.949 122.964 230.968 122.415 230.787 121.683L229.186 115.243L231.528 114.661L237.094 137.055L234.752 137.637ZM203.851 118.355C203.196 115.721 201.546 113.877 198.902 112.825C196.196 111.736 193.258 111.586 190.087 112.374C186.916 113.163 184.457 114.629 182.711 116.772C180.915 118.928 180.351 121.348 181.018 124.031L183.365 133.471C183.535 134.154 183.833 134.624 184.259 134.881C184.625 135.101 185.149 135.126 185.832 134.956L206.689 129.772L203.851 118.355Z" fill="#F3F3F3"/>
</svg>
