<svg width="1440" height="2027" viewBox="0 0 1440 2027" fill="none" xmlns="http://www.w3.org/2000/svg">
<path d="M0 8H1439V1957H0V8Z" fill="url(#paint0_linear_449_3087)"/>
<path d="M1147.1 178.957C1149.03 176.122 1151.32 172.754 1152.56 173.361C1152.91 174.364 1152.36 177.975 1147.44 184.394C1147.78 186.065 1149.69 188.807 1154.61 186.4C1157 182.388 1162.61 174.564 1165.88 175.366C1165.54 179.044 1162.61 187.403 1153.59 191.415C1153.25 194.759 1151.74 202.849 1148.46 208.466L1173.06 353.902C1177.5 377.973 1185.97 427.321 1184.33 432.136C1186.38 432.805 1191.71 435.346 1196.63 440.16H1213.02C1213.7 441.164 1214.87 446.781 1214.05 461.223C1215.41 462.56 1216.92 465.436 1212 466.238L1213.02 496.328C1217.12 498.334 1228.8 506.96 1242.74 525.415V545.476C1243.76 546.479 1244.79 549.287 1240.69 552.496V622.707C1245.81 628.391 1256.67 639.958 1259.13 640.761C1261.52 642.433 1264.05 646.98 1255.03 651.794V677.872H1278.6V1942.59L844.854 1952.5L717.972 1351.5V743.001L618.837 656.001C622.856 657.141 618.837 654.501 618.837 647.001C618.837 639.501 619.045 634.817 620.337 629.001C621.628 623.185 606.178 609.606 590.603 608.001C589.578 607.667 589.179 602.045 589.999 599.638C596.489 597.966 611.878 593.82 614.337 590.611V538.454C612.971 538.12 608.239 535.445 607.419 527.421C605.37 527.421 602.295 522.406 607.419 522.406C614.592 522.406 618.69 522.406 618.69 514.382C616.983 511.707 616.027 506.158 625.863 505.356C629.962 500.006 640.414 488.505 649.432 485.295C650.456 484.961 651.481 484.292 646.357 482.286C645.333 481.283 645.539 478.275 650.457 478.275V443.169C646.017 440.829 639.8 436.348 650.457 437.151C651.823 437.15 654.965 435.746 656.604 430.13C657.288 427.121 660.499 419.297 667.877 412.075C666.852 408.397 665.622 399.438 668.901 393.019L669.926 329.829C667.193 327.154 662.344 321.203 664.803 318.796C665.145 318.462 666.648 318.396 669.926 320.802C669.243 317.124 668.287 309.771 669.926 309.77C670.95 309.101 672.795 310.371 671.976 320.802C673 319.13 675.459 315.989 677.099 316.79C677.782 318.128 677.714 322.608 671.976 329.829L673 393.019C674.366 396.028 675.665 404.052 674.025 412.075C678.124 414.75 687.141 423.109 690.42 435.145C694.177 435.813 701.282 438.154 699.643 442.166L698.618 479.278C700.326 479.946 702.512 481.685 697.594 483.289C696.569 484.292 695.339 486.499 698.618 487.301C701.692 488.304 708.865 493.319 711.939 497.331C716.722 496.997 726.695 496.529 728.335 497.331V515.385C733.458 518.06 742.885 523.81 739.606 525.415C739.265 525.75 738.172 526.619 736.532 527.421C737.215 530.096 737.967 536.448 735.508 540.46V585.596C737.899 587.602 743.09 592.014 744.729 593.619C750.878 598.969 761.74 610.871 756.002 615.686C754.636 616.02 751.083 616.689 747.804 616.689V659.818L789.817 676.869V651.794C786.743 649.788 781.005 644.773 782.645 640.761C783.67 639.758 789.408 637.552 804.163 636.749V554.502C801.772 552.83 798.015 549.086 802.113 547.482V543.47C801.772 537.452 801.294 525.015 802.113 523.409H834.904C834.904 523.409 833.755 500.119 835.929 490.31C838.102 480.501 847.816 458.214 854.374 458.214C855.399 457.211 857.447 454.603 857.447 452.196C858.13 442.835 863.801 409.468 881.016 350.893L905.609 244.574C905.609 244.326 905.294 243.769 904.806 242.904L904.805 242.903C903.32 240.278 900.231 234.816 899.461 226.52C894.337 223.511 884.09 217.091 884.09 215.487C887.164 213.815 894.132 212.679 897.411 221.505C899.461 222.508 903.764 223.31 904.584 218.496C904.584 216.825 903.764 213.28 900.485 212.478C898.436 210.806 895.772 207.864 901.51 209.469C902.876 210.138 905.814 212.077 906.634 214.484C907.317 211.809 909.708 206.661 913.807 207.463C913.565 209.135 912.782 211.475 909.708 214.484C909.708 214.539 909.708 214.597 909.707 214.655L909.705 214.804L909.703 214.912L909.701 215.05L909.696 215.257C909.651 217.37 909.584 220.502 911.757 220.502C913.123 220.502 916.266 219.499 917.905 215.487C918.93 212.812 922.005 207.664 926.104 208.466C925.762 211.475 922.824 218.897 913.807 224.514C914.49 227.523 913.397 235.748 907.658 244.574L933.276 353.902C933.303 353.992 961.492 449.496 961.494 452.001C961.494 456.224 964.087 458.985 964.103 459.001C965.469 459.67 978.971 476.211 983.103 491.001C985.992 501.345 985.536 518.395 985.536 518.395C988.61 520.066 995.578 525.015 998.857 531.434C998.857 530.433 1003.58 540.414 1003.6 540.46H1044.97C1043.95 531.433 1043.1 508.365 1047.02 508.364H1078.78V468.244C1077.1 466.502 1079.59 458.907 1082.6 454.001C1084.7 450.588 1086.53 449.069 1089.6 446.501C1093.29 443.424 1100.1 440.109 1100.1 440.109L1105.43 438.154C1105.43 428.123 1108.09 397.231 1118.75 353.902L1144.37 208.466C1142.66 206.46 1139.04 200.843 1138.22 194.424C1133.09 191.749 1122.64 185.598 1121.82 182.388C1123.19 181.051 1128.38 180.582 1138.22 189.408C1139.93 190.077 1143.34 190.211 1143.34 185.397C1139.93 182.722 1133.3 177.172 1134.12 176.369C1135.14 175.701 1138.83 175.769 1145.39 181.385C1145.89 180.733 1146.48 179.874 1147.1 178.96L1147.1 178.957ZM852.336 561.294C831.828 561.294 832.511 598.765 835.929 617.501L869.768 616.636C871.408 569.597 863.615 561.294 852.336 561.294ZM923.103 614.724C924.743 558.518 915.925 557.036 905.671 557.514C888.444 558.317 888.922 595.988 892.34 614.724H923.103ZM982.56 612.717C982.56 562.934 970.597 553.833 964.103 554.502C945.235 555.305 944.962 594.65 947.696 614.724C959.317 614.724 982.555 613.52 982.56 612.717ZM1096.22 544.528C1079.81 545.33 1077.76 587.017 1078.78 606.756L1115.7 604.749C1116.52 556.572 1103.05 544.528 1096.22 544.528ZM1143.39 540.513C1126.21 541.314 1125.6 583.437 1129 604.573L1160.82 602.741C1164.1 552.156 1151.59 540.179 1143.39 540.513ZM1187.48 537.501C1171.89 538.564 1171.41 582.441 1173.12 602.741L1205.94 600.735C1205.94 552.558 1197.73 537.501 1187.48 537.501ZM638.284 540.202C632.55 540.242 631.153 572.98 631.837 588.704L636.55 587.743H645.284C644.526 554.243 641.284 541.203 638.284 540.202ZM673.784 533.501C666.606 533.501 663.283 568.631 664.65 585.694C668.069 585.575 681.057 585.409 681.057 585.694C681.877 545.547 678.911 533.502 673.784 533.501ZM708.743 533.501C702.181 533.501 704.642 568.757 706.692 585.694H717.972C718.792 539.624 713.87 533.501 708.743 533.501ZM869.424 481.568C867.957 480.5 866.452 480.252 865.114 480.532L865.076 480.541L865.041 480.554C862.203 481.622 860.215 484.056 858.854 487.186C857.491 490.316 856.728 494.199 856.367 498.279C855.645 506.443 856.522 515.517 857.552 521.231L857.63 521.665L858.07 521.642L876.639 520.639L877.101 520.613L877.112 520.152C877.523 503.28 875.871 493.166 873.478 487.376C872.279 484.479 870.879 482.627 869.424 481.568ZM906.329 475.507C902.776 475.507 900.322 477.401 898.687 480.357C897.067 483.285 896.226 487.287 895.84 491.635C895.067 500.338 896.097 510.671 896.607 517.169L896.644 517.63H918.045L918.097 517.189C919.636 504.126 919.389 493.77 917.442 486.657C916.469 483.099 915.06 480.316 913.203 478.416C911.334 476.504 909.028 475.507 906.329 475.507ZM952.44 473.501C949.142 473.5 946.654 475.353 944.844 478.248C943.042 481.131 941.874 485.095 941.187 489.471C939.81 498.23 940.327 508.821 941.702 516.223L941.781 516.65L942.215 516.631L965.783 515.626L966.19 515.61L966.256 515.206C967.802 505.619 967.448 495.264 965.197 487.282C964.072 483.293 962.464 479.863 960.353 477.421C958.232 474.97 955.59 473.502 952.44 473.501ZM1108.38 507.663C1109.21 470.728 1101.89 464.657 1098.13 466.238C1091.1 467.502 1091.64 494.322 1093 508.364C1098.13 508.364 1108.38 508.224 1108.38 507.663ZM1150.43 504.653C1151.25 465.309 1143.25 458.149 1139.15 459.487C1129.3 459.487 1129.58 490.266 1130.94 505.656L1150.43 504.653ZM1184.33 458.483C1172.08 459.286 1172.34 487.59 1174.01 501.642H1196.63C1198.31 466.576 1189.13 458.258 1184.33 458.483ZM356.844 343.871C357.116 343.65 357.305 343.64 357.391 343.871H356.844Z" fill="white" fill-opacity="0.8"/>
<path d="M112.595 56C114.259 56.3355 116.787 57.5334 119.584 58.8584C125.404 61.616 132.386 64.9241 135.157 62.1533V118.56C136.525 120.266 138.438 124.296 135.157 126.764V173.947L336.166 298.04C337.875 299.066 341.089 302.347 340.269 307.27C339.585 308.637 337.192 311.372 333.09 311.372C342.32 319.918 362.216 339.678 367.959 350.344H393.598C392.23 346.583 392.572 339.472 404.879 341.113V359.573C408.297 361.283 414.724 370.65 413.083 394.442C413.083 395.126 411.442 396.493 404.879 396.493C419.92 415.295 450.823 454.539 454.105 461.104C458.208 460.762 467.028 460.283 469.489 461.104C469.831 461.787 470.31 464.591 469.489 470.334C473.592 469.992 482.411 469.514 484.872 470.334C485.898 470.676 487.949 473.206 487.949 480.59H502.307C504.358 480.932 508.46 484.897 508.46 498.024L509.485 533.919C524.527 540.756 553.159 555.519 554.61 557.507C555.336 558.5 555.185 559.108 555.336 559.5C555.336 562 554.105 563.66 554.105 563.66H536.15C536.113 563.691 527.325 570.848 524.869 574.941C553.927 587.248 613.478 613.092 619.221 618.015V654L717.336 742V1078.5C692.162 1111.55 712.932 1273.39 702.336 1274C667.863 1388.5 507.422 1338.17 413.083 1347.5C343.102 1354.42 245.702 1359.1 188.485 1363.91L0 1355V294.5L78.751 224.191L116.696 191.374C116.713 191.352 116.73 191.329 116.747 191.307C116.774 191.272 116.801 191.237 116.828 191.202L116.907 191.103C117.954 189.77 119.374 187.964 113.62 183.169C111.569 181.118 113.415 172.914 133.105 172.914V126.764C131.396 126.422 128.798 124.097 132.08 117.533L133.105 84.7158L111.569 76.5107C114.646 74.8013 120.799 70.7678 120.799 68.3066L112.595 56Z" fill="#F2F2F2" fill-opacity="0.8"/>
<path d="M1024.35 930.903V1146H1179.09V930.903C1179.09 930.903 1166.84 870.5 1102.34 870.5C1033.84 870.5 1024.35 930.903 1024.35 930.903Z" fill="#E7E7E7" fill-opacity="0.8"/>
<path d="M1024.35 1321.41V1525H1179.09V1321.41C1179.09 1321.41 1173.34 1251 1102.34 1251C1031.34 1251 1024.35 1321.41 1024.35 1321.41Z" fill="#E7E7E7" fill-opacity="0.8"/>
<path fill-rule="evenodd" clip-rule="evenodd" d="M770.937 1170.4L770.837 1313.5L803.837 1275C803.762 1270.38 803.648 1241.72 803.62 1236L775.35 1270.53L775.526 1168.06C776.038 1162.54 775.832 1156.31 776.122 1150.62C777.121 1131.05 781.085 1112.63 790.784 1105.66C789.879 1105.31 788.93 1105.37 787.937 1105.9C770.937 1114.9 769.77 1159.23 770.937 1170.4ZM803.837 1196.56C803.83 1197.87 803.822 1199.24 803.814 1200.66V1200.66C803.822 1199.24 803.83 1197.88 803.837 1196.56Z" fill="#E7E7E7" fill-opacity="0.8"/>
<path fill-rule="evenodd" clip-rule="evenodd" d="M511.337 1304.34L905.154 817C905.24 817.107 905.328 817.219 905.418 817.335C905.364 817.803 905.273 818.248 905.154 818.667C905.159 818.652 905.185 818.562 905.226 818.425C905.295 818.192 905.406 817.823 905.516 817.461C906.388 818.597 907.495 820.178 908.834 822.093C914.768 830.573 925.277 845.589 940.249 857.343L958.751 1976.48L511.337 1897.5V1304.34ZM905.516 817.461C905.73 816.754 905.942 816.076 905.837 816.5C908.878 813.096 914.817 812.71 926.793 818.692L950.341 857.343L963.797 1946.5H1338.34V756.518C1326.18 755.414 1273.55 760.279 1253.1 764.226V719.546C1263.87 710.136 1266.56 704.423 1266.56 702.742C1261.18 701.398 1225.07 702.182 1207.69 702.742C1203.65 705.431 1197.04 712.825 1194.23 716.186C1194.23 720.219 1202.08 722.347 1206.01 722.908V773.766C1118.23 788.272 977.298 793 909.973 793.488C896.517 793.488 894.274 800.21 894.835 803.57C896.18 808.948 901.002 810.292 903.245 810.292C905.19 812.884 905.651 815.319 905.418 817.335L905.475 817.408L905.516 817.461ZM1024.35 930.903V1146H1179.09V930.903C1179.09 930.903 1166.84 870.5 1102.34 870.5C1033.84 870.5 1024.35 930.903 1024.35 930.903ZM1024.35 1525V1321.41C1024.35 1321.41 1031.34 1251 1102.34 1251C1173.34 1251 1179.09 1321.41 1179.09 1321.41V1525H1024.35ZM841.337 1086V1205L874.362 1170.5C874.03 1150.03 874.116 1134.41 874.225 1114.45L874.237 1112.17L874.237 1112.15C874.289 1102.65 874.337 1093.76 874.337 1086C874.337 1040 869.837 1018 858.337 1021.5C844.645 1025.67 843.56 1046.93 842.432 1069.04C842.142 1074.73 841.849 1080.47 841.337 1086ZM770.837 1313.5L770.937 1170.4C769.77 1159.23 770.937 1114.9 787.937 1105.9C788.93 1105.37 789.879 1105.31 790.784 1105.66C792.044 1104.75 786.237 1108.6 787.811 1108.12C799.311 1104.62 803.811 1126.62 803.811 1172.62C803.811 1180.38 803.763 1189.27 803.712 1198.76L803.712 1198.78L803.699 1201.07C803.59 1221.02 803.505 1236.64 803.837 1257.12L803.62 1236C803.648 1241.72 803.762 1270.38 803.837 1275L770.837 1313.5Z" fill="#E7E7E7" fill-opacity="0.8"/>
<path d="M331.052 781.081H351.337V784H331.058L331.169 835.723L337.596 837.865V840.196L331.174 837.886L331.233 865.555C341.136 870.554 345.371 893.56 346.268 905.217L357.83 916.779L479.234 1035.29C523.171 1079.23 514.884 1128.75 505.249 1148.03V1228.96C512.186 1238.21 535.118 1257.87 545.717 1266.54C573.466 1285.04 568.842 1310.86 563.061 1321.46V1442.86C581.56 1447.49 613.164 1462.14 626.653 1468.88V1344.58C608.154 1326.09 622.799 1304.12 632.435 1295.45C639.259 1288.62 670.125 1256.01 685.829 1239.33V1170.3H678.684V1167.8H685.829V1148.66L686.838 1148.03H687.837L688.948 1148.66L688.907 1167.8H696.027V1170.3H688.902L688.754 1239.33C689.226 1239.88 689.777 1240.53 690.377 1241.24L690.381 1241.24L690.382 1241.24C692.478 1243.72 695.17 1246.9 697.197 1248.93C703.103 1254.83 711.972 1264.08 720.648 1273.12L720.652 1273.12C728.961 1281.79 737.092 1290.26 742.276 1295.45C763.088 1320.88 756.729 1338.8 750.948 1344.58V1468.88C757.886 1471.19 775.036 1475.62 782.744 1477.55C796.619 1484.49 805.869 1515.13 808.76 1529.58C838.822 1513.39 846.337 1551.74 846.337 1572.94V1974.73H0.5V1265.5C0.499862 1265.51 0.444815 1267.66 1.76367 1268.97L1.77344 1268.98C4.1407 1271.31 6.28466 1273.43 8.06934 1275.21C31.1939 1293.71 25.413 1315.68 19.6318 1324.35C10.3824 1331.29 13.8507 1336.88 16.7412 1338.8C23.6786 1338.8 25.4131 1340.73 25.4131 1341.69V1463.1C53.1626 1446.91 96.7145 1439.01 115.021 1437.08V1321.46C121.959 1309.9 144.891 1289.66 155.489 1280.99V1153.81C134.677 1105.24 158.38 1062.27 172.833 1046.86L311.58 905.217C313.64 878.442 321.203 868.024 326.917 865.385V836.354L320.252 833.956V832.084L326.917 834.306V784H307.979V781.081H326.917V754H330.993L331.052 781.081ZM687.658 1359C673.163 1359 671.521 1387.33 672.658 1410.5H704.158C704.158 1382.5 702.154 1359 687.658 1359ZM252.638 1226.23C254.084 1166.89 240.97 1155.59 232.534 1157.36C213.734 1164.42 216.264 1207.98 219.88 1228L252.638 1226.23ZM329.142 1147.77C305.641 1147.77 311.064 1197.22 312.872 1220.18H349.027C354.451 1174.26 347.219 1147.77 329.142 1147.77ZM434.182 1146C412.488 1145.99 411.284 1194.28 416.104 1220.18L457.684 1218.42C463.106 1184.85 455.176 1146.01 434.182 1146Z" fill="#D7D7D7"/>
<path d="M507.596 1600C509.26 1600.34 511.788 1601.53 514.585 1602.86C520.405 1605.62 527.387 1608.92 530.158 1606.15V1662.56C531.526 1664.27 533.44 1668.3 530.158 1670.76V1717.95L731.167 1842.04C732.876 1843.07 736.09 1846.35 735.27 1851.27C734.586 1852.64 732.193 1855.37 728.091 1855.37C737.321 1863.92 757.217 1883.68 762.96 1894.34H788.599C787.231 1890.58 787.573 1883.47 799.88 1885.11V1903.57C803.298 1905.28 809.725 1914.65 808.084 1938.44C808.084 1939.13 806.443 1940.49 799.88 1940.49C814.921 1959.29 845.824 1998.54 849.106 2005.1H216.337V1954.84L281.973 1951.77C284.366 1951.08 287.306 1947.87 279.922 1940.49C277.187 1938.43 272.333 1933.72 274.794 1931.26C275.136 1930.57 277.05 1929.82 281.973 1932.28C284.024 1931.94 286.28 1929.82 278.896 1924.08C277.529 1922.71 277.255 1919.97 287.101 1919.97C283.34 1916.21 281.563 1904.8 304.535 1889.21C305.219 1887.16 307.202 1883.05 309.663 1883.05C312.056 1883.05 318.073 1884.29 322.995 1889.21C324.021 1889.55 327.097 1890.23 331.199 1890.23C335.985 1888.52 349.864 1880.59 367.094 1862.54L473.752 1768.19L511.698 1735.37C511.715 1735.35 511.731 1735.33 511.748 1735.31C511.775 1735.27 511.802 1735.24 511.829 1735.2L511.908 1735.1C512.955 1733.77 514.375 1731.96 508.621 1727.17C506.57 1725.12 508.417 1716.91 528.106 1716.91V1670.76C526.397 1670.42 523.799 1668.1 527.081 1661.53L528.106 1628.72L506.57 1620.51C509.647 1618.8 515.8 1614.77 515.8 1612.31L507.596 1600Z" fill="#C4C4C4" fill-opacity="0.8"/>
<path fill-rule="evenodd" clip-rule="evenodd" d="M0 2026.02H1440V0H0V2026.02ZM93.66 1732.45L121.328 1757.54H147.738H176.664L184.21 1777.61L211.878 1801.45L239.546 1829.05H267.215L286.079 1875.46H326.324V1906.82H369.084L379.145 1929.4L399.267 1941.95L410.586 1929.4L431.966 1923.13L453.346 1906.82H497.363L514.97 1885.5L537.608 1861.66L564.018 1875.46H580.367H634.446H674.691H701.101L726.254 1861.66L743.861 1875.46H776.56L785.363 1861.66H806.743L877.171 1875.46L894.778 1895.53H950.114L1025.57 1906.82L1077.14 1923.13L1133.73 1906.82H1170.2L1215.48 1895.53V1861.66L1205.42 1807.72L1215.48 1731.2L1224.28 1665.96L1236.86 1623.31L1224.28 1554.31V1514.17L1236.86 1445.17L1215.48 1420.08L1224.28 1353.59V1336.03V1300.91L1245.66 1230.65L1256.98 1214.35L1280.87 1169.18L1285.9 1124.02L1280.87 1090.15L1303.51 1048.75V983.52L1311.06 960.939L1326.15 899.469L1311.06 837.999V775.274L1326.15 726.349L1319.86 700.005L1332.44 678.679L1341.24 628.499L1332.44 594.628L1341.24 577.065V530.649L1337.47 505.559L1326.15 491.76V461.652V430.29L1319.86 393.91L1314.83 385.128L1311.06 365.056V337.458L1319.86 322.404V303.586L1311.06 286.024L1307.28 263.443L1303.51 250.898L1307.28 189.428L1303.51 164.338V105.377L1297.22 97.8502H1287.16L1243.14 92.8322L1207.93 100.359H1173.97L1151.34 105.377L1123.67 89.0687L1118.64 99.1046L1096 100.359H1080.91L1069.59 96.5957L1049.47 97.8502H1034.38L1023.06 100.359V109.141H1011.74L1009.22 112.904L996.647 109.141H985.328L979.04 102.868H970.236L962.691 100.359L960.175 102.868H952.629H948.857L940.053 99.1046L928.734 94.0867H916.158L908.612 90.3232L899.809 86.5598L894.778 90.3232H887.232L875.913 84.0508H858.306L848.245 81.5418L841.957 84.0508L829.381 79.0328H823.092L815.547 68.9969L811.774 75.2693L802.97 72.7604L795.424 68.9969L790.394 72.7604L780.333 68.9969L769.014 62.7245L766.498 68.9969L752.664 66.4879L737.573 62.7245L726.254 66.4879L718.708 62.7245H711.162L708.647 66.4879L697.328 62.7245H692.298L689.782 68.9969H680.979L675.948 66.4879H662.114H657.084L641.992 71.5059L638.219 75.2693L628.158 76.5238L625.643 81.5418L615.581 79.0328L609.293 71.5059H604.263L600.49 75.2693H589.171L579.11 80.2873H567.791L561.503 71.5059L540.123 68.9969H522.516L511.197 71.5059L499.878 68.9969L483.529 65.2334V75.2693L475.983 82.7963L465.922 71.5059L458.376 65.2334L444.542 71.5059H429.45L418.132 65.2334H400.525L392.979 58.961L351.837 52.5L273.239 62.7245V81.5418L266.95 84.0508L259.404 96.5957V111.65V126.703H251.859V144.266V158.066L246.828 169.356V184.41V196.955L238.025 201.973V213.263V225.808V237.098V254.661V277.242L232.994 286.024V298.568V318.64V337.458V353.766L226.706 363.802V373.838L221.675 386.383L246.828 415L256.889 454.125V459.143L245.57 472.942V479.215V489.251L240.54 500.541V505.559V513.086L226.706 516.85V528.14L221.675 538.176L214.129 548.212L210.356 572.047L197.78 599.646V614.7L191.492 619.718L185.204 628.499L180.173 639.789L171.369 662.37L166.339 678.679V689.969L152.505 713.804L146.217 736.385L132.382 753.948V774.02L128.61 787.819L124.837 801.619V822.945L189.302 839.253L195.529 874.379L199.302 886.924L195.529 898.214L199.302 922.05L203.075 943.376L199.302 957.175V974.738L195.529 994.81V1007.35L199.302 1012.37L190.498 1039.97V1062.55V1087.64V1095.17L180.437 1127.79L176.664 1157.89V1204.31L171.634 1236.93L176.664 1269.54V1288.36V1304.67V1319.72L184.21 1324.74V1334.78L176.664 1347.32V1363.63L184.21 1368.65L176.664 1378.68V1383.7V1391.23V1398.76V1408.79L171.634 1415.06V1421.34L176.664 1426.35L171.634 1440.15V1451.44L176.664 1461.48V1490L166.603 1498.78L161.573 1505.39L151.511 1519.19L156.542 1525.46L151.511 1534.24L147.738 1545.53L141.45 1558.08L130.132 1578.15L112.525 1590.69V1609.51V1635.85L104.979 1653.42V1659.69L99.9482 1668.47L104.979 1679.76V1694.81L99.9482 1706.11V1719.9L93.66 1732.45Z" fill="black"/>
<defs>
<linearGradient id="paint0_linear_449_3087" x1="654.837" y1="-387" x2="908.337" y2="1957" gradientUnits="userSpaceOnUse">
<stop stop-color="#282828"/>
<stop offset="0.466834" stop-color="#F4F4F4"/>
<stop offset="0.498807" stop-color="#FAFAFA"/>
<stop offset="0.546762" stop-color="white"/>
<stop offset="0.622926" stop-color="#FCFCFC"/>
<stop offset="0.695744" stop-color="#EDEDED"/>
<stop offset="0.764377" stop-color="#E0E0E0"/>
<stop offset="1" stop-color="#737373"/>
</linearGradient>
</defs>
</svg>
