<svg width="1446" height="2028" viewBox="0 0 1446 2028" fill="none" xmlns="http://www.w3.org/2000/svg">
<path d="M5.33691 9H1445.34V1958H5.33691V9Z" fill="url(#paint0_linear_368_4442)"/>
<path d="M1153.1 179.957C1155.03 177.122 1157.32 173.754 1158.56 174.361C1158.91 175.364 1158.36 178.975 1153.44 185.394C1153.78 187.065 1155.69 189.807 1160.61 187.4C1163 183.388 1168.61 175.564 1171.88 176.366C1171.54 180.044 1168.61 188.403 1159.59 192.415C1159.25 195.759 1157.74 203.849 1154.46 209.466L1179.06 354.902C1183.5 378.973 1191.97 428.321 1190.33 433.136C1192.38 433.805 1197.71 436.346 1202.63 441.16H1219.02C1219.7 442.164 1220.87 447.781 1220.05 462.223C1221.41 463.56 1222.92 466.436 1218 467.238L1219.02 497.328C1223.12 499.334 1234.8 507.96 1248.74 526.415V546.476C1249.76 547.479 1250.79 550.287 1246.69 553.496V623.707C1251.81 629.391 1262.67 640.958 1265.13 641.761C1267.52 643.433 1270.05 647.98 1261.03 652.794V678.872H1284.6V1943.59L850.854 1953.5L723.972 1352.5V744.001L624.837 657.001C628.856 658.141 624.837 655.501 624.837 648.001C624.837 640.501 625.045 635.817 626.337 630.001C627.628 624.185 612.178 610.606 596.603 609.001C595.578 608.667 595.179 603.045 595.999 600.638C602.489 598.966 617.878 594.82 620.337 591.611V539.454C618.971 539.12 614.239 536.445 613.419 528.421C611.37 528.421 608.295 523.406 613.419 523.406C620.592 523.406 624.69 523.406 624.69 515.382C622.983 512.707 622.027 507.158 631.863 506.356C635.962 501.006 646.414 489.505 655.432 486.295C656.456 485.961 657.481 485.292 652.357 483.286C651.333 482.283 651.539 479.275 656.457 479.275V444.169C652.017 441.829 645.8 437.348 656.457 438.151C657.823 438.15 660.965 436.746 662.604 431.13C663.288 428.121 666.499 420.297 673.877 413.075C672.852 409.397 671.622 400.438 674.901 394.019L675.926 330.829C673.193 328.154 668.344 322.203 670.803 319.796C671.145 319.462 672.648 319.396 675.926 321.802C675.243 318.124 674.287 310.771 675.926 310.77C676.95 310.101 678.795 311.371 677.976 321.802C679 320.13 681.459 316.989 683.099 317.79C683.782 319.128 683.714 323.608 677.976 330.829L679 394.019C680.366 397.028 681.665 405.052 680.025 413.075C684.124 415.75 693.141 424.109 696.42 436.145C700.177 436.813 707.282 439.154 705.643 443.166L704.618 480.278C706.326 480.946 708.512 482.685 703.594 484.289C702.569 485.292 701.339 487.499 704.618 488.301C707.692 489.304 714.865 494.319 717.939 498.331C722.722 497.997 732.695 497.529 734.335 498.331V516.385C739.458 519.06 748.885 524.81 745.606 526.415C745.265 526.75 744.172 527.619 742.532 528.421C743.215 531.096 743.967 537.448 741.508 541.46V586.596C743.899 588.602 749.09 593.014 750.729 594.619C756.878 599.969 767.74 611.871 762.002 616.686C760.636 617.02 757.083 617.689 753.804 617.689V660.818L795.817 677.869V652.794C792.743 650.788 787.005 645.773 788.645 641.761C789.67 640.758 795.408 638.552 810.163 637.749V555.502C807.772 553.83 804.015 550.086 808.113 548.482V544.47C807.772 538.452 807.294 526.015 808.113 524.409H840.904C840.904 524.409 839.755 501.119 841.929 491.31C844.102 481.501 853.816 459.214 860.374 459.214C861.399 458.211 863.447 455.603 863.447 453.196C864.13 443.835 869.801 410.468 887.016 351.893L911.609 245.574C911.609 245.326 911.294 244.769 910.806 243.904L910.805 243.903C909.32 241.278 906.231 235.816 905.461 227.52C900.337 224.511 890.09 218.091 890.09 216.487C893.164 214.815 900.132 213.679 903.411 222.505C905.461 223.508 909.764 224.31 910.584 219.496C910.584 217.825 909.764 214.28 906.485 213.478C904.436 211.806 901.772 208.864 907.51 210.469C908.876 211.138 911.814 213.077 912.634 215.484C913.317 212.809 915.708 207.661 919.807 208.463C919.565 210.135 918.782 212.475 915.708 215.484C915.708 215.539 915.708 215.597 915.707 215.655L915.705 215.804L915.703 215.912L915.701 216.05L915.696 216.257C915.651 218.37 915.584 221.502 917.757 221.502C919.123 221.502 922.266 220.499 923.905 216.487C924.93 213.812 928.005 208.664 932.104 209.466C931.762 212.475 928.824 219.897 919.807 225.514C920.49 228.523 919.397 236.748 913.658 245.574L939.276 354.902C939.303 354.992 967.492 450.496 967.494 453.001C967.494 457.224 970.087 459.985 970.103 460.001C971.469 460.67 984.971 477.211 989.103 492.001C991.992 502.345 991.536 519.395 991.536 519.395C994.61 521.066 1001.58 526.015 1004.86 532.434C1004.86 531.433 1009.58 541.414 1009.6 541.46H1050.97C1049.95 532.433 1049.1 509.365 1053.02 509.364H1084.78V469.244C1083.1 467.502 1085.59 459.907 1088.6 455.001C1090.7 451.588 1092.53 450.069 1095.6 447.501C1099.29 444.424 1106.1 441.109 1106.1 441.109L1111.43 439.154C1111.43 429.123 1114.09 398.231 1124.75 354.902L1150.37 209.466C1148.66 207.46 1145.04 201.843 1144.22 195.424C1139.09 192.749 1128.64 186.598 1127.82 183.388C1129.19 182.051 1134.38 181.582 1144.22 190.408C1145.93 191.077 1149.34 191.211 1149.34 186.397C1145.93 183.722 1139.3 178.172 1140.12 177.369C1141.14 176.701 1144.83 176.769 1151.39 182.385C1151.89 181.733 1152.48 180.874 1153.1 179.96L1153.1 179.957ZM858.336 562.294C837.828 562.294 838.511 599.765 841.929 618.501L875.768 617.636C877.408 570.597 869.615 562.294 858.336 562.294ZM929.103 615.724C930.743 559.518 921.925 558.036 911.671 558.514C894.444 559.317 894.922 596.988 898.34 615.724H929.103ZM988.56 613.717C988.56 563.934 976.597 554.833 970.103 555.502C951.235 556.305 950.962 595.65 953.696 615.724C965.317 615.724 988.555 614.52 988.56 613.717ZM1102.22 545.528C1085.81 546.33 1083.76 588.017 1084.78 607.756L1121.7 605.749C1122.52 557.572 1109.05 545.528 1102.22 545.528ZM1149.39 541.513C1132.21 542.314 1131.6 584.437 1135 605.573L1166.82 603.741C1170.1 553.156 1157.59 541.179 1149.39 541.513ZM1193.48 538.501C1177.89 539.564 1177.41 583.441 1179.12 603.741L1211.94 601.735C1211.94 553.558 1203.73 538.501 1193.48 538.501ZM644.284 541.202C638.55 541.242 637.153 573.98 637.837 589.704L642.55 588.743H651.284C650.526 555.243 647.284 542.203 644.284 541.202ZM679.784 534.501C672.606 534.501 669.283 569.631 670.65 586.694C674.069 586.575 687.057 586.409 687.057 586.694C687.877 546.547 684.911 534.502 679.784 534.501ZM714.743 534.501C708.181 534.501 710.642 569.757 712.692 586.694H723.972C724.792 540.624 719.87 534.501 714.743 534.501ZM875.424 482.568C873.957 481.5 872.452 481.252 871.114 481.532L871.076 481.541L871.041 481.554C868.203 482.622 866.215 485.056 864.854 488.186C863.491 491.316 862.728 495.199 862.367 499.279C861.645 507.443 862.522 516.517 863.552 522.231L863.63 522.665L864.07 522.642L882.639 521.639L883.101 521.613L883.112 521.152C883.523 504.28 881.871 494.166 879.478 488.376C878.279 485.479 876.879 483.627 875.424 482.568ZM912.329 476.507C908.776 476.507 906.322 478.401 904.687 481.357C903.067 484.285 902.226 488.287 901.84 492.635C901.067 501.338 902.097 511.671 902.607 518.169L902.644 518.63H924.045L924.097 518.189C925.636 505.126 925.389 494.77 923.442 487.657C922.469 484.099 921.06 481.316 919.203 479.416C917.334 477.504 915.028 476.507 912.329 476.507ZM958.44 474.501C955.142 474.5 952.654 476.353 950.844 479.248C949.042 482.131 947.874 486.095 947.187 490.471C945.81 499.23 946.327 509.821 947.702 517.223L947.781 517.65L948.215 517.631L971.783 516.626L972.19 516.61L972.256 516.206C973.802 506.619 973.448 496.264 971.197 488.282C970.072 484.293 968.464 480.863 966.353 478.421C964.232 475.97 961.59 474.502 958.44 474.501ZM1114.38 508.663C1115.21 471.728 1107.89 465.657 1104.13 467.238C1097.1 468.502 1097.64 495.322 1099 509.364C1104.13 509.364 1114.38 509.224 1114.38 508.663ZM1156.43 505.653C1157.25 466.309 1149.25 459.149 1145.15 460.487C1135.3 460.487 1135.58 491.266 1136.94 506.656L1156.43 505.653ZM1190.33 459.483C1178.08 460.286 1178.34 488.59 1180.01 502.642H1202.63C1204.31 467.576 1195.13 459.258 1190.33 459.483ZM362.844 344.871C363.116 344.65 363.305 344.64 363.391 344.871H362.844Z" fill="white" fill-opacity="0.8"/>
<path d="M118.594 57C120.258 57.3355 122.787 58.5333 125.584 59.8584C131.404 62.616 138.385 65.924 141.156 63.1533V119.56C142.524 121.266 144.438 125.296 141.156 127.764V174.947L342.166 299.04C343.875 300.066 347.089 303.347 346.269 308.27C345.585 309.637 343.191 312.372 339.089 312.372C348.319 320.918 368.215 340.678 373.958 351.344H399.598C398.23 347.583 398.572 340.473 410.878 342.113V360.573C414.296 362.282 420.724 371.65 419.083 395.442C419.083 396.126 417.441 397.493 410.878 397.493C425.919 416.295 456.823 455.539 460.105 462.104C464.208 461.762 473.026 461.283 475.488 462.104C475.83 462.787 476.309 465.591 475.488 471.334C479.591 470.992 488.411 470.514 490.872 471.334C491.898 471.676 493.948 474.206 493.948 481.59H508.307C510.358 481.932 514.46 485.898 514.46 499.024L515.485 534.919C530.527 541.756 559.159 556.519 560.61 558.507C561.335 559.5 561.184 560.108 561.335 560.5C561.335 563 560.104 564.66 560.104 564.66H542.15C542.15 564.66 533.331 571.839 530.869 575.941C559.927 588.248 619.476 614.092 625.22 619.015V655L723.335 743V1079.5C698.161 1112.55 718.932 1274.39 708.335 1275C673.862 1389.5 513.422 1339.17 419.083 1348.5C349.102 1355.42 251.702 1360.1 194.485 1364.91L10.9102 1356.7L1.61719 420L1.11719 299.176L84.751 225.191L122.696 192.374C122.713 192.352 122.73 192.329 122.747 192.307C122.774 192.272 122.801 192.237 122.828 192.202L122.907 192.103C123.954 190.77 125.374 188.963 119.62 184.169C117.569 182.118 119.415 173.914 139.105 173.914V127.764C137.396 127.422 134.798 125.097 138.08 118.533L139.105 85.7158L117.568 77.5107C120.645 75.8015 126.799 71.768 126.799 69.3066L118.594 57Z" fill="#F2F2F2" fill-opacity="0.8"/>
<path d="M1030.35 931.903V1147H1185.09V931.903C1185.09 931.903 1172.84 871.5 1108.34 871.5C1039.84 871.5 1030.35 931.903 1030.35 931.903Z" fill="#E7E7E7" fill-opacity="0.8"/>
<path d="M1030.35 1322.41V1526H1185.09V1322.41C1185.09 1322.41 1179.34 1252 1108.34 1252C1037.34 1252 1030.35 1322.41 1030.35 1322.41Z" fill="#E7E7E7" fill-opacity="0.8"/>
<path fill-rule="evenodd" clip-rule="evenodd" d="M776.937 1171.4L776.837 1314.5L809.837 1276C809.762 1271.38 809.648 1242.72 809.62 1237L781.35 1271.53L781.526 1169.06C782.038 1163.54 781.832 1157.31 782.122 1151.62C783.121 1132.05 787.085 1113.63 796.784 1106.66C795.879 1106.31 794.93 1106.37 793.937 1106.9C776.937 1115.9 775.77 1160.23 776.937 1171.4ZM809.837 1197.56C809.83 1198.87 809.822 1200.24 809.814 1201.66V1201.66C809.822 1200.24 809.83 1198.88 809.837 1197.56Z" fill="#E7E7E7" fill-opacity="0.8"/>
<path fill-rule="evenodd" clip-rule="evenodd" d="M517.337 1305.34L911.154 818C911.24 818.107 911.328 818.219 911.418 818.335C911.364 818.803 911.273 819.248 911.154 819.667C911.159 819.652 911.185 819.562 911.226 819.425C911.295 819.192 911.406 818.823 911.516 818.461C912.388 819.597 913.495 821.178 914.834 823.093C920.768 831.573 931.277 846.589 946.249 858.343L964.751 1977.48L517.337 1898.5V1305.34ZM911.516 818.461C911.73 817.754 911.942 817.076 911.837 817.5C914.878 814.096 920.817 813.71 932.793 819.692L956.341 858.343L969.797 1947.5H1344.34V757.518C1332.18 756.414 1279.55 761.279 1259.1 765.226V720.546C1269.87 711.136 1272.56 705.423 1272.56 703.742C1267.18 702.398 1231.07 703.182 1213.69 703.742C1209.65 706.431 1203.04 713.825 1200.23 717.186C1200.23 721.219 1208.08 723.347 1212.01 723.908V774.766C1124.23 789.272 983.298 794 915.973 794.488C902.517 794.488 900.274 801.21 900.835 804.57C902.18 809.948 907.002 811.292 909.245 811.292C911.19 813.884 911.651 816.319 911.418 818.335L911.475 818.408L911.516 818.461ZM1030.35 931.903V1147H1185.09V931.903C1185.09 931.903 1172.84 871.5 1108.34 871.5C1039.84 871.5 1030.35 931.903 1030.35 931.903ZM1030.35 1526V1322.41C1030.35 1322.41 1037.34 1252 1108.34 1252C1179.34 1252 1185.09 1322.41 1185.09 1322.41V1526H1030.35ZM847.337 1087V1206L880.362 1171.5C880.03 1151.03 880.116 1135.41 880.225 1115.45L880.237 1113.17L880.237 1113.15C880.289 1103.65 880.337 1094.76 880.337 1087C880.337 1041 875.837 1019 864.337 1022.5C850.645 1026.67 849.56 1047.93 848.432 1070.04C848.142 1075.73 847.849 1081.47 847.337 1087ZM776.837 1314.5L776.937 1171.4C775.77 1160.23 776.937 1115.9 793.937 1106.9C794.93 1106.37 795.879 1106.31 796.784 1106.66C798.044 1105.75 792.237 1109.6 793.811 1109.12C805.311 1105.62 809.811 1127.62 809.811 1173.62C809.811 1181.38 809.763 1190.27 809.712 1199.76L809.712 1199.78L809.699 1202.07C809.59 1222.02 809.505 1237.64 809.837 1258.12L809.62 1237C809.648 1242.72 809.762 1271.38 809.837 1276L776.837 1314.5Z" fill="#E7E7E7" fill-opacity="0.8"/>
<path d="M337.052 782.081H357.337V785H337.058L337.169 836.723L343.596 838.865V841.196L337.173 838.886L337.232 866.555C347.135 871.553 351.37 894.559 352.267 906.217L363.829 917.779L485.233 1036.29C529.17 1080.23 520.884 1129.75 511.249 1149.03V1229.96C518.187 1239.21 541.118 1258.87 551.717 1267.54C579.466 1286.04 574.842 1311.86 569.061 1322.46V1443.86C587.56 1448.49 619.164 1463.14 632.653 1469.88V1345.58C614.154 1327.09 628.799 1305.12 638.435 1296.45C645.259 1289.62 676.126 1257.01 691.829 1240.33V1171.3H684.684V1168.8H691.829V1149.66L692.837 1149.03H693.837L694.948 1149.66L694.907 1168.8H702.027V1171.3H694.901L694.754 1240.33C695.226 1240.88 695.777 1241.53 696.377 1242.24L696.381 1242.24L696.382 1242.24C698.478 1244.72 701.17 1247.9 703.197 1249.93C709.103 1255.83 717.971 1265.08 726.647 1274.12L726.652 1274.12C734.961 1282.79 743.092 1291.26 748.276 1296.45C769.088 1321.88 762.729 1339.8 756.948 1345.58V1469.88C763.886 1472.19 781.036 1476.62 788.744 1478.55C802.619 1485.49 811.869 1516.13 814.76 1530.58C844.821 1514.39 852.337 1552.74 852.337 1573.94V1975.73H5.2832L3.61719 1265.87C5.05257 1267.29 6.44224 1268.66 7.7627 1269.97L7.77344 1269.98C10.1408 1272.31 12.2846 1274.43 14.0693 1276.21C37.1938 1294.71 31.4129 1316.68 25.6318 1325.35C16.382 1332.29 19.8506 1337.88 22.7412 1339.8C29.6786 1339.8 31.4131 1341.73 31.4131 1342.69V1464.1C59.1625 1447.91 102.713 1440.01 121.021 1438.08V1322.46C127.958 1310.9 150.89 1290.66 161.489 1281.99V1154.81C140.677 1106.25 164.379 1063.27 178.832 1047.86L317.58 906.217C319.64 879.442 327.202 869.024 332.916 866.385V837.354L326.252 834.956V833.084L332.916 835.306V785H313.979V782.081H332.916V755H336.993L337.052 782.081ZM693.658 1360C679.163 1360 677.521 1388.33 678.658 1411.5H710.158C710.158 1383.5 708.153 1360 693.658 1360ZM258.637 1227.23C260.083 1167.89 246.97 1156.59 238.534 1158.36C219.734 1165.42 222.263 1208.98 225.879 1229L258.637 1227.23ZM335.142 1148.77C311.641 1148.77 317.064 1198.22 318.872 1221.18H355.027C360.451 1175.26 353.219 1148.77 335.142 1148.77ZM440.182 1147C418.488 1146.99 417.284 1195.28 422.104 1221.18L463.683 1219.42C469.105 1185.86 461.176 1147.01 440.182 1147Z" fill="#D7D7D7"/>
<path d="M482.376 1601C484.04 1601.34 486.569 1602.53 489.365 1603.86C495.185 1606.62 502.168 1609.92 504.938 1607.15V1663.56C506.306 1665.27 508.22 1669.3 504.938 1671.76V1718.95L705.947 1843.04C707.231 1843.04 708.046 1844.08 708.581 1845.46C720.107 1856.06 746.826 1881.23 737.74 1895.34H763.379C762.011 1891.58 762.353 1884.47 774.66 1886.11V1904.57C778.079 1906.28 784.505 1915.65 782.864 1939.44C782.864 1940.13 781.224 1941.49 774.66 1941.49C789.701 1960.29 820.604 1999.54 823.887 2006.1H191.117V1955.84L256.753 1952.77C259.146 1952.08 262.086 1948.87 254.702 1941.49C251.967 1939.43 247.113 1934.72 249.574 1932.26C249.916 1931.57 251.83 1930.82 256.753 1933.28C258.804 1932.94 261.06 1930.82 253.677 1925.08C252.309 1923.71 252.035 1920.97 261.881 1920.97C258.12 1917.21 256.343 1905.8 279.315 1890.21C279.999 1888.16 281.982 1884.05 284.443 1884.05C286.837 1884.05 292.853 1885.29 297.775 1890.21C298.801 1890.55 301.878 1891.23 305.979 1891.23C310.765 1889.52 324.645 1881.59 341.874 1863.54L448.532 1769.19L486.478 1736.37C486.495 1736.35 486.511 1736.33 486.528 1736.31C486.555 1736.27 486.582 1736.24 486.609 1736.2L486.688 1736.1C487.736 1734.77 489.155 1732.96 483.401 1728.17C481.351 1726.12 483.197 1717.91 502.887 1717.91V1671.76C501.177 1671.42 498.58 1669.1 501.861 1662.53L502.887 1629.72L481.351 1621.51C484.427 1619.8 490.58 1615.77 490.58 1613.31L482.376 1601Z" fill="#C4C4C4" fill-opacity="0.8"/>
<path fill-rule="evenodd" clip-rule="evenodd" d="M6.03057 2027H1445.34V1H1L6.03057 2027ZM99.6602 1733.45L127.328 1758.54H153.739H182.665L190.21 1778.61L217.879 1802.45L245.547 1830.05H273.215L292.08 1876.46H332.324V1907.82H375.084L385.145 1930.4L405.267 1942.95L416.586 1930.4L437.966 1924.13L459.346 1907.82H503.363L520.97 1886.5L543.608 1862.66L570.018 1876.46H586.368H640.446H680.691H707.101L732.254 1862.66L749.861 1876.46H782.56L791.363 1862.66H812.743L883.171 1876.46L900.778 1896.53H956.115L1031.57 1907.82L1083.14 1924.13L1139.73 1907.82H1176.2L1221.48 1896.53V1862.66L1211.42 1808.72L1221.48 1732.2L1230.28 1666.96L1242.86 1624.31L1230.28 1555.31V1515.17L1242.86 1446.17L1221.48 1421.08L1230.28 1354.59V1337.03V1301.91L1251.66 1231.65L1262.98 1215.35L1286.87 1170.18L1291.9 1125.02L1286.87 1091.15L1309.51 1049.75V984.52L1317.06 961.939L1332.15 900.469L1317.06 838.999V776.274L1332.15 727.349L1325.86 701.005L1338.44 679.679L1347.24 629.499L1338.44 595.628L1347.24 578.065V531.649L1343.47 506.559L1332.15 492.76V462.652V431.29L1325.86 394.91L1320.83 386.128L1317.06 366.056V338.458L1325.86 323.404V304.586L1317.06 287.024L1313.28 264.443L1309.51 251.898L1313.28 190.428L1309.51 165.338V106.377L1303.22 98.8502H1293.16L1249.14 93.8322L1213.93 101.359H1179.97L1157.34 106.377L1129.67 90.0687L1124.64 100.105L1102 101.359H1086.91L1075.59 97.5957L1055.47 98.8502H1040.38L1029.06 101.359V110.141H1017.74L1015.22 113.904L1002.65 110.141H991.328L985.04 103.868H976.237L968.691 101.359L966.176 103.868H958.63H954.857L946.053 100.105L934.735 95.0867H922.158L914.612 91.3232L905.809 87.5598L900.778 91.3232H893.232L881.914 85.0508H864.307L854.245 82.5418L847.957 85.0508L835.381 80.0328H829.093L821.547 69.9969L817.774 76.2693L808.97 73.7604L801.425 69.9969L796.394 73.7604L786.333 69.9969L775.014 63.7245L772.499 69.9969L758.665 67.4879L743.573 63.7245L732.254 67.4879L724.708 63.7245H717.163L714.647 67.4879L703.328 63.7245H698.298L695.783 69.9969H686.979L681.949 67.4879H668.115H663.084L647.992 72.5059L644.219 76.2693L634.158 77.5238L631.643 82.5418L621.582 80.0328L615.294 72.5059H610.263L606.49 76.2693H595.171L585.11 81.2873H573.791L567.503 72.5059L546.123 69.9969H528.516L517.197 72.5059L505.879 69.9969L489.529 66.2334V76.2693L481.983 83.7963L471.922 72.5059L464.376 66.2334L450.542 72.5059H435.451L424.132 66.2334H406.525L398.979 59.961L357.837 53.5L279.239 63.7245V82.5418L272.951 85.0508L265.405 97.5957V112.65V127.703H257.859V145.266V159.066L252.828 170.356V185.41V197.955L244.025 202.973V214.263V226.808V238.098V255.661V278.242L238.994 287.024V299.568V319.64V338.458V354.766L232.706 364.802V374.838L227.676 387.383L252.828 416L262.889 455.125V460.143L251.571 473.942V480.215V490.251L246.54 501.541V506.559V514.086L232.706 517.85V529.14L227.676 539.176L220.13 549.212L216.357 573.047L203.78 600.646V615.7L197.492 620.718L191.204 629.499L186.173 640.789L177.37 663.37L172.339 679.679V690.969L158.505 714.804L152.217 737.385L138.383 754.948V775.02L134.61 788.819L130.837 802.619V823.945L195.302 840.253L201.529 875.379L205.302 887.924L201.529 899.214L205.302 923.05L209.075 944.376L205.302 958.175V975.738L201.529 995.81V1008.35L205.302 1013.37L196.499 1040.97V1063.55V1088.64V1096.17L186.437 1128.79L182.665 1158.89V1205.31L177.634 1237.93L182.665 1270.54V1289.36V1305.67V1320.72L190.21 1325.74V1335.78L182.665 1348.32V1364.63L190.21 1369.65L182.665 1379.68V1384.7V1392.23V1399.76V1409.79L177.634 1416.06V1422.34L182.665 1427.35L177.634 1441.15V1452.44L182.665 1462.48V1491L172.603 1499.78L167.573 1506.39L157.512 1520.19L162.542 1526.46L157.512 1535.24L153.739 1546.53L147.451 1559.08L136.132 1579.15L118.525 1591.69V1610.51V1636.85L110.979 1654.42V1660.69L105.948 1669.47L110.979 1680.76V1695.81L105.948 1707.11V1720.9L99.6602 1733.45Z" fill="black" stroke="black" stroke-width="1.26073"/>
<defs>
<linearGradient id="paint0_linear_368_4442" x1="660.837" y1="-386" x2="914.337" y2="1958" gradientUnits="userSpaceOnUse">
<stop stop-color="#282828"/>
<stop offset="0.466834" stop-color="#F4F4F4"/>
<stop offset="0.498807" stop-color="#FAFAFA"/>
<stop offset="0.546762" stop-color="white"/>
<stop offset="0.622926" stop-color="#FCFCFC"/>
<stop offset="0.695744" stop-color="#EDEDED"/>
<stop offset="0.764377" stop-color="#E0E0E0"/>
<stop offset="1" stop-color="#737373"/>
</linearGradient>
</defs>
</svg>
