<svg width="561" height="296" viewBox="0 0 561 296" fill="none" xmlns="http://www.w3.org/2000/svg">
<g filter="url(#filter0_nf_318_3620)">
<path fill-rule="evenodd" clip-rule="evenodd" d="M22.8185 43.7579H7.95021L6.76074 39.0001H57.6103L58.7998 43.7579H43.9315C42.9403 43.7579 42.1968 43.9562 41.7012 44.3526C41.3047 44.7491 41.1065 45.3439 41.1065 46.1368C41.1065 46.8307 41.1561 47.3759 41.2552 47.7724L65.1931 136.09C65.7879 138.766 67.5721 140.104 70.5457 140.104H75.4523C79.318 140.104 82.7377 138.667 85.7114 135.793C88.7842 132.918 90.3205 127.813 90.3205 120.478C90.3205 118.099 90.1719 115.72 89.8745 113.342C89.5771 110.963 89.2798 109.079 88.9824 107.692C88.7842 106.304 88.6355 105.412 88.5364 105.015H92.2534L101.62 144.862H33.001L24.013 129.001C24.9645 130.158 25.9541 131.232 26.9816 132.224C28.9641 134.108 31.4421 135.892 34.4158 137.577C37.4885 139.262 40.71 140.104 44.0802 140.104H48.9867C50.9691 140.104 51.9604 139.361 51.9604 137.874C51.9604 137.676 51.8612 137.081 51.663 136.09L27.725 47.7724C27.0312 45.0961 25.3957 43.7579 22.8185 43.7579Z" fill="black"/>
</g>
<g filter="url(#filter1_f_318_3620)">
<g filter="url(#filter2_f_318_3620)">
<g filter="url(#filter3_nf_318_3620)">
<path d="M336.703 172.758H348.003C350.679 172.758 352.364 174.096 353.058 176.772L376.996 265.09C377.194 265.883 377.293 266.478 377.293 266.874C377.293 268.361 376.252 269.104 374.171 269.104H362.871L364.209 273.862H411.936C418.875 273.862 424.822 272.227 429.778 268.956C434.734 265.685 438.501 261.125 441.078 255.277C443.655 249.528 444.944 242.887 444.944 235.353C444.944 227.523 443.507 219.593 440.632 211.564C437.757 203.535 433.743 196.349 428.589 190.005C423.236 183.364 417.041 178.011 410.003 173.947C403.065 169.982 395.284 168 386.66 168H335.513L336.703 172.758ZM388.147 172.758C401.033 172.758 411.589 180.093 419.816 194.763C423.087 200.611 425.714 207.698 427.697 216.025C429.679 224.45 430.67 233.222 430.67 242.341C430.67 250.271 428.936 256.714 425.466 261.67C422.096 266.626 416.496 269.104 408.665 269.104H395.581C392.905 269.104 391.22 267.766 390.526 265.09L366.588 176.772C366.39 175.979 366.291 175.434 366.291 175.137C366.291 173.551 367.331 172.758 369.413 172.758H388.147Z" fill="black"/>
</g>
<g filter="url(#filter4_nf_318_3620)">
<path d="M446.647 168.758H452.149C456.213 168.758 459.831 169.799 463.003 171.88C466.274 173.962 468.801 176.489 470.585 179.463L531.694 269.862H535.262V175.151C535.461 172.673 536.155 170.988 537.344 170.096C538.533 169.204 540.219 168.758 542.399 168.758H550.725L549.536 164H505.526L506.715 168.758H515.934C518.015 168.758 519.552 169.204 520.543 170.096C521.633 170.988 522.178 172.822 522.178 175.597V200.279H491.104L480.993 185.41C477.623 180.553 475.938 176.688 475.938 173.813C475.938 170.443 477.92 168.758 481.885 168.758H490.063L488.873 164H445.458L446.647 168.758ZM494.375 205.036H522.178V246.073L494.375 205.036Z" fill="black"/>
</g>
<g filter="url(#filter5_nf_318_3620)">
<path d="M110.647 118.758H116.149C120.213 118.758 123.831 119.799 127.003 121.88C130.274 123.962 132.801 126.489 134.585 129.463L195.694 219.862H199.262V125.151C199.461 122.673 200.155 120.988 201.344 120.096C202.533 119.204 204.219 118.758 206.399 118.758H214.725L213.536 114H169.526L170.715 118.758H179.934C182.015 118.758 183.552 119.204 184.543 120.096C185.633 120.988 186.178 122.822 186.178 125.597V150.279H155.104L144.993 135.41C141.623 130.553 139.938 126.688 139.938 123.813C139.938 120.443 141.92 118.758 145.885 118.758H154.063L152.873 114H109.458L110.647 118.758ZM158.375 155.036H186.178V196.073L158.375 155.036Z" fill="black"/>
</g>
<g filter="url(#filter6_nf_318_3620)">
<path d="M247.389 139.656H246.646L227.168 68.734C226.573 66.5534 226.276 64.4222 226.276 62.3407C226.276 57.2855 228.754 54.7579 233.71 54.7579H240.847L239.658 50H199.513L200.703 54.7579H207.839C211.011 54.7579 213.787 56.096 216.166 58.7723C218.644 61.4486 220.378 64.7692 221.37 68.734L242.631 147.09C242.829 147.883 242.929 148.428 242.929 148.725C242.929 150.311 241.888 151.104 239.806 151.104H226.871L228.06 155.862H255.121L286.195 69.1801L304.781 137.128C305.475 139.507 305.821 141.638 305.821 143.522C305.821 148.577 303.294 151.104 298.239 151.104H291.102L292.291 155.862H332.436L331.246 151.104H324.109C321.235 151.104 318.559 149.865 316.081 147.387C313.603 144.909 311.769 141.49 310.579 137.128L286.195 47.3237H280.248L247.389 139.656Z" fill="black"/>
</g>
</g>
</g>
<defs>
<filter id="filter0_nf_318_3620" x="0.760742" y="33" width="106.859" height="117.862" filterUnits="userSpaceOnUse" color-interpolation-filters="sRGB">
<feFlood flood-opacity="0" result="BackgroundImageFix"/>
<feBlend mode="normal" in="SourceGraphic" in2="BackgroundImageFix" result="shape"/>
<feTurbulence type="fractalNoise" baseFrequency="2.152230978012085 2.152230978012085" stitchTiles="stitch" numOctaves="3" result="noise" seed="8932" />
<feColorMatrix in="noise" type="luminanceToAlpha" result="alphaNoise" />
<feComponentTransfer in="alphaNoise" result="coloredNoise1">
<feFuncA type="discrete" tableValues="1 1 1 1 1 1 1 1 1 1 1 1 1 1 1 1 1 1 1 1 1 1 1 1 1 1 1 1 1 1 1 1 1 1 1 1 1 1 1 1 1 1 1 1 1 1 1 1 1 1 1 0 0 0 0 0 0 0 0 0 0 0 0 0 0 0 0 0 0 0 0 0 0 0 0 0 0 0 0 0 0 0 0 0 0 0 0 0 0 0 0 0 0 0 0 0 0 0 0 0 "/>
</feComponentTransfer>
<feComposite operator="in" in2="shape" in="coloredNoise1" result="noise1Clipped" />
<feFlood flood-color="rgba(201, 201, 201, 0.25)" result="color1Flood" />
<feComposite operator="in" in2="noise1Clipped" in="color1Flood" result="color1" />
<feMerge result="effect1_noise_318_3620">
<feMergeNode in="shape" />
<feMergeNode in="color1" />
</feMerge>
<feGaussianBlur stdDeviation="3" result="effect2_foregroundBlur_318_3620"/>
</filter>
<filter id="filter1_f_318_3620" x="101.458" y="39.3237" width="457.268" height="242.539" filterUnits="userSpaceOnUse" color-interpolation-filters="sRGB">
<feFlood flood-opacity="0" result="BackgroundImageFix"/>
<feBlend mode="normal" in="SourceGraphic" in2="BackgroundImageFix" result="shape"/>
<feGaussianBlur stdDeviation="4" result="effect1_foregroundBlur_318_3620"/>
</filter>
<filter id="filter2_f_318_3620" x="103.458" y="41.3237" width="453.268" height="238.539" filterUnits="userSpaceOnUse" color-interpolation-filters="sRGB">
<feFlood flood-opacity="0" result="BackgroundImageFix"/>
<feBlend mode="normal" in="SourceGraphic" in2="BackgroundImageFix" result="shape"/>
<feGaussianBlur stdDeviation="3" result="effect1_foregroundBlur_318_3620"/>
</filter>
<filter id="filter3_nf_318_3620" x="333.513" y="166" width="113.431" height="109.862" filterUnits="userSpaceOnUse" color-interpolation-filters="sRGB">
<feFlood flood-opacity="0" result="BackgroundImageFix"/>
<feBlend mode="normal" in="SourceGraphic" in2="BackgroundImageFix" result="shape"/>
<feTurbulence type="fractalNoise" baseFrequency="2.152230978012085 2.152230978012085" stitchTiles="stitch" numOctaves="3" result="noise" seed="8932" />
<feColorMatrix in="noise" type="luminanceToAlpha" result="alphaNoise" />
<feComponentTransfer in="alphaNoise" result="coloredNoise1">
<feFuncA type="discrete" tableValues="1 1 1 1 1 1 1 1 1 1 1 1 1 1 1 1 1 1 1 1 1 1 1 1 1 1 1 1 1 1 1 1 1 1 1 1 1 1 1 1 1 1 1 1 1 1 1 1 1 1 1 0 0 0 0 0 0 0 0 0 0 0 0 0 0 0 0 0 0 0 0 0 0 0 0 0 0 0 0 0 0 0 0 0 0 0 0 0 0 0 0 0 0 0 0 0 0 0 0 0 "/>
</feComponentTransfer>
<feComposite operator="in" in2="shape" in="coloredNoise1" result="noise1Clipped" />
<feFlood flood-color="rgba(201, 201, 201, 0.25)" result="color1Flood" />
<feComposite operator="in" in2="noise1Clipped" in="color1Flood" result="color1" />
<feMerge result="effect1_noise_318_3620">
<feMergeNode in="shape" />
<feMergeNode in="color1" />
</feMerge>
<feGaussianBlur stdDeviation="1" result="effect2_foregroundBlur_318_3620"/>
</filter>
<filter id="filter4_nf_318_3620" x="443.458" y="162" width="109.268" height="109.862" filterUnits="userSpaceOnUse" color-interpolation-filters="sRGB">
<feFlood flood-opacity="0" result="BackgroundImageFix"/>
<feBlend mode="normal" in="SourceGraphic" in2="BackgroundImageFix" result="shape"/>
<feTurbulence type="fractalNoise" baseFrequency="2.152230978012085 2.152230978012085" stitchTiles="stitch" numOctaves="3" result="noise" seed="8932" />
<feColorMatrix in="noise" type="luminanceToAlpha" result="alphaNoise" />
<feComponentTransfer in="alphaNoise" result="coloredNoise1">
<feFuncA type="discrete" tableValues="1 1 1 1 1 1 1 1 1 1 1 1 1 1 1 1 1 1 1 1 1 1 1 1 1 1 1 1 1 1 1 1 1 1 1 1 1 1 1 1 1 1 1 1 1 1 1 1 1 1 1 0 0 0 0 0 0 0 0 0 0 0 0 0 0 0 0 0 0 0 0 0 0 0 0 0 0 0 0 0 0 0 0 0 0 0 0 0 0 0 0 0 0 0 0 0 0 0 0 0 "/>
</feComponentTransfer>
<feComposite operator="in" in2="shape" in="coloredNoise1" result="noise1Clipped" />
<feFlood flood-color="rgba(201, 201, 201, 0.25)" result="color1Flood" />
<feComposite operator="in" in2="noise1Clipped" in="color1Flood" result="color1" />
<feMerge result="effect1_noise_318_3620">
<feMergeNode in="shape" />
<feMergeNode in="color1" />
</feMerge>
<feGaussianBlur stdDeviation="1" result="effect2_foregroundBlur_318_3620"/>
</filter>
<filter id="filter5_nf_318_3620" x="107.458" y="112" width="109.268" height="109.862" filterUnits="userSpaceOnUse" color-interpolation-filters="sRGB">
<feFlood flood-opacity="0" result="BackgroundImageFix"/>
<feBlend mode="normal" in="SourceGraphic" in2="BackgroundImageFix" result="shape"/>
<feTurbulence type="fractalNoise" baseFrequency="2.152230978012085 2.152230978012085" stitchTiles="stitch" numOctaves="3" result="noise" seed="8932" />
<feColorMatrix in="noise" type="luminanceToAlpha" result="alphaNoise" />
<feComponentTransfer in="alphaNoise" result="coloredNoise1">
<feFuncA type="discrete" tableValues="1 1 1 1 1 1 1 1 1 1 1 1 1 1 1 1 1 1 1 1 1 1 1 1 1 1 1 1 1 1 1 1 1 1 1 1 1 1 1 1 1 1 1 1 1 1 1 1 1 1 1 0 0 0 0 0 0 0 0 0 0 0 0 0 0 0 0 0 0 0 0 0 0 0 0 0 0 0 0 0 0 0 0 0 0 0 0 0 0 0 0 0 0 0 0 0 0 0 0 0 "/>
</feComponentTransfer>
<feComposite operator="in" in2="shape" in="coloredNoise1" result="noise1Clipped" />
<feFlood flood-color="rgba(201, 201, 201, 0.25)" result="color1Flood" />
<feComposite operator="in" in2="noise1Clipped" in="color1Flood" result="color1" />
<feMerge result="effect1_noise_318_3620">
<feMergeNode in="shape" />
<feMergeNode in="color1" />
</feMerge>
<feGaussianBlur stdDeviation="1" result="effect2_foregroundBlur_318_3620"/>
</filter>
<filter id="filter6_nf_318_3620" x="197.513" y="45.3237" width="136.923" height="112.539" filterUnits="userSpaceOnUse" color-interpolation-filters="sRGB">
<feFlood flood-opacity="0" result="BackgroundImageFix"/>
<feBlend mode="normal" in="SourceGraphic" in2="BackgroundImageFix" result="shape"/>
<feTurbulence type="fractalNoise" baseFrequency="2.152230978012085 2.152230978012085" stitchTiles="stitch" numOctaves="3" result="noise" seed="8932" />
<feColorMatrix in="noise" type="luminanceToAlpha" result="alphaNoise" />
<feComponentTransfer in="alphaNoise" result="coloredNoise1">
<feFuncA type="discrete" tableValues="1 1 1 1 1 1 1 1 1 1 1 1 1 1 1 1 1 1 1 1 1 1 1 1 1 1 1 1 1 1 1 1 1 1 1 1 1 1 1 1 1 1 1 1 1 1 1 1 1 1 1 0 0 0 0 0 0 0 0 0 0 0 0 0 0 0 0 0 0 0 0 0 0 0 0 0 0 0 0 0 0 0 0 0 0 0 0 0 0 0 0 0 0 0 0 0 0 0 0 0 "/>
</feComponentTransfer>
<feComposite operator="in" in2="shape" in="coloredNoise1" result="noise1Clipped" />
<feFlood flood-color="rgba(201, 201, 201, 0.25)" result="color1Flood" />
<feComposite operator="in" in2="noise1Clipped" in="color1Flood" result="color1" />
<feMerge result="effect1_noise_318_3620">
<feMergeNode in="shape" />
<feMergeNode in="color1" />
</feMerge>
<feGaussianBlur stdDeviation="1" result="effect2_foregroundBlur_318_3620"/>
</filter>
</defs>
</svg>
