<svg width="922" height="806" viewBox="0 0 922 806" fill="none" xmlns="http://www.w3.org/2000/svg">
<path d="M142.618 256.168C128.821 292.92 136.869 312.635 142.618 317.899C181.707 309.86 195.311 259.039 197.228 234.634C210.162 226.021 221.659 198.744 221.659 200.18C221.659 217.407 243.694 237.984 254.712 246.119L231.718 266.217C193.779 305.266 211.12 329.384 224.533 336.562C249.826 337.71 299.262 310.243 320.819 296.365L394.111 320.77C402.159 320.77 408.961 304.5 411.356 296.365C420.554 273.396 400.818 256.168 389.8 250.426C394.111 241.812 415.668 240.377 417.105 240.377C468.841 248.416 510.517 234.156 524.888 226.021C555.929 228.318 581.893 212.622 590.994 204.487C603.641 198.744 648 206.879 668.598 211.665C714.706 230.25 827.071 256.558 921.5 276.688V60.9266H908.595C872.954 52.8873 769.195 48.9633 721.771 48.0062H542.133C508.792 45.7093 442.015 28.8649 412.793 20.7298C341.513 0.057188 312.196 -1.2827 306.448 0.631429C287.765 9.24503 269.083 40.8282 267.646 40.8282C254.999 50.0161 206.808 100.166 184.294 124.093C154.115 194.437 142.618 257.604 142.618 256.168Z" fill="black"/>
<path d="M230.336 540.047C229.693 543.583 227.122 546.075 225.917 546.879L227.5 531.205L231.943 509.501L233.55 490.003C231.14 488.395 221 480.503 221 480.503L210 471.721V454.503C210 454.503 213.14 444.632 213.461 442.381C213.461 438.764 213.622 430.806 214.265 427.912C214.801 426.037 215.5 422.503 215.5 422.503C215.5 422.503 214.236 435.222 217.881 447.503C220.974 457.922 231.39 465.284 231.943 469.712C230.336 472.659 231.622 481.643 233.55 490.003L231.943 509.501L227.5 531.205L225.917 546.879C227.122 546.075 229.693 543.583 230.336 540.047C230.738 538.037 231.702 533.696 232.345 532.41C232.613 532.008 233.229 529.677 233.55 523.568C233.952 521.559 234.916 517.539 235.559 517.539C235.291 523.702 234.836 536.269 235.157 537.233C235.291 538.975 235.72 542.538 236.363 542.86C236.899 540.85 237.97 536.67 237.97 536.027V502.669C237.434 502.401 245.202 502.72 245.202 495.003C245.384 492.216 242.066 480.587 244.637 471.003C250.637 461.503 248 446.697 248 442.381C248 434.503 248.5 430.503 245.202 419.874C243.193 410.63 212 398.171 212 398.171C217.491 396.697 215 377.719 234.5 380.486C247.5 382.331 234.293 370.998 226 366.503C219.774 363.128 209.444 358.381 209.444 358.381C211.988 356.372 220.292 349.462 222.301 333.462C223.238 327.032 222.25 312.884 220 306.132C219.443 296.725 207.142 278.974 177.301 289.654C173.283 292.869 165.248 300.666 165.248 306.132C164.712 308.41 163.56 313.045 163.239 313.367C162.971 319.127 162.439 324.725 163.5 332.502C164.896 342.733 167.176 347.449 171.676 358.381C164.043 360.123 148.293 368.027 146.364 385.711C146.364 386.515 147.007 387.641 149.579 385.711C151.186 383.97 155.203 380.486 158.418 380.486C159.322 380.553 160.497 380.848 161.796 381.464L182 354.503L196 358.381L170.101 391.801C170.851 393.588 172.502 395.176 173 397.502C172.65 397.531 170.604 396.268 167.5 395.502L125 442.381C127.5 440.506 128.359 440.003 134 440.003C137.5 440.003 147.519 445.346 158.418 435.346C168.615 425.243 175.292 424.295 175.292 424.295C175.56 426.707 172.589 433.751 172.882 437.003C172.078 439.414 173.525 444.471 176.096 446.4C178.774 448.544 179.304 455.162 179.304 456.448C179.304 460.601 179.143 469.47 178.5 471.721C177.429 474.133 170 479.503 170 479.503L141.141 509.501C97.2608 545.615 7.6 649.629 0 767.128C5.66667 774.228 22.3 787.784 43.5 785.215C47.3333 782.952 60.3 768.572 77.5 774.003C88.1405 778.862 112.537 798.333 129 792.503C129.5 792.003 165.65 779.293 188.149 792.503C188.149 794.861 225.5 812.871 247 802.687C262.453 802.722 282 788.503 312.5 788.503C325.5 788.503 331.871 773.572 344.5 771.003C359.5 767.952 382 785.503 397 767.128C403.061 759.704 424.692 638.085 245.202 495.003C245.202 502.72 237.434 502.401 237.97 502.669V536.027C237.97 536.67 236.899 540.85 236.363 542.86C235.72 542.538 235.291 538.975 235.157 537.233C234.836 536.269 235.291 523.702 235.559 517.539C234.916 517.539 233.952 521.559 233.55 523.568C233.229 529.677 232.613 532.008 232.345 532.41C231.702 533.696 230.738 538.037 230.336 540.047Z" fill="black"/>
<path d="M111.833 434.003C110.51 437.537 110.167 440.4 112.833 443.4C115.5 446.4 120.019 446.118 125 442.381L167.5 395.502C163.711 394.567 155.387 390.151 149.594 389.403L111.833 434.003Z" fill="black"/>
<path d="M119.519 395.846C119.519 399.865 109.984 411.418 109.019 415.597C106.609 426.985 113.87 429.56 113.548 430.846C112.611 432.989 113.157 430.469 111.833 434.003L149.594 389.403C138.359 387.951 125.526 388.266 119.519 395.846Z" fill="black"/>
<path d="M196 358.381L182 354.503L161.796 381.464C164.8 382.886 167.583 385.805 170.101 391.801L196 358.381Z" fill="black"/>
<path d="M167.5 395.502L170.101 391.801C167.583 385.805 164.8 382.886 161.796 381.464C161.796 381.464 160 383.502 158.418 384.502C154.521 386.965 149.594 389.403 149.594 389.403C155.387 390.151 163.711 394.567 167.5 395.502Z" fill="black"/>
</svg>
