<svg width="389" height="405" viewBox="0 0 389 405" fill="none" xmlns="http://www.w3.org/2000/svg">
<path d="M33.2399 105.74H56.4599C64.4866 105.74 71.9399 108.32 78.8199 113.48C85.6999 118.927 92.5799 126.093 99.4599 134.98C118.953 159.92 135.723 190.45 149.77 226.57C164.103 262.69 178.15 306.837 191.91 359.01C192.77 362.45 193.2 365.603 193.2 368.47C193.2 383.09 186.893 390.4 174.28 390.4H141.6L145.04 404.16H388.42L384.98 390.4H352.3C348.287 390.4 345.133 389.397 342.84 387.39C340.547 385.67 338.827 382.804 337.68 378.79L269.74 128.96C268.88 125.52 268.45 122.51 268.45 119.93C268.45 110.47 274.47 105.74 286.51 105.74H329.5L301.12 0.82016H287.49C288.063 3.11349 289.067 7.98682 290.5 15.4402C291.933 22.6068 293.5 33.5533 293.5 39C293.5 52.76 293.247 59.4435 291.24 68.3301C289.52 76.9301 285.363 84.0968 278.77 89.8301C272.463 95.2768 262.717 98.0002 249.53 98.0002H113.65C94.7299 98.0002 77.3866 91.1201 61.6199 77.3601C52.1599 69.0468 43.8466 59.3001 36.6799 48.1201C29.2266 36.6535 25.3 26.1901 21 16.7301C16.4133 6.98347 14.12 1.68016 14.12 0.82016H0.5L33.2399 105.74ZM214.7 111.76C222.44 111.76 227.313 115.63 229.32 123.37L298.98 378.79C299.553 381.083 299.84 382.517 299.84 383.09C299.84 387.963 296.543 390.4 289.95 390.4H252.11C236.63 390.4 225.163 385.527 217.71 375.78C210.543 366.034 205.527 355.714 202.66 344.82C189.187 296.087 177.003 257.53 166.11 229.15C155.503 200.77 141.027 171.1 122.68 140.14C119.527 134.694 117.377 130.537 116.23 127.67C115.083 125.09 114.51 122.223 114.51 119.07C114.51 114.197 118.667 111.76 126.98 111.76H214.7Z" fill="black"/>
</svg>
